<?xml version="1.0" encoding="iso-8859-1"?>
<!-- Generator: Adobe Illustrator 16.0.0, SVG Export Plug-In . SVG Version: 6.00 Build 0)  -->
<!DOCTYPE svg PUBLIC "-//W3C//DTD SVG 1.0//EN" "http://www.w3.org/TR/2001/REC-SVG-20010904/DTD/svg10.dtd">
<svg version="1.0" id="Calque_1" xmlns="http://www.w3.org/2000/svg" xmlns:xlink="http://www.w3.org/1999/xlink" x="0px" y="0px"
	 width="100px" height="100px" viewBox="0 0 100 100" enable-background="new 0 0 100 100" xml:space="preserve">
<g>
	<linearGradient id="SVGID_1_" gradientUnits="userSpaceOnUse" x1="50" y1="99.6357" x2="50" y2="0.6362">
		<stop  offset="0" style="stop-color:#FF4B5A"/>
		<stop  offset="0.1432" style="stop-color:#FF4B5A"/>
		<stop  offset="0.1575" style="stop-color:#FF4B5A"/>
		<stop  offset="0.2312" style="stop-color:#FF4F5E"/>
		<stop  offset="0.312" style="stop-color:#FF5D6A"/>
		<stop  offset="0.3964" style="stop-color:#FF737E"/>
		<stop  offset="0.4831" style="stop-color:#FF919B"/>
		<stop  offset="0.5716" style="stop-color:#FFB9BF"/>
		<stop  offset="0.6604" style="stop-color:#FFE9EB"/>
		<stop  offset="0.6977" style="stop-color:#FFFFFF"/>
		<stop  offset="1" style="stop-color:#FFFFFF"/>
	</linearGradient>
	<circle fill-rule="evenodd" clip-rule="evenodd" fill="url(#SVGID_1_)" cx="50" cy="50" r="49.5"/>
	<path fill="#3D3838" d="M50,2.5c26.191,0,47.5,21.309,47.5,47.5S76.191,97.5,50,97.5S2.5,76.191,2.5,50S23.809,2.5,50,2.5 M50,0.5
		C22.662,0.5,0.5,22.662,0.5,50S22.662,99.5,50,99.5c27.337,0,49.5-22.162,49.5-49.5S77.337,0.5,50,0.5L50,0.5z"/>
</g>
<g>
	<path fill="#FFFFFF" d="M50,5.5c24.537,0,44.5,19.963,44.5,44.5S74.537,94.5,50,94.5S5.5,74.537,5.5,50S25.463,5.5,50,5.5 M50,0.5
		C22.662,0.5,0.5,22.662,0.5,50S22.662,99.5,50,99.5c27.337,0,49.5-22.162,49.5-49.5S77.337,0.5,50,0.5L50,0.5z"/>
	<path fill="#3D3838" d="M50,2.5c26.191,0,47.5,21.309,47.5,47.5S76.191,97.5,50,97.5S2.5,76.191,2.5,50S23.809,2.5,50,2.5 M50,0.5
		C22.662,0.5,0.5,22.662,0.5,50S22.662,99.5,50,99.5c27.337,0,49.5-22.162,49.5-49.5S77.337,0.5,50,0.5L50,0.5z"/>
</g>
<g>
	<g>
		<linearGradient id="SVGID_2_" gradientUnits="userSpaceOnUse" x1="52.2803" y1="50.082" x2="52.3963" y2="20.6577">
			<stop  offset="0" style="stop-color:#0070D0;stop-opacity:0.9989"/>
			<stop  offset="0.1731" style="stop-color:#0271D0;stop-opacity:0.9992"/>
			<stop  offset="0.2631" style="stop-color:#0A76D2;stop-opacity:0.9993"/>
			<stop  offset="0.334" style="stop-color:#187DD4;stop-opacity:0.9995"/>
			<stop  offset="0.3949" style="stop-color:#2B88D8;stop-opacity:0.9996"/>
			<stop  offset="0.4494" style="stop-color:#4396DC;stop-opacity:0.9997"/>
			<stop  offset="0.4993" style="stop-color:#62A7E2;stop-opacity:0.9997"/>
			<stop  offset="0.5458" style="stop-color:#86BBE9;stop-opacity:0.9998"/>
			<stop  offset="0.5895" style="stop-color:#B0D3F0;stop-opacity:0.9999"/>
			<stop  offset="0.6294" style="stop-color:#DEEDF9;stop-opacity:1"/>
			<stop  offset="0.6542" style="stop-color:#FFFFFF"/>
			<stop  offset="1" style="stop-color:#FFFFFF;stop-opacity:0"/>
		</linearGradient>
		<path fill-rule="evenodd" clip-rule="evenodd" fill="url(#SVGID_2_)" d="M41.696,16.738c0.109-0.774,0.842-1.274,1.639-1.152
			c1.141,0.173,2.241,0.481,3.292,0.962c1.429,0.656,2.654,1.587,3.733,2.727c0.216,0.229,0.446,0.451,0.705,0.712
			c0.332-0.344,0.655-0.682,0.981-1.017c1.762-1.803,3.883-2.918,6.373-3.331c0.903-0.15,1.814-0.168,2.732-0.103
			c0.915,0.065,1.814,0.234,2.676,0.537c4.069,1.438,6.634,4.272,7.642,8.466c0.517,2.161,0.342,4.311-0.398,6.41
			c-0.033,0.084-0.058,0.169-0.098,0.282c0.687,0,1.343,0,1.996,0c0.785,0,1.396,0.583,1.399,1.34
			c0.003,0.79-0.58,1.372-1.388,1.374c-1.104,0.002-2.216-0.002-3.32,0.004c-0.098,0.001-0.22,0.044-0.283,0.11
			c-0.85,0.891-1.674,1.808-2.542,2.683c-3.163,3.197-6.34,6.38-9.512,9.568c-1.732,1.743-3.466,3.485-5.203,5.226
			c-0.713,0.713-1.446,0.709-2.168-0.009c-1.153-1.159-2.306-2.319-3.462-3.478c-3.418-3.438-6.84-6.873-10.259-10.31
			c-1.003-1.011-2.002-2.03-2.997-3.05c-0.17-0.175-0.322-0.367-0.463-0.565c-0.098-0.141-0.377-0.184-0.377-0.184
			s-1.596-3.646-1.702-4.115c-0.778-3.387-0.222-6.533,1.741-9.418c0.327-0.482,0.778-0.717,1.352-0.649 M41.696,16.738
			l-7.911,3.021"/>
		<path fill-rule="evenodd" clip-rule="evenodd" fill="#3D3838" d="M51.065,19.986c0.332-0.344,0.655-0.682,0.981-1.017
			c1.762-1.803,3.883-2.918,6.373-3.331c0.903-0.15,1.814-0.168,2.732-0.103c0.915,0.065,1.814,0.234,2.676,0.537
			c4.069,1.438,6.634,4.272,7.642,8.466c0.517,2.161,0.342,4.311-0.398,6.41c-0.033,0.084-0.058,0.169-0.098,0.282
			c0.687,0,1.343,0,1.996,0c0.785,0,1.396,0.583,1.399,1.34c0.003,0.79-0.58,1.372-1.388,1.374c-1.104,0.002-2.216-0.002-3.32,0.004
			c-0.098,0.001-0.22,0.044-0.283,0.11c-0.85,0.891-1.674,1.808-2.542,2.683c-3.163,3.197-6.34,6.38-9.512,9.568
			c-1.732,1.743-3.466,3.485-5.203,5.226c-0.713,0.713-1.446,0.709-2.168-0.009c-1.153-1.159-2.306-2.319-3.462-3.478
			c-3.418-3.438-6.84-6.873-10.259-10.31c-1.003-1.011-2.002-2.03-2.997-3.05c-0.17-0.175-0.322-0.367-0.463-0.565
			c-0.098-0.141-0.207-0.184-0.377-0.184c-1.803,0.006-3.606,0.007-5.41,0.002c-1.032-0.003-1.678-1.065-1.201-1.979
			c0.25-0.479,0.667-0.728,1.204-0.731c1.275-0.009,2.55-0.002,3.828-0.002c0.089,0,0.181,0,0.287,0
			c-0.143-0.479-0.304-0.936-0.41-1.404c-0.778-3.387-0.222-6.533,1.741-9.418c0.327-0.482,0.778-0.717,1.352-0.649
			c0.582,0.069,0.958,0.418,1.125,0.977c0.118,0.398,0.055,0.788-0.185,1.125c-0.844,1.184-1.379,2.49-1.572,3.926
			c-0.251,1.863,0.028,3.642,0.9,5.317c0.038,0.071,0.186,0.12,0.283,0.12c1.803,0.007,3.607,0.007,5.412,0.007
			c0.756,0,1.511-0.011,2.265,0.003c0.174,0.003,0.25-0.06,0.325-0.202c0.649-1.249,1.305-2.494,1.959-3.739
			c0.389-0.733,1.174-1.004,1.873-0.643c0.317,0.167,0.537,0.424,0.656,0.765c0.296,0.844,0.59,1.69,0.893,2.532
			c0.723,2.009,1.451,4.015,2.176,6.021c0.009,0.027,0.021,0.053,0.055,0.128c0.254-0.771,0.492-1.489,0.73-2.209
			c0.639-1.938,1.276-3.877,1.915-5.814c0.195-0.592,0.663-0.961,1.232-0.979c0.643-0.019,1.116,0.293,1.362,0.912
			c0.532,1.356,1.067,2.714,1.599,4.069c0.016,0.046,0.04,0.087,0.058,0.13c0.02-0.008,0.03-0.008,0.031-0.012
			c0.345-0.786,0.973-0.98,1.776-0.974c3.022,0.026,6.043,0.01,9.061,0.016c0.191,0,0.303-0.046,0.386-0.228
			c1.433-3.104,1.271-6.113-0.627-8.961c-1.415-2.125-3.444-3.387-5.975-3.739c-2.828-0.393-5.302,0.436-7.369,2.421
			c-0.692,0.662-1.353,1.35-2.029,2.03c-0.654,0.661-1.485,0.642-2.148-0.023c-0.833-0.839-1.646-1.702-2.532-2.482
			c-1.278-1.127-2.795-1.762-4.489-1.967c-0.804-0.098-1.341-0.766-1.233-1.546c0.109-0.774,0.842-1.274,1.639-1.152
			c1.141,0.173,2.241,0.481,3.292,0.962c1.429,0.656,2.654,1.587,3.733,2.727C50.576,19.504,50.807,19.726,51.065,19.986z
			 M51.039,48.77c4.919-4.937,9.818-9.858,14.749-14.809c-0.089-0.011-0.112-0.014-0.136-0.014c-2.117,0-4.229,0.003-6.342-0.006
			c-0.213-0.001-0.308,0.071-0.398,0.25c-0.323,0.653-0.66,1.3-0.992,1.946c-0.276,0.53-0.708,0.805-1.304,0.771
			c-0.592-0.035-0.993-0.358-1.212-0.909c-0.277-0.709-0.556-1.42-0.831-2.128c-0.181-0.458-0.363-0.914-0.553-1.389
			c-0.024,0.043-0.036,0.056-0.04,0.068c-0.856,2.591-1.705,5.185-2.568,7.771c-0.094,0.291-0.191,0.608-0.38,0.836
			c-0.697,0.848-1.987,0.545-2.347-0.485c-1.021-2.906-2.074-5.803-3.115-8.7c-0.083-0.234-0.17-0.47-0.27-0.743
			c-0.366,0.692-0.698,1.34-1.045,1.98c-0.265,0.492-0.687,0.736-1.25,0.736c-1.889-0.002-3.776-0.002-5.666-0.003
			c-0.329,0-0.658,0-1.047,0C41.239,38.916,46.133,43.837,51.039,48.77z"/>
		<path fill-rule="evenodd" clip-rule="evenodd" fill="#3D3838" d="M36.396,17.695c0.007-0.748,0.599-1.335,1.349-1.328
			c0.768,0.007,1.371,0.598,1.37,1.345c-0.002,0.756-0.627,1.375-1.381,1.37C36.997,19.077,36.391,18.448,36.396,17.695z"/>
		<path display="none" fill-rule="evenodd" clip-rule="evenodd" fill="#FFA6C1" d="M51.039,48.77
			c-4.906-4.933-9.8-9.854-14.746-14.826c0.389,0,0.718,0,1.047,0c1.89,0,3.777,0,5.666,0.003c0.563,0,0.984-0.244,1.25-0.736
			c0.347-0.641,0.679-1.289,1.045-1.98c0.099,0.272,0.187,0.509,0.27,0.743c1.041,2.897,2.094,5.794,3.115,8.7
			c0.36,1.03,1.65,1.333,2.347,0.485c0.188-0.228,0.286-0.545,0.38-0.836c0.863-2.587,1.712-5.181,2.568-7.771
			c0.004-0.012,0.016-0.025,0.04-0.068c0.189,0.476,0.372,0.931,0.553,1.389c0.275,0.708,0.554,1.418,0.831,2.128
			c0.219,0.551,0.62,0.874,1.212,0.909c0.596,0.034,1.027-0.241,1.304-0.771c0.332-0.646,0.669-1.293,0.992-1.946
			c0.091-0.179,0.186-0.251,0.398-0.25c2.112,0.009,4.225,0.006,6.342,0.006c0.023,0,0.047,0.003,0.136,0.014
			C60.857,38.911,55.958,43.833,51.039,48.77z"/>
	</g>
	<g>
		<path fill-rule="evenodd" clip-rule="evenodd" fill="#3D3838" d="M60.828,61.523c0-0.704,0-1.385,0-2.061
			c0-2.031-0.009-4.062,0.001-6.091c0.005-1.457,1.212-2.665,2.661-2.667c1.383-0.002,2.769-0.018,4.153,0.014
			c0.381,0.008,0.763,0.148,1.137,0.261c0.127,0.039,0.212,0.046,0.341,0.001c0.342-0.112,0.688-0.254,1.039-0.261
			c1.439-0.029,2.885-0.03,4.328-0.011c1.465,0.024,2.588,1.235,2.598,2.778c0.01,1.688,0.003,3.377,0.003,5.061
			c0,0.079,0,0.165,0,0.27c0.151,0,0.283,0,0.415,0c0.732,0,1.46,0,2.192,0c1.629,0.002,2.806,1.183,2.804,2.815
			c-0.003,2.651-0.002,5.301-0.005,7.953c-0.003,1.434-0.927,2.521-2.329,2.753c-0.124,0.022-0.251,0.024-0.376,0.024
			c-0.89,0.003-1.777,0.002-2.701,0.002c0,0.098,0,0.188,0,0.273c-0.005,1.74-0.002,3.477-0.016,5.211
			c-0.011,1.391-1.146,2.592-2.536,2.629c-1.448,0.032-2.9,0.025-4.354-0.004c-0.358-0.01-0.707-0.172-1.065-0.254
			c-0.099-0.024-0.225-0.043-0.315-0.003c-0.396,0.175-0.802,0.274-1.238,0.274c-1.317-0.001-2.637,0.007-3.954,0
			c-1.686-0.008-2.858-1.271-2.776-2.953c0.027-0.601-0.006-1.207-0.006-1.81c-0.001-1.92,0-3.847,0-5.767c0-0.089,0-0.184,0-0.297
			c-7.218,0-14.419,0-21.641,0c-0.006,0.079-0.018,0.15-0.018,0.223c0,2.617,0.002,5.234,0.003,7.854
			c0,1.498-1.113,2.697-2.61,2.737c-1.443,0.032-2.886,0.019-4.33-0.013c-0.339-0.007-0.679-0.147-1.012-0.257
			c-0.126-0.037-0.217-0.064-0.344,0c-0.387,0.207-0.804,0.282-1.239,0.282c-1.317-0.001-2.635,0.005-3.952-0.003
			c-1.604-0.01-2.768-1.186-2.771-2.79c-0.005-1.681-0.001-3.358-0.002-5.036c0-0.091,0-0.182,0-0.3
			c-0.505,0-0.99,0.003-1.475-0.001c-0.551-0.006-1.114,0.037-1.656-0.044c-1.347-0.206-2.267-1.293-2.276-2.66
			c-0.012-2.105-0.002-4.211-0.002-6.314c0-0.592,0.001-1.177-0.002-1.762c-0.011-1.535,1.192-2.755,2.729-2.766
			c0.88-0.001,1.761,0,2.682,0c0-0.096,0-0.182,0-0.271c0-1.653,0.002-3.307-0.001-4.959c-0.002-1.212,0.501-2.124,1.613-2.645
			c0.315-0.145,0.691-0.22,1.042-0.226c1.392-0.026,2.786-0.029,4.178,0.002c0.381,0.008,0.762,0.155,1.137,0.263
			c0.115,0.031,0.198,0.068,0.32,0.004c0.367-0.197,0.764-0.284,1.185-0.282c1.36,0.004,2.719,0.002,4.079,0.002
			c1.514,0.001,2.707,1.193,2.708,2.718c0.001,2.601,0.001,5.201,0.001,7.803c0,0.094,0,0.183,0,0.298
			C46.391,61.523,53.594,61.523,60.828,61.523z M74.358,77.77c0-8.126,0-16.229,0-24.336c-1.358,0-2.695,0-4.037,0
			c0,8.124,0,16.228,0,24.336C71.674,77.77,73.005,77.77,74.358,77.77z M29.684,77.771c0-8.116,0-16.223,0-24.336
			c-1.354,0-2.691,0-4.037,0c0,8.122,0,16.225,0,24.336C26.995,77.771,28.327,77.771,29.684,77.771z M36.443,77.78
			c0-8.132,0-16.236,0-24.347c-1.347,0-2.675,0-4.032,0c0,8.113,0,16.221,0,24.347C33.769,77.78,35.099,77.78,36.443,77.78z
			 M67.576,77.778c0-8.118,0-16.225,0-24.335c-1.351,0-2.686,0-4.032,0c0,8.12,0,16.217,0,24.335
			C64.896,77.778,66.227,77.778,67.576,77.778z M39.18,66.92c7.228,0,14.429,0,21.628,0c0-0.9,0-1.777,0-2.658
			c-7.215,0-14.419,0-21.628,0C39.18,65.156,39.18,66.028,39.18,66.92z M20.223,69.628c0.907,0,1.791,0,2.678,0
			c0-2.702,0-5.382,0-8.081c-0.897,0-1.781,0-2.678,0C20.223,64.247,20.223,66.926,20.223,69.628z M77.095,61.537
			c0,2.705,0,5.395,0,8.095c0.902,0,1.786,0,2.679,0c0-2.706,0-5.39,0-8.095C78.872,61.537,77.986,61.537,77.095,61.537z"/>
		<g>
			<linearGradient id="SVGID_3_" gradientUnits="userSpaceOnUse" x1="72.3398" y1="77.7695" x2="72.3398" y2="53.4336">
				<stop  offset="0" style="stop-color:#979293;stop-opacity:0.9989"/>
				<stop  offset="0.2623" style="stop-color:#999495;stop-opacity:0.9993"/>
				<stop  offset="0.4042" style="stop-color:#A19C9D;stop-opacity:0.9995"/>
				<stop  offset="0.5172" style="stop-color:#AEAAAB;stop-opacity:0.9996"/>
				<stop  offset="0.6151" style="stop-color:#C0BDBE;stop-opacity:0.9997"/>
				<stop  offset="0.7032" style="stop-color:#D8D6D7;stop-opacity:0.9999"/>
				<stop  offset="0.783" style="stop-color:#F5F5F5;stop-opacity:1"/>
				<stop  offset="0.8059" style="stop-color:#FFFFFF"/>
				<stop  offset="1" style="stop-color:#979293;stop-opacity:0.9989"/>
			</linearGradient>
			<path fill-rule="evenodd" clip-rule="evenodd" fill="url(#SVGID_3_)" d="M74.358,77.77c-1.354,0-2.685,0-4.037,0
				c0-8.108,0-16.212,0-24.336c1.342,0,2.679,0,4.037,0C74.358,61.541,74.358,69.644,74.358,77.77z"/>
			<linearGradient id="SVGID_4_" gradientUnits="userSpaceOnUse" x1="27.6655" y1="77.7715" x2="27.6655" y2="53.4355">
				<stop  offset="0" style="stop-color:#979293;stop-opacity:0.9989"/>
				<stop  offset="0.2623" style="stop-color:#999495;stop-opacity:0.9993"/>
				<stop  offset="0.4042" style="stop-color:#A19C9D;stop-opacity:0.9995"/>
				<stop  offset="0.5172" style="stop-color:#AEAAAB;stop-opacity:0.9996"/>
				<stop  offset="0.6151" style="stop-color:#C0BDBE;stop-opacity:0.9997"/>
				<stop  offset="0.7032" style="stop-color:#D8D6D7;stop-opacity:0.9999"/>
				<stop  offset="0.783" style="stop-color:#F5F5F5;stop-opacity:1"/>
				<stop  offset="0.8059" style="stop-color:#FFFFFF"/>
				<stop  offset="1" style="stop-color:#979293;stop-opacity:0.9989"/>
			</linearGradient>
			<path fill-rule="evenodd" clip-rule="evenodd" fill="url(#SVGID_4_)" d="M29.684,77.771c-1.357,0-2.689,0-4.037,0
				c0-8.111,0-16.214,0-24.336c1.345,0,2.683,0,4.037,0C29.684,61.549,29.684,69.655,29.684,77.771z"/>
			<linearGradient id="SVGID_5_" gradientUnits="userSpaceOnUse" x1="34.4272" y1="77.7803" x2="34.4272" y2="53.4336">
				<stop  offset="0" style="stop-color:#979293;stop-opacity:0.9989"/>
				<stop  offset="0.2623" style="stop-color:#999495;stop-opacity:0.9993"/>
				<stop  offset="0.4042" style="stop-color:#A19C9D;stop-opacity:0.9995"/>
				<stop  offset="0.5172" style="stop-color:#AEAAAB;stop-opacity:0.9996"/>
				<stop  offset="0.6151" style="stop-color:#C0BDBE;stop-opacity:0.9997"/>
				<stop  offset="0.7032" style="stop-color:#D8D6D7;stop-opacity:0.9999"/>
				<stop  offset="0.783" style="stop-color:#F5F5F5;stop-opacity:1"/>
				<stop  offset="0.8059" style="stop-color:#FFFFFF"/>
				<stop  offset="1" style="stop-color:#979293;stop-opacity:0.9989"/>
			</linearGradient>
			<path fill-rule="evenodd" clip-rule="evenodd" fill="url(#SVGID_5_)" d="M36.443,77.78c-1.344,0-2.674,0-4.032,0
				c0-8.126,0-16.233,0-24.347c1.357,0,2.685,0,4.032,0C36.443,61.544,36.443,69.648,36.443,77.78z"/>
			<linearGradient id="SVGID_6_" gradientUnits="userSpaceOnUse" x1="65.5605" y1="77.7783" x2="65.5605" y2="53.4434">
				<stop  offset="0" style="stop-color:#979293;stop-opacity:0.9989"/>
				<stop  offset="0.2623" style="stop-color:#999495;stop-opacity:0.9993"/>
				<stop  offset="0.4042" style="stop-color:#A19C9D;stop-opacity:0.9995"/>
				<stop  offset="0.5172" style="stop-color:#AEAAAB;stop-opacity:0.9996"/>
				<stop  offset="0.6151" style="stop-color:#C0BDBE;stop-opacity:0.9997"/>
				<stop  offset="0.7032" style="stop-color:#D8D6D7;stop-opacity:0.9999"/>
				<stop  offset="0.783" style="stop-color:#F5F5F5;stop-opacity:1"/>
				<stop  offset="0.8059" style="stop-color:#FFFFFF"/>
				<stop  offset="1" style="stop-color:#979293;stop-opacity:0.9989"/>
			</linearGradient>
			<path fill-rule="evenodd" clip-rule="evenodd" fill="url(#SVGID_6_)" d="M67.576,77.778c-1.35,0-2.68,0-4.032,0
				c0-8.118,0-16.215,0-24.335c1.347,0,2.682,0,4.032,0C67.576,61.554,67.576,69.66,67.576,77.778z"/>
			<linearGradient id="SVGID_7_" gradientUnits="userSpaceOnUse" x1="49.9946" y1="66.9199" x2="49.9946" y2="64.2617">
				<stop  offset="0" style="stop-color:#979293;stop-opacity:0.9989"/>
				<stop  offset="0.2623" style="stop-color:#999495;stop-opacity:0.9993"/>
				<stop  offset="0.4042" style="stop-color:#A19C9D;stop-opacity:0.9995"/>
				<stop  offset="0.5172" style="stop-color:#AEAAAB;stop-opacity:0.9996"/>
				<stop  offset="0.6151" style="stop-color:#C0BDBE;stop-opacity:0.9997"/>
				<stop  offset="0.7032" style="stop-color:#D8D6D7;stop-opacity:0.9999"/>
				<stop  offset="0.783" style="stop-color:#F5F5F5;stop-opacity:1"/>
				<stop  offset="0.8059" style="stop-color:#FFFFFF"/>
				<stop  offset="1" style="stop-color:#979293;stop-opacity:0.9989"/>
			</linearGradient>
			<path fill-rule="evenodd" clip-rule="evenodd" fill="url(#SVGID_7_)" d="M39.18,66.92c0-0.892,0-1.764,0-2.658
				c7.209,0,14.414,0,21.628,0c0,0.881,0,1.758,0,2.658C53.609,66.92,46.408,66.92,39.18,66.92z"/>
			<linearGradient id="SVGID_8_" gradientUnits="userSpaceOnUse" x1="21.5615" y1="69.6279" x2="21.5615" y2="61.5469">
				<stop  offset="0" style="stop-color:#979293;stop-opacity:0.9989"/>
				<stop  offset="0.2623" style="stop-color:#999495;stop-opacity:0.9993"/>
				<stop  offset="0.4042" style="stop-color:#A19C9D;stop-opacity:0.9995"/>
				<stop  offset="0.5172" style="stop-color:#AEAAAB;stop-opacity:0.9996"/>
				<stop  offset="0.6151" style="stop-color:#C0BDBE;stop-opacity:0.9997"/>
				<stop  offset="0.7032" style="stop-color:#D8D6D7;stop-opacity:0.9999"/>
				<stop  offset="0.783" style="stop-color:#F5F5F5;stop-opacity:1"/>
				<stop  offset="0.8059" style="stop-color:#FFFFFF"/>
				<stop  offset="1" style="stop-color:#979293;stop-opacity:0.9989"/>
			</linearGradient>
			<path fill-rule="evenodd" clip-rule="evenodd" fill="url(#SVGID_8_)" d="M20.223,69.628c0-2.702,0-5.381,0-8.081
				c0.897,0,1.781,0,2.678,0c0,2.699,0,5.379,0,8.081C22.014,69.628,21.13,69.628,20.223,69.628z"/>
			<linearGradient id="SVGID_9_" gradientUnits="userSpaceOnUse" x1="78.4336" y1="69.6318" x2="78.4336" y2="61.5371">
				<stop  offset="0" style="stop-color:#979293;stop-opacity:0.9989"/>
				<stop  offset="0.2623" style="stop-color:#999495;stop-opacity:0.9993"/>
				<stop  offset="0.4042" style="stop-color:#A19C9D;stop-opacity:0.9995"/>
				<stop  offset="0.5172" style="stop-color:#AEAAAB;stop-opacity:0.9996"/>
				<stop  offset="0.6151" style="stop-color:#C0BDBE;stop-opacity:0.9997"/>
				<stop  offset="0.7032" style="stop-color:#D8D6D7;stop-opacity:0.9999"/>
				<stop  offset="0.783" style="stop-color:#F5F5F5;stop-opacity:1"/>
				<stop  offset="0.8059" style="stop-color:#FFFFFF"/>
				<stop  offset="1" style="stop-color:#979293;stop-opacity:0.9989"/>
			</linearGradient>
			<path fill-rule="evenodd" clip-rule="evenodd" fill="url(#SVGID_9_)" d="M77.095,61.537c0.892,0,1.777,0,2.679,0
				c0,2.705,0,5.389,0,8.095c-0.893,0-1.776,0-2.679,0C77.095,66.932,77.095,64.242,77.095,61.537z"/>
		</g>
	</g>
</g>
</svg>
