<?xml version="1.0" encoding="utf-8"?>
<!-- Generator: Adobe Illustrator 16.0.0, SVG Export Plug-In . SVG Version: 6.00 Build 0)  -->
<!DOCTYPE svg PUBLIC "-//W3C//DTD SVG 1.1//EN" "http://www.w3.org/Graphics/SVG/1.1/DTD/svg11.dtd">
<svg version="1.1" id="Calque_1" xmlns="http://www.w3.org/2000/svg" xmlns:xlink="http://www.w3.org/1999/xlink" x="0px" y="0px"
	 width="100px" height="100px" viewBox="0 0 100 100" enable-background="new 0 0 100 100" xml:space="preserve">
<g>
	
		<linearGradient id="SVGID_1_" gradientUnits="userSpaceOnUse" x1="-152.3403" y1="84.917" x2="-152.3403" y2="174.917" gradientTransform="matrix(1 0 0 -1 202.3398 180.0391)">
		<stop  offset="0" style="stop-color:#FF4B5A"/>
		<stop  offset="0.1432" style="stop-color:#FF4B5A"/>
		<stop  offset="0.1575" style="stop-color:#FF4B5A"/>
		<stop  offset="0.2312" style="stop-color:#FF4F5E"/>
		<stop  offset="0.312" style="stop-color:#FF5D6A"/>
		<stop  offset="0.3964" style="stop-color:#FF737E"/>
		<stop  offset="0.4831" style="stop-color:#FF919B"/>
		<stop  offset="0.5716" style="stop-color:#FFB9BF"/>
		<stop  offset="0.6604" style="stop-color:#FFE9EB"/>
		<stop  offset="0.6977" style="stop-color:#FFFFFF"/>
		<stop  offset="1" style="stop-color:#FFFFFF"/>
	</linearGradient>
	<circle fill="url(#SVGID_1_)" cx="50" cy="50" r="45"/>
	<path fill="#3D3838" d="M50,6.818C73.811,6.818,93.182,26.19,93.182,50c0,23.811-19.371,43.182-43.182,43.182
		C26.19,93.182,6.818,73.811,6.818,50C6.818,26.19,26.19,6.818,50,6.818 M50,5C25.147,5,5,25.147,5,50s20.147,45,45,45
		c24.852,0,45-20.147,45-45S74.852,5,50,5L50,5z"/>
</g>
<g>
	<path fill="#FFFFFF" d="M50,9.545c22.307,0,40.454,18.148,40.454,40.455S72.307,90.454,50,90.454S9.545,72.307,9.545,50
		S27.693,9.545,50,9.545 M50,5C25.147,5,5,25.147,5,50s20.147,45,45,45c24.852,0,45-20.147,45-45S74.852,5,50,5L50,5z"/>
	<path fill="#3D3838" d="M50,6.818C73.811,6.818,93.182,26.19,93.182,50c0,23.811-19.371,43.182-43.182,43.182
		C26.19,93.182,6.818,73.811,6.818,50C6.818,26.19,26.19,6.818,50,6.818 M50,5C25.147,5,5,25.147,5,50s20.147,45,45,45
		c24.852,0,45-20.147,45-45S74.852,5,50,5L50,5z"/>
</g>
<g>
	<g>
		
			<linearGradient id="SVGID_2_" gradientUnits="userSpaceOnUse" x1="-150.2651" y1="129.9658" x2="-150.1597" y2="156.7148" gradientTransform="matrix(1 0 0 -1 202.3398 180.0391)">
			<stop  offset="0" style="stop-color:#0070D0;stop-opacity:0.9989"/>
			<stop  offset="0.1731" style="stop-color:#0271D0;stop-opacity:0.9992"/>
			<stop  offset="0.2631" style="stop-color:#0A76D2;stop-opacity:0.9993"/>
			<stop  offset="0.334" style="stop-color:#187DD4;stop-opacity:0.9995"/>
			<stop  offset="0.3949" style="stop-color:#2B88D8;stop-opacity:0.9996"/>
			<stop  offset="0.4494" style="stop-color:#4396DC;stop-opacity:0.9997"/>
			<stop  offset="0.4993" style="stop-color:#62A7E2;stop-opacity:0.9997"/>
			<stop  offset="0.5458" style="stop-color:#86BBE9;stop-opacity:0.9998"/>
			<stop  offset="0.5895" style="stop-color:#B0D3F0;stop-opacity:0.9999"/>
			<stop  offset="0.6294" style="stop-color:#DEEDF9"/>
			<stop  offset="0.6542" style="stop-color:#FFFFFF"/>
			<stop  offset="1" style="stop-color:#FFFFFF;stop-opacity:0"/>
		</linearGradient>
		<path fill="url(#SVGID_2_)" d="M42.451,19.762c0.1-0.704,0.766-1.158,1.49-1.047c1.037,0.157,2.038,0.438,2.993,0.875
			c1.299,0.597,2.413,1.443,3.394,2.479c0.196,0.208,0.406,0.41,0.641,0.647c0.302-0.313,0.597-0.62,0.893-0.925
			c1.602-1.639,3.53-2.652,5.793-3.028c0.821-0.136,1.648-0.152,2.483-0.093c0.833,0.059,1.649,0.212,2.434,0.488
			c3.699,1.307,6.03,3.883,6.946,7.696c0.471,1.965,0.312,3.919-0.361,5.828c-0.029,0.076-0.052,0.153-0.089,0.256
			c0.625,0,1.222,0,1.814,0c0.714,0,1.27,0.53,1.272,1.218c0.002,0.718-0.527,1.248-1.262,1.249
			c-1.004,0.002-2.016-0.001-3.019,0.004c-0.089,0.001-0.201,0.04-0.258,0.1c-0.772,0.81-1.521,1.644-2.311,2.439
			c-2.876,2.906-5.764,5.8-8.647,8.698c-1.574,1.584-3.15,3.168-4.729,4.751c-0.648,0.648-1.315,0.645-1.971-0.008
			c-1.048-1.054-2.097-2.109-3.147-3.163c-3.107-3.125-6.218-6.248-9.326-9.372c-0.912-0.919-1.82-1.846-2.725-2.773
			c-0.155-0.159-0.293-0.333-0.421-0.514c-0.089-0.128-0.343-0.167-0.343-0.167s-1.451-3.314-1.547-3.741
			c-0.707-3.079-0.202-5.939,1.583-8.562c0.297-0.439,0.707-0.652,1.229-0.59 M42.451,19.762l-7.191,2.746"/>
		<path fill="#3D3838" d="M50.968,22.714c0.302-0.313,0.597-0.62,0.893-0.925c1.602-1.639,3.53-2.652,5.793-3.027
			c0.821-0.137,1.648-0.153,2.483-0.094c0.833,0.059,1.649,0.212,2.434,0.488c3.699,1.307,6.03,3.883,6.946,7.696
			c0.471,1.964,0.312,3.919-0.361,5.827c-0.029,0.076-0.052,0.154-0.089,0.256c0.625,0,1.222,0,1.814,0
			c0.714,0,1.27,0.53,1.272,1.218c0.002,0.718-0.527,1.248-1.262,1.249c-1.004,0.002-2.016-0.001-3.019,0.004
			c-0.089,0-0.201,0.04-0.258,0.1c-0.772,0.81-1.521,1.644-2.311,2.439c-2.876,2.906-5.764,5.8-8.647,8.698
			c-1.574,1.584-3.15,3.168-4.729,4.751c-0.648,0.648-1.315,0.645-1.971-0.009c-1.048-1.053-2.097-2.107-3.147-3.162
			c-3.107-3.125-6.218-6.248-9.326-9.373c-0.912-0.919-1.82-1.845-2.725-2.772c-0.155-0.159-0.293-0.334-0.421-0.514
			c-0.089-0.128-0.188-0.167-0.343-0.167c-1.639,0.005-3.278,0.006-4.918,0.002c-0.938-0.003-1.525-0.968-1.091-1.799
			c0.227-0.435,0.606-0.662,1.094-0.665c1.159-0.008,2.318-0.001,3.48-0.001c0.081,0,0.165,0,0.261,0
			c-0.13-0.436-0.276-0.851-0.373-1.276c-0.707-3.079-0.202-5.939,1.583-8.562c0.297-0.439,0.707-0.652,1.229-0.59
			c0.529,0.063,0.871,0.38,1.022,0.888c0.107,0.362,0.05,0.716-0.168,1.022c-0.768,1.077-1.253,2.264-1.429,3.569
			c-0.229,1.693,0.025,3.311,0.818,4.833c0.034,0.064,0.168,0.109,0.257,0.109c1.64,0.006,3.279,0.006,4.92,0.006
			c0.687,0,1.373-0.01,2.059,0.002c0.158,0.003,0.227-0.055,0.295-0.183c0.59-1.136,1.187-2.268,1.781-3.399
			c0.354-0.667,1.067-0.913,1.703-0.584c0.288,0.151,0.488,0.386,0.597,0.695c0.269,0.767,0.536,1.536,0.812,2.302
			c0.657,1.827,1.319,3.65,1.979,5.474c0.008,0.025,0.019,0.048,0.05,0.116c0.231-0.701,0.447-1.354,0.664-2.008
			c0.58-1.761,1.16-3.524,1.741-5.285c0.177-0.539,0.603-0.874,1.12-0.891c0.585-0.017,1.015,0.266,1.238,0.829
			c0.482,1.233,0.97,2.467,1.453,3.699c0.016,0.042,0.036,0.079,0.053,0.118c0.019-0.007,0.027-0.007,0.028-0.011
			c0.314-0.714,0.884-0.891,1.614-0.886c2.747,0.024,5.493,0.009,8.237,0.015c0.173,0,0.276-0.042,0.351-0.208
			c1.304-2.822,1.156-5.557-0.57-8.146c-1.285-1.932-3.13-3.079-5.431-3.399c-2.571-0.357-4.821,0.396-6.699,2.201
			c-0.629,0.602-1.23,1.228-1.845,1.845c-0.596,0.601-1.35,0.584-1.953-0.021c-0.757-0.762-1.497-1.547-2.302-2.256
			c-1.162-1.025-2.541-1.602-4.081-1.788c-0.731-0.089-1.219-0.697-1.121-1.405c0.099-0.704,0.765-1.159,1.49-1.048
			c1.037,0.157,2.037,0.438,2.993,0.875c1.299,0.597,2.413,1.443,3.394,2.479C50.523,22.276,50.733,22.478,50.968,22.714z
			 M50.944,48.882c4.472-4.488,8.926-8.962,13.408-13.463c-0.08-0.01-0.102-0.012-0.123-0.012c-1.925,0-3.845,0.002-5.766-0.006
			c-0.193-0.001-0.28,0.065-0.362,0.227c-0.294,0.594-0.6,1.182-0.901,1.77c-0.251,0.481-0.644,0.731-1.186,0.701
			c-0.539-0.032-0.902-0.326-1.102-0.826c-0.252-0.645-0.506-1.291-0.756-1.935c-0.164-0.417-0.33-0.831-0.503-1.263
			c-0.021,0.039-0.032,0.051-0.036,0.062c-0.778,2.355-1.55,4.714-2.334,7.064c-0.086,0.265-0.175,0.553-0.346,0.76
			c-0.634,0.771-1.807,0.496-2.134-0.441c-0.928-2.642-1.886-5.275-2.832-7.909c-0.076-0.213-0.155-0.427-0.246-0.675
			c-0.333,0.629-0.634,1.218-0.95,1.8c-0.241,0.448-0.625,0.669-1.137,0.669c-1.717-0.001-3.433-0.001-5.151-0.002
			c-0.299,0-0.598,0-0.952,0C42.035,39.924,46.484,44.397,50.944,48.882z"/>
		<path fill="#3D3838" d="M37.633,20.632c0.006-0.68,0.544-1.214,1.227-1.207c0.698,0.006,1.246,0.543,1.246,1.222
			c-0.002,0.688-0.571,1.25-1.256,1.246C38.179,21.888,37.628,21.316,37.633,20.632z"/>
		<path display="none" fill="#FFA6C1" d="M50.944,48.882c-4.46-4.485-8.909-8.958-13.405-13.479c0.354,0,0.653,0,0.952,0
			c1.718,0,3.434,0,5.151,0.003c0.512,0,0.895-0.222,1.136-0.669c0.316-0.583,0.618-1.172,0.95-1.8
			c0.09,0.248,0.17,0.463,0.246,0.676c0.946,2.634,1.904,5.267,2.832,7.909c0.327,0.937,1.5,1.212,2.134,0.441
			c0.17-0.208,0.259-0.496,0.345-0.76c0.784-2.353,1.557-4.71,2.334-7.065c0.004-0.011,0.016-0.023,0.038-0.062
			c0.171,0.433,0.337,0.847,0.502,1.263c0.251,0.644,0.504,1.289,0.755,1.934c0.199,0.501,0.564,0.795,1.103,0.827
			c0.542,0.031,0.934-0.219,1.186-0.701c0.302-0.587,0.607-1.176,0.901-1.77c0.083-0.163,0.17-0.228,0.361-0.227
			c1.921,0.008,3.842,0.005,5.766,0.005c0.021,0,0.043,0.003,0.124,0.013C59.87,39.919,55.416,44.394,50.944,48.882z"/>
	</g>
	<g>
		<path fill="#3D3838" d="M59.844,60.476c0-0.641,0-1.259,0-1.874c0-1.846-0.009-3.692,0.001-5.537
			c0.004-1.324,1.102-2.423,2.419-2.425c1.257-0.001,2.517-0.017,3.775,0.013c0.346,0.008,0.694,0.135,1.033,0.237
			c0.116,0.035,0.193,0.043,0.311,0.002c0.311-0.103,0.625-0.231,0.944-0.238c1.309-0.026,2.623-0.026,3.935-0.01
			c1.332,0.022,2.353,1.123,2.362,2.525c0.009,1.534,0.002,3.07,0.002,4.601c0,0.072,0,0.15,0,0.245c0.138,0,0.258,0,0.378,0
			c0.665,0,1.327,0,1.992,0c1.481,0.002,2.551,1.076,2.55,2.56c-0.003,2.41-0.002,4.82-0.005,7.23
			c-0.003,1.304-0.843,2.291-2.117,2.503c-0.113,0.02-0.229,0.021-0.342,0.021c-0.809,0.004-1.615,0.003-2.456,0.003
			c0,0.089,0,0.171,0,0.248c-0.004,1.582-0.002,3.161-0.014,4.737c-0.01,1.265-1.043,2.355-2.306,2.39
			c-1.316,0.029-2.637,0.023-3.958-0.004c-0.326-0.009-0.643-0.156-0.969-0.23c-0.09-0.021-0.205-0.039-0.286-0.003
			c-0.36,0.159-0.729,0.25-1.126,0.25c-1.197-0.001-2.397,0.006-3.594,0c-1.533-0.008-2.599-1.156-2.524-2.685
			c0.024-0.547-0.005-1.098-0.005-1.646c-0.001-1.745,0-3.497,0-5.242c0-0.081,0-0.168,0-0.27c-6.562,0-13.108,0-19.674,0
			c-0.005,0.071-0.017,0.136-0.017,0.202c0,2.379,0.002,4.759,0.003,7.141c0,1.361-1.012,2.452-2.373,2.487
			c-1.312,0.029-2.624,0.018-3.937-0.012c-0.308-0.006-0.617-0.134-0.92-0.233c-0.114-0.034-0.197-0.059-0.313,0
			c-0.352,0.188-0.73,0.257-1.126,0.257c-1.198-0.001-2.396,0.004-3.593-0.003c-1.458-0.009-2.517-1.079-2.519-2.537
			c-0.004-1.527-0.001-3.053-0.002-4.577c0-0.084,0-0.166,0-0.273c-0.459,0-0.9,0.003-1.341,0c-0.501-0.006-1.013,0.033-1.505-0.041
			c-1.225-0.187-2.061-1.176-2.069-2.419c-0.011-1.913-0.002-3.828-0.002-5.739c0-0.538,0.001-1.069-0.001-1.602
			c-0.01-1.396,1.083-2.504,2.48-2.515c0.8,0,1.602,0,2.438,0c0-0.087,0-0.165,0-0.246c0-1.503,0.002-3.007-0.001-4.509
			c-0.001-1.102,0.456-1.931,1.466-2.404c0.286-0.132,0.628-0.2,0.947-0.205c1.266-0.024,2.533-0.026,3.798,0.002
			c0.346,0.008,0.692,0.141,1.033,0.238c0.105,0.028,0.181,0.063,0.292,0.004c0.333-0.179,0.694-0.258,1.077-0.256
			c1.236,0.004,2.472,0.002,3.708,0.002c1.376,0.001,2.461,1.085,2.462,2.471c0,2.364,0,4.729,0,7.094c0,0.086,0,0.165,0,0.271
			C46.719,60.476,53.267,60.476,59.844,60.476z M72.144,75.245c0-7.387,0-14.753,0-22.124c-1.234,0-2.45,0-3.671,0
			c0,7.387,0,14.754,0,22.124C69.703,75.245,70.913,75.245,72.144,75.245z M31.531,75.247c0-7.379,0-14.749,0-22.124
			c-1.23,0-2.446,0-3.67,0c0,7.383,0,14.75,0,22.124C29.086,75.247,30.297,75.247,31.531,75.247z M37.675,75.255
			c0-7.393,0-14.761,0-22.134c-1.224,0-2.432,0-3.665,0c0,7.375,0,14.746,0,22.134C35.245,75.255,36.454,75.255,37.675,75.255z
			 M65.979,75.252c0-7.379,0-14.749,0-22.122c-1.229,0-2.441,0-3.666,0c0,7.382,0,14.743,0,22.122
			C63.542,75.252,64.751,75.252,65.979,75.252z M40.164,65.382c6.571,0,13.118,0,19.663,0c0-0.818,0-1.616,0-2.417
			c-6.56,0-13.109,0-19.663,0C40.164,63.778,40.164,64.57,40.164,65.382z M22.93,67.844c0.824,0,1.628,0,2.434,0
			c0-2.457,0-4.893,0-7.347c-0.815,0-1.619,0-2.434,0C22.93,62.952,22.93,65.387,22.93,67.844z M74.633,60.488
			c0,2.459,0,4.904,0,7.358c0.819,0,1.622,0,2.434,0c0-2.46,0-4.899,0-7.358C76.247,60.488,75.442,60.488,74.633,60.488z"/>
		<g>
			
				<linearGradient id="SVGID_3_" gradientUnits="userSpaceOnUse" x1="-132.0317" y1="104.7939" x2="-132.0317" y2="126.918" gradientTransform="matrix(1 0 0 -1 202.3398 180.0391)">
				<stop  offset="0" style="stop-color:#979293;stop-opacity:0.9989"/>
				<stop  offset="0.2623" style="stop-color:#999495;stop-opacity:0.9993"/>
				<stop  offset="0.4042" style="stop-color:#A19C9D;stop-opacity:0.9995"/>
				<stop  offset="0.5172" style="stop-color:#AEAAAB;stop-opacity:0.9996"/>
				<stop  offset="0.6151" style="stop-color:#C0BDBE;stop-opacity:0.9997"/>
				<stop  offset="0.7032" style="stop-color:#D8D6D7;stop-opacity:0.9999"/>
				<stop  offset="0.783" style="stop-color:#F5F5F5"/>
				<stop  offset="0.8059" style="stop-color:#FFFFFF"/>
				<stop  offset="1" style="stop-color:#979293;stop-opacity:0.9989"/>
			</linearGradient>
			<path fill="url(#SVGID_3_)" d="M72.144,75.245c-1.23,0-2.441,0-3.671,0c0-7.37,0-14.737,0-22.124c1.221,0,2.437,0,3.671,0
				C72.144,60.492,72.144,67.858,72.144,75.245z"/>
			
				<linearGradient id="SVGID_4_" gradientUnits="userSpaceOnUse" x1="-172.6445" y1="104.792" x2="-172.6445" y2="126.916" gradientTransform="matrix(1 0 0 -1 202.3398 180.0391)">
				<stop  offset="0" style="stop-color:#979293;stop-opacity:0.9989"/>
				<stop  offset="0.2623" style="stop-color:#999495;stop-opacity:0.9993"/>
				<stop  offset="0.4042" style="stop-color:#A19C9D;stop-opacity:0.9995"/>
				<stop  offset="0.5172" style="stop-color:#AEAAAB;stop-opacity:0.9996"/>
				<stop  offset="0.6151" style="stop-color:#C0BDBE;stop-opacity:0.9997"/>
				<stop  offset="0.7032" style="stop-color:#D8D6D7;stop-opacity:0.9999"/>
				<stop  offset="0.783" style="stop-color:#F5F5F5"/>
				<stop  offset="0.8059" style="stop-color:#FFFFFF"/>
				<stop  offset="1" style="stop-color:#979293;stop-opacity:0.9989"/>
			</linearGradient>
			<path fill="url(#SVGID_4_)" d="M31.531,75.247c-1.233,0-2.444,0-3.67,0c0-7.374,0-14.741,0-22.124c1.223,0,2.439,0,3.67,0
				C31.531,60.499,31.531,67.868,31.531,75.247z"/>
			
				<linearGradient id="SVGID_5_" gradientUnits="userSpaceOnUse" x1="-166.4976" y1="104.7842" x2="-166.4976" y2="126.918" gradientTransform="matrix(1 0 0 -1 202.3398 180.0391)">
				<stop  offset="0" style="stop-color:#979293;stop-opacity:0.9989"/>
				<stop  offset="0.2623" style="stop-color:#999495;stop-opacity:0.9993"/>
				<stop  offset="0.4042" style="stop-color:#A19C9D;stop-opacity:0.9995"/>
				<stop  offset="0.5172" style="stop-color:#AEAAAB;stop-opacity:0.9996"/>
				<stop  offset="0.6151" style="stop-color:#C0BDBE;stop-opacity:0.9997"/>
				<stop  offset="0.7032" style="stop-color:#D8D6D7;stop-opacity:0.9999"/>
				<stop  offset="0.783" style="stop-color:#F5F5F5"/>
				<stop  offset="0.8059" style="stop-color:#FFFFFF"/>
				<stop  offset="1" style="stop-color:#979293;stop-opacity:0.9989"/>
			</linearGradient>
			<path fill="url(#SVGID_5_)" d="M37.675,75.255c-1.222,0-2.431,0-3.665,0c0-7.388,0-14.758,0-22.134c1.233,0,2.441,0,3.665,0
				C37.675,60.494,37.675,67.862,37.675,75.255z"/>
			
				<linearGradient id="SVGID_6_" gradientUnits="userSpaceOnUse" x1="-138.1943" y1="104.7871" x2="-138.1943" y2="126.9092" gradientTransform="matrix(1 0 0 -1 202.3398 180.0391)">
				<stop  offset="0" style="stop-color:#979293;stop-opacity:0.9989"/>
				<stop  offset="0.2623" style="stop-color:#999495;stop-opacity:0.9993"/>
				<stop  offset="0.4042" style="stop-color:#A19C9D;stop-opacity:0.9995"/>
				<stop  offset="0.5172" style="stop-color:#AEAAAB;stop-opacity:0.9996"/>
				<stop  offset="0.6151" style="stop-color:#C0BDBE;stop-opacity:0.9997"/>
				<stop  offset="0.7032" style="stop-color:#D8D6D7;stop-opacity:0.9999"/>
				<stop  offset="0.783" style="stop-color:#F5F5F5"/>
				<stop  offset="0.8059" style="stop-color:#FFFFFF"/>
				<stop  offset="1" style="stop-color:#979293;stop-opacity:0.9989"/>
			</linearGradient>
			<path fill="url(#SVGID_6_)" d="M65.979,75.252c-1.228,0-2.437,0-3.666,0c0-7.379,0-14.74,0-22.122c1.225,0,2.438,0,3.666,0
				C65.979,60.504,65.979,67.873,65.979,75.252z"/>
			
				<linearGradient id="SVGID_7_" gradientUnits="userSpaceOnUse" x1="-152.3452" y1="114.6572" x2="-152.3452" y2="117.0742" gradientTransform="matrix(1 0 0 -1 202.3398 180.0391)">
				<stop  offset="0" style="stop-color:#979293;stop-opacity:0.9989"/>
				<stop  offset="0.2623" style="stop-color:#999495;stop-opacity:0.9993"/>
				<stop  offset="0.4042" style="stop-color:#A19C9D;stop-opacity:0.9995"/>
				<stop  offset="0.5172" style="stop-color:#AEAAAB;stop-opacity:0.9996"/>
				<stop  offset="0.6151" style="stop-color:#C0BDBE;stop-opacity:0.9997"/>
				<stop  offset="0.7032" style="stop-color:#D8D6D7;stop-opacity:0.9999"/>
				<stop  offset="0.783" style="stop-color:#F5F5F5"/>
				<stop  offset="0.8059" style="stop-color:#FFFFFF"/>
				<stop  offset="1" style="stop-color:#979293;stop-opacity:0.9989"/>
			</linearGradient>
			<path fill="url(#SVGID_7_)" d="M40.164,65.382c0-0.812,0-1.604,0-2.417c6.554,0,13.103,0,19.663,0c0,0.801,0,1.599,0,2.417
				C53.281,65.382,46.735,65.382,40.164,65.382z"/>
			
				<linearGradient id="SVGID_8_" gradientUnits="userSpaceOnUse" x1="-178.1929" y1="112.1953" x2="-178.1929" y2="119.542" gradientTransform="matrix(1 0 0 -1 202.3398 180.0391)">
				<stop  offset="0" style="stop-color:#979293;stop-opacity:0.9989"/>
				<stop  offset="0.2623" style="stop-color:#999495;stop-opacity:0.9993"/>
				<stop  offset="0.4042" style="stop-color:#A19C9D;stop-opacity:0.9995"/>
				<stop  offset="0.5172" style="stop-color:#AEAAAB;stop-opacity:0.9996"/>
				<stop  offset="0.6151" style="stop-color:#C0BDBE;stop-opacity:0.9997"/>
				<stop  offset="0.7032" style="stop-color:#D8D6D7;stop-opacity:0.9999"/>
				<stop  offset="0.783" style="stop-color:#F5F5F5"/>
				<stop  offset="0.8059" style="stop-color:#FFFFFF"/>
				<stop  offset="1" style="stop-color:#979293;stop-opacity:0.9989"/>
			</linearGradient>
			<path fill="url(#SVGID_8_)" d="M22.93,67.844c0-2.457,0-4.892,0-7.347c0.815,0,1.619,0,2.434,0c0,2.454,0,4.89,0,7.347
				C24.558,67.844,23.754,67.844,22.93,67.844z"/>
			
				<linearGradient id="SVGID_9_" gradientUnits="userSpaceOnUse" x1="-126.4902" y1="112.1924" x2="-126.4902" y2="119.5508" gradientTransform="matrix(1 0 0 -1 202.3398 180.0391)">
				<stop  offset="0" style="stop-color:#979293;stop-opacity:0.9989"/>
				<stop  offset="0.2623" style="stop-color:#999495;stop-opacity:0.9993"/>
				<stop  offset="0.4042" style="stop-color:#A19C9D;stop-opacity:0.9995"/>
				<stop  offset="0.5172" style="stop-color:#AEAAAB;stop-opacity:0.9996"/>
				<stop  offset="0.6151" style="stop-color:#C0BDBE;stop-opacity:0.9997"/>
				<stop  offset="0.7032" style="stop-color:#D8D6D7;stop-opacity:0.9999"/>
				<stop  offset="0.783" style="stop-color:#F5F5F5"/>
				<stop  offset="0.8059" style="stop-color:#FFFFFF"/>
				<stop  offset="1" style="stop-color:#979293;stop-opacity:0.9989"/>
			</linearGradient>
			<path fill="url(#SVGID_9_)" d="M74.633,60.488c0.81,0,1.614,0,2.434,0c0,2.459,0,4.898,0,7.358c-0.812,0-1.613,0-2.434,0
				C74.633,65.393,74.633,62.947,74.633,60.488z"/>
		</g>
	</g>
</g>
</svg>
