<?xml version="1.0" encoding="utf-8"?>
<!-- Generator: Adobe Illustrator 16.0.0, SVG Export Plug-In . SVG Version: 6.00 Build 0)  -->
<!DOCTYPE svg PUBLIC "-//W3C//DTD SVG 1.1//EN" "http://www.w3.org/Graphics/SVG/1.1/DTD/svg11.dtd">
<svg version="1.1" id="Calque_1" xmlns="http://www.w3.org/2000/svg" xmlns:xlink="http://www.w3.org/1999/xlink" x="0px" y="0px"
	 width="100px" height="100px" viewBox="50 50 100 100" enable-background="new 50 50 100 100" xml:space="preserve">
<g id="velo_2_">
	<path fill="#FFFFFF" stroke="#3D3838" stroke-width="3.1567" stroke-miterlimit="10" d="M100.05,142.5
		c-0.904,0-1.771-0.04-2.618-0.108c-11.375-0.672-21.75-5.743-29.259-14.265c-7.543-8.482-11.314-19.387-10.585-30.726
		C58.92,75.028,77.542,57.5,99.955,57.5c0.903,0,1.77,0.032,2.616,0.075c23.418,1.436,41.305,21.625,39.846,44.992
		c-1.34,22.37-19.956,39.934-42.361,39.934H100.05L100.05,142.5z"/>
	<path fill="#2DB24A" d="M64.013,115.186c5.367,13.016,18.217,22.594,33.652,23.418c14.522,0.815,27.583-6.256,34.764-17.324
		L64.013,115.186z"/>
	<path fill="#3D3838" d="M135.799,99.787c-0.738-1.067-1.381-2.056-2.16-3.066c-0.136-0.008-0.16-0.074-0.276-0.074
		c-0.155-0.33-0.33-0.554-0.629-0.646c-0.195-0.312-0.459-0.534-0.787-0.693c-0.02-0.058-0.02-0.16-0.072-0.175
		c-0.105,0-0.179-0.137-0.292-0.061c-0.007-0.196-0.195-0.323-0.389-0.302c-0.137-0.388-0.573-0.217-0.587-0.586
		c-1.674-0.664-3.186-1.644-5.169-1.711c-0.77-0.371-1.85-0.225-2.835-0.265c-0.004,0.018-0.009,0.058-0.009,0.069
		c-0.391-0.236-0.826,0.155-1.401-0.01c-0.116,0.207-0.745,0.01-1.007,0.29c-0.138-0.068-0.444-0.078-0.508,0.091
		c0.015,0,0.034,0.005,0.042,0.005c-0.015,0.02-0.042,0-0.042-0.005c-0.159-0.074-0.379,0.005-0.436,0.11
		c-0.39,0.07-0.719,0.046-0.907,0.332c-0.063-0.096-0.1-0.05-0.196-0.096c-0.177,0.303-0.576-0.011-0.699,0.427
		c-0.072,0.005-0.068-0.089-0.113-0.12c-0.07,0.161-0.333,0.089-0.326,0.317c-0.316-0.151-0.5,0.351-0.772,0.177
		c-0.008,0.345-0.477,0.155-0.493,0.495c-0.408,0.054-0.663,0.25-0.86,0.534c-0.763-0.594-1.337-1.353-1.837-1.961
		c-0.171,0-0.481-0.497-0.681-0.75c0.118-0.333,0.216-0.719,0.411-0.976c0.167,0.091,0.401,0.201,0.575,0.087
		c0.174-0.361,0.125-0.818-0.384-0.845c1.114-2.656,2.312-5.304,3.452-8.089c0.352-0.077,0.589-0.267,0.94-0.35
		c0.02,0.21,0.363,0.093,0.447,0.093c0.016-0.083,0.025-0.173,0.036-0.23c0.106-0.068,0.133,0.001,0.209-0.133
		c0.015-0.062,0.021-0.166,0-0.2c1.062-0.193,2.003-0.696,2.98-0.813c0.835,0.239,1.152-0.595,0.956-1.199
		c-3.601,0.122-7.68-1.191-10.996-0.841c-0.213,0.277-0.56,0.379-0.541,0.903c2.233,0.244,3.091,0.417,4.558,1.362
		c-0.051,0.125,0.063,0.344-0.007,0.484c0.083,0.103,0.17,0.194,0.408,0.192c-1.196,2.801-2.334,5.433-3.598,8.393
		c-0.264-0.026-0.912-0.326-0.952,0.169c0.084,0.258,0.288,0.404,0.563,0.461c-0.056,0.299-0.186,0.485-0.439,0.485
		c-1.055-0.656-2.349-1.161-3.17-1.75c-1.576-0.628-3.142-1.486-4.691-2.286c-4.039-1.941-7.916-3.799-11.658-5.753
		c-0.1-0.459-0.116-1.119,0.191-1.517c0.147,0,0.193-0.004,0.305,0.013c0.242-0.192,0.194-0.54-0.034-0.707
		c0.091-0.064,0.113-0.206,0.205-0.249c1.125-0.306-0.388-1.328-1.125-1.328c-0.022,0.055,0.085,0.081,0.009,0.131
		c-0.175-0.019-0.137-0.2-0.331-0.206c0.011-0.168-0.038-0.288-0.107-0.357c-0.074-0.13-0.276,0.045-0.309-0.13
		c0.866,0.322,1.261-1.209,0.335-1.302c-0.174-1.356-2.134-0.539-2.527-0.04c-0.48-0.35-0.899,0.201-1.361,0.23
		c-0.138,0.176-0.064,0.382-0.059,0.664c-0.905,0.354-2.102,0.437-2.589,1.01c-0.397,0.369-0.904,0.811-1.242,1.412
		c-0.117,0.071-0.066-0.045-0.184,0.007c-0.005,0.053,0.013,0.08,0.05,0.094c-0.199,0.372-0.414,0.579-0.547,0.961
		c-0.753,1.258-0.737,3.466-0.151,4.717c0.449,1.334,1.218,2.525,1.134,4.127c-0.04-0.141-0.301-0.346-0.491-0.221
		c0-0.212-0.373-0.181-0.473-0.105c-1.256-0.65-3.173-0.687-4.733-0.76c-0.128,0.206-0.375,0-0.513,0
		c-0.018,0.025,0.142,0,0.083,0.057c-0.127,0.149-0.511-0.118-0.571,0.149c-0.13-0.081-0.436-0.114-0.514,0.063
		c-0.146-0.063-0.378-0.063-0.5-0.006c-0.003,0.055-0.024,0.085-0.069,0.093c-0.032-0.039,0.05-0.087,0.069-0.093
		c-0.078-0.049-0.339,0-0.46,0.161c-0.808,0.029-1.725,0.351-2.348,0.721c-0.198-0.068-0.326,0.034-0.457,0.015
		c-0.038,0.098,0.036,0.129,0.006,0.181c-0.144-0.036-0.19,0-0.351,0c0.021,0.079-0.114,0.16-0.131,0.195
		c-0.238-0.041-0.716,0.196-0.869,0.474c-0.138-0.099-0.263,0.076-0.394,0.044c0.115,0.032-0.065,0.078,0.038,0.191
		c-0.487,0.062-0.958,0.414-1.255,0.807c-0.065-0.003-0.087-0.014-0.19-0.009c-0.234,0.374-0.76,0.419-0.932,0.956
		c-0.352,0.087-0.57,0.354-0.679,0.703c-0.444,0.174-0.794,0.656-0.926,1.065c-0.113,0.036-0.005-0.07-0.082-0.07
		c-0.201,0.202-0.245,0.465-0.452,0.579c-0.006,0.287-0.375,0.384-0.335,0.689c-1.02,1.336-1.47,3.171-1.935,4.798
		c-0.01-0.014,0.007-0.045-0.028-0.05c-0.001,0.045-0.001,0.05-0.005,0.092c0.063-0.042,0.138-0.037,0.138,0.075
		c-0.035,0-0.096,0.078-0.138,0.014c0,0.119,0,0.253-0.009,0.384c0.009,0.012,0.042,0.024,0.059,0.067
		c0.013,0.066-0.05,0.05-0.081,0.086c-0.016,0.102-0.028,0.25-0.045,0.353c0.029,0.02,0.011,0.064,0.057,0.068
		c0-0.015,0-0.029,0.002-0.058c0.016,0.019,0.016,0.058-0.002,0.058c-0.021,0.032-0.038,0.054-0.074,0.054
		c-0.011,0.091-0.026,0.193-0.042,0.328c0.027,0.007,0.059,0.031,0.059,0.048c0,0.015-0.032,0.015-0.069,0.015
		c-0.021,0.169-0.031,0.272-0.051,0.386c0.12,0.165-0.051,0.512,0.144,0.58c-0.088,0.088-0.144,0.274-0.108,0.385
		c-0.035,0-0.012,0.088,0.056,0.059c-0.028,0.319-0.056,0.69,0.104,1.007c-0.171,0.258,0.114,0.595-0.03,0.807
		c0.284,0.283,0.188,1.014,0.371,1.358c-0.087,0.003-0.153,0.026-0.109,0.155c0.013-0.048,0.123-0.012,0.152-0.049
		c0.077,0.141,0,0.45,0.189,0.538c0.003,0.555,0.382,0.907,0.529,1.467c0.051,0.012-0.003,0.122,0.013,0.134
		c0.276,0.188,0.276,0.776,0.642,1.015c-0.032,0.111,0.035,0.147,0,0.287c0.353,0.298,0.631,0.862,0.936,1.286
		c-0.005,0.017-0.026,0.017-0.02,0.057c0.043-0.006,0.021,0,0.103,0c0.259,0.421,0.68,0.636,0.848,1.141
		c0.02-0.182,0.062,0.038,0.197,0c-0.006,0.057,0.018,0.057-0.022,0.149c0.23,0.048,0.401,0.224,0.464,0.429
		c0.244-0.005,0.228,0.179,0.251,0.32c0.298-0.111,0.389,0.341,0.694,0.403c0.039,0.037,0.039,0.099,0.039,0.19
		c0.127-0.046,0.251,0.16,0.319,0.051c0.192,0.258,0.443,0.477,0.825,0.561c0.005,0.273,0.436,0.169,0.462,0.413
		c0.172-0.021,0.208,0.139,0.38,0.139c0.028,0.03,0.061,0.101,0.076,0.179c0.146-0.078,0.21,0.023,0.369,0.023
		c1.787,1.017,4.414,1.759,6.969,1.548c0.387,0.226,0.954,0,1.459,0.018c0.269,0,0.514-0.116,0.924-0.103
		c0.264,0.05,0.456-0.264,0.823-0.144c0-0.12,0.122-0.076,0.16-0.175c0.187,0.087,0.405,0.038,0.44-0.102
		c0.359,0.023,0.72-0.112,0.935-0.299c0.061,0.141,0.257-0.062,0.437,0c0.001-0.059,0.007-0.115,0.016-0.158
		c0.313,0.033,0.465-0.219,0.697-0.203c0.035-0.024,0.099-0.132,0.195-0.196c0.118,0.027,0.133,0,0.229,0.032
		c0.039-0.14,0.188-0.224,0.348-0.146c-0.018-0.085,0.11-0.217,0.277-0.229c0.106-0.087,0.492-0.428,0.598-0.299
		c0.083-0.129,0.188-0.152,0.232-0.309c0.156,0.017,0.208-0.134,0.303-0.046c-0.057-0.152,0.125-0.271,0.281-0.152
		c-0.089-0.194,0.225-0.14,0.203-0.352c0.326-0.107,0.543-0.204,0.697-0.585c0.195-0.004,0.302-0.072,0.375-0.336
		c0.082-0.033,0.135-0.033,0.256-0.024c0.003-0.135,0.102-0.148,0.083-0.315c0.449-0.198,0.726-0.63,0.974-1.021
		c0.173-0.013,0.295-0.183,0.327-0.4c0.144-0.018,0.208-0.176,0.235-0.379c0.04-0.003,0.136,0,0.149,0
		c0.053-0.167,0.181-0.208,0.192-0.391c0.047-0.016,0.09,0.016,0.159,0.016c-0.13-0.299,0.292-0.396,0.272-0.766
		c0.139,0,0.288-0.293,0.25-0.439c0.062-0.07,0.108-0.103,0.21-0.119c-0.092-0.29,0.259-0.421,0.196-0.745
		c0.291-0.285,0.448-0.899,0.506-1.345c0.134-0.006,0.287-0.297,0.156-0.401c0.171-0.06,0.208-0.365,0.166-0.526
		c0.005-0.014,0.018-0.008,0.068-0.008c0.086-0.888,0.344-1.47,0.298-2.296c0.098-0.119,0.099-0.365,0.023-0.469
		c0.115-0.09,0.074-0.406,0-0.519c0.133-0.117,0.078-0.339,0-0.473c0.192-0.041,0-0.271,0.128-0.374
		c-0.091-0.006-0.069-0.049-0.128-0.044c0.055-0.199,0.055-0.429-0.057-0.55c0.092-0.088-0.021-0.319,0.057-0.408
		c0-0.016-0.104-0.011-0.119-0.024c0.113-0.162,0.057-0.358-0.075-0.488c0.093-0.091,0.06-0.391-0.098-0.429
		c0.055-0.175,0.098-0.489-0.084-0.517c0.054-0.234-0.009-0.363-0.144-0.438c0.1-0.125,0.047-0.4-0.138-0.438
		c0.134-0.071,0.043-0.498-0.112-0.498c0.08-0.015-0.018-0.199,0.044-0.209c-0.044-0.095-0.139-0.171-0.236-0.237
		c0-0.114,0.03,0.021,0.083-0.041c-0.069-0.114-0.03-0.278-0.244-0.355c-0.006-0.401-0.154-0.679-0.404-0.879
		c-0.021-0.156,0.003-0.386-0.208-0.401c-0.031-0.125,0.005-0.176,0.002-0.343c-0.144,0-0.116-0.092-0.207-0.096
		c-0.104-0.301-0.349-0.678-0.573-0.799c-0.028-0.084,0.056-0.062,0.023-0.128c-0.111-0.093-0.07-0.29-0.292-0.295
		c-0.035-0.208-0.08-0.394-0.307-0.394c-0.002-0.163-0.14-0.37-0.341-0.3c0.059-0.227-0.087-0.44-0.273-0.423
		c-0.028-0.098-0.139-0.394-0.331-0.327c-0.039-0.184-0.192-0.354-0.384-0.341c-0.025-0.346-0.384-0.335-0.498-0.633
		c-0.304,0.112-0.27-0.422-0.61-0.287c-0.045-0.367-0.498-0.337-0.59-0.648c-0.029,0.022-0.078,0.054-0.145,0.073
		c-0.075-0.081-0.179-0.204-0.163-0.274c-0.083-0.071-0.195-0.025-0.252-0.036c0.307-0.896,0.859-1.813,1.224-2.634
		c0.077,0.062,0.077,0.028,0.165,0.031c0.121-0.174,0.233-0.536,0.43-0.563c-0.071-0.117,0.057-0.397,0.255-0.374
		c0-0.065,0.013-0.096,0.043-0.096c0.937,0.308,1.205-0.331,1.465-1.022c0.022,0.066,0.161,0.186,0.161,0.186l0.482,0.28
		c0,0,12.344,17.427,12.555,18.659c-0.115,0.048-0.074-0.025-0.124-0.046c-0.095,2.21-3.335,0.328-4.677,1.274
		c-0.037-0.037-0.121-0.037-0.159-0.039c-0.017,0.039-0.094,0.032-0.074,0.08c-0.197-0.009-0.386-0.032-0.637-0.032
		c-0.02-0.039-0.021-0.111-0.021-0.185c-0.127-0.013-0.196-0.013-0.291,0c-0.283,0.572,0.074,1.217,0.377,1.614
		c0.17,0.003,0.491-0.168,0.684,0.079c0.558,0.019,1.167,0.111,1.677,0.134c-0.075-0.168,0.333-0.115,0.359,0.042
		c0.047-0.042,0.059-0.142,0.106-0.107c0.037,0.011,0.022,0.054,0.025,0.101c0.11-0.124,0.174,0.005,0.315,0.028
		c0.129,0.004,0.133-0.158,0.254-0.147c0.004-0.042,0.014-0.116,0.025-0.197c1.877-0.232,1.529,1.157,2.256,1.774
		c-0.021,0.081-0.053-0.093-0.043,0.048c0.015,0.033,0.059,0.033,0.102,0.016c0.049,0.023,0.091,0.084,0.071,0.207
		c0.421,0.352,0.991,0.607,1.378,0.918c0.599,0.034,1.305,0.315,1.915,0.407c-0.005-0.036-0.063-0.031-0.057-0.066
		c0.298,0.253,1.024,0.069,1.146,0.37c0.072-0.031,0.265,0.09,0.333-0.041c0.024,0.022,0.09,0.022,0.091,0.066
		c0.679,0.186,1.329,0.337,1.942,0.413c0.135,0.292,0.195,0.577,0.325,0.819c0.054,0.026,0.06,0.07,0.092,0.07
		c-0.035,0.196,0,0.406,0.202,0.444c-0.031,0.204,0.078,0.372,0.262,0.408c-0.066,0.181-0.008,0.375,0.202,0.422
		c-0.059,0.135,0.072,0.199,0.072,0.332c0.064,0.01,0.121,0.031,0.191,0.025c0,0.132-0.008,0.155-0.019,0.223
		c0.159,0.011,0.041,0.251,0.268,0.228c-0.01,0.088-0.017,0.12-0.029,0.219c0.124,0.065,0.18,0.116,0.331,0.167
		c-0.058,0.149,0.019,0.361,0.219,0.361c0.026,0.102,0.192,0.473,0.386,0.382c-0.073,0.273,0.142,0.34,0.258,0.371
		c-0.036,0.107,0.128,0.192,0.128,0.316c0.112,0.032,0.152-0.015,0.21-0.005c0.047-0.005,0,0.153-0.021,0.111
		c0.065,0.074,0.165,0.219,0.365,0.241c-0.06,0.198,0.131,0.337,0.288,0.326c0.073,0.045,0.073,0.107,0.062,0.233
		c0.128-0.059,0.164,0.134,0.347,0.046c0.033,0.173,0.188,0.335,0.354,0.331c0,0.176,0.148,0.324,0.343,0.276
		c-0.031,0.111,0.163,0.19,0.161,0.269c0.046,0.054,0.192,0.059,0.197,0.029c0.08,0.024,0.181,0.155,0.169,0.174
		c0.069,0.012,0.18,0.112,0.311,0.05c0.058,0.063,0.088,0.143,0.07,0.203c0.019,0,0.022,0,0.039,0.009
		c0.021,0.09,0.174,0.086,0.277,0.069c0.082,0.159,0.275,0.274,0.472,0.21c0.045,0.033-0.013,0.064-0.002,0.094
		c0.262,0.036,0.502,0.431,0.784,0.332c0.089,0.018-0.015,0.021-0.012,0.07c0.113,0.012,0.306,0.201,0.438,0.116
		c0.33,0.211,0.902,0.497,1.367,0.431c0.106,0.101,0.33,0.283,0.464,0.155c0.109,0.21,0.61,0.189,0.809,0.274
		c0.06,0,0.077-0.047,0.077-0.085c0.108,0.063,0.364,0.201,0.492,0.097c0.092,0.094,0.353,0.109,0.462,0.052
		c0.273,0.131,0.69,0.211,0.966,0.048c0.031,0.17,0.381,0.211,0.439,0.045c0.433,0.141,1.147,0.15,1.4,0.021
		c0.188,0.138,0.601-0.071,0.957-0.034c0-0.037,0.051-0.037,0.035-0.097c0.061,0.028,0.061,0.06,0.112,0.086
		c0.085-0.033,0.32,0.024,0.348-0.153c0.077,0.063,0,0.089,0.078,0.127c0.271-0.19,0.762-0.074,0.882-0.287
		c0.543,0.07,0.941-0.156,1.428-0.386c0.187,0.093,0.317-0.016,0.375-0.146c0.255,0.063,0.419-0.129,0.603-0.173
		c0.084-0.021,0.049,0.044,0.082,0.044c0.16-0.188,0.36-0.223,0.655-0.338c0.005-0.045,0.005-0.05,0.005-0.068
		c0.097,0.023,0.199-0.162,0.35-0.077c-0.012-0.085,0.038-0.085,0.038-0.185c0.088,0.005,0.166-0.045,0.311-0.028
		c0.026-0.067,0.09-0.084,0.129-0.201c0.068,0.012,0.133,0.021,0.161,0.021c0-0.113,0.166-0.087,0.215-0.137
		c-0.017-0.088-0.017-0.064,0.013-0.128c0.127,0,0.222-0.066,0.319-0.049c0.163-0.328,0.514-0.339,0.708-0.583
		c0.061,0.005-0.086,0.063,0.055,0.063c0.033-0.043,0.017-0.192,0.124-0.241c0.06,0,0.075,0.032,0.075,0.049
		c0.034-0.181,0.249-0.181,0.298-0.378c0.085,0,0.085-0.014,0.165,0c0.729-0.764,1.574-1.441,2.141-2.42
		c0.127-0.036,0.241-0.165,0.271-0.355c0.01-0.061,0.105-0.028,0.17-0.061c0.034-0.37,0.314-0.497,0.434-0.764
		c0.175-0.284,0.257-0.672,0.526-0.813c0.452-1.147,0.87-2.394,1.189-3.551c0.01-0.014,0.015-0.053,0.015-0.11
		c-0.026-0.023-0.021-0.188,0.025-0.188c0.097-0.748,0.149-1.497,0.236-2.252c-0.026-0.05-0.048-0.286,0.031-0.273
		c0.007-0.013,0.015-0.066,0.019-0.137C137.149,103.634,136.568,101.581,135.799,99.787 M113.646,79.587
		c0.702,0.144,1.494,0.079,1.92,0.442c-0.143,0.067-0.201,0.227-0.222,0.451C114.684,80.2,114.224,79.936,113.646,79.587
		 M132.463,100.441c0.004-0.066,0.038-0.12,0.078-0.15c0.043,0.15,0.19,0.273,0.176,0.374c0.275,0.319,0.489,0.866,0.643,1.311
		c-0.578,0.356-1.107,0.741-1.769,0.886c0.015,0.081-0.185,0.225-0.284,0.155c-0.363,0.295-0.926,0.51-1.355,0.659
		c-0.865,0.5-1.703,1.156-2.868,1.116c1.142-0.976,2.379-2.075,3.566-2.914c-0.033-0.118,0.081-0.205,0.179-0.174
		c0.323-0.39,0.753-0.59,1.041-0.929c0.092,0.006,0.115,0.089,0.156,0.026c-0.018-0.085-0.064,0.014-0.064-0.072
		C132.1,100.621,132.294,100.441,132.463,100.441 M131.213,98.652c0.266,0.337,0.649,0.573,0.75,0.952
		c0.252,0.074,0.247,0.331,0.389,0.476c-0.112,0.107-0.255,0.155-0.308,0.361c-0.08-0.009-0.08,0-0.165-0.005
		c0.012,0.156-0.11,0.167-0.22,0.186c0.053,0,0.035,0.123-0.013,0.097c-0.011,0.026-0.033,0.03-0.04,0.058
		c-0.065,0.019-0.06,0.043-0.196,0.039c0.015,0.17-0.097,0.159-0.212,0.181c0,0,0,0.011,0,0.014c0.015,0,0.021-0.014,0.056-0.01
		c0.015,0.062-0.057,0.123-0.056,0.01c-0.006,0.012-0.001,0.083-0.006,0.126c-0.102,0.065-0.108,0.024-0.188,0.044
		c-0.012,0.181-0.262,0.138-0.242,0.287c-0.073,0.044-0.14,0.093-0.23,0.071c0.018,0.221-0.247,0.08-0.235,0.298
		c-0.064,0.031-0.154,0.055-0.204,0.055c0.012,0.132-0.133,0.191-0.237,0.234c0.097,0.03-0.313,0.279-0.394,0.298
		c-0.004,0.079-0.063,0.102-0.01,0.103c-0.153,0.085-0.18,0.158-0.306,0.178c0.085,0.054-0.063,0.037-0.063,0.12
		c-0.057,0.005-0.107-0.089-0.15,0.02c0.034,0.054,0.102-0.058,0.121,0.038c-0.072,0.04-0.157,0.097-0.266,0.102
		c-0.093,0.184-0.257,0.314-0.469,0.388c0.014,0.168-0.251,0.104-0.172,0.229c-0.04,0.023-0.021-0.081-0.056-0.101
		c-0.008,0.072-0.023,0.142,0.015,0.151c-0.754,0.414-1.248,1.419-2.352,1.326c-0.007-0.184-0.117-0.291-0.31-0.32
		c-0.009-0.146-0.009-0.244-0.002-0.411c-0.207-0.096-0.268-0.388-0.528-0.492c0.14-0.274,0.112-0.741,0.479-0.712
		c0.421-0.487,1.054-0.91,1.524-1.174c0.009-0.061-0.036-0.07-0.022-0.106c0.65-0.432,1.356-0.945,1.88-1.416
		c0.669-0.408,1.257-0.864,1.841-1.354c0-0.015,0-0.018,0-0.025c0.193-0.132,0.379-0.162,0.466-0.332
		C131.166,98.685,131.182,98.72,131.213,98.652 M124.919,108.558c0.231,0.026,0.13-0.167,0.144-0.354
		c0.599,0.114,1.162,0.364,1.221,0.82c0.13,0.02,0.17,0.135,0.224,0.227c0.002,0.003,0,0.013,0,0.026
		c-0.183,0.117-0.426,0.333-0.682,0.297c0,0.044,0,0.088-0.003,0.133c-0.354,0.087-0.76-0.116-1.015-0.114
		C124.863,109.344,125.228,108.838,124.919,108.558 M125.805,107.933c0.62,0.006,1.169,0.163,1.189,0.651
		C126.607,108.402,125.887,108.402,125.805,107.933 M125.787,106.893c0.12-0.079,0.162-0.264,0.143-0.569
		c0.657,0.291,1.135,0.831,1.187,1.538C126.369,107.813,126.017,107.377,125.787,106.893 M129.451,97.203
		c0.117-0.037,0.194,0.021,0.208,0.156c0.511,0.229,0.92,0.609,1.32,1.029c-0.672,0.6-1.501,1.116-2.171,1.731
		c-0.431,0.126-0.74,0.694-1.073,0.698c-0.179,0.307-0.387,0.341-0.594,0.562c-0.052,0-0.052-0.008-0.092-0.011
		c-0.521,0.442-1.21,1-1.759,1.317c0.146-0.325,0.153-0.694,0.346-0.927c-0.004,0.012,0,0.045,0.057,0.045
		c1.172-1.579,2.433-3.194,3.785-4.532C129.487,97.199,129.422,97.29,129.451,97.203 M129.184,97.035
		c-0.457,0.754-1.13,1.456-1.711,2.19c-0.367,0.407-0.775,1.025-1.148,1.25c-0.028,0.231-0.314,0.515-0.502,0.703
		c0.385-1.198,0.818-2.458,1.23-3.745c0.161-0.19,0.116-0.605,0.313-0.78c-0.014-0.168,0.188-0.27,0.184-0.566
		C128.146,96.361,128.896,96.646,129.184,97.035 M127.342,95.996c-0.559,1.657-1.305,3.867-1.906,5.585c0-0.006,0-0.05-0.029-0.044
		c-0.033,0.063,0.036,0.063,0.028,0.194c-0.186,0.028-0.438,0.55-0.703,0.742c0.193-2.086,0.394-4.721,0.713-6.986
		C126.144,95.508,126.783,95.749,127.342,95.996 M123.303,95.174c0.43-0.062,1.354,0.068,1.854,0.184
		c-0.002,0.91-0.101,2.23-0.294,2.99c0,1.531-0.214,2.906-0.362,4.396c-0.221-0.005-0.184-0.392-0.456-0.265
		c-0.332-0.844-0.719-1.471-1.511-1.823C122.745,98.842,122.939,96.765,123.303,95.174 M121.787,101.485
		c-0.02-0.01-0.012,0.052-0.049,0.052c-0.141-0.252-0.244-0.541-0.27-0.888c0.901-0.102,0.804,0.849,0.583,1.486
		c-0.04-0.093-0.132-0.181-0.067-0.246C121.787,101.859,121.863,101.575,121.787,101.485 M121.39,101.209
		c0.013,0.366,0.048,0.718,0.013,0.967c-0.108-0.088-0.276-0.222-0.256-0.364c-0.159,0.099-0.27-0.236-0.404-0.339
		c-0.012-0.007-0.021-0.007-0.037,0c-0.024-0.152-0.28-0.164-0.269-0.432c-0.191-0.092-0.498-0.247-0.569-0.6
		c-0.031,0-0.016,0.083-0.098,0.047c-0.065-0.067-0.118-0.167-0.163-0.258c0.5,0.02,0.931,0.211,1.332,0.219
		c0.126,0.2,0.331,0.462,0.302,0.751C121.28,101.203,121.352,101.203,121.39,101.209 M122.91,109.966
		c0.149-0.024,0.365,0.024,0.484,0.031c-0.072,0.323,0.004,0.871-0.179,1.063C123.043,110.77,122.842,110.383,122.91,109.966
		 M122.324,101.954c0.043-0.379,0.059-0.574,0.092-0.927c0.335,0.176,0.58,0.271,0.719,0.608
		C122.748,101.673,122.559,101.767,122.324,101.954 M124.366,110.248c-0.024,0.43,0.108,0.84,0.069,1.19
		c-0.17-0.328-0.366-0.574-0.521-0.954c-0.004,0-0.012-0.005-0.015-0.005c-0.057-0.217-0.279-0.366-0.29-0.652
		c0.279-0.004,0.38,0.126,0.567,0.114C124.251,110.068,124.202,110.239,124.366,110.248 M121.024,95.333
		c0.573-0.159,1.318-0.163,1.921-0.166c-0.053,1.729-0.397,3.542-0.652,5.366c-0.275-0.092-0.534-0.189-0.797-0.299
		C121.284,98.495,121.135,97.133,121.024,95.333 M120.773,95.411c0.055,0.097,0.03,0.277,0.007,0.425
		c0.16,0.209,0.127,0.977,0.131,1.202c0.209,0.963,0.215,2.262,0.333,3.117c-0.033,0.063-0.175,0-0.233,0
		c-0.038-0.275-0.269-0.361-0.207-0.655c-0.206-0.046-0.356-0.412-0.356-0.593c-0.202-0.183-0.306-0.559-0.458-0.791
		c-0.313-0.709-0.791-1.401-1.065-2.189C119.542,95.693,120.06,95.508,120.773,95.411 M117.756,96.536
		c0.186-0.252,0.578-0.36,0.923-0.468c0.229,0.482,0.589,0.899,0.705,1.485c0.334,0.412,0.703,1.167,0.868,1.655
		c0.195,0.097,0.336,0.471,0.376,0.682c0.053-0.027,0.156,0.089,0.135,0.185c-2.313-0.112-2.665-1.927-3.77-3.13
		C117.193,96.827,117.43,96.555,117.756,96.536 M116.21,98.455c0.111-0.092,0.169,0.089,0.201,0.176
		c0-0.039-0.004-0.083,0.005-0.083c-0.005,0.136,0.108,0.119,0.183,0.16c-0.083,0.213,0.094,0.313,0.233,0.213
		c0.77,0.593,2.006,1.265,2.396,2.224c0.192,0.013,0.209,0.169,0.252,0.263c0.716,0.576,1.126,1.306,1.736,1.923
		c-0.485,0.041-0.63,0.497-1.038,0.627c-0.01,0.071-0.009,0.128-0.055,0.168c-0.447-0.061-0.669-0.375-0.752-0.656
		c-0.546-0.48-1-1.087-1.367-1.678c-0.634-0.676-1.21-1.437-1.773-2.245c-0.425-0.369-0.671-0.824-1.033-1.265
		C115.518,97.744,115.995,97.898,116.21,98.455 M121.598,112.616c0.004,0.117,0.111,0.138,0.194,0.155
		c-0.011,0.13,0.01,0.189-0.011,0.249c-0.059-0.057-0.15-0.06-0.184-0.078c-0.009-0.099-0.189,0.114-0.375,0.019
		c0.035-0.832,0.186-1.719,0.333-2.601c0.142,0.343,0.445,0.552,0.621,0.89c-0.048,0.084-0.155,0.133-0.151,0.265
		c-0.204,0.028-0.418,0.178-0.284,0.415C121.402,112.071,121.775,112.374,121.598,112.616 M116.799,109.972
		c0.044-0.03,0.085-0.057,0.123-0.058c0.071-0.016,0.08,0.069,0.157,0.001c-0.091-0.133,0.1-0.193,0.185-0.188
		c-0.008-0.184,0.143-0.184,0.283-0.184c-0.058-0.041,0.005-0.103,0.016-0.153c0.036-0.037,0.148,0.064,0.193-0.037v-0.128
		c0.082,0,0.126-0.067,0.195-0.041c-0.026-0.222,0.326-0.093,0.271-0.305c0.072-0.081,0.144-0.029,0.168-0.047
		c-0.001-0.083,0.131-0.17,0.251-0.198c0.079-0.172,0.268-0.263,0.453-0.323c0.142-0.288,0.512-0.427,0.884-0.423
		c0.139,0.279,0.468,0.57,0.733,0.796c-0.047,0.541-0.365,0.865-0.709,0.957c0.044,0.147-0.136,0.202-0.26,0.25
		c0.025,0.024,0.03,0.03,0.023,0.083c-0.058,0.045-0.09,0.053-0.204,0.03c-0.021,0.099-0.035,0.092-0.073,0.151
		c-0.08,0.059-0.115,0.021-0.177,0.045c-0.014,0.072,0.05,0.067,0.018,0.104c-0.037,0.086-0.161,0.057-0.233,0.093
		c-0.036,0.146-0.225,0.337-0.449,0.382c-0.731,0.592-1.38,1.65-2.457,1.415c-0.521-0.258-1.361-0.129-1.697-0.379
		c0.773-0.554,1.534-1.34,2.302-1.698C116.794,110.038,116.906,110.059,116.799,109.972 M119.099,104.785
		c-2.688-0.325-4.928-0.465-7.157-0.813c0.179-0.641,0.249-1.359,0.625-1.829C114.84,102.896,117.73,103.144,119.099,104.785
		 M112.681,101.835c0.228-0.632,0.493-1.186,0.887-1.601c0.365,0.228,0.712,0.536,1.036,0.765c0.657,0.582,1.396,1.136,2.013,1.716
		c0.268,0.179,0.464,0.376,0.673,0.562C115.802,102.842,113.724,102.335,112.681,101.835 M119.394,104.73
		c-0.288-0.198-0.485-0.426-0.701-0.609c0.022-0.043,0.027-0.09-0.01-0.126c-0.025,0.018-0.045,0.036-0.045,0.068
		c-0.115-0.068-0.304-0.138-0.354-0.253c0.466,0.221,1.394,0.221,1.567,0.66c-0.016,0.146-0.101,0.292-0.185,0.358
		C119.514,104.822,119.466,104.792,119.394,104.73 M119.567,105.17c-0.089,0-0.188,0-0.278,0c-0.365-0.156-0.955-0.177-1.533-0.183
		c-0.43-0.195-1.146-0.051-1.729-0.345C117.387,104.848,118.522,104.792,119.567,105.17 M114.877,105.008
		c0.194-0.052,0.849-0.021,0.99,0.162c0.133-0.136,0.17,0.016,0.306-0.096c-0.005,0.111,0.201,0.041,0.269,0.136
		c0.061-0.04,0.154-0.06,0.234-0.04c-0.001,0-0.004,0-0.004,0.013c0.123,0.03,0.321,0.148,0.511,0
		c0.073,0.164,0.374,0.174,0.515,0.097c0.547,0.134,1.176,0.236,1.662,0.216c0.007,0.052,0.13,0.052,0.122,0.171
		c-2.539,0.017-5.166,0.271-7.855-0.076c0.043-0.404,0.098-0.763,0.179-1.076C112.655,104.616,114.111,104.713,114.877,105.008
		 M118.275,107.26c-2.221,0.158-4.528,0.17-6.617,0.054C113.874,107.15,116.015,107.117,118.275,107.26 M119.479,107.661
		c-0.479,0.162-1.281,0.176-1.829,0.176C118.034,107.451,118.899,107.276,119.479,107.661 M121.06,109.267
		c0.01-0.171,0.122-0.16,0.166-0.224c0.101,0.254,0.177,0.599,0.129,0.872c-0.328,0.329-0.721,0.863-1.109,1.241
		c0.007,0.086-0.083-0.003,0,0c0.202-0.658,0.269-1.258,0.553-1.659C120.834,109.344,120.973,109.122,121.06,109.267
		 M117.888,111.841c0.053-0.05,0.013-0.05,0.053-0.161c0.271-0.137,0.472-0.417,0.759-0.595c0.009,0,0.015,0.004,0.021,0.004
		c0-0.024,0-0.024,0-0.027c0.291-0.182,0.386-0.399,0.729-0.458c-0.02-0.123,0.031-0.123,0.04-0.19
		c0.084-0.04,0.122,0.044,0.187-0.009c-0.037-0.116,0.071-0.233,0.22-0.189c-0.028-0.111,0.061-0.111,0.121-0.189
		c0.043,0.018,0.043,0.071,0.096,0.025c0.028-0.078-0.045-0.061-0.045-0.13c0.133-0.005,0.223-0.194,0.334-0.153
		c-0.334,1.287-0.769,3.032-2.119,2.787c-0.144-0.175-0.339-0.169-0.542-0.126c-0.116-0.195-0.37-0.085-0.528-0.104
		C117.387,112.162,117.694,111.821,117.888,111.841 M119.953,112.211c-0.008-0.018-0.086-0.018-0.082-0.078
		c0.157-0.138,0.107-0.289,0.188-0.453c0.47-0.413,0.769-0.952,1.281-1.369c-0.13,0.863-0.215,1.868-0.333,2.478
		c-0.076-0.084-0.035,0.154-0.133,0.085c-0.383-0.06-0.687-0.14-1.155-0.124C119.847,112.484,119.796,112.38,119.953,112.211
		 M114.938,98.54c0.249,0.159,0.514,0.302,0.54,0.59c0.347,0.21,0.424,0.432,0.556,0.707c0.145,0.008,0.171,0.064,0.211,0.121
		c0.011,0.093-0.025,0.071-0.025,0.103c0.212-0.01,0.196,0.391,0.412,0.381c0.073,0.179,0.232,0.374,0.36,0.42
		c0.031,0.245,0.362,0.342,0.352,0.56c0.407,0.339,0.784,0.899,0.969,1.229c0.345,0.35,0.781,0.772,0.901,1.207
		c-0.13-0.067-0.423-0.04-0.494-0.207c-1.7-0.317-2.428-1.71-3.649-2.536c-0.011,0-0.04-0.006-0.053-0.006
		c-0.446-0.363-0.871-0.743-1.294-1.096c0.038-0.15,0.097-0.243,0.192-0.23c0-0.107,0.114-0.292,0.215-0.302
		c-0.021-0.109,0.17-0.35,0.226-0.18c0.114-0.277,0.271-0.556,0.517-0.58C114.764,98.648,114.881,98.579,114.938,98.54
		 M85.819,77.615c0.115,0.096,0.214,0.21,0.454,0.19c-0.027,0.125-0.125,0.342-0.204,0.329c-0.18,0.515-0.307,1.067-0.37,1.625
		C85.313,79.208,85.319,77.861,85.819,77.615C85.724,77.599,85.862,77.49,85.819,77.615 M84.064,93.859
		c0.048-0.007,0.099,0.054,0.099-0.011c-0.003-0.33,0.332-0.665,0.427-0.988c0.253,0.15,0.522,0.28,0.676,0.507
		c0.22,0.05,0.26,0.255,0.47,0.36c-0.038,0.103,0.25,0.12,0.25,0.26c-0.063,0.099-0.098,0.187-0.13,0.27
		c-0.134,0.036-0.232,0.042-0.22,0.188c-0.177,0.041-0.187,0.107-0.287,0.258c-0.134-0.087-0.243,0.302-0.374,0.118
		c-0.006,0.134-0.045,0.275-0.219,0.222c-0.171,0.274-0.401,0.417-0.667,0.517c0.055,0.058,0.005,0.108-0.016,0.134
		c-0.299,0.167-0.492,0.417-0.819,0.581C83.022,95.292,83.805,94.748,84.064,93.859 M82.519,92.1
		c0.002-0.154,0.043-0.244,0.075-0.378c0.294,0.923-0.338,1.9-0.662,2.571c-0.11,0.258-0.212,0.635-0.43,0.803
		c0.096,0.011,0.024,0.141-0.029,0.113c0.196-0.829,0.505-1.417,0.675-2.303c0.048-0.046,0.097,0.073,0.104-0.02
		c-0.05,0.031-0.006-0.031-0.064-0.026c0.101-0.298,0.105-0.434,0.249-0.761C82.438,92.1,82.503,92.103,82.519,92.1 M82.945,96.827
		c0.175,1.202-0.222,2.314-0.702,3.233c0-0.086,0-0.192,0-0.198C80.655,99.49,82.244,97.402,82.945,96.827 M82.321,91.609
		c-0.653,1.855-1.023,4.64-2.12,5.877c-0.019,0.206-0.302,0.418-0.474,0.645c0.136-2.27,0.403-5.096,0.695-7.12
		C80.998,91.14,81.771,91.335,82.321,91.609 M78.211,90.785c0.538-0.057,1.538,0.013,1.954,0.202
		c-0.357,2.445-0.23,5.768-0.995,7.815c-0.332-0.113-1.152-0.258-1.407-0.083C77.06,97.055,78.11,93.329,78.211,90.785
		 M75.918,90.977c0.563-0.21,1.304-0.191,1.976-0.216c-0.067,2.156-0.408,4.838-0.666,7.065
		C75.93,96.133,76.251,93.423,75.918,90.977 M77.044,98.069c0.016,0.032,0.021,0.048,0.094,0.048
		c0.113,0.231-0.03,0.428,0.006,0.608c-0.084,0.072-0.196,0.06-0.278,0.125c-0.425-0.431-0.383-1.194-0.383-1.821
		c0.023,0.005,0.068,0.015,0.1,0.05c0.014,0.067-0.04,0.067-0.065,0.088C76.733,97.387,76.96,97.765,77.044,98.069 M75.653,91.021
		c0.025,0.123,0.059,0.173,0.013,0.327c0.131,0.067,0.161,0.555,0.073,0.752c0.228,0.542,0.167,1.427,0.238,2.082
		c0.005-0.008,0.003-0.036,0.038-0.03c0.046,0.46,0.104,1.025,0.068,1.356c0.077,0,0.035,0.212,0.017,0.26
		c-0.536-0.934-1.125-1.802-1.512-2.821c-0.115-0.056-0.215-0.138-0.161-0.296c-0.257-0.288-0.476-0.695-0.561-1.13
		C74.46,91.335,74.948,91.101,75.653,91.021 M73.587,91.655c0.206,0.62,0.646,1.051,0.847,1.712c0.057-0.053,0.087,0.02,0.127,0.046
		c0,0.201,0.23,0.379,0.21,0.574c0.034,0,0.028-0.021,0.069-0.026c0.065,0.213,0.34,0.445,0.258,0.677
		c0.045,0.037,0.04-0.067,0.078-0.078c0.156,0.479,0.531,0.761,0.608,1.285c0.261,0.042,0.193,0.422,0.439,0.604
		c0.018,0.579,0.135,1.168,0.069,1.722c-0.309-0.383-0.656-0.78-0.917-1.222c-0.026,0.03-0.045,0.046-0.047,0.058
		c-0.081-0.182-0.218-0.296-0.286-0.492c-0.03,0.023-0.057,0.033-0.092,0.033c-0.005-0.1-0.127-0.1-0.068-0.282
		c-0.129,0-0.167-0.03-0.206-0.2c-0.053,0-0.063-0.031-0.121-0.024c-0.093-0.33-0.47-0.356-0.49-0.729
		c-0.091-0.009-0.123-0.059-0.108-0.148c-0.069-0.02-0.09,0.007-0.135,0.015c-0.032-0.051-0.062-0.147-0.064-0.25
		c-0.039,0.127-0.126-0.088-0.186-0.08c-0.002-0.075,0.029-0.057,0.029-0.104c-0.263-0.025-0.252-0.303-0.411-0.392
		c-0.009-0.002-0.021-0.002-0.03-0.002c-0.067-0.118-0.175-0.182-0.139-0.301c-0.168-0.013-0.185-0.144-0.182-0.211
		c-0.117,0.052-0.204-0.126-0.2-0.227c-0.379-0.254-0.588-0.624-0.77-1.063C72.397,92.146,72.967,91.892,73.587,91.655
		 M70.296,93.662c0.237-0.071,0.444-0.447,0.624-0.431c0.148-0.195,0.375-0.266,0.5-0.411c0.254,0.04,0.512,0.254,0.553,0.48
		c0.038-0.006,0.041-0.063,0.095-0.048c0.013,0.19,0.256,0.254,0.198,0.54c0.082-0.065,0.106,0,0.189,0
		c0.13,0.339,0.552,0.548,0.576,0.84c0.032-0.006,0.025-0.06,0.067-0.055c0.227,0.356,0.509,0.579,0.697,0.93
		c0.18,0.082,0.284,0.219,0.38,0.448c0.165,0.113,0.274,0.21,0.308,0.428c0.013-0.001,0.02,0,0.032,0
		c0.255,0.263,0.557,0.548,0.745,0.939c0.404,0.407,0.938,0.896,1.054,1.375c0.131,0.056,0.158,0.225,0.139,0.384
		c-0.082,0.026-0.064,0.006-0.16,0.011c-0.136,0.28-0.488,0.326-0.604,0.599c-0.01,0.07-0.015,0.135-0.029,0.17
		c-0.304,0.093-0.519-0.168-0.812-0.159c-0.087-0.041-0.061-0.143-0.092-0.203c0,0.02-0.021,0.061-0.058,0.061
		c-0.166-0.267-0.41-0.538-0.668-0.795c0.008-0.045,0.012-0.067,0.021-0.123c-0.147-0.02-0.256-0.099-0.256-0.262
		c-0.085,0.08-0.121-0.103-0.188-0.144c-0.005-0.069,0.013-0.042,0.02-0.074c-0.223-0.162-0.5-0.384-0.557-0.676
		c-0.373-0.283-0.688-0.727-0.959-1.094c-0.15-0.068-0.233-0.173-0.249-0.325c-0.153,0-0.291-0.186-0.25-0.319
		c-0.156,0-0.122-0.071-0.142-0.168c-0.504-0.45-1.154-1.03-1.323-1.775c0.02-0.014,0.117-0.046,0.195-0.073
		C70.338,93.689,70.296,93.703,70.296,93.662 M76.46,104.795c0.076,0.955-0.429,1.377-0.881,1.764
		c-0.01,0.077-0.056,0.11-0.056,0.132C75.712,105.936,75.907,105.063,76.46,104.795 M75.139,100.386
		c0,0.065-0.031,0.157-0.061,0.235c-1.038,0-1.348-0.747-1.894-1.142C73.906,99.679,74.841,99.816,75.139,100.386 M69.815,94.174
		c0.018,0.099,0.195,0.068,0.141,0.177c0,0.014,0,0.025,0,0.025c0.588,0.401,0.924,1.115,1.5,1.552
		c-0.03,0.248,0.38,0.346,0.403,0.588c-0.007-0.038-0.035-0.007-0.037,0.033c0.25,0.147,0.435,0.381,0.562,0.658
		c0.044-0.005,0.024-0.005,0.013-0.044c0.463,0.425,0.775,1.01,1.272,1.423c0.011,0.065-0.059,0.133,0.003,0.138
		c0-0.004,0.017-0.004,0.044-0.004c0.047,0.01-0.008,0-0.012,0.078c0.283,0.125,0.505,0.506,0.74,0.791
		c-0.74-0.16-1.969-0.409-2.522-1.044c-0.024-0.054,0.101-0.08,0.015-0.115c-0.465-0.268-1.021-0.7-1.347-1.11
		c-0.681-0.428-1.396-1.073-2.046-1.707C68.975,95.132,69.351,94.551,69.815,94.174 M68.233,96.068
		c-0.004,0.042,0.015,0.05,0.055,0.065c0.019-0.065-0.055-0.065-0.017-0.101c0.068-0.097,0.141,0.031,0.147-0.104
		c0.181,0.08,0.337,0.14,0.385,0.34c-0.007-0.019-0.013-0.061-0.01-0.108c0.191,0.108,0.267,0.291,0.505,0.391
		c0.006,0.016,0.027,0.031,0.027,0.056c0.198,0.17,0.417,0.326,0.608,0.503c0.204,0.169,0.442,0.293,0.577,0.547
		c0.494,0.267,1.112,0.888,1.493,1.255c-1.545-0.488-3.199-0.81-4.517-1.425C67.692,96.975,67.965,96.49,68.233,96.068
		 M67.386,97.789c2.387,0.834,5.125,0.977,6.601,2.704c-2.249-0.258-4.973-0.438-7.181-0.814
		C66.884,99.019,67.082,98.348,67.386,97.789 M66.71,99.898c2.287,0.502,6.316,0.162,8.122,1.343
		c-0.051,0.308-0.101,0.761,0.115,0.954c-2.062,0.772-5.93-0.248-8.403-0.338C66.512,101.254,66.651,100.533,66.71,99.898
		 M74.969,102.896c-0.375,0.708-1.176,0.703-2.129,0.744C73.476,103.245,74.052,102.648,74.969,102.896 M66.534,102.135
		c2.505,0.169,4.826,0.442,7.259,0.609c0.032,0.118-0.169,0.149-0.224,0.16c-1.537,1.231-4.41,0.906-6.833,1.131
		C66.636,103.471,66.503,102.814,66.534,102.135 M66.884,104.363c1.5-0.263,3.265-0.332,4.734-0.434
		c-1.28,0.687-2.621,1.616-4.039,2.009c-0.022,0.14-0.111,0.192-0.183,0.192C67.126,105.551,66.884,104.993,66.884,104.363
		 M68.418,108.037c-0.075-0.131-0.219-0.214-0.281-0.4c-0.073,0-0.021-0.087-0.079-0.106c-0.019-0.074,0.087-0.048,0.106-0.079
		c-0.1-0.021-0.075,0-0.134,0c-0.04-0.052,0.005-0.185-0.04-0.192c-0.026,0.001-0.03,0.013-0.094,0.008
		c-0.052-0.204-0.247-0.394-0.247-0.621c-0.13-0.026-0.147-0.143-0.185-0.251c0.874-0.406,1.758-1.023,2.601-1.291
		c0.226-0.276,0.578-0.339,0.854-0.499c0.765-0.604,1.918-0.929,3.067-0.85c-1.483,1.232-2.979,2.383-4.479,3.554
		c-0.002-0.048,0.049-0.092-0.056-0.068C69.351,107.651,68.803,107.835,68.418,108.037 M69.832,109.788
		c-0.069-0.122-0.271-0.127-0.259-0.359c-0.299-0.176-0.77-0.718-0.912-1.075c0.036-0.15,0.335-0.173,0.301-0.331
		c0.243-0.117,0.417-0.431,0.678-0.467c1.083-1.013,2.255-1.861,3.456-2.764c0.329-0.383,0.751-0.604,1.098-0.941
		c-0.002,0.013-0.014,0.065,0.022,0.074c0.049-0.05,0.101-0.074,0.139-0.088c-0.046-0.008-0.09-0.008-0.092-0.049
		c0.3-0.141,0.676-0.141,1.069-0.141c0.379,0.384,0.959,0.763,0.438,1.468c-1.784,1.388-3.859,3.255-5.622,4.418
		C70.122,109.717,69.925,109.673,69.832,109.788 M71.49,111.242c-0.061-0.178-0.383-0.234-0.383-0.373
		c-0.366-0.191-0.768-0.539-0.986-0.851c0.06-0.028,0.2-0.377,0.354-0.245c1.528-1.505,3.418-2.872,5.173-4.232
		c-0.037,0.211-0.221,0.586-0.186,0.721c-0.132,0.232-0.156,0.54-0.266,0.802c-0.049,0.043-0.06-0.051-0.106,0
		c-0.381,0.76-1.104,1.34-1.595,1.985c-0.273,0.305-0.469,0.678-0.825,0.866c0.036,0.127-0.077,0.241-0.16,0.188
		c-0.135,0.335-0.411,0.636-0.721,0.776C71.723,111.062,71.648,111.164,71.49,111.242 M72.257,111.626c0,0.002,0,0.054-0.027,0.045
		c-0.082-0.045-0.153-0.097-0.162-0.213c-0.05,0.083-0.184-0.02-0.192-0.02c0.177-0.4,0.503-0.761,0.766-1.066
		c0.414-0.574,1.09-1.215,1.47-1.785c0.176-0.058,0.315-0.324,0.451-0.55c0.078-0.015,0.139,0,0.17-0.015
		c-0.025,0-0.022-0.063-0.05-0.107c0.135,0.006,0.115-0.197,0.265-0.223c-0.418,1.485-0.89,3.104-1.465,4.593
		C73.026,112.106,72.608,111.864,72.257,111.626 M73.757,112.39c0.807-2.092,1.002-5.098,2.56-6.238
		c-0.221,2.251-0.37,4.627-0.687,6.81C74.978,112.85,74.374,112.604,73.757,112.39 M75.907,112.987
		c0.463-2.432,0.083-6.871,1.344-8.01c0.259,0.116,0.896,0.17,1.086,0.125c0.779,1.941-0.343,5.51-0.469,8.099
		C77.285,113.215,76.49,113.14,75.907,112.987 M80.13,113.026c-0.577,0.092-1.432,0.303-1.92,0.113
		c0.014-2.061,0.389-4.719,0.724-6.965C80.075,107.938,79.781,110.864,80.13,113.026 M80.401,112.961
		c-0.267-1.672-0.465-3.418-0.531-5.033c0.474,1.074,1.219,2.014,1.604,3.161c0.385,0.374,0.523,0.841,0.749,1.314
		C81.606,112.689,81.125,112.818,80.401,112.961 M83.176,112.046c-0.098-0.047-0.039-0.05-0.166-0.05
		c-0.048,0.225-0.381,0.197-0.507,0.312c-0.038-0.113-0.249-0.265-0.089-0.36c-0.086-0.037-0.116,0.017-0.171,0.013
		c0-0.139-0.117-0.203-0.05-0.319c-0.145-0.053-0.23-0.202-0.23-0.398c-0.104,0-0.153-0.158-0.104-0.208
		c-0.153-0.098-0.192-0.216-0.242-0.356c-0.011,0-0.021,0-0.03,0c-0.344-0.764-0.882-1.52-1.132-2.221c-0.017,0.08-0.131-0.044,0,0
		c-0.459-0.634-0.826-1.312-0.825-2.325c0.458,0.362,0.803,0.864,1.098,1.233c0.555,0.616,1.131,1.182,1.57,1.845
		c0.167,0.134,0.375,0.212,0.396,0.463c0.136-0.042,0.127,0.243,0.322,0.243c-0.006,0.074-0.006,0.181,0.042,0.188
		c0.096,0,0.059,0,0.143,0c0,0.159,0.087,0.194,0.192,0.241c0.032,0.077,0,0.135,0,0.135c0.171,0,0.227,0.192,0.196,0.273
		c0.296,0.096,0.535,0.478,0.571,0.686C83.818,111.641,83.486,111.83,83.176,112.046 M85.699,110.163
		c0.029,0.117-0.001,0.146-0.053,0.209c-0.057,0-0.066-0.043-0.123-0.039c-0.017,0.15-0.182,0.324-0.268,0.32
		c0.048,0.024-0.005,0.024-0.014,0.056c-0.31,0.159-0.5,0.391-0.751,0.533c-0.14-0.057-0.159-0.247-0.329-0.329
		c-0.001-0.044,0.046-0.04,0.034-0.086c-0.034-0.049-0.13-0.042-0.219-0.054c-0.002-0.112-0.078-0.18-0.196-0.246
		c-0.003-0.053-0.003-0.048,0.015-0.1c-0.208-0.045-0.212-0.248-0.401-0.346v-0.063c-0.108,0.012,0-0.091,0,0
		c0.066-0.02,0.006-0.028,0.014-0.104c-0.018,0-0.04,0.026-0.135,0.006c-0.071-0.329-0.456-0.372-0.429-0.607
		c-0.027-0.017-0.035-0.017-0.045,0.021c-0.161-0.167-0.365-0.3-0.356-0.455c-0.836-0.856-1.79-1.951-2.533-2.943
		c-0.45-0.121-0.345-0.692-0.372-1.123c0.297-0.167,0.61-0.418,0.896-0.586c-0.007-0.078,0.074-0.114,0.081-0.188
		c0.191-0.141,0.537,0.188,0.774,0.188c0.039,0.078,0.007,0.168,0.037,0.184c0.149,0,0.221,0.081,0.195,0.212
		c0.22,0.023,0.147,0.291,0.347,0.329c-0.002,0.036-0.008,0.067-0.008,0.128c0.189,0.036,0.354,0.236,0.384,0.428
		c0.199,0.025,0.128,0.27,0.375,0.282c0.01,0.31,0.359,0.343,0.375,0.618c0.398,0.262,0.65,0.864,1.019,1.162
		c0,0.056-0.038,0.063-0.038,0.08c0.189,0.089,0.291,0.261,0.379,0.415c0-0.033,0.002-0.041,0.018-0.041
		c0.123,0.181,0.267,0.341,0.366,0.535c0-0.022,0-0.055,0.027-0.059c0.363,0.623,0.861,1,1.212,1.597
		C85.874,110.131,85.8,110.324,85.699,110.163 M86.148,109.809c-0.067-0.082-0.041-0.136-0.041-0.235
		c-1.265-1.101-2.455-2.792-3.48-4.137c-0.389-0.267-0.589-0.674-0.914-1.026c1.842,0.352,2.735,1.752,3.957,2.602
		c0.077-0.034,0.206,0.132,0.304,0.164c0.052,0.084-0.041,0.084,0.019,0.096c0.173,0.008,0.339,0.168,0.41,0.322
		c0.253,0.056,0.443,0.345,0.69,0.443c0.043,0.039-0.007,0.166,0.042,0.177c0.097-0.011,0.269,0.077,0.29,0.193
		C87.053,108.879,86.661,109.508,86.148,109.809 M87.595,108.126c-0.077-0.104-0.216-0.104-0.222-0.242
		c-1.488-0.951-2.641-1.948-3.791-2.938c0.264,0.128,0.838,0.175,1.158,0.409c0.569,0.071,1.431,0.372,1.916,0.58
		c0.55,0.143,1.344,0.238,1.728,0.567C88.389,107.048,87.904,107.713,87.595,108.126 M88.581,106.254
		c-1.764-0.708-5.246-1.186-6.532-2.466c2.306,0.19,4.799,0.283,7.152,0.623C89.095,105.038,88.901,105.742,88.581,106.254
		 M89.27,104.159c-2.374-0.309-6.121-0.071-8.096-1.068c0.028-0.13,0.11-0.197,0.1-0.31c0.523,0.019,0.586-0.529,0.424-0.966
		c0.15-0.044,0.205-0.058,0.303-0.092c0.053-0.075,0-0.318,0.053-0.303c2.26,0.116,4.76,0.483,7.44,0.779
		C89.491,102.848,89.403,103.647,89.27,104.159 M89.464,101.954c-2.234-0.148-4.886-0.569-7.098-0.751
		c1.364-1.099,4.975-0.839,6.904-1.159C89.424,100.61,89.521,101.355,89.464,101.954 M89.241,99.767
		c-0.088,0.002-0.146,0.002-0.228,0.027c-0.046-0.089,0.138-0.04,0.044-0.089c-0.385,0.175-1.213,0.275-1.72,0.221
		c-1.059,0.214-2.21,0.31-3.321,0.342c1.094-0.498,1.961-1.046,3.025-1.464c0.105-0.229,0.408-0.295,0.625-0.312
		c0.327-0.329,0.632-0.329,1.035-0.526C88.924,98.544,89.128,99.108,89.241,99.767 M88.105,96.857
		c0.28,0.171,0.281,0.544,0.472,0.834c-0.768,0.421-1.503,0.842-2.303,1.168c-0.3,0.191-0.932,0.58-1.347,0.63
		c-0.029,0.219-0.279,0.189-0.396,0.29c0.004,0.014,0,0.027,0,0.027c-0.091,0.039-0.176,0.098-0.267,0.057
		c-0.466,0.385-1.062,0.625-1.839,0.607c0.01-0.204,0.143-0.323,0.205-0.458c0.049,0.005,0.103,0.008,0.155,0.021
		c0.061-0.235,0.356-0.485,0.61-0.559c0.285-0.367,0.675-0.601,1.011-0.922c0.007-0.004,0.007-0.004,0.007-0.009
		c0.142-0.077,0.401-0.396,0.571-0.382c0.172-0.274,0.525-0.574,0.899-0.734c-0.042-0.185,0.245-0.143,0.281-0.345
		c0.05,0.006,0.101,0.013,0.109,0.025c0.198-0.348,0.607-0.461,0.832-0.805c0.108-0.024,0.017,0.113,0.121,0.079
		c0.004-0.053-0.037-0.07-0.018-0.114c0.217,0,0.25-0.222,0.461-0.268C87.809,96.319,88.136,96.5,88.105,96.857 M87.426,95.714
		c-0.017,0.173-0.193,0.173-0.304,0.241c-0.184,0.427-0.86,0.736-1.234,1.154c0,0.009,0,0.029,0,0.037
		c-1.065,0.735-1.958,1.616-3,2.333c0.506-0.885,0.158-2.51,0.635-3.03c0,0,0.003,0,0.003-0.006
		c-0.021,0.006-0.129,0.01-0.124-0.016c0.621-0.359,0.945-0.806,1.527-1.111c0.059-0.17,0.197-0.263,0.409-0.297
		c-0.014-0.193,0.308-0.351,0.435-0.363c0.01-0.044-0.029-0.06-0.013-0.105c0.134-0.056,0.322-0.134,0.389-0.257
		C86.739,94.551,87.098,95.168,87.426,95.714 M86.642,84.991c0.016,0.087-0.072,0.084-0.113,0.163
		c-0.062-0.011-0.093-0.02-0.158-0.026c-0.672,1.044-0.617,2.22-1.307,3.188c-0.014-0.073,0.058-0.119,0.058-0.21
		c-0.29-0.181-0.765-0.069-1.031-0.239c-0.16,0.355-0.313,0.784-0.5,1.096c-0.196-1.171-0.472-2.745-1.052-3.792
		c0.078,0.021,0.058-0.058,0.09-0.089c-0.194-0.009-0.257-0.338-0.194-0.41c-1.346-2.192,0.141-5.673,1.684-6.705
		c0-0.005,0-0.02,0-0.03c0.135-0.112,0.236-0.133,0.336-0.309c0.09-0.014,0.09-0.014,0.132,0.027
		c0.345-0.435,0.752-0.509,1.303-0.605c-1.811,1.953,0.36,5.06,1.344,6.587c0,0.013,0,0.033-0.002,0.059
		c0.093,0.058,0.195,0.155,0.242,0.234C87.304,84.417,87.082,84.964,86.642,84.991 M87.615,83.521
		c-0.173-0.121-0.177-0.306-0.308-0.348c0.013-0.01,0.017-0.077,0.021-0.135c-0.374-0.251-0.58-0.636-0.698-1.122
		c-0.164-0.059-0.264-0.425-0.164-0.532c0.18,0.148,0.372,0.278,0.471,0.484c0.384,0.173,0.774,0.534,1.159,0.791
		C88,82.824,87.809,83.292,87.615,83.521 M90.029,79.371c-0.493,0.539-1.022,1.414-1.453,2.261c0.004,0.02,0.104,0.045,0.004,0.06
		c0.012-0.03,0-0.035-0.004-0.039c0,0.043-0.025,0.014-0.032,0.072c-0.021,0.06,0.037,0.042,0.037,0.096
		c-0.095,0.174-0.254,0.368-0.276,0.479c-0.18-0.048-0.304-0.094-0.355-0.26c-1.899-0.284-2.444-3.597-0.813-4.554
		c0.03,0.091-0.082,0.048-0.084,0.131c0.057-0.004,0.048,0.037,0.094,0.037c0.006-0.041-0.006-0.113,0.042-0.113
		c0.042,0.062-0.001,0.076-0.019,0.141c0.134,0,0.102,0.157,0.107,0.198c0.34,0.278,1.021,0.173,1.389,0.043
		c0.102,0.089,0.182,0.134,0.3,0.167c0,0.055-0.005,0.117,0.02,0.133c0.441,0.154,0.808,0.425,1.127,0.668c0-0.041,0-0.023,0,0.006
		c0.123,0,0.16,0.085,0.182,0.13C90.23,79.2,90.118,79.371,90.029,79.371 M90.872,82.981c0-0.145,0.012-0.195,0.127-0.195
		c0.02,0.05,0.104,0.046,0.146,0.108c0.586,0.262,1.077,0.478,1.555,0.746C92.027,83.49,91.254,83.373,90.872,82.981
		 M104.494,103.091c0,0-11.396-17.956-11.331-18.044c-0.554-0.415-0.746-0.896-1.265-1.243c0.362,0.074,18.063,8.737,18.563,9.056
		c-0.231,0.699-1.467,3.362-1.732,4.004l-2.116,4.711l-0.834,1.406L104.494,103.091z M109.042,110.818
		c-0.093-0.141-0.31-0.165-0.472-0.125c-0.337-0.245-0.964-0.071-1.237-0.396c-0.063,0.14-0.217,0-0.324,0.026
		c-0.037-0.211-0.333-0.109-0.456-0.066c-0.042-0.155-0.315-0.155-0.427-0.155c0.017,0.081-0.079,0,0,0
		c-0.018-0.188,0.104-0.221,0.167-0.295c-0.006,0.132,0.142,0.14,0.327,0.183c0.011-0.075,0.026-0.128,0.01-0.252
		c0.047-0.065,0.227,0.063,0.179-0.061c0.143,0.008,0.135,0.129,0.302,0.109c0-0.015,0.03-0.021,0.03-0.053
		c-0.009-0.154-0.03-0.346,0.144-0.346c0.11,0.056,0.11,0.202,0.301,0.171c0-0.177-0.024-0.317,0.065-0.409
		c0.05,0.007,0.123,0,0.212,0.007c0.078,0,0.104-0.031,0.118-0.082c-0.02-0.101-0.04-0.132-0.014-0.272
		c0.192,0.035,0.209,0.033,0.37-0.006c0.016-0.127,0.004-0.214-0.054-0.268c0.004-0.108,0.064-0.128,0.074-0.185
		c0.237,0.057,0.219-0.142,0.251-0.315c-0.064-0.007-0.072,0.115-0.105-0.007c0.041,0.007,0.033-0.063,0.041-0.102
		c0.011-0.017,0.102-0.017,0.178-0.038c0.124,0.14-0.063,0.574,0.142,0.648c-0.003,0.052-0.098,0.052-0.109,0.096
		c0.107,0.112,0.017,0.321,0.177,0.334c0,0.081-0.07,0.014-0.07,0.085c0.07,0.12,0.07,0.307,0.17,0.446
		c-0.06,0.051-0.047,0.147-0.09,0.213c0.117,0.021,0.075,0.182,0.196,0.186c-0.07,0.249,0.151,0.604,0.209,0.896
		C109.283,110.824,109.152,110.836,109.042,110.818 M110.174,100.234c-0.536,0.774-0.983,2-1.102,3.08
		c-0.09,0.092-0.212,0.131-0.144,0.209c-0.522,0.086-0.609-0.247-0.881-0.47c0.019-0.205,0.002-0.391-0.083-0.523
		c-0.103-0.009-0.117,0.03-0.193,0c1.306-2.929,2.58-5.884,3.891-8.811c0.06,0.073,0.143,0.102,0.133,0.166
		c0.213,0.103,0.656,0.452,0.845,0.73c0.201,0.076,0.388,0.219,0.373,0.374c0.134-0.016,0.406,0.208,0.309,0.317
		c0.092,0.201,0.287,0.191,0.402,0.347c-0.173,0.035-0.292,0.177-0.385,0.301c-0.135-0.019-0.271,0.173-0.312,0.344
		c-0.224-0.031-0.205,0.184-0.348,0.21c-0.035,0.092,0.018,0.118,0.006,0.144c-0.11,0.043-0.179,0.078-0.26,0.078
		c0,0.107-0.061,0.127-0.052,0.298c-0.174,0-0.188,0.117-0.326,0.134c-0.012,0.04-0.041,0.15,0.001,0.197
		c-0.195,0.03-0.334,0.229-0.326,0.429c-0.33,0.24-0.688,0.677-0.83,1.134C110.605,99.284,110.284,99.691,110.174,100.234
		 M111.715,107.563c2.202,0.031,3.745-0.111,6.038-0.041c-1.533,0.882-4.216,0.552-5.954,0.85
		C111.788,108.096,111.639,107.823,111.715,107.563 M111.836,108.618c1.393-0.211,3.051-0.354,4.559-0.404
		c-0.064,0.104-0.102,0.037-0.175,0.069c0,0.08,0.028,0.106,0,0.119c-0.242,0.06-0.425,0.19-0.637,0.339
		c-0.016,0.042-0.059,0.042-0.076,0.042c-0.054,0-0.059,0.015-0.157,0c-0.854,0.561-1.802,1.119-2.727,1.472
		c-0.047,0.065-0.209,0.043-0.238,0.166C112.131,109.914,111.993,109.281,111.836,108.618 M113.154,111.641
		c-0.085-0.015-0.202-0.202-0.276-0.167c-0.064-0.065-0.165-0.157-0.091-0.235c-0.02-0.021-0.028,0.004-0.069,0.004
		c-0.143-0.158-0.127-0.555-0.194-0.495c0-0.105,0.049-0.054,0.054-0.112c-0.002,0.034,0,0.043,0.017,0.043
		c0.046-0.199,0.36-0.021,0.298-0.26c0.251-0.015,0.456-0.359,0.643-0.204c0.009-0.101-0.01-0.101,0-0.134
		c0.04-0.042,0.189-0.114,0.228-0.062c0.216-0.277,0.579-0.303,0.873-0.496c0.145-0.133,0.245-0.226,0.437-0.179
		c0.003-0.061,0-0.047,0.003-0.145c0.246-0.041,0.378-0.236,0.581-0.249c0.079-0.101,0.176-0.166,0.304-0.152
		c0.186-0.238,0.59-0.214,0.681-0.45c0.667-0.323,1.599-0.335,2.34-0.311c-0.322,0.211-0.565,0.548-0.958,0.667
		c-0.009,0.04,0,0.067,0.022,0.081c-0.036,0.05-0.134,0.024-0.173,0.042c0,0.089-0.054,0.136-0.079,0.148
		c-0.035,0.022-0.077,0.059-0.173,0.042c-0.052,0.075-0.057,0.141-0.092,0.176c-0.072,0.011-0.121-0.015-0.151-0.035
		c0.012,0.113-0.05,0.09-0.029,0.186c-0.211,0-0.171,0.285-0.445,0.205c-0.035,0.093-0.025,0.058-0.056,0.178
		c-0.047,0-0.119,0-0.17,0.013c-0.071,0.183-0.216,0.358-0.456,0.365c0.012,0.19-0.182,0.194-0.205,0.194
		c-0.322,0.363-0.614,0.545-1.009,0.768c0.038,0,0.026,0.037,0.026,0.073c-0.15-0.036-0.158,0.207-0.236,0.101
		c-0.068,0.002,0.012,0.002-0.013,0.1c-0.288,0.1-0.426,0.29-0.671,0.477C113.758,111.758,113.534,111.588,113.154,111.641
		 M114.716,114.022c-0.081,0-0.077-0.118-0.109-0.153c-0.115,0.025-0.258-0.119-0.194-0.276c-0.288-0.031-0.111-0.252-0.358-0.264
		c-0.005-0.189-0.241-0.189-0.198-0.421c-0.057-0.007-0.069,0.034-0.127,0.034c-0.005-0.114-0.116-0.188-0.042-0.246
		c-0.096-0.044-0.135,0.006-0.152-0.112c0.205-0.146,0.383-0.233,0.554-0.478c0.213,0.072,0.314,0.235,0.54,0.093
		c0.511,0.279,1.209,0.185,1.798,0.385c-0.01,0.139-0.084,0.149-0.125,0.199c-0.02,0-0.033,0-0.06,0c0,0.005,0,0.021-0.006,0.035
		c-0.103,0.013-0.1,0.166-0.245,0.143c0.037,0.071-0.076,0.179-0.188,0.179C115.516,113.516,115.08,113.725,114.716,114.022
		 M115.342,114.658c-0.025-0.047,0.003-0.029,0.013-0.137c-0.109,0.066-0.336-0.134-0.409-0.271
		c0.256-0.178,0.396-0.488,0.699-0.558c0.001-0.178,0.257-0.353,0.457-0.369c-0.069-0.185,0.118-0.188,0.259-0.22
		c0.121-0.143,0.205-0.365,0.434-0.349c0-0.065,0-0.025,0.005-0.125c0.119,0.1,0.193,0.03,0.326,0.1
		c0.345,0.003,1.016,0.132,1.558,0.231c-0.04,0.013-0.159,0-0.169,0.013c0.01,0.083,0.068-0.013,0.089,0.087
		C117.551,113.793,116.747,116.373,115.342,114.658 M118.329,116.505c-0.645-0.233-1.174-0.515-1.696-0.9
		c0.228-0.209,0.395-0.496,0.603-0.759c0.083-0.003,0.131,0.052,0.14-0.003c0.003-0.316,0.31-0.316,0.376-0.557
		c0.019-0.01,0.063,0.058,0.137-0.005c-0.063-0.107,0.156-0.356,0.197-0.274c0.076-0.195,0.249-0.446,0.438-0.483
		c-0.054-0.195,0.29-0.25,0.386-0.555c0.245,0.019,0.359-0.008,0.541,0.099c-0.056,0.118-0.084,0.273-0.179,0.328
		c-0.223,0.948-0.475,2.01-0.92,2.778C118.477,116.215,118.33,116.389,118.329,116.505 M118.549,116.633
		c0.288-1.028,0.661-2.15,0.979-3.227c0.017-0.131,0.078-0.267,0.144-0.339c0.431,0.069,0.736,0.169,1.156,0.118
		c0.02,0.051,0.037,0.144,0.139,0.144c-0.228,1.296-0.326,2.504-0.52,3.846C119.852,117.052,119.11,116.87,118.549,116.633
		 M120.672,117.235c0.137-1.123,0.301-2.665,0.516-3.906c0.501,0.012,1.18,0.187,1.828,0.187c-0.07,1.048-0.284,3.035-0.388,3.923
		C122.063,117.451,121.191,117.327,120.672,117.235 M124.854,117.258c-0.598,0.06-1.382,0.201-1.97,0.173
		c0.048-1.072,0.228-2.64,0.344-4.004c0.244-0.019,0.479-0.005,0.672,0.023c0.102-0.121,0.196-0.207,0.253-0.346
		c-0.053-0.244-0.363-0.144-0.406-0.435c0.047-0.101,0.152-0.151,0.153-0.29c-0.153-0.273-0.035-0.369-0.057-0.622
		c-0.105-0.078-0.188-0.13-0.306-0.139c-0.097-0.377-0.062-0.916,0.04-1.32c0.094,0.293,0.507,0.671,0.397,0.943
		c0.259,0.015,0.321,0.438,0.405,0.619c0.033-0.007,0.027-0.045,0.063-0.045c0.085,0.189,0.076,0.522,0.06,0.8
		c0.025,0.345,0.166,0.718,0.058,1.023C124.732,114.846,124.832,115.983,124.854,117.258 M125.093,117.175
		c-0.12-1.575-0.321-3.007-0.291-4.605c0.051,0.186,0.254,0.392,0.252,0.57c0.189,0.185,0.349,0.483,0.379,0.706
		c0.192,0.239,0.563,0.813,0.581,1.167c0.251,0.135,0.272,0.428,0.416,0.639c0.011,0,0.021,0,0.03,0.006
		c0.025,0.095-0.063,0.052-0.065,0.116c0.056,0.023,0.063-0.042,0.122-0.052c0.108,0.313,0.298,0.593,0.397,0.947
		C126.39,116.871,125.729,117.078,125.093,117.175 M127.224,116.547c-0.229-0.304-0.584-0.749-0.638-1.16
		c-0.248-0.32-0.576-0.912-0.66-1.302c-0.238-0.109-0.306-0.419-0.367-0.601c-0.126-0.126-0.381-0.51-0.318-0.686
		c-0.252-0.11-0.299-0.361-0.384-0.621c-0.39-0.345-0.135-1.431-0.303-1.88c0.544,0.575,0.943,1.141,1.449,1.708
		c0.878,1.195,2.072,2.271,2.699,3.562c0.138-0.005,0.192,0.037,0.192,0.116C128.318,115.983,127.836,116.319,127.224,116.547
		 M130.571,114.277c-0.786,1.53-2.146,1.07-2.769-0.384c-0.999-1.179-1.988-2.351-2.92-3.596c0.757,0.006,1.647-1.073,2.142-0.5
		c-0.039,0.01-0.051,0.036-0.051,0.09c1.202,1.351,2.492,2.77,3.507,4.364c0.124,0.025,0.142-0.02,0.152,0.054
		C130.599,114.388,130.622,114.277,130.571,114.277 M130.899,114.054c-0.992-0.738-1.632-1.924-2.471-2.854
		c-0.029,0-0.047,0-0.065-0.003c-0.325-0.579-0.838-1.002-1.181-1.606c-0.077,0.053-0.145-0.111-0.211-0.161
		c-0.117-0.729,0.994-0.523,1.153-0.085c0.139,0,0.266,0.174,0.345,0.249c0.485,0.406,0.996,0.754,1.379,1.187
		c0.638,0.345,1.216,1.052,1.846,1.414c0.071,0.056,0,0.086,0.048,0.166c0.167-0.016,0.197,0.231,0.404,0.257
		C131.769,113.14,131.391,113.679,130.899,114.054 M132.345,112.38c-0.826-0.447-1.532-1.088-2.162-1.702
		c-0.604-0.379-1.245-0.927-1.726-1.432c1.623,0.48,3.217,0.918,4.763,1.518C133.01,111.326,132.554,111.971,132.345,112.38
		 M133.32,110.495c-1.675-0.622-4.558-0.978-5.944-2.099c0.017-0.124,0.024-0.192,0.038-0.316c2.196,0.237,4.468,0.322,6.478,0.62
		C133.799,109.367,133.531,110.03,133.32,110.495 M134.244,106.733c0.015,0.153-0.066,0.153-0.121,0.202
		c0.146,0.128-0.014,0.714-0.059,0.888c0.016,0,0.016-0.025,0.045-0.053c-0.024,0.248-0.116,0.477-0.123,0.637
		c-2.021-0.077-4.516-0.334-6.572-0.54c0.059-0.559-0.35-0.805-0.331-1.175c-0.3-0.165-0.693-0.456-1.114-0.746
		c2.131-0.647,5.94,0.478,8.275,0.566c0.02,0.18-0.15,0.25-0.107,0.331C134.254,106.887,134.162,106.716,134.244,106.733
		 M134.244,106.254c-2.556-0.122-4.806-0.556-7.161-0.768c1.813-1.076,4.597-0.765,6.986-1.142
		C134.224,104.909,134.226,105.606,134.244,106.254 M133.565,104.088c-1.413,0.289-3.123,0.435-4.589,0.508
		c1.385-0.948,2.985-1.575,4.526-2.317c-0.007,0.125,0.167,0.155,0.066,0.334c0.239,0.328,0.312,0.877,0.48,1.419
		C133.881,104.031,133.683,104.196,133.565,104.088"/>
</g>
</svg>
