<?xml version="1.0" encoding="utf-8"?>
<!-- Generator: Adobe Illustrator 16.0.0, SVG Export Plug-In . SVG Version: 6.00 Build 0)  -->
<!DOCTYPE svg PUBLIC "-//W3C//DTD SVG 1.1//EN" "http://www.w3.org/Graphics/SVG/1.1/DTD/svg11.dtd">
<svg version="1.1" id="Calque_1" xmlns="http://www.w3.org/2000/svg" xmlns:xlink="http://www.w3.org/1999/xlink" x="0px" y="0px"
	 width="100px" height="100px" viewBox="50 50 100 100" enable-background="new 50 50 100 100" xml:space="preserve">
<g>
	<g>
		<path fill="#FFFFFF" stroke="#3D3838" stroke-width="3.7057" stroke-miterlimit="10" d="M99.992,145
			C75.179,145,55,124.825,55,100.001C55,75.182,75.179,55,99.992,55C124.811,55,145,75.182,145,100.001
			C145,124.825,124.811,145,99.992,145"/>
	</g>
	<g>
		<g>
			<defs>
				<path id="SVGID_1_" d="M56.845,99.999c0,23.826,19.323,43.159,43.146,43.159c23.827,0,43.154-19.333,43.154-43.159
					c0-23.827-19.327-43.155-43.154-43.155C76.168,56.844,56.845,76.172,56.845,99.999"/>
			</defs>
			<clipPath id="SVGID_2_">
				<use xlink:href="#SVGID_1_"  overflow="visible"/>
			</clipPath>
			<rect x="43.979" y="99.098" clip-path="url(#SVGID_2_)" fill="#3D3838" width="111.373" height="53.562"/>
		</g>
		<g>
			<defs>
				<path id="SVGID_3_" d="M56.845,99.999c0,23.826,19.323,43.159,43.146,43.159c23.827,0,43.154-19.333,43.154-43.159
					c0-23.827-19.327-43.155-43.154-43.155C76.168,56.844,56.845,76.172,56.845,99.999"/>
			</defs>
			<clipPath id="SVGID_4_">
				<use xlink:href="#SVGID_3_"  overflow="visible"/>
			</clipPath>
			<path clip-path="url(#SVGID_4_)" fill="#FFFFFF" d="M99.992,58.604c22.833,0,41.405,18.554,41.405,41.396
				c0,22.806-18.571,41.408-41.405,41.408c-22.817,0-41.396-18.603-41.396-41.408C58.595,77.158,77.174,58.604,99.992,58.604
				 M99.992,56.844c-23.823,0-43.146,19.329-43.146,43.157c0,23.826,19.323,43.157,43.146,43.157
				c23.827,0,43.154-19.331,43.154-43.157C143.146,76.172,123.818,56.844,99.992,56.844"/>
		</g>
		<g>
			<defs>
				<path id="SVGID_5_" d="M56.845,99.999c0,23.826,19.323,43.159,43.146,43.159c23.827,0,43.154-19.333,43.154-43.159
					c0-23.827-19.327-43.155-43.154-43.155C76.168,56.844,56.845,76.172,56.845,99.999"/>
			</defs>
			<clipPath id="SVGID_6_">
				<use xlink:href="#SVGID_5_"  overflow="visible"/>
			</clipPath>
			<path clip-path="url(#SVGID_6_)" fill="#326E85" d="M90.899,112.806l30.459,18.083c0.052,0.028,0.061,0.046,0.103,0.078
				l0.618-50.918c-0.039-0.026-30.558-18.146-30.558-18.146c-1.431-0.832-2.628-0.191-2.641,1.509l-0.559,44.822
				C88.31,109.883,89.458,111.939,90.899,112.806"/>
		</g>
		<g>
			<defs>
				<path id="SVGID_7_" d="M56.845,99.999c0,23.826,19.323,43.159,43.146,43.159c23.827,0,43.154-19.333,43.154-43.159
					c0-23.827-19.327-43.155-43.154-43.155C76.168,56.844,56.845,76.172,56.845,99.999"/>
			</defs>
			<clipPath id="SVGID_8_">
				<use xlink:href="#SVGID_7_"  overflow="visible"/>
			</clipPath>
			<path clip-path="url(#SVGID_8_)" fill="#FFFFFF" d="M81.372,67.62l31.162,18.225l8.49-4.688L90.025,62.959
				c0,0-0.459,0.691-3.19,2.244C83.462,67.126,81.372,67.62,81.372,67.62"/>
		</g>
		<g>
			<defs>
				<path id="SVGID_9_" d="M56.845,99.999c0,23.826,19.323,43.159,43.146,43.159c23.827,0,43.154-19.333,43.154-43.159
					c0-23.827-19.327-43.155-43.154-43.155C76.168,56.844,56.845,76.172,56.845,99.999"/>
			</defs>
			<clipPath id="SVGID_10_">
				<use xlink:href="#SVGID_9_"  overflow="visible"/>
			</clipPath>
			<g clip-path="url(#SVGID_10_)">
				<g>
					<defs>
						<path id="SVGID_11_" d="M86.834,65.203c-3.372,1.921-5.463,2.417-5.463,2.417l31.163,18.225l8.489-4.688L90.025,62.959
							C90.025,62.959,89.566,63.651,86.834,65.203"/>
					</defs>
					<defs>
						<path id="SVGID_12_" d="M86.834,65.203c-3.372,1.921-5.463,2.417-5.463,2.417l31.163,18.225l8.489-4.688L90.025,62.959
							C90.025,62.959,89.566,63.651,86.834,65.203"/>
					</defs>
					<defs>
						<path id="SVGID_13_" d="M86.834,65.203c-3.372,1.921-5.463,2.417-5.463,2.417l31.163,18.225l8.489-4.688L90.025,62.959
							C90.025,62.959,89.566,63.651,86.834,65.203"/>
					</defs>
					<defs>
						<path id="SVGID_14_" d="M86.834,65.203c-3.372,1.921-5.463,2.417-5.463,2.417l31.163,18.225l8.489-4.688L90.025,62.959
							C90.025,62.959,89.566,63.651,86.834,65.203"/>
					</defs>
					<defs>
						<path id="SVGID_15_" d="M86.834,65.203c-3.372,1.921-5.463,2.417-5.463,2.417l31.163,18.225l8.489-4.688L90.025,62.959
							C90.025,62.959,89.566,63.651,86.834,65.203"/>
					</defs>
					<defs>
						<path id="SVGID_16_" d="M86.834,65.203c-3.372,1.921-5.463,2.417-5.463,2.417l31.163,18.225l8.489-4.688L90.025,62.959
							C90.025,62.959,89.566,63.651,86.834,65.203"/>
					</defs>
					<defs>
						<path id="SVGID_17_" d="M86.834,65.203c-3.372,1.921-5.463,2.417-5.463,2.417l31.163,18.225l8.489-4.688L90.025,62.959
							C90.025,62.959,89.566,63.651,86.834,65.203"/>
					</defs>
					<defs>
						<path id="SVGID_18_" d="M86.834,65.203c-3.372,1.921-5.463,2.417-5.463,2.417l31.163,18.225l8.489-4.688L90.025,62.959
							C90.025,62.959,89.566,63.651,86.834,65.203"/>
					</defs>
					<defs>
						<path id="SVGID_19_" d="M86.834,65.203c-3.372,1.921-5.463,2.417-5.463,2.417l31.163,18.225l8.489-4.688L90.025,62.959
							C90.025,62.959,89.566,63.651,86.834,65.203"/>
					</defs>
					<defs>
						<path id="SVGID_20_" d="M86.834,65.203c-3.372,1.921-5.463,2.417-5.463,2.417l31.163,18.225l8.489-4.688L90.025,62.959
							C90.025,62.959,89.566,63.651,86.834,65.203"/>
					</defs>
					<defs>
						<path id="SVGID_21_" d="M86.834,65.203c-3.372,1.921-5.463,2.417-5.463,2.417l31.163,18.225l8.489-4.688L90.025,62.959
							C90.025,62.959,89.566,63.651,86.834,65.203"/>
					</defs>
					<defs>
						<path id="SVGID_22_" d="M86.834,65.203c-3.372,1.921-5.463,2.417-5.463,2.417l31.163,18.225l8.489-4.688L90.025,62.959
							C90.025,62.959,89.566,63.651,86.834,65.203"/>
					</defs>
					<defs>
						<path id="SVGID_23_" d="M86.834,65.203c-3.372,1.921-5.463,2.417-5.463,2.417l31.163,18.225l8.489-4.688L90.025,62.959
							C90.025,62.959,89.566,63.651,86.834,65.203"/>
					</defs>
					<defs>
						<path id="SVGID_24_" d="M86.834,65.203c-3.372,1.921-5.463,2.417-5.463,2.417l31.163,18.225l8.489-4.688L90.025,62.959
							C90.025,62.959,89.566,63.651,86.834,65.203"/>
					</defs>
					<clipPath id="SVGID_25_">
						<use xlink:href="#SVGID_11_"  overflow="visible"/>
					</clipPath>
					<clipPath id="SVGID_26_" clip-path="url(#SVGID_25_)">
						<use xlink:href="#SVGID_12_"  overflow="visible"/>
					</clipPath>
					<clipPath id="SVGID_27_" clip-path="url(#SVGID_26_)">
						<use xlink:href="#SVGID_13_"  overflow="visible"/>
					</clipPath>
					<clipPath id="SVGID_28_" clip-path="url(#SVGID_27_)">
						<use xlink:href="#SVGID_14_"  overflow="visible"/>
					</clipPath>
					<clipPath id="SVGID_29_" clip-path="url(#SVGID_28_)">
						<use xlink:href="#SVGID_15_"  overflow="visible"/>
					</clipPath>
					<clipPath id="SVGID_30_" clip-path="url(#SVGID_29_)">
						<use xlink:href="#SVGID_16_"  overflow="visible"/>
					</clipPath>
					<clipPath id="SVGID_31_" clip-path="url(#SVGID_30_)">
						<use xlink:href="#SVGID_17_"  overflow="visible"/>
					</clipPath>
					<clipPath id="SVGID_32_" clip-path="url(#SVGID_31_)">
						<use xlink:href="#SVGID_18_"  overflow="visible"/>
					</clipPath>
					<clipPath id="SVGID_33_" clip-path="url(#SVGID_32_)">
						<use xlink:href="#SVGID_19_"  overflow="visible"/>
					</clipPath>
					<clipPath id="SVGID_34_" clip-path="url(#SVGID_33_)">
						<use xlink:href="#SVGID_20_"  overflow="visible"/>
					</clipPath>
					<clipPath id="SVGID_35_" clip-path="url(#SVGID_34_)">
						<use xlink:href="#SVGID_21_"  overflow="visible"/>
					</clipPath>
					<clipPath id="SVGID_36_" clip-path="url(#SVGID_35_)">
						<use xlink:href="#SVGID_22_"  overflow="visible"/>
					</clipPath>
					<clipPath id="SVGID_37_" clip-path="url(#SVGID_36_)">
						<use xlink:href="#SVGID_23_"  overflow="visible"/>
					</clipPath>
					<clipPath id="SVGID_38_" clip-path="url(#SVGID_37_)">
						<use xlink:href="#SVGID_24_"  overflow="visible"/>
					</clipPath>
					<polygon clip-path="url(#SVGID_38_)" fill="#E2E0CF" points="81.314,65.546 114.117,85.031 113.885,85.178 81.07,65.714 					
						"/>
					<polygon clip-path="url(#SVGID_38_)" fill="#E2E0CF" points="82.017,65.146 114.835,84.632 114.599,84.79 81.789,65.31 					
						"/>
					<polygon clip-path="url(#SVGID_38_)" fill="#E2E0CF" points="82.739,64.749 115.541,84.225 115.31,84.4 82.501,64.908 					"/>
					<polygon clip-path="url(#SVGID_38_)" fill="#E2E0CF" points="83.449,64.367 116.25,83.833 116.006,84 83.199,64.508 					"/>
					<polygon clip-path="url(#SVGID_38_)" fill="#E2E0CF" points="84.145,63.979 116.954,83.443 116.726,83.586 83.916,64.102 					
						"/>
					<polygon clip-path="url(#SVGID_38_)" fill="#E2E0CF" points="84.861,63.58 117.668,83.068 117.438,83.187 84.628,63.694 					
						"/>
					<polygon clip-path="url(#SVGID_38_)" fill="#E2E0CF" points="85.577,63.18 118.385,82.665 118.142,82.786 85.341,63.294 					
						"/>
					<polygon clip-path="url(#SVGID_38_)" fill="#E2E0CF" points="86.209,62.738 119.021,82.236 118.782,82.354 85.977,62.862 					
						"/>
					<polygon clip-path="url(#SVGID_38_)" fill="#E2E0CF" points="86.927,62.338 119.731,81.832 119.494,81.945 86.686,62.456 					
						"/>
					<polygon clip-path="url(#SVGID_38_)" fill="#E2E0CF" points="87.634,61.939 120.442,81.424 120.189,81.545 87.388,62.08 					
						"/>
					<polygon clip-path="url(#SVGID_38_)" fill="#E2E0CF" points="88.333,61.54 121.146,81.024 120.909,81.157 88.108,61.692 					
						"/>
					<polygon clip-path="url(#SVGID_38_)" fill="#E2E0CF" points="89.049,61.14 121.859,80.623 121.629,80.773 88.821,61.301 					
						"/>
					<polygon clip-path="url(#SVGID_38_)" fill="#E2E0CF" points="89.765,60.752 122.572,80.224 122.333,80.394 89.527,60.896 					
						"/>
					<polygon clip-path="url(#SVGID_38_)" fill="#E2E0CF" points="90.459,60.363 123.271,79.828 123.045,79.988 90.227,60.493 					
						"/>
				</g>
				<g>
					<defs>
						<path id="SVGID_39_" d="M56.845,99.999c0,23.826,19.323,43.159,43.146,43.159c23.827,0,43.154-19.333,43.154-43.159
							c0-23.827-19.327-43.155-43.154-43.155C76.168,56.844,56.845,76.172,56.845,99.999"/>
					</defs>
					<clipPath id="SVGID_40_">
						<use xlink:href="#SVGID_39_"  overflow="visible"/>
					</clipPath>
					<polygon clip-path="url(#SVGID_40_)" fill="#24B0B5" points="112.865,85.234 122.08,80.049 121.463,130.968 112.236,136.112 
											"/>
				</g>
				<g>
					<defs>
						<path id="SVGID_41_" d="M56.845,99.999c0,23.826,19.323,43.159,43.146,43.159c23.827,0,43.154-19.333,43.154-43.159
							c0-23.827-19.327-43.155-43.154-43.155C76.168,56.844,56.845,76.172,56.845,99.999"/>
					</defs>
					<clipPath id="SVGID_42_">
						<use xlink:href="#SVGID_41_"  overflow="visible"/>
					</clipPath>
					<polygon clip-path="url(#SVGID_42_)" fill="#326E85" points="113.122,129.826 120.723,125.581 120.674,129.357 
						113.076,133.637 					"/>
				</g>
				<g>
					<defs>
						<path id="SVGID_43_" d="M56.845,99.999c0,23.826,19.323,43.159,43.146,43.159c23.827,0,43.154-19.333,43.154-43.159
							c0-23.827-19.327-43.155-43.154-43.155C76.168,56.844,56.845,76.172,56.845,99.999"/>
					</defs>
					<clipPath id="SVGID_44_">
						<use xlink:href="#SVGID_43_"  overflow="visible"/>
					</clipPath>
					<polygon clip-path="url(#SVGID_44_)" fill="#326E85" points="113.157,126.503 120.752,122.222 120.734,124.208 
						113.133,128.487 					"/>
				</g>
				<g>
					<defs>
						<path id="SVGID_45_" d="M56.845,99.999c0,23.826,19.323,43.159,43.146,43.159c23.827,0,43.154-19.333,43.154-43.159
							c0-23.827-19.327-43.155-43.154-43.155C76.168,56.844,56.845,76.172,56.845,99.999"/>
					</defs>
					<clipPath id="SVGID_46_">
						<use xlink:href="#SVGID_45_"  overflow="visible"/>
					</clipPath>
					<polygon clip-path="url(#SVGID_46_)" fill="#326E85" points="113.966,87.422 120.909,83.496 120.898,85.324 113.931,89.202 
											"/>
				</g>
				<g>
					<defs>
						<path id="SVGID_47_" d="M56.845,99.999c0,23.826,19.323,43.159,43.146,43.159c23.827,0,43.154-19.333,43.154-43.159
							c0-23.827-19.327-43.155-43.154-43.155C76.168,56.844,56.845,76.172,56.845,99.999"/>
					</defs>
					<clipPath id="SVGID_48_">
						<use xlink:href="#SVGID_47_"  overflow="visible"/>
					</clipPath>
					<path clip-path="url(#SVGID_48_)" fill="#326E85" d="M81.789,117.903l30.472,18.085c0.035,0.034,0.077,0.062,0.115,0.089
						l0.634-50.898c-0.047-0.001-0.088-0.016-0.125-0.051l-30.48-18.093c-1.414-0.86-2.611-0.176-2.645,1.481l-0.542,44.816
						C79.191,114.979,80.352,117.038,81.789,117.903"/>
				</g>
				<g>
					<defs>
						<path id="SVGID_49_" d="M56.845,99.999c0,23.826,19.323,43.159,43.146,43.159c23.827,0,43.154-19.333,43.154-43.159
							c0-23.827-19.327-43.155-43.154-43.155C76.168,56.844,56.845,76.172,56.845,99.999"/>
					</defs>
					<clipPath id="SVGID_50_">
						<use xlink:href="#SVGID_49_"  overflow="visible"/>
					</clipPath>
					<polygon clip-path="url(#SVGID_50_)" fill="#542D38" points="84.975,105.369 107.051,118.472 106.97,125.632 84.875,112.514 
											"/>
				</g>
				<g>
					<defs>
						<path id="SVGID_51_" d="M56.845,99.999c0,23.826,19.323,43.159,43.146,43.159c23.827,0,43.154-19.333,43.154-43.159
							c0-23.827-19.327-43.155-43.154-43.155C76.168,56.844,56.845,76.172,56.845,99.999"/>
					</defs>
					<clipPath id="SVGID_52_">
						<use xlink:href="#SVGID_51_"  overflow="visible"/>
					</clipPath>
					<polygon clip-path="url(#SVGID_52_)" fill="#24B0B5" points="93.732,80.924 99.016,84.038 98.99,85.756 93.708,82.644 					"/>
				</g>
				<g>
					<defs>
						<path id="SVGID_53_" d="M56.845,99.999c0,23.826,19.323,43.159,43.146,43.159c23.827,0,43.154-19.333,43.154-43.159
							c0-23.827-19.327-43.155-43.154-43.155C76.168,56.844,56.845,76.172,56.845,99.999"/>
					</defs>
					<clipPath id="SVGID_54_">
						<use xlink:href="#SVGID_53_"  overflow="visible"/>
					</clipPath>
					<path clip-path="url(#SVGID_54_)" fill="#326E85" d="M118.589,91.464c-0.035,1.41-0.158,2.667-0.158,4.185
						c-0.643,0.364-1.135,0.974-1.668,1.558c-0.133-0.184-0.167-0.629-0.406-0.558c0.026,1.295-0.151,2.854-0.077,3.741
						c0.289-0.087,0.243-0.71,0.49-0.887c0.668-0.594,1.45-1.505,2.146-1.594c0.343-0.799,0.719-1.516,0.896-2.625
						c-0.055-0.443-0.239-0.576-0.397-0.812c-0.218,0.203-0.334,0.585-0.607,0.638c0.034-1.527,0.326-2.678,0.336-4.238
						c-0.449-0.681-1.216,0.896-1.829,1.269c-0.202,0.106-0.301-0.046-0.561,0.221c0.13,1.151-0.124,3.297,0.096,4.128
						c0.297-0.018,0.27-0.592,0.491-0.709c0.368-0.496,0.868-0.716,1.002-1.594c-0.326-0.248-0.765,1.126-1.091,0.843
						c-0.027-1.374,0.906-1.074,1.054-2.181c-0.368-0.212-0.692,0.77-1.036,1.107c-0.063-0.158-0.052-0.47-0.042-0.796
						C117.5,92.375,118.237,91.667,118.589,91.464 M116.727,99.008c-0.115-0.86,0.01-1.545,0.526-1.675
						C117.279,98.217,117.156,98.918,116.727,99.008 M117.596,98.176c0.026-0.445-0.033-1.064,0.089-1.376
						c0.103-0.088,0.199-0.167,0.307-0.195c-0.01,0.364-0.024,0.728-0.026,1.089C117.844,97.88,117.727,98.06,117.596,98.176
						 M119.158,95.584c-0.044,0.659-0.138,1.223-0.299,1.658c-0.193,0.144-0.401,0.266-0.604,0.374
						C118.307,96.533,118.596,95.833,119.158,95.584"/>
				</g>
				<g>
					<defs>
						<path id="SVGID_55_" d="M56.845,99.999c0,23.826,19.323,43.159,43.146,43.159c23.827,0,43.154-19.333,43.154-43.159
							c0-23.827-19.327-43.155-43.154-43.155C76.168,56.844,56.845,76.172,56.845,99.999"/>
					</defs>
					<clipPath id="SVGID_56_">
						<use xlink:href="#SVGID_55_"  overflow="visible"/>
					</clipPath>
					<path clip-path="url(#SVGID_56_)" fill="#326E85" d="M115.672,95.48c0.308-1.393-0.265-1.393-0.827-0.826
						C114.996,95.276,115.23,95.664,115.672,95.48"/>
				</g>
				<g>
					<defs>
						<path id="SVGID_57_" d="M56.845,99.999c0,23.826,19.323,43.159,43.146,43.159c23.827,0,43.154-19.333,43.154-43.159
							c0-23.827-19.327-43.155-43.154-43.155C76.168,56.844,56.845,76.172,56.845,99.999"/>
					</defs>
					<clipPath id="SVGID_58_">
						<use xlink:href="#SVGID_57_"  overflow="visible"/>
					</clipPath>
					<path clip-path="url(#SVGID_58_)" fill="#326E85" d="M115.416,98.492c0.09-1.23-0.49-0.601-0.951-0.344
						c-0.049,0.028-0.066,0.152-0.06,0.299c0.008,0.089,0.042,0.115,0.115,0.082C114.764,98.654,115.038,99.096,115.416,98.492"/>
				</g>
				<g>
					<defs>
						<path id="SVGID_59_" d="M56.845,99.999c0,23.826,19.323,43.159,43.146,43.159c23.827,0,43.154-19.333,43.154-43.159
							c0-23.827-19.327-43.155-43.154-43.155C76.168,56.844,56.845,76.172,56.845,99.999"/>
					</defs>
					<clipPath id="SVGID_60_">
						<use xlink:href="#SVGID_59_"  overflow="visible"/>
					</clipPath>
					<path clip-path="url(#SVGID_60_)" fill="#326E85" d="M115.601,98.342c-0.456,1.924-0.766,4.138-1.519,5.567
						c0.137,0.629,0.244,1.27,0.649,1.106c0.19-1.063,0.296-2.266,0.489-3.287c0.145-1.137,0.431-2.05,0.503-3.305
						C115.713,98.333,115.672,98.317,115.601,98.342"/>
				</g>
				<g>
					<defs>
						<path id="SVGID_61_" d="M56.845,99.999c0,23.826,19.323,43.159,43.146,43.159c23.827,0,43.154-19.333,43.154-43.159
							c0-23.827-19.327-43.155-43.154-43.155C76.168,56.844,56.845,76.172,56.845,99.999"/>
					</defs>
					<clipPath id="SVGID_62_">
						<use xlink:href="#SVGID_61_"  overflow="visible"/>
					</clipPath>
					<path clip-path="url(#SVGID_62_)" fill="#326E85" d="M118.106,101.533c0.104-1.063,0.563-1.442,0.543-2.64
						c-0.209-0.391-0.823,0.284-1.096,0.682c-0.364,0.409-0.853,0.639-1.046,1.331c0.367,0.692,0.938-0.853,1.468-1.209
						c-0.105,0.544-0.132,1.209-0.396,1.506c-0.284,0.181-0.635-0.479-0.853,0.384c0.209,0.062,0.499-0.063,0.589,0.294
						c-0.273,0.688-0.598,1.354-0.881,2.046c-0.191,0.319-0.331,0.7-0.501,1.012c-0.132,0.424-0.385,0.577-0.448,1.073
						c0.336-0.054,0.793-1.093,1.18-1.562c0.139-0.391,0.401-0.612,0.492-1.134c0.264-0.205,0.279-0.87,0.569-1.002
						c0.624,0.313,0.924,1.483,1.593,1.71c0.554-0.38,0.87-1.152,1.459-1.489c0.015-0.707-0.468-0.026-0.649-0.255
						c-0.301,0.133-0.557,0.188-0.768,0.062c-0.244,0-0.457-0.142-0.666-0.232C118.52,101.853,118.156,102.145,118.106,101.533"/>
				</g>
				<g>
					<defs>
						<path id="SVGID_63_" d="M56.845,99.999c0,23.826,19.323,43.159,43.146,43.159c23.827,0,43.154-19.333,43.154-43.159
							c0-23.827-19.327-43.155-43.154-43.155C76.168,56.844,56.845,76.172,56.845,99.999"/>
					</defs>
					<clipPath id="SVGID_64_">
						<use xlink:href="#SVGID_63_"  overflow="visible"/>
					</clipPath>
					<path clip-path="url(#SVGID_64_)" fill="#326E85" d="M116.498,106.479c-0.01,0.452-0.02,0.904-0.029,1.383
						c0.037,0.284-0.051,0.957,0.152,0.822c0.229-0.672,0.289-2.337,0.199-3.101c-0.123,0.108-0.132-0.052-0.253,0.002
						c-0.008,0.18-0.008,0.292-0.008,0.423C116.552,106.178,116.486,106.259,116.498,106.479"/>
				</g>
				<g>
					<defs>
						<path id="SVGID_65_" d="M56.845,99.999c0,23.826,19.323,43.159,43.146,43.159c23.827,0,43.154-19.333,43.154-43.159
							c0-23.827-19.327-43.155-43.154-43.155C76.168,56.844,56.845,76.172,56.845,99.999"/>
					</defs>
					<clipPath id="SVGID_66_">
						<use xlink:href="#SVGID_65_"  overflow="visible"/>
					</clipPath>
					<path clip-path="url(#SVGID_66_)" fill="#326E85" d="M116.156,110.475c0.405-0.309,0.853-0.494,1.22-0.77
						c0.37-0.31,0.938-0.31,1.001-1.169c0.133-0.373-0.263-0.313-0.297-0.647c-0.741,0.354-1.344,1.376-1.963,1.915
						c-0.386,0.363-0.756,0.363-1.157,0.903C115.119,111.578,115.663,110.831,116.156,110.475"/>
				</g>
				<g>
					<defs>
						<path id="SVGID_67_" d="M56.845,99.999c0,23.826,19.323,43.159,43.146,43.159c23.827,0,43.154-19.333,43.154-43.159
							c0-23.827-19.327-43.155-43.154-43.155C76.168,56.844,56.845,76.172,56.845,99.999"/>
					</defs>
					<clipPath id="SVGID_68_">
						<use xlink:href="#SVGID_67_"  overflow="visible"/>
					</clipPath>
					<path clip-path="url(#SVGID_68_)" fill="#326E85" d="M115.884,117.416c0.701-0.362,1.265-0.948,1.949-1.347
						c0.237-1.799,0.554-3.438,0.659-5.459c-0.213-0.595-0.968,0.312-1.39,0.629c-0.474,0.486-0.99,0.966-1.484,1.453
						c-0.211,0.18-0.211-0.548-0.414-0.009c0.203,1.295-0.06,3.89,0.124,5.22C115.46,118.115,115.592,117.416,115.884,117.416
						 M117.088,111.902c0.218-0.204,0.597-0.661,0.789-0.477c-0.053,1.437-0.247,2.703-0.395,4.041
						c-0.221,0.136-0.44,0.25-0.66,0.426c-0.018-0.639,0.044-1.15,0.088-1.712c0.177-0.319,0.503-0.387,0.615-0.763
						c0.009-0.619-0.3-0.38-0.59-0.195C116.91,112.657,117.066,112.409,117.088,111.902 M116.262,116.488
						c-0.205,0.12-0.503,0.426-0.61,0.264c0.018-0.479,0.02-0.903,0.036-1.394c0.219-0.266,0.439-0.576,0.73-0.725
						C116.417,115.335,116.348,115.937,116.262,116.488 M115.787,113.269c0.129-0.294,0.402-0.354,0.613-0.514
						c-0.046,0.468,0.035,0.627,0.052,0.915c-0.178,0.414-0.438,0.697-0.745,0.892C115.752,114.166,115.653,113.499,115.787,113.269
						"/>
				</g>
				<g>
					<defs>
						<path id="SVGID_69_" d="M56.845,99.999c0,23.826,19.323,43.159,43.146,43.159c23.827,0,43.154-19.333,43.154-43.159
							c0-23.827-19.327-43.155-43.154-43.155C76.168,56.844,56.845,76.172,56.845,99.999"/>
					</defs>
					<clipPath id="SVGID_70_">
						<use xlink:href="#SVGID_69_"  overflow="visible"/>
					</clipPath>
					<path clip-path="url(#SVGID_70_)" fill="#326E85" d="M114.096,113.65c-0.009,0.169-0.068,0.25-0.066,0.479
						c0.104,0.433,0.104,1.187,0.147,1.773c0.042,0.442-0.088,1.115-0.105,1.709c-0.071,1.659-0.255,3.872,0.332,3.717
						c0.294-2.174,0.185-5.039,0.294-7.517C114.535,113.686,114.441,113.333,114.096,113.65"/>
				</g>
				<g>
					<defs>
						<path id="SVGID_71_" d="M56.845,99.999c0,23.826,19.323,43.159,43.146,43.159c23.827,0,43.154-19.333,43.154-43.159
							c0-23.827-19.327-43.155-43.154-43.155C76.168,56.844,56.845,76.172,56.845,99.999"/>
					</defs>
					<clipPath id="SVGID_72_">
						<use xlink:href="#SVGID_71_"  overflow="visible"/>
					</clipPath>
					<path clip-path="url(#SVGID_72_)" fill="#326E85" d="M119.794,111.426c-0.107-0.309-0.245-0.595-0.457-0.674
						c-0.29,1.957-0.316,4.37-0.739,6.052c-1.23,0.638-2.25,1.666-3.419,2.413c-0.134,0.346-0.501,0.303-0.564,0.76
						c0.134,0.337,0.548-0.089,0.845-0.271c1.012-0.56,2.156-1.523,3.049-1.766c0.117,0.07,0.053,0.719,0.23,0.638
						c0.378-0.781,0.449-2.143,0.668-3.25C119.527,113.98,119.775,112.907,119.794,111.426"/>
				</g>
				<g>
					<defs>
						<path id="SVGID_73_" d="M56.845,99.999c0,23.826,19.323,43.159,43.146,43.159c23.827,0,43.154-19.333,43.154-43.159
							c0-23.827-19.327-43.155-43.154-43.155C76.168,56.844,56.845,76.172,56.845,99.999"/>
					</defs>
					<clipPath id="SVGID_74_">
						<use xlink:href="#SVGID_73_"  overflow="visible"/>
					</clipPath>
					<path clip-path="url(#SVGID_74_)" fill="#F37920" d="M89.647,122.363l23.001,13.58c0.034,0.024,0.042,0.034,0.069,0.061
						l0.415-38.363C113.105,97.608,90.077,84,90.077,84c-1.072-0.663-1.967-0.167-1.985,1.107l-0.374,33.807
						C87.705,120.146,88.574,121.7,89.647,122.363"/>
				</g>
				<g>
					<defs>
						<path id="SVGID_75_" d="M56.845,99.999c0,23.826,19.323,43.159,43.146,43.159c23.827,0,43.154-19.333,43.154-43.159
							c0-23.827-19.327-43.155-43.154-43.155C76.168,56.844,56.845,76.172,56.845,99.999"/>
					</defs>
					<clipPath id="SVGID_76_">
						<use xlink:href="#SVGID_75_"  overflow="visible"/>
					</clipPath>
					<path clip-path="url(#SVGID_76_)" fill="#DD6E1D" d="M88.123,85.144l-0.382,33.796c-0.005,1.233,0.869,2.802,1.942,3.433
						l9.211,5.458l0.32-38.451l-9.096-5.344C89.04,83.37,88.13,83.853,88.123,85.144"/>
				</g>
				<g>
					<defs>
						<path id="SVGID_77_" d="M56.845,99.999c0,23.826,19.323,43.159,43.146,43.159c23.827,0,43.154-19.333,43.154-43.159
							c0-23.827-19.327-43.155-43.154-43.155C76.168,56.844,56.845,76.172,56.845,99.999"/>
					</defs>
					<clipPath id="SVGID_78_">
						<use xlink:href="#SVGID_77_"  overflow="visible"/>
					</clipPath>
					<path clip-path="url(#SVGID_78_)" fill="#FFFFFF" d="M82.421,88.273l23.521,13.714l6.396-3.496L88.952,84.79
						c0,0-0.343,0.532-2.395,1.703C84,87.926,82.421,88.273,82.421,88.273"/>
				</g>
				<g>
					<defs>
						<path id="SVGID_79_" d="M56.845,99.999c0,23.826,19.323,43.159,43.146,43.159c23.827,0,43.154-19.333,43.154-43.159
							c0-23.827-19.327-43.155-43.154-43.155C76.168,56.844,56.845,76.172,56.845,99.999"/>
					</defs>
					<clipPath id="SVGID_80_">
						<use xlink:href="#SVGID_79_"  overflow="visible"/>
					</clipPath>
					<path clip-path="url(#SVGID_80_)" fill="#F37920" d="M82.781,126.192l23.004,13.625c0.03,0.033,0.052,0.052,0.085,0.071
						l0.438-38.354c-0.043-0.029-0.068-0.061-0.103-0.08L83.208,87.846c-1.067-0.629-1.968-0.151-1.983,1.144l-0.374,33.764
						C80.835,124.022,81.711,125.581,82.781,126.192"/>
				</g>
				<g>
					<defs>
						<path id="SVGID_81_" d="M56.845,99.999c0,23.826,19.323,43.159,43.146,43.159c23.827,0,43.154-19.333,43.154-43.159
							c0-23.827-19.327-43.155-43.154-43.155C76.168,56.844,56.845,76.172,56.845,99.999"/>
					</defs>
					<clipPath id="SVGID_82_">
						<use xlink:href="#SVGID_81_"  overflow="visible"/>
					</clipPath>
					<path clip-path="url(#SVGID_82_)" fill="#DD6E1D" d="M81.226,88.99l-0.374,33.764c-0.017,1.269,0.858,2.827,1.929,3.438
						l9.208,5.478l0.329-38.443l-9.109-5.38C82.142,87.217,81.24,87.696,81.226,88.99"/>
				</g>
				<g>
					<defs>
						<path id="SVGID_83_" d="M56.845,99.999c0,23.826,19.323,43.159,43.146,43.159c23.827,0,43.154-19.333,43.154-43.159
							c0-23.827-19.327-43.155-43.154-43.155C76.168,56.844,56.845,76.172,56.845,99.999"/>
					</defs>
					<clipPath id="SVGID_84_">
						<use xlink:href="#SVGID_83_"  overflow="visible"/>
					</clipPath>
					<g clip-path="url(#SVGID_84_)">
						<g>
							<defs>
								<path id="SVGID_85_" d="M86.557,86.493c-2.558,1.436-4.136,1.781-4.136,1.781l23.521,13.714l6.396-3.496L88.952,84.79
									C88.952,84.79,88.608,85.323,86.557,86.493"/>
							</defs>
							<defs>
								<path id="SVGID_86_" d="M86.557,86.493c-2.558,1.436-4.136,1.781-4.136,1.781l23.521,13.714l6.396-3.496L88.952,84.79
									C88.952,84.79,88.608,85.323,86.557,86.493"/>
							</defs>
							<defs>
								<path id="SVGID_87_" d="M86.557,86.493c-2.558,1.436-4.136,1.781-4.136,1.781l23.521,13.714l6.396-3.496L88.952,84.79
									C88.952,84.79,88.608,85.323,86.557,86.493"/>
							</defs>
							<defs>
								<path id="SVGID_88_" d="M86.557,86.493c-2.558,1.436-4.136,1.781-4.136,1.781l23.521,13.714l6.396-3.496L88.952,84.79
									C88.952,84.79,88.608,85.323,86.557,86.493"/>
							</defs>
							<defs>
								<path id="SVGID_89_" d="M86.557,86.493c-2.558,1.436-4.136,1.781-4.136,1.781l23.521,13.714l6.396-3.496L88.952,84.79
									C88.952,84.79,88.608,85.323,86.557,86.493"/>
							</defs>
							<defs>
								<path id="SVGID_90_" d="M86.557,86.493c-2.558,1.436-4.136,1.781-4.136,1.781l23.521,13.714l6.396-3.496L88.952,84.79
									C88.952,84.79,88.608,85.323,86.557,86.493"/>
							</defs>
							<defs>
								<path id="SVGID_91_" d="M86.557,86.493c-2.558,1.436-4.136,1.781-4.136,1.781l23.521,13.714l6.396-3.496L88.952,84.79
									C88.952,84.79,88.608,85.323,86.557,86.493"/>
							</defs>
							<clipPath id="SVGID_92_">
								<use xlink:href="#SVGID_85_"  overflow="visible"/>
							</clipPath>
							<clipPath id="SVGID_93_" clip-path="url(#SVGID_92_)">
								<use xlink:href="#SVGID_86_"  overflow="visible"/>
							</clipPath>
							<clipPath id="SVGID_94_" clip-path="url(#SVGID_93_)">
								<use xlink:href="#SVGID_87_"  overflow="visible"/>
							</clipPath>
							<clipPath id="SVGID_95_" clip-path="url(#SVGID_94_)">
								<use xlink:href="#SVGID_88_"  overflow="visible"/>
							</clipPath>
							<clipPath id="SVGID_96_" clip-path="url(#SVGID_95_)">
								<use xlink:href="#SVGID_89_"  overflow="visible"/>
							</clipPath>
							<clipPath id="SVGID_97_" clip-path="url(#SVGID_96_)">
								<use xlink:href="#SVGID_90_"  overflow="visible"/>
							</clipPath>
							<clipPath id="SVGID_98_" clip-path="url(#SVGID_97_)">
								<use xlink:href="#SVGID_91_"  overflow="visible"/>
							</clipPath>
							<polygon clip-path="url(#SVGID_98_)" fill="#A6A8AB" points="76.449,82.885 109.281,102.342 109.045,102.463 76.217,83.018 
															"/>
							<polygon clip-path="url(#SVGID_98_)" fill="#A6A8AB" points="77.166,82.493 109.993,101.941 109.754,102.058 76.916,82.618 
															"/>
							<polygon clip-path="url(#SVGID_98_)" fill="#A6A8AB" points="77.861,82.095 110.698,101.533 110.459,101.648 77.626,82.209 
															"/>
							<polygon clip-path="url(#SVGID_98_)" fill="#A6A8AB" points="78.573,81.689 111.4,101.133 111.178,101.242 78.344,81.804 
															"/>
							<polygon clip-path="url(#SVGID_98_)" fill="#A6A8AB" points="79.289,81.288 112.12,100.718 111.885,100.841 79.056,81.396 
															"/>
							<polygon clip-path="url(#SVGID_98_)" fill="#A6A8AB" points="79.996,80.881 112.83,100.318 112.586,100.445 79.753,80.997 
															"/>
							<polygon clip-path="url(#SVGID_98_)" fill="#A6A8AB" points="80.695,80.473 113.526,99.912 113.298,100.061 80.467,80.597 
															"/>
						</g>
						<g>
							<defs>
								<path id="SVGID_99_" d="M56.845,99.999c0,23.826,19.323,43.159,43.146,43.159c23.827,0,43.154-19.333,43.154-43.159
									c0-23.827-19.327-43.155-43.154-43.155C76.168,56.844,56.845,76.172,56.845,99.999"/>
							</defs>
							<clipPath id="SVGID_100_">
								<use xlink:href="#SVGID_99_"  overflow="visible"/>
							</clipPath>
							<polygon clip-path="url(#SVGID_100_)" fill="#F37920" points="106.188,101.567 113.133,97.633 112.72,136.002 
								105.775,139.924 							"/>
						</g>
						<g>
							<defs>
								<path id="SVGID_101_" d="M56.845,99.999c0,23.826,19.323,43.159,43.146,43.159c23.827,0,43.154-19.333,43.154-43.159
									c0-23.827-19.327-43.155-43.154-43.155C76.168,56.844,56.845,76.172,56.845,99.999"/>
							</defs>
							<clipPath id="SVGID_102_">
								<use xlink:href="#SVGID_101_"  overflow="visible"/>
							</clipPath>
							<polygon clip-path="url(#SVGID_102_)" fill="#DD6E1D" points="106.427,135.169 112.148,131.936 112.12,134.791 
								106.4,138.019 							"/>
						</g>
						<g>
							<defs>
								<path id="SVGID_103_" d="M56.845,99.999c0,23.826,19.323,43.159,43.146,43.159c23.827,0,43.154-19.333,43.154-43.159
									c0-23.827-19.327-43.155-43.154-43.155C76.168,56.844,56.845,76.172,56.845,99.999"/>
							</defs>
							<clipPath id="SVGID_104_">
								<use xlink:href="#SVGID_103_"  overflow="visible"/>
							</clipPath>
							<polygon clip-path="url(#SVGID_104_)" fill="#DD6E1D" points="107.014,103.188 112.261,100.241 112.252,101.587 
								107.012,104.554 							"/>
						</g>
						<g>
							<defs>
								<path id="SVGID_105_" d="M56.845,99.999c0,23.826,19.323,43.159,43.146,43.159c23.827,0,43.154-19.333,43.154-43.159
									c0-23.827-19.327-43.155-43.154-43.155C76.168,56.844,56.845,76.172,56.845,99.999"/>
							</defs>
							<clipPath id="SVGID_106_">
								<use xlink:href="#SVGID_105_"  overflow="visible"/>
							</clipPath>
							<path clip-path="url(#SVGID_106_)" fill="#DD6E1D" d="M109.775,104.842c0.78-0.409,1.396-0.038,1.386,0.842
								c-0.015,0.876-0.649,1.984-1.432,2.385c-0.78,0.441-1.396,0.086-1.381-0.789
								C108.349,106.349,108.999,105.299,109.775,104.842"/>
						</g>
						<g>
							<defs>
								<path id="SVGID_107_" d="M56.845,99.999c0,23.826,19.323,43.159,43.146,43.159c23.827,0,43.154-19.333,43.154-43.159
									c0-23.827-19.327-43.155-43.154-43.155C76.168,56.844,56.845,76.172,56.845,99.999"/>
							</defs>
							<clipPath id="SVGID_108_">
								<use xlink:href="#SVGID_107_"  overflow="visible"/>
							</clipPath>
							<path clip-path="url(#SVGID_108_)" fill="#BE5F16" d="M109.877,110.745c0.011,0.939-0.041,1.736,0,2.712
								c-0.427,0.284-0.752,0.716-1.089,1.105c-0.096-0.097-0.124-0.396-0.289-0.355c0.042,0.846-0.028,1.881,0.035,2.448
								c0.193-0.043,0.15-0.486,0.322-0.567c0.425-0.452,0.949-1.071,1.41-1.15c0.219-0.561,0.474-1.037,0.56-1.722
								c-0.052-0.346-0.191-0.39-0.297-0.566c-0.143,0.177-0.214,0.389-0.407,0.479c-0.008-1.029,0.149-1.781,0.123-2.809
								c-0.317-0.401-0.806,0.619-1.214,0.922c-0.141,0.07-0.209-0.021-0.367,0.142c0.089,0.751-0.009,2.169,0.158,2.711
								c0.211-0.021,0.167-0.393,0.314-0.497c0.246-0.321,0.566-0.506,0.651-1.063c-0.229-0.17-0.501,0.771-0.728,0.593
								c-0.054-0.877,0.595-0.752,0.66-1.441c-0.25-0.16-0.45,0.512-0.678,0.732c-0.046-0.106-0.052-0.325-0.046-0.523
								C109.166,111.361,109.649,110.886,109.877,110.745 M108.815,115.717c-0.106-0.533-0.044-0.977,0.299-1.109
								C109.156,115.201,109.104,115.654,108.815,115.717 M109.378,115.159c0.001-0.287-0.051-0.693,0.028-0.924
								c0.068-0.052,0.123-0.069,0.207-0.115c0.002,0.241,0.004,0.445,0.004,0.704C109.536,114.937,109.474,115.095,109.378,115.159
								 M110.38,113.418c-0.007,0.394-0.06,0.765-0.147,1.1c-0.145,0.055-0.266,0.181-0.406,0.232
								C109.834,114.047,110.001,113.597,110.38,113.418"/>
						</g>
						<g>
							<defs>
								<path id="SVGID_109_" d="M56.845,99.999c0,23.826,19.323,43.159,43.146,43.159c23.827,0,43.154-19.333,43.154-43.159
									c0-23.827-19.327-43.155-43.154-43.155C76.168,56.844,56.845,76.172,56.845,99.999"/>
							</defs>
							<clipPath id="SVGID_110_">
								<use xlink:href="#SVGID_109_"  overflow="visible"/>
							</clipPath>
							<path clip-path="url(#SVGID_110_)" fill="#BE5F16" d="M107.981,113.464c0.184-0.905-0.212-0.877-0.583-0.489
								C107.53,113.375,107.699,113.597,107.981,113.464"/>
						</g>
						<g>
							<defs>
								<path id="SVGID_111_" d="M56.845,99.999c0,23.826,19.323,43.159,43.146,43.159c23.827,0,43.154-19.333,43.154-43.159
									c0-23.827-19.327-43.155-43.154-43.155C76.168,56.844,56.845,76.172,56.845,99.999"/>
							</defs>
							<clipPath id="SVGID_112_">
								<use xlink:href="#SVGID_111_"  overflow="visible"/>
							</clipPath>
							<path clip-path="url(#SVGID_112_)" fill="#BE5F16" d="M107.894,115.457c0.032-0.806-0.353-0.364-0.667-0.179
								c-0.021,0.047-0.039,0.075-0.03,0.207c0.009,0.026,0.027,0.043,0.081,0.018C107.446,115.582,107.647,115.893,107.894,115.457
								"/>
						</g>
						<g>
							<defs>
								<path id="SVGID_113_" d="M56.845,99.999c0,23.826,19.323,43.159,43.146,43.159c23.827,0,43.154-19.333,43.154-43.159
									c0-23.827-19.327-43.155-43.154-43.155C76.168,56.844,56.845,76.172,56.845,99.999"/>
							</defs>
							<clipPath id="SVGID_114_">
								<use xlink:href="#SVGID_113_"  overflow="visible"/>
							</clipPath>
							<path clip-path="url(#SVGID_114_)" fill="#BE5F16" d="M108.014,115.352c-0.263,1.304-0.422,2.738-0.879,3.707
								c0.088,0.404,0.193,0.815,0.45,0.671c0.114-0.675,0.149-1.47,0.262-2.135c0.077-0.752,0.24-1.349,0.257-2.198
								C108.088,115.332,108.07,115.327,108.014,115.352"/>
						</g>
						<g>
							<defs>
								<path id="SVGID_115_" d="M56.845,99.999c0,23.826,19.323,43.159,43.146,43.159c23.827,0,43.154-19.333,43.154-43.159
									c0-23.827-19.327-43.155-43.154-43.155C76.168,56.844,56.845,76.172,56.845,99.999"/>
							</defs>
							<clipPath id="SVGID_116_">
								<use xlink:href="#SVGID_115_"  overflow="visible"/>
							</clipPath>
							<path clip-path="url(#SVGID_116_)" fill="#BE5F16" d="M109.826,117.335c0.026-0.68,0.35-0.955,0.29-1.77
								c-0.147-0.24-0.554,0.247-0.728,0.521c-0.247,0.261-0.564,0.426-0.689,0.922c0.268,0.41,0.616-0.63,0.978-0.867
								c-0.053,0.348-0.053,0.805-0.236,0.984c-0.186,0.141-0.434-0.276-0.564,0.29c0.149,0.035,0.335-0.042,0.405,0.195
								c-0.176,0.445-0.37,0.896-0.554,1.341c-0.122,0.201-0.202,0.477-0.309,0.697c-0.076,0.258-0.254,0.403-0.28,0.723
								c0.229-0.064,0.519-0.748,0.763-1.047c0.082-0.305,0.255-0.452,0.324-0.766c0.159-0.185,0.151-0.576,0.363-0.718
								c0.42,0.195,0.666,0.933,1.124,1.081c0.369-0.299,0.572-0.795,0.978-1.044c-0.02-0.462-0.334-0.017-0.469-0.133
								c-0.201,0.078-0.386,0.122-0.534,0.061c-0.158-0.011-0.303-0.045-0.448-0.131
								C110.107,117.534,109.861,117.735,109.826,117.335"/>
						</g>
						<g>
							<defs>
								<path id="SVGID_117_" d="M56.845,99.999c0,23.826,19.323,43.159,43.146,43.159c23.827,0,43.154-19.333,43.154-43.159
									c0-23.827-19.327-43.155-43.154-43.155C76.168,56.844,56.845,76.172,56.845,99.999"/>
							</defs>
							<clipPath id="SVGID_118_">
								<use xlink:href="#SVGID_117_"  overflow="visible"/>
							</clipPath>
							<path clip-path="url(#SVGID_118_)" fill="#BE5F16" d="M108.85,120.65c0.002,0.26,0.008,0.58,0.008,0.88
								c0.035,0.186,0,0.645,0.125,0.532c0.134-0.451,0.141-1.533,0.062-2.011c-0.095,0.035-0.105-0.048-0.167,0.031
								c0.001,0.048,0.001,0.164,0.001,0.23C108.878,120.466,108.826,120.474,108.85,120.65"/>
						</g>
						<g>
							<defs>
								<path id="SVGID_119_" d="M56.845,99.999c0,23.826,19.323,43.159,43.146,43.159c23.827,0,43.154-19.333,43.154-43.159
									c0-23.827-19.327-43.155-43.154-43.155C76.168,56.844,56.845,76.172,56.845,99.999"/>
							</defs>
							<clipPath id="SVGID_120_">
								<use xlink:href="#SVGID_119_"  overflow="visible"/>
							</clipPath>
							<path clip-path="url(#SVGID_120_)" fill="#BE5F16" d="M108.719,123.26c0.266-0.213,0.564-0.364,0.809-0.551
								c0.257-0.23,0.643-0.25,0.659-0.813c0.08-0.26-0.186-0.204-0.218-0.41c-0.495,0.264-0.891,0.941-1.302,1.339
								c-0.258,0.257-0.511,0.283-0.774,0.629C108.031,124.022,108.383,123.522,108.719,123.26"/>
						</g>
						<g>
							<defs>
								<path id="SVGID_121_" d="M56.845,99.999c0,23.826,19.323,43.159,43.146,43.159c23.827,0,43.154-19.333,43.154-43.159
									c0-23.827-19.327-43.155-43.154-43.155C76.168,56.844,56.845,76.172,56.845,99.999"/>
							</defs>
							<clipPath id="SVGID_122_">
								<use xlink:href="#SVGID_121_"  overflow="visible"/>
							</clipPath>
							<path clip-path="url(#SVGID_122_)" fill="#BE5F16" d="M108.699,127.798c0.486-0.259,0.853-0.656,1.304-0.979
								c0.121-1.177,0.288-2.259,0.317-3.554c-0.16-0.381-0.654,0.232-0.941,0.451c-0.309,0.364-0.658,0.673-0.968,1.004
								c-0.14,0.14-0.158-0.339-0.29,0.024c0.178,0.834,0.051,2.535,0.213,3.377C108.446,128.285,108.51,127.813,108.699,127.798
								 M109.387,124.16c0.139-0.141,0.402-0.45,0.526-0.368c-0.008,0.964-0.103,1.809-0.159,2.658
								c-0.147,0.122-0.299,0.21-0.455,0.318c-0.016-0.408,0-0.764,0.02-1.126c0.123-0.213,0.341-0.248,0.404-0.542
								c-0.004-0.414-0.22-0.228-0.408-0.052C109.289,124.667,109.385,124.48,109.387,124.16 M108.932,127.176
								c-0.127,0.089-0.32,0.322-0.405,0.18c-0.002-0.276-0.002-0.587-0.01-0.881c0.148-0.2,0.298-0.389,0.49-0.493
								C109.026,126.415,108.984,126.804,108.932,127.176 M108.541,125.084c0.072-0.222,0.274-0.222,0.391-0.363
								c-0.013,0.327,0.042,0.408,0.067,0.619c-0.113,0.285-0.278,0.472-0.489,0.604
								C108.534,125.667,108.455,125.244,108.541,125.084"/>
						</g>
						<g>
							<defs>
								<path id="SVGID_123_" d="M56.845,99.999c0,23.826,19.323,43.159,43.146,43.159c23.827,0,43.154-19.333,43.154-43.159
									c0-23.827-19.327-43.155-43.154-43.155C76.168,56.844,56.845,76.172,56.845,99.999"/>
							</defs>
							<clipPath id="SVGID_124_">
								<use xlink:href="#SVGID_123_"  overflow="visible"/>
							</clipPath>
							<path clip-path="url(#SVGID_124_)" fill="#BE5F16" d="M107.391,125.43c0,0.117-0.052,0.18-0.033,0.293
								c0.069,0.283,0.096,0.764,0.14,1.187c0.043,0.251-0.019,0.69-0.026,1.093c-0.017,1.069-0.078,2.57,0.316,2.401
								c0.156-1.397-0.001-3.253,0.008-4.895C107.684,125.43,107.604,125.207,107.391,125.43"/>
						</g>
						<g>
							<defs>
								<path id="SVGID_125_" d="M56.845,99.999c0,23.826,19.323,43.159,43.146,43.159c23.827,0,43.154-19.333,43.154-43.159
									c0-23.827-19.327-43.155-43.154-43.155C76.168,56.844,56.845,76.172,56.845,99.999"/>
							</defs>
							<clipPath id="SVGID_126_">
								<use xlink:href="#SVGID_125_"  overflow="visible"/>
							</clipPath>
							<path clip-path="url(#SVGID_126_)" fill="#BE5F16" d="M111.231,123.719c-0.085-0.196-0.191-0.38-0.331-0.382
								c-0.141,1.275-0.099,2.831-0.345,3.955c-0.835,0.453-1.494,1.195-2.283,1.727c-0.082,0.229-0.334,0.222-0.36,0.514
								c0.085,0.223,0.367-0.089,0.569-0.22c0.669-0.415,1.424-1.057,2.041-1.276c0.086,0.063,0.045,0.454,0.167,0.443
								c0.246-0.565,0.262-1.472,0.377-2.181C111.118,125.43,111.259,124.675,111.231,123.719"/>
						</g>
					</g>
				</g>
			</g>
		</g>
	</g>
</g>
</svg>
