<?xml version="1.0" encoding="utf-8"?>
<!-- Generator: Adobe Illustrator 16.0.0, SVG Export Plug-In . SVG Version: 6.00 Build 0)  -->
<!DOCTYPE svg PUBLIC "-//W3C//DTD SVG 1.1//EN" "http://www.w3.org/Graphics/SVG/1.1/DTD/svg11.dtd">
<svg version="1.1" id="Calque_1" xmlns="http://www.w3.org/2000/svg" xmlns:xlink="http://www.w3.org/1999/xlink" x="0px" y="0px"
	 width="100px" height="100px" viewBox="50 50 100 100" enable-background="new 50 50 100 100" xml:space="preserve">
<g>
	<path fill="#FFFFFF" stroke="#3D3838" stroke-width="4.9091" stroke-miterlimit="10" d="M100.166,143.645
		C75.838,143.645,56,123.908,56,99.689c0-24.261,19.838-43.966,44.166-43.966c24.38,0,44.172,19.706,44.172,43.967
		C144.338,123.908,124.546,143.645,100.166,143.645"/>
	<g>
		<g>
			<defs>
				<path id="SVGID_1_" d="M56,99.689c0,24.285,19.79,43.954,44.166,43.954c24.406,0,44.172-19.669,44.172-43.954
					c0-24.315-19.766-43.967-44.172-43.967C75.79,55.723,56,75.375,56,99.689"/>
			</defs>
			<clipPath id="SVGID_2_">
				<use xlink:href="#SVGID_1_"  overflow="visible"/>
			</clipPath>
			<path clip-path="url(#SVGID_2_)" fill="#E5A44E" d="M43.574,98.332c0,30.383,25.71,54.958,57.387,54.958
				c31.705,0,57.405-24.574,57.405-54.958c0-0.197-0.016-0.394-0.016-0.583H43.589C43.582,97.938,43.574,98.136,43.574,98.332"/>
		</g>
	</g>
	<g>
		<g id="art_graphique_2_">
			<g>
				<g opacity="0.75">
					<defs>
						<rect id="SVGID_3_" x="57.662" y="103.426" opacity="0.75" width="88.338" height="42.85"/>
					</defs>
					<clipPath id="SVGID_4_">
						<use xlink:href="#SVGID_3_"  overflow="visible"/>
					</clipPath>
					<g clip-path="url(#SVGID_4_)">
						<g>
							<defs>
								<rect id="SVGID_5_" x="57.662" y="103.426" width="88.338" height="42.85"/>
							</defs>
							<clipPath id="SVGID_6_">
								<use xlink:href="#SVGID_5_"  overflow="visible"/>
							</clipPath>
							<g clip-path="url(#SVGID_6_)">
								
									<image overflow="visible" enable-background="new    " width="290" height="143" xlink:href="A5CEEF67.png"  transform="matrix(0.3046 0 0 0.2998 57.6616 103.4258)">
								</image>
							</g>
						</g>
					</g>
				</g>
				<path fill="#FFFFFF" d="M81.177,110.988l-15.289,15.667c7.809,10.146,20.058,16.737,33.859,16.737
					c18.946,0,35.029-12.365,40.547-29.451L81.177,110.988z"/>
			</g>
			<g>
				<g>
					<defs>
						<path id="SVGID_7_" d="M128.913,110.791c-1.433,0.496-5.257,1.85-5.301,1.865l-39.254,13.999l0,0l-0.185,0.073l-1.711,1.746
							l-0.425,0.431l-1.279,1.321l3.586-0.123l3.561-0.184l3.752-1.336l-0.004-0.004c9.751-3.459,35.694-12.688,35.694-12.688
							l0.477-0.168c0.099-0.043,0.229-0.105,0.336-0.131l2.505-0.879c0.792-0.302,1.536-0.545,1.979-0.696
							c0.034-0.017,0.076-0.052,0.104-0.112c0.017-0.01,0.008-0.027,0.017-0.063c0.002-0.035,0.018-0.035,0.002-0.07
							c0-0.027-0.012-0.063-0.021-0.096c-0.016-0.045-0.03-0.053-0.052-0.105c-0.023-0.035-0.034-0.081-0.041-0.123
							c-0.018-0.02-0.046-0.071-0.09-0.115c-0.033-0.054-0.077-0.105-0.088-0.106c-0.028-0.07-0.06-0.13-0.112-0.185
							c-0.047-0.009-0.09-0.061-0.109-0.139c-0.049-0.046-0.102-0.063-0.158-0.123c-0.031-0.071-0.07-0.123-0.136-0.141
							c-0.063-0.063-0.093-0.125-0.133-0.186c-0.073-0.018-0.141-0.08-0.177-0.148c-0.046-0.053-0.105-0.063-0.159-0.105l0,0
							c-0.818-0.738-1.863-1.459-2.401-1.459C129.011,110.742,128.947,110.765,128.913,110.791"/>
					</defs>
					<clipPath id="SVGID_8_">
						<use xlink:href="#SVGID_7_"  overflow="visible"/>
					</clipPath>
					<defs>
						<filter id="Adobe_OpacityMaskFilter" filterUnits="userSpaceOnUse" x="74.325" y="95.038" width="64.846" height="50.896">
							<feColorMatrix  type="matrix" values="1 0 0 0 0  0 1 0 0 0  0 0 1 0 0  0 0 0 1 0"/>
						</filter>
					</defs>
					<mask maskUnits="userSpaceOnUse" x="74.325" y="95.038" width="64.846" height="50.896" id="SVGID_9_">
						<g filter="url(#Adobe_OpacityMaskFilter)">
							<g>
								<defs>
									<path id="SVGID_10_" d="M128.913,110.791c-1.433,0.496-5.257,1.85-5.301,1.865l-39.254,13.999l0,0l-0.185,0.073
										l-1.711,1.746l-0.425,0.431l-1.279,1.321l3.586-0.123l3.561-0.184l3.752-1.336l-0.004-0.004
										c9.751-3.459,35.694-12.688,35.694-12.688l0.477-0.168c0.099-0.043,0.229-0.105,0.336-0.131l2.505-0.879
										c0.792-0.302,1.536-0.545,1.979-0.696c0.034-0.017,0.076-0.052,0.104-0.112c0.017-0.01,0.008-0.027,0.017-0.063
										c0.002-0.035,0.018-0.035,0.002-0.07c0-0.027-0.012-0.063-0.021-0.096c-0.016-0.045-0.03-0.053-0.052-0.105
										c-0.023-0.035-0.034-0.081-0.041-0.123c-0.018-0.02-0.046-0.071-0.09-0.115c-0.033-0.054-0.077-0.105-0.088-0.106
										c-0.028-0.07-0.06-0.13-0.112-0.185c-0.047-0.009-0.09-0.061-0.109-0.139c-0.049-0.046-0.102-0.063-0.158-0.123
										c-0.031-0.071-0.07-0.123-0.136-0.141c-0.063-0.063-0.093-0.125-0.133-0.186c-0.073-0.018-0.141-0.08-0.177-0.148
										c-0.046-0.053-0.105-0.063-0.159-0.105l0,0c-0.818-0.738-1.863-1.459-2.401-1.459
										C129.011,110.742,128.947,110.765,128.913,110.791"/>
								</defs>
								<clipPath id="SVGID_11_" clip-path="url(#SVGID_8_)">
									<use xlink:href="#SVGID_10_"  overflow="visible"/>
								</clipPath>
								
									<linearGradient id="SVGID_12_" gradientUnits="userSpaceOnUse" x1="-598.6201" y1="-151.042" x2="-597.4027" y2="-151.042" gradientTransform="matrix(48.2874 -17.1451 17.1451 48.2874 31568.3398 -2837.457)">
									<stop  offset="0" style="stop-color:#FFFFFF"/>
									<stop  offset="0.031" style="stop-color:#E2E2E2"/>
									<stop  offset="0.0717" style="stop-color:#C4C4C4"/>
									<stop  offset="0.1165" style="stop-color:#ABABAB"/>
									<stop  offset="0.1664" style="stop-color:#979797"/>
									<stop  offset="0.224" style="stop-color:#8A8A8A"/>
									<stop  offset="0.2964" style="stop-color:#828282"/>
									<stop  offset="0.4303" style="stop-color:#808080"/>
									<stop  offset="0.5124" style="stop-color:#767676"/>
									<stop  offset="0.6518" style="stop-color:#5B5B5B"/>
									<stop  offset="0.8304" style="stop-color:#2F2F2F"/>
									<stop  offset="1" style="stop-color:#000000"/>
								</linearGradient>
								<polygon clip-path="url(#SVGID_11_)" fill="url(#SVGID_12_)" points="74.325,112.937 126.947,95.038 139.171,128.026 
									86.555,145.934 								"/>
							</g>
						</g>
					</mask>
					
						<linearGradient id="SVGID_13_" gradientUnits="userSpaceOnUse" x1="-598.6201" y1="-151.042" x2="-597.4027" y2="-151.042" gradientTransform="matrix(48.2874 -17.1451 17.1451 48.2874 31568.3398 -2837.457)">
						<stop  offset="0" style="stop-color:#808184"/>
						<stop  offset="0.0389" style="stop-color:#898A8D"/>
						<stop  offset="0.1242" style="stop-color:#96989A"/>
						<stop  offset="0.2315" style="stop-color:#9EA0A2"/>
						<stop  offset="0.4303" style="stop-color:#A0A2A4"/>
						<stop  offset="0.5329" style="stop-color:#AAACAE"/>
						<stop  offset="0.7072" style="stop-color:#C5C6C7"/>
						<stop  offset="0.9306" style="stop-color:#F0F0F1"/>
						<stop  offset="1" style="stop-color:#FFFFFF"/>
					</linearGradient>
					<polygon clip-path="url(#SVGID_8_)" mask="url(#SVGID_9_)" fill="url(#SVGID_13_)" points="74.325,112.937 126.947,95.038 
						139.171,128.026 86.555,145.934 					"/>
				</g>
			</g>
			<g>
				<path fill="#FFFFFF" d="M144.338,99.689c0,24.279-19.766,43.954-44.168,43.954C75.79,143.645,56,123.969,56,99.689
					c0-24.315,19.79-43.966,44.169-43.966C124.572,55.723,144.338,75.375,144.338,99.689z M100.169,59.182
					c-22.47,0-40.649,18.128-40.649,40.508c0,22.369,18.18,40.469,40.649,40.469c22.459,0,40.698-18.1,40.698-40.469
					C140.867,77.31,122.629,59.182,100.169,59.182z"/>
				<polygon fill="#FDD4A6" points="85.548,117.799 82.596,122.316 81.708,126.193 80.816,130.109 84.068,127.617 87.324,125.161 
					90.269,120.639 				"/>
				<polygon fill="#58595B" points="80.816,130.109 83.285,128.215 81.489,127.16 				"/>
				<path fill="#FDC77F" d="M113.523,74.871l-30.782,47.234c0.26-0.336,1.174-1.02,1.585-0.759c0.427,0.281,0.21,1.371-0.083,1.788
					c0.294-0.417,1.209-1.076,1.657-0.844c0.427,0.269,0.203,1.344-0.088,1.771c0.291-0.427,1.208-1.077,1.656-0.831
					c0.435,0.251,0.21,1.376-0.083,1.785c-0.041,0.022,30.863-47.311,30.863-47.311L113.523,74.871z"/>
				<path fill="#EFBA73" d="M115.094,75.797l-30.777,47.25c0.257-0.352,1.171-0.988,1.583-0.756
					c0.427,0.269,0.203,1.344-0.087,1.766c-0.036,0.059,30.858-47.318,30.858-47.318L115.094,75.797z"/>
				<path fill="#E5B26E" d="M116.672,76.739l-30.784,47.28c0.263-0.393,1.169-1.018,1.582-0.789c0.436,0.252,0.21,1.377-0.083,1.785
					c-0.04,0.023,30.86-47.31,30.86-47.31L116.672,76.739z"/>
				<path fill="#F290BB" d="M118.245,77.706l-4.726-2.83c0,0,2.985-4.623,4.146-6.381c0.729-1.125,5.396,1.758,4.719,2.819
					C121.345,72.923,118.245,77.706,118.245,77.706"/>
				<path fill="#E688B2" d="M120.615,69.119c0.391,0.253,0.582,0.754,0.224,1.31c-1.015,1.6-4.142,6.337-4.142,6.337l1.548,0.939
					c0,0,3.104-4.781,4.139-6.391C122.72,70.819,121.77,69.861,120.615,69.119"/>
				<polygon fill="#A6A8AB" points="118.245,77.706 113.52,74.875 116.104,70.875 120.823,73.715 				"/>
				<polygon fill="#9C9EA1" points="116.672,76.739 115.094,75.803 117.673,71.824 119.246,72.782 				"/>
				<polygon fill="#929497" points="118.245,77.706 116.672,76.739 119.246,72.782 120.823,73.715 				"/>
			</g>
		</g>
	</g>
</g>
</svg>
