<?xml version="1.0" encoding="iso-8859-1"?>
<!-- Generator: Adobe Illustrator 16.0.0, SVG Export Plug-In . SVG Version: 6.00 Build 0)  -->
<!DOCTYPE svg PUBLIC "-//W3C//DTD SVG 1.1//EN" "http://www.w3.org/Graphics/SVG/1.1/DTD/svg11.dtd">
<svg version="1.1" id="Calque_1" xmlns="http://www.w3.org/2000/svg" xmlns:xlink="http://www.w3.org/1999/xlink" x="0px" y="0px"
	 width="200px" height="200px" viewBox="0 0 200 200" enable-background="new 0 0 200 200" xml:space="preserve">
<g id="velo_2_">
	<path fill="#FFFFFF" stroke="#3D3838" stroke-width="6.6685" stroke-miterlimit="10" d="M100.105,189.559
		c-1.911,0-3.75-0.076-5.543-0.227c-24.086-1.408-46.059-12.098-61.958-30.061c-15.973-17.875-23.96-40.853-22.417-64.746
		c2.821-47.148,42.254-84.085,89.718-84.085c1.909,0,3.747,0.065,5.54,0.156c49.589,3.027,87.469,45.574,84.377,94.812
		c-2.835,47.149-42.253,84.15-89.708,84.15H100.105z"/>
	<path fill="#2DB24A" d="M24.678,132.003c11.234,27.43,38.131,47.604,70.435,49.351c30.398,1.715,57.731-13.187,72.762-36.513
		L24.678,132.003z"/>
	<path fill-rule="evenodd" clip-rule="evenodd" fill="#3D3838" d="M174.932,99.552c-1.555-2.25-2.896-4.334-4.524-6.461
		c-0.288-0.017-0.338-0.156-0.579-0.156c-0.325-0.696-0.695-1.168-1.321-1.361c-0.408-0.66-0.958-1.126-1.645-1.463
		c-0.043-0.123-0.043-0.338-0.151-0.369c-0.219,0-0.374-0.29-0.611-0.129c-0.009-0.413-0.408-0.68-0.813-0.637
		c-0.283-0.815-1.195-0.456-1.232-1.234c-3.499-1.398-6.665-3.466-10.813-3.605c-1.613-0.783-3.869-0.477-5.938-0.563
		c-0.004,0.042-0.017,0.128-0.017,0.15c-0.813-0.5-1.729,0.327-2.932-0.021c-0.246,0.434-1.563,0.021-2.109,0.611
		c-0.286-0.145-0.929-0.167-1.062,0.192c0.033,0,0.075,0.01,0.091,0.01c-0.037,0.039-0.091,0-0.091-0.01
		c-0.333-0.16-0.792,0.01-0.912,0.226c-0.813,0.15-1.499,0.097-1.896,0.702c-0.133-0.203-0.214-0.107-0.412-0.203
		c-0.37,0.637-1.205-0.022-1.464,0.9c-0.149,0.01-0.141-0.187-0.236-0.252c-0.15,0.338-0.7,0.188-0.684,0.669
		c-0.662-0.32-1.045,0.74-1.615,0.371c-0.017,0.728-1.001,0.327-1.034,1.044c-0.856,0.113-1.392,0.525-1.8,1.125
		c-1.596-1.253-2.798-2.851-3.848-4.132c-0.354,0-1.006-1.049-1.421-1.581c0.248-0.701,0.452-1.516,0.858-2.057
		c0.349,0.192,0.841,0.424,1.207,0.182c0.362-0.76,0.263-1.721-0.805-1.778c2.337-5.599,4.838-11.178,7.224-17.045
		c0.738-0.162,1.233-0.563,1.972-0.739c0.041,0.444,0.761,0.198,0.933,0.198c0.032-0.177,0.054-0.365,0.074-0.488
		c0.226-0.139,0.279,0.005,0.438-0.278c0.033-0.129,0.045-0.349,0-0.423c2.221-0.402,4.195-1.464,6.239-1.71
		c1.751,0.504,2.409-1.254,2.004-2.524c-7.54,0.257-16.075-2.513-23.016-1.773c-0.444,0.583-1.174,0.798-1.129,1.902
		c4.67,0.515,6.467,0.879,9.536,2.872c-0.107,0.259,0.13,0.724-0.009,1.019c0.17,0.215,0.354,0.407,0.846,0.402
		c-2.504,5.905-4.882,11.451-7.527,17.688c-0.554-0.054-1.909-0.686-1.991,0.359c0.174,0.542,0.604,0.852,1.175,0.971
		c-0.112,0.631-0.385,1.023-0.917,1.023c-2.208-1.382-4.919-2.45-6.632-3.691c-3.303-1.325-6.582-3.13-9.823-4.817
		c-8.453-4.088-16.566-8.005-24.399-12.121c-0.211-0.971-0.244-2.358,0.399-3.199c0.311,0,0.404-0.006,0.638,0.027
		c0.506-0.402,0.407-1.137-0.069-1.49c0.189-0.135,0.236-0.435,0.428-0.524c2.355-0.644-0.812-2.798-2.354-2.798
		c-0.046,0.118,0.177,0.171,0.019,0.278c-0.367-0.042-0.288-0.423-0.694-0.433c0.023-0.354-0.079-0.606-0.226-0.756
		c-0.153-0.273-0.579,0.097-0.645-0.273c1.811,0.68,2.639-2.546,0.702-2.744c-0.368-2.856-4.47-1.136-5.292-0.085
		c-1.004-0.735-1.883,0.423-2.85,0.487c-0.287,0.369-0.135,0.804-0.121,1.398c-1.895,0.745-4.399,0.922-5.42,2.128
		c-0.831,0.777-1.893,1.709-2.599,2.974c-0.244,0.15-0.137-0.096-0.383,0.016c-0.014,0.112,0.027,0.166,0.104,0.198
		c-0.418,0.783-0.868,1.222-1.146,2.027c-1.576,2.651-1.543,7.303-0.316,9.939c0.94,2.813,2.548,5.321,2.373,8.697
		c-0.082-0.294-0.631-0.729-1.029-0.466c0-0.445-0.779-0.379-0.988-0.219c-2.629-1.372-6.64-1.448-9.908-1.602
		c-0.267,0.433-0.782,0-1.071,0c-0.035,0.053,0.297,0,0.174,0.117c-0.265,0.316-1.069-0.246-1.194,0.316
		c-0.271-0.171-0.912-0.241-1.077,0.133c-0.302-0.133-0.791-0.133-1.048-0.015c-0.006,0.118-0.051,0.182-0.143,0.198
		c-0.069-0.081,0.102-0.183,0.143-0.198c-0.158-0.102-0.71,0-0.962,0.342c-1.691,0.06-3.612,0.74-4.914,1.517
		c-0.416-0.144-0.681,0.07-0.957,0.033c-0.079,0.204,0.075,0.273,0.013,0.379c-0.3-0.076-0.4,0-0.734,0
		c0.044,0.167-0.239,0.337-0.274,0.413c-0.496-0.086-1.498,0.414-1.819,0.997c-0.29-0.208-0.55,0.161-0.825,0.092
		c0.242,0.069-0.137,0.165,0.083,0.406c-1.021,0.129-2.01,0.869-2.629,1.699c-0.137-0.01-0.183-0.032-0.399-0.021
		c-0.49,0.788-1.591,0.884-1.95,2.015c-0.737,0.182-1.195,0.745-1.423,1.479c-0.93,0.369-1.662,1.382-1.937,2.246
		c-0.236,0.074-0.011-0.15-0.172-0.15c-0.417,0.427-0.512,0.979-0.945,1.221c-0.017,0.606-0.786,0.81-0.702,1.452
		c-2.136,2.813-3.076,6.682-4.049,10.111c-0.021-0.032,0.014-0.097-0.059-0.107c-0.003,0.097-0.003,0.107-0.014,0.193
		c0.134-0.086,0.292-0.075,0.292,0.16c-0.074,0-0.2,0.162-0.292,0.027c0,0.252,0,0.536-0.016,0.809
		c0.016,0.023,0.088,0.05,0.123,0.14c0.027,0.14-0.107,0.108-0.168,0.183c-0.032,0.214-0.06,0.525-0.094,0.745
		c0.062,0.037,0.024,0.14,0.118,0.145c0-0.032,0-0.07,0.005-0.123c0.032,0.032,0.032,0.123-0.005,0.123
		c-0.043,0.065-0.078,0.106-0.153,0.106c-0.024,0.193-0.054,0.413-0.088,0.692c0.057,0.017,0.123,0.07,0.123,0.103
		c0,0.031-0.066,0.031-0.145,0.031c-0.043,0.354-0.064,0.575-0.107,0.81c0.251,0.349-0.104,1.083,0.302,1.228
		c-0.187,0.183-0.302,0.579-0.228,0.81c-0.074,0-0.023,0.187,0.118,0.123c-0.059,0.675-0.118,1.457,0.214,2.117
		c-0.356,0.542,0.242,1.258-0.062,1.704c0.595,0.593,0.396,2.132,0.777,2.861c-0.182,0.005-0.319,0.059-0.228,0.322
		c0.027-0.092,0.257-0.017,0.319-0.096c0.161,0.293,0,0.948,0.394,1.135c0.008,1.168,0.801,1.908,1.109,3.092
		c0.104,0.021-0.008,0.252,0.024,0.279c0.578,0.397,0.578,1.639,1.345,2.139c-0.067,0.236,0.073,0.31,0,0.605
		c0.737,0.626,1.321,1.822,1.958,2.707c-0.011,0.037-0.054,0.037-0.042,0.123c0.091-0.011,0.045,0,0.216,0
		c0.542,0.883,1.423,1.339,1.774,2.4c0.042-0.38,0.128,0.085,0.413,0c-0.014,0.128,0.037,0.128-0.049,0.322
		c0.483,0.101,0.841,0.471,0.973,0.9c0.51-0.011,0.477,0.379,0.526,0.675c0.624-0.231,0.814,0.718,1.454,0.852
		c0.081,0.075,0.081,0.204,0.081,0.396c0.267-0.091,0.525,0.343,0.667,0.112c0.402,0.542,0.929,1.002,1.728,1.179
		c0.008,0.579,0.912,0.36,0.966,0.868c0.361-0.043,0.438,0.296,0.798,0.296c0.056,0.063,0.125,0.208,0.158,0.375
		c0.304-0.167,0.439,0.053,0.771,0.053c3.741,2.144,9.238,3.703,14.586,3.257c0.811,0.478,1.996,0,3.054,0.039
		c0.563,0,1.077-0.242,1.935-0.215c0.551,0.101,0.954-0.557,1.723-0.305c0-0.252,0.254-0.161,0.331-0.371
		c0.394,0.183,0.848,0.087,0.925-0.208c0.75,0.043,1.505-0.235,1.956-0.632c0.126,0.294,0.539-0.129,0.914,0
		c0.005-0.119,0.015-0.242,0.034-0.327c0.654,0.064,0.973-0.466,1.458-0.435c0.072-0.048,0.206-0.273,0.408-0.413
		c0.246,0.054,0.278,0,0.479,0.065c0.081-0.29,0.391-0.467,0.726-0.306c-0.035-0.182,0.232-0.455,0.582-0.481
		c0.221-0.183,1.029-0.9,1.25-0.633c0.175-0.267,0.391-0.322,0.487-0.648c0.325,0.038,0.435-0.279,0.633-0.102
		c-0.118-0.316,0.263-0.568,0.587-0.316c-0.185-0.407,0.472-0.294,0.426-0.74c0.683-0.23,1.137-0.434,1.46-1.232
		c0.41-0.01,0.633-0.155,0.785-0.707c0.171-0.076,0.281-0.076,0.536-0.054c0.008-0.284,0.212-0.311,0.172-0.665
		c0.943-0.417,1.519-1.329,2.039-2.159c0.364-0.021,0.619-0.38,0.686-0.84c0.302-0.033,0.434-0.371,0.49-0.794
		c0.085-0.01,0.287,0,0.314,0c0.11-0.358,0.377-0.444,0.402-0.824c0.098-0.033,0.187,0.031,0.331,0.031
		c-0.27-0.626,0.611-0.831,0.571-1.612c0.29,0,0.604-0.617,0.523-0.928c0.129-0.15,0.225-0.214,0.441-0.251
		c-0.195-0.606,0.542-0.89,0.408-1.57c0.61-0.6,0.937-1.891,1.06-2.835c0.281-0.01,0.598-0.62,0.325-0.846
		c0.357-0.123,0.434-0.766,0.346-1.109c0.011-0.027,0.04-0.016,0.143-0.016c0.181-1.871,0.721-3.097,0.626-4.838
		c0.204-0.248,0.206-0.768,0.045-0.988c0.242-0.191,0.158-0.856,0-1.093c0.281-0.246,0.166-0.712,0-0.992
		c0.404-0.09,0-0.578,0.271-0.787c-0.193-0.016-0.146-0.108-0.271-0.096c0.117-0.419,0.117-0.906-0.116-1.158
		c0.193-0.182-0.044-0.675,0.116-0.862c0-0.032-0.217-0.022-0.244-0.054c0.235-0.338,0.118-0.751-0.158-1.024
		c0.192-0.193,0.123-0.825-0.206-0.906c0.117-0.369,0.206-1.029-0.177-1.088c0.113-0.493-0.019-0.766-0.3-0.926
		c0.208-0.263,0.098-0.842-0.288-0.921c0.281-0.151,0.089-1.05-0.236-1.05c0.167-0.032-0.035-0.418,0.096-0.439
		c-0.096-0.203-0.293-0.359-0.495-0.499c0-0.242,0.062,0.043,0.172-0.086c-0.143-0.241-0.064-0.589-0.51-0.75
		c-0.011-0.842-0.323-1.431-0.846-1.85c-0.045-0.327,0.005-0.813-0.437-0.846c-0.064-0.263,0.011-0.37,0.006-0.724
		c-0.304,0-0.244-0.192-0.431-0.203c-0.22-0.633-0.732-1.426-1.201-1.684c-0.061-0.177,0.116-0.128,0.048-0.268
		c-0.232-0.199-0.147-0.611-0.611-0.622c-0.075-0.439-0.169-0.83-0.643-0.83c-0.005-0.344-0.294-0.778-0.713-0.632
		c0.121-0.478-0.182-0.928-0.573-0.89c-0.057-0.209-0.29-0.831-0.692-0.691c-0.08-0.387-0.402-0.746-0.803-0.719
		c-0.053-0.729-0.804-0.707-1.044-1.335c-0.635,0.237-0.563-0.889-1.276-0.604c-0.094-0.771-1.042-0.713-1.236-1.366
		c-0.061,0.048-0.16,0.113-0.302,0.155c-0.158-0.172-0.375-0.429-0.343-0.579c-0.171-0.15-0.407-0.053-0.527-0.076
		c0.645-1.891,1.797-3.82,2.561-5.55c0.161,0.128,0.161,0.059,0.346,0.064c0.252-0.365,0.488-1.131,0.9-1.184
		c-0.15-0.247,0.117-0.84,0.531-0.788c0-0.139,0.026-0.204,0.09-0.204c1.962,0.648,2.524-0.697,3.068-2.155
		c0.047,0.14,0.337,0.392,0.337,0.392l1.01,0.589c0,0,25.831,36.728,26.276,39.325c-0.238,0.097-0.157-0.059-0.257-0.102
		c-0.2,4.656-6.984,0.697-9.792,2.685c-0.077-0.076-0.254-0.076-0.331-0.08c-0.035,0.08-0.197,0.069-0.158,0.17
		c-0.409-0.021-0.805-0.074-1.33-0.074c-0.043-0.076-0.045-0.231-0.045-0.386c-0.266-0.027-0.41-0.027-0.606,0
		c-0.593,1.206,0.153,2.566,0.788,3.408c0.355,0.005,1.027-0.359,1.428,0.16c1.17,0.043,2.445,0.241,3.513,0.283
		c-0.158-0.353,0.698-0.24,0.751,0.092c0.098-0.092,0.124-0.3,0.221-0.236c0.079,0.021,0.045,0.123,0.052,0.214
		c0.231-0.257,0.367,0.017,0.662,0.065c0.27,0.011,0.277-0.333,0.53-0.311c0.012-0.087,0.03-0.241,0.054-0.414
		c3.933-0.492,3.196,2.433,4.721,3.736c-0.043,0.172-0.104-0.193-0.083,0.102c0.025,0.07,0.118,0.07,0.209,0.032
		c0.102,0.049,0.192,0.178,0.149,0.435c0.879,0.745,2.074,1.281,2.883,1.935c1.255,0.074,2.733,0.665,4.004,0.858
		c-0.005-0.075-0.125-0.065-0.112-0.14c0.62,0.536,2.143,0.15,2.399,0.782c0.15-0.065,0.546,0.188,0.696-0.085
		c0.044,0.047,0.183,0.047,0.187,0.14c1.421,0.396,2.783,0.702,4.069,0.868c0.279,0.616,0.405,1.216,0.675,1.725
		c0.117,0.058,0.13,0.15,0.192,0.15c-0.07,0.413,0,0.857,0.424,0.933c-0.064,0.433,0.167,0.788,0.552,0.862
		c-0.139,0.381-0.017,0.793,0.42,0.889c-0.12,0.284,0.153,0.423,0.153,0.702c0.134,0.021,0.252,0.065,0.401,0.054
		c0,0.273-0.017,0.328-0.042,0.466c0.337,0.026,0.087,0.53,0.559,0.478c-0.017,0.188-0.033,0.263-0.06,0.465
		c0.263,0.139,0.376,0.241,0.692,0.354c-0.12,0.32,0.041,0.756,0.463,0.756c0.054,0.214,0.399,1.002,0.805,0.814
		c-0.155,0.573,0.294,0.712,0.54,0.777c-0.079,0.225,0.263,0.402,0.263,0.665c0.242,0.068,0.324-0.033,0.446-0.011
		c0.096-0.01,0,0.322-0.048,0.236c0.135,0.156,0.348,0.461,0.764,0.509c-0.126,0.418,0.275,0.708,0.604,0.687
		c0.155,0.096,0.155,0.225,0.126,0.492c0.27-0.123,0.346,0.285,0.729,0.092c0.066,0.37,0.393,0.708,0.742,0.701
		c0,0.375,0.309,0.682,0.716,0.584c-0.063,0.231,0.345,0.402,0.339,0.568c0.095,0.108,0.401,0.119,0.411,0.054
		c0.172,0.054,0.375,0.331,0.354,0.369c0.145,0.027,0.374,0.237,0.653,0.108c0.117,0.129,0.178,0.3,0.141,0.429
		c0.047,0,0.052,0,0.085,0.021c0.043,0.187,0.365,0.177,0.579,0.14c0.171,0.332,0.578,0.579,0.99,0.444
		c0.093,0.07-0.025,0.135-0.004,0.199c0.546,0.075,1.05,0.905,1.638,0.696c0.188,0.038-0.029,0.048-0.021,0.15
		c0.237,0.027,0.637,0.419,0.912,0.246c0.696,0.446,1.892,1.045,2.861,0.912c0.226,0.208,0.691,0.594,0.975,0.321
		c0.226,0.445,1.275,0.401,1.693,0.583c0.118,0,0.161-0.107,0.161-0.182c0.226,0.129,0.762,0.424,1.028,0.205
		c0.192,0.198,0.738,0.229,0.964,0.106c0.578,0.279,1.449,0.445,2.026,0.102c0.063,0.359,0.798,0.446,0.922,0.096
		c0.904,0.295,2.399,0.316,2.925,0.043c0.396,0.294,1.259-0.15,2.004-0.075c0-0.075,0.107-0.075,0.076-0.204
		c0.128,0.064,0.128,0.129,0.235,0.183c0.176-0.07,0.67,0.053,0.729-0.327c0.161,0.139,0,0.192,0.167,0.273
		c0.563-0.402,1.591-0.156,1.837-0.606c1.137,0.146,1.973-0.327,2.992-0.809c0.389,0.192,0.662-0.037,0.786-0.311
		c0.531,0.134,0.872-0.269,1.259-0.365c0.176-0.043,0.107,0.096,0.172,0.096c0.337-0.401,0.749-0.471,1.371-0.712
		c0.011-0.097,0.011-0.107,0.011-0.145c0.204,0.048,0.417-0.342,0.729-0.165c-0.021-0.177,0.079-0.177,0.079-0.387
		c0.184,0.01,0.35-0.096,0.655-0.064c0.054-0.139,0.187-0.176,0.263-0.417c0.148,0.017,0.283,0.037,0.341,0.037
		c0-0.235,0.346-0.182,0.453-0.289c-0.033-0.183-0.033-0.129,0.024-0.268c0.263,0,0.468-0.14,0.671-0.103
		c0.343-0.69,1.071-0.712,1.479-1.227c0.13,0.011-0.178,0.135,0.117,0.135c0.066-0.091,0.033-0.408,0.259-0.51
		c0.128,0,0.155,0.07,0.155,0.102c0.07-0.381,0.523-0.381,0.627-0.794c0.176,0,0.176-0.031,0.347,0
		c1.524-1.612,3.291-3.037,4.476-5.101c0.269-0.075,0.508-0.349,0.568-0.745c0.021-0.128,0.226-0.064,0.354-0.128
		c0.075-0.783,0.66-1.05,0.91-1.613c0.366-0.601,0.536-1.416,1.104-1.709c0.943-2.422,1.819-5.048,2.485-7.486
		c0.021-0.027,0.033-0.113,0.033-0.231c-0.054-0.048-0.045-0.396,0.054-0.396c0.202-1.581,0.311-3.156,0.492-4.748
		c-0.054-0.101-0.095-0.6,0.07-0.574c0.015-0.026,0.026-0.139,0.037-0.289C177.75,107.659,176.538,103.331,174.932,99.552
		 M128.564,56.985c1.467,0.3,3.125,0.166,4.013,0.932c-0.288,0.14-0.416,0.477-0.459,0.949
		C130.734,58.277,129.771,57.719,128.564,56.985 M167.944,100.93c0.01-0.14,0.084-0.252,0.159-0.316
		c0.097,0.316,0.403,0.579,0.376,0.788c0.573,0.675,1.023,1.827,1.34,2.765c-1.207,0.746-2.316,1.559-3.697,1.86
		c0.031,0.171-0.385,0.477-0.594,0.331c-0.763,0.623-1.936,1.078-2.837,1.389c-1.816,1.055-3.569,2.438-6.012,2.353
		c2.396-2.058,4.988-4.373,7.47-6.141c-0.063-0.247,0.171-0.434,0.376-0.364c0.674-0.825,1.574-1.249,2.174-1.961
		c0.196,0.01,0.246,0.187,0.328,0.054c-0.032-0.177-0.132,0.031-0.132-0.15C167.187,101.304,167.59,100.93,167.944,100.93
		 M165.328,97.163c0.558,0.708,1.362,1.206,1.571,2.004c0.529,0.155,0.513,0.696,0.813,1.002c-0.233,0.226-0.533,0.327-0.646,0.761
		c-0.166-0.022-0.166,0-0.344-0.011c0.027,0.332-0.229,0.354-0.459,0.385c0.111,0,0.074,0.269-0.029,0.21
		c-0.021,0.059-0.068,0.065-0.08,0.118c-0.137,0.043-0.129,0.097-0.412,0.084c0.033,0.36-0.198,0.338-0.444,0.382
		c0,0,0,0.021,0,0.031c0.031,0,0.043-0.031,0.118-0.021c0.03,0.129-0.124,0.257-0.118,0.021c-0.011,0.023-0.006,0.173-0.011,0.264
		c-0.215,0.133-0.231,0.053-0.395,0.091c-0.025,0.381-0.55,0.289-0.505,0.605c-0.157,0.092-0.291,0.199-0.483,0.156
		c0.039,0.455-0.516,0.166-0.494,0.622c-0.133,0.064-0.321,0.118-0.427,0.118c0.021,0.273-0.279,0.402-0.494,0.492
		c0.203,0.065-0.659,0.585-0.825,0.628c-0.01,0.166-0.134,0.209-0.021,0.214c-0.322,0.177-0.376,0.333-0.643,0.375
		c0.18,0.112-0.129,0.081-0.129,0.257c-0.12,0.01-0.226-0.187-0.316,0.037c0.07,0.113,0.213-0.118,0.25,0.08
		c-0.148,0.086-0.33,0.205-0.554,0.215c-0.188,0.386-0.538,0.664-0.979,0.82c0.029,0.354-0.525,0.215-0.363,0.477
		c-0.079,0.059-0.042-0.167-0.116-0.209c-0.013,0.155-0.046,0.301,0.029,0.322c-1.574,0.869-2.608,2.989-4.916,2.792
		c-0.013-0.386-0.25-0.616-0.649-0.675c-0.017-0.306-0.017-0.515-0.006-0.869c-0.433-0.197-0.557-0.815-1.103-1.033
		c0.287-0.579,0.233-1.564,1.001-1.496c0.883-1.034,2.202-1.923,3.188-2.475c0.021-0.128-0.07-0.15-0.045-0.226
		c1.362-0.91,2.841-1.994,3.934-2.984c1.403-0.863,2.637-1.822,3.86-2.855c0-0.032,0-0.039,0-0.053
		c0.396-0.279,0.788-0.343,0.968-0.702C165.232,97.228,165.266,97.302,165.328,97.163 M152.156,118.038
		c0.484,0.05,0.27-0.353,0.301-0.744c1.255,0.235,2.434,0.76,2.552,1.72c0.276,0.042,0.359,0.284,0.472,0.478
		c0.004,0.011,0,0.031,0,0.058c-0.383,0.246-0.89,0.702-1.426,0.627c0,0.091,0,0.181-0.012,0.278
		c-0.738,0.182-1.586-0.247-2.12-0.237C152.039,119.689,152.802,118.627,152.156,118.038 M154.012,116.716
		c1.297,0.016,2.444,0.343,2.485,1.372C155.688,117.707,154.184,117.707,154.012,116.716 M153.973,114.523
		c0.254-0.166,0.339-0.551,0.296-1.199c1.379,0.615,2.38,1.751,2.487,3.247C155.19,116.463,154.452,115.547,153.973,114.523
		 M161.643,94.108c0.246-0.076,0.407,0.043,0.433,0.327c1.066,0.483,1.925,1.286,2.767,2.17c-1.408,1.265-3.146,2.352-4.55,3.649
		c-0.899,0.268-1.545,1.462-2.245,1.475c-0.375,0.642-0.805,0.716-1.237,1.179c-0.113,0-0.113-0.013-0.194-0.023
		c-1.092,0.933-2.533,2.112-3.681,2.776c0.306-0.686,0.322-1.463,0.722-1.951c-0.009,0.023,0,0.097,0.12,0.097
		c2.454-3.333,5.091-6.735,7.92-9.554C161.717,94.097,161.578,94.29,161.643,94.108 M161.084,93.754
		c-0.963,1.586-2.367,3.065-3.584,4.614c-0.765,0.857-1.619,2.159-2.402,2.632c-0.059,0.487-0.658,1.086-1.055,1.483
		c0.809-2.524,1.716-5.181,2.578-7.892c0.338-0.402,0.242-1.276,0.654-1.646c-0.027-0.354,0.393-0.563,0.385-1.189
		C158.909,92.329,160.475,92.935,161.084,93.754 M157.228,91.563c-1.169,3.489-2.734,8.15-3.987,11.768c0-0.01,0-0.103-0.064-0.086
		c-0.074,0.128,0.075,0.128,0.055,0.406c-0.387,0.059-0.912,1.158-1.469,1.564c0.407-4.398,0.825-9.95,1.495-14.724
		C154.719,90.534,156.059,91.043,157.228,91.563 M148.77,89.832c0.901-0.133,2.837,0.14,3.888,0.387
		c-0.006,1.918-0.217,4.7-0.618,6.301c0,3.226-0.449,6.125-0.762,9.265c-0.459-0.01-0.384-0.831-0.953-0.557
		c-0.696-1.78-1.499-3.098-3.162-3.841C147.607,97.559,148.011,93.181,148.77,89.832 M145.599,103.127
		c-0.041-0.017-0.021,0.118-0.103,0.118c-0.292-0.537-0.509-1.146-0.563-1.875c1.888-0.215,1.683,1.785,1.224,3.13
		c-0.087-0.193-0.279-0.376-0.141-0.515C145.599,103.92,145.759,103.32,145.599,103.127 M144.77,102.548
		c0.025,0.772,0.096,1.512,0.025,2.037c-0.224-0.183-0.579-0.462-0.536-0.767c-0.331,0.209-0.563-0.497-0.846-0.717
		c-0.026-0.012-0.043-0.012-0.076,0c-0.054-0.316-0.588-0.343-0.566-0.906c-0.396-0.199-1.041-0.52-1.191-1.265
		c-0.063,0-0.031,0.171-0.203,0.097c-0.139-0.14-0.246-0.35-0.343-0.542c1.05,0.042,1.95,0.445,2.792,0.461
		c0.262,0.423,0.69,0.975,0.628,1.58C144.538,102.538,144.688,102.538,144.77,102.548 M147.957,121.002
		c0.31-0.048,0.759,0.048,1.009,0.064c-0.151,0.68,0.008,1.837-0.376,2.239C148.229,122.695,147.808,121.881,147.957,121.002
		 M146.729,104.123c0.082-0.802,0.12-1.215,0.188-1.96c0.703,0.375,1.217,0.573,1.5,1.285
		C147.615,103.523,147.216,103.721,146.729,104.123 M150.999,121.597c-0.052,0.905,0.225,1.773,0.15,2.508
		c-0.359-0.691-0.771-1.211-1.098-2.01c-0.007,0-0.021-0.01-0.027-0.01c-0.118-0.456-0.589-0.772-0.61-1.377
		c0.584-0.006,0.793,0.267,1.189,0.246C150.761,121.217,150.657,121.576,150.999,121.597 M144.003,90.165
		c1.201-0.333,2.759-0.343,4.018-0.349c-0.102,3.644-0.825,7.465-1.36,11.301c-0.577-0.187-1.119-0.391-1.673-0.622
		C144.549,96.83,144.238,93.958,144.003,90.165 M143.478,90.331c0.117,0.203,0.063,0.583,0.015,0.895
		c0.337,0.444,0.263,2.058,0.274,2.534c0.438,2.027,0.449,4.764,0.695,6.569c-0.063,0.129-0.362,0-0.486,0
		c-0.08-0.583-0.563-0.766-0.435-1.382c-0.428-0.096-0.75-0.868-0.75-1.248c-0.416-0.386-0.633-1.179-0.954-1.666
		c-0.653-1.497-1.656-2.953-2.229-4.614C140.904,90.924,141.988,90.534,143.478,90.331 M137.164,92.699
		c0.387-0.53,1.212-0.756,1.929-0.986c0.482,1.019,1.232,1.897,1.479,3.13c0.699,0.869,1.471,2.46,1.813,3.489
		c0.407,0.203,0.707,0.991,0.792,1.435c0.107-0.054,0.324,0.193,0.278,0.392c-4.841-0.236-5.577-4.062-7.891-6.597
		C135.985,93.315,136.479,92.741,137.164,92.699 M133.928,96.745c0.231-0.193,0.354,0.187,0.419,0.37
		c0-0.081-0.006-0.173,0.009-0.173c-0.009,0.286,0.233,0.252,0.387,0.338c-0.178,0.45,0.192,0.66,0.483,0.45
		c1.617,1.249,4.2,2.664,5.021,4.688c0.399,0.027,0.433,0.354,0.529,0.552c1.489,1.216,2.357,2.754,3.632,4.051
		c-1.018,0.091-1.321,1.049-2.174,1.324c-0.022,0.15-0.017,0.267-0.113,0.353c-0.938-0.128-1.398-0.792-1.574-1.382
		c-1.142-1.013-2.091-2.293-2.862-3.537c-1.325-1.425-2.533-3.027-3.712-4.731c-0.892-0.778-1.404-1.736-2.161-2.663
		C132.481,95.245,133.477,95.571,133.928,96.745 M145.204,126.586c0.008,0.246,0.233,0.293,0.405,0.327
		c-0.022,0.278,0.022,0.396-0.022,0.525c-0.122-0.119-0.309-0.129-0.383-0.167c-0.022-0.204-0.397,0.241-0.784,0.037
		c0.075-1.748,0.387-3.617,0.697-5.476c0.3,0.723,0.933,1.168,1.295,1.881c-0.096,0.171-0.321,0.273-0.314,0.556
		c-0.424,0.055-0.873,0.371-0.59,0.869C144.795,125.438,145.578,126.077,145.204,126.586 M135.16,121.013
		c0.091-0.059,0.178-0.113,0.258-0.123c0.146-0.032,0.166,0.15,0.325,0.01c-0.187-0.284,0.211-0.413,0.393-0.402
		c-0.022-0.386,0.294-0.386,0.59-0.386c-0.12-0.085,0.01-0.219,0.033-0.327c0.074-0.075,0.313,0.14,0.405-0.075v-0.273
		c0.171,0,0.263-0.14,0.407-0.085c-0.054-0.466,0.687-0.188,0.568-0.638c0.149-0.172,0.3-0.064,0.354-0.102
		c-0.004-0.177,0.273-0.359,0.525-0.418c0.161-0.359,0.557-0.552,0.943-0.681c0.3-0.604,1.071-0.9,1.854-0.89
		c0.288,0.585,0.975,1.202,1.532,1.677c-0.099,1.137-0.761,1.823-1.479,2.016c0.089,0.311-0.291,0.428-0.548,0.53
		c0.054,0.054,0.064,0.064,0.05,0.171c-0.118,0.096-0.188,0.113-0.426,0.069c-0.042,0.204-0.074,0.193-0.159,0.311
		c-0.161,0.128-0.236,0.049-0.364,0.102c-0.031,0.15,0.102,0.14,0.037,0.215c-0.08,0.182-0.339,0.118-0.488,0.193
		c-0.08,0.311-0.471,0.712-0.942,0.809c-1.532,1.243-2.887,3.478-5.144,2.98c-1.088-0.542-2.846-0.274-3.547-0.799
		c1.617-1.164,3.208-2.823,4.813-3.575C135.151,121.152,135.385,121.196,135.16,121.013 M139.972,110.088
		c-5.625-0.687-10.311-0.981-14.98-1.714c0.374-1.352,0.525-2.869,1.308-3.854C131.065,106.101,137.11,106.626,139.972,110.088
		 M126.54,103.866c0.476-1.329,1.034-2.497,1.859-3.371c0.761,0.482,1.487,1.131,2.169,1.613c1.376,1.222,2.916,2.391,4.207,3.617
		c0.563,0.375,0.976,0.788,1.414,1.18C133.071,105.988,128.725,104.922,126.54,103.866 M140.593,109.969
		c-0.608-0.417-1.018-0.895-1.467-1.281c0.042-0.095,0.054-0.191-0.021-0.267c-0.054,0.032-0.097,0.076-0.097,0.14
		c-0.236-0.14-0.633-0.29-0.741-0.531c0.975,0.467,2.916,0.467,3.28,1.393c-0.031,0.305-0.209,0.611-0.385,0.755
		C140.841,110.162,140.745,110.098,140.593,109.969 M140.954,110.896c-0.188,0-0.391,0-0.579,0
		c-0.767-0.332-1.999-0.375-3.211-0.386c-0.9-0.413-2.399-0.106-3.621-0.729C136.393,110.215,138.772,110.098,140.954,110.896
		 M131.136,110.554c0.403-0.109,1.778-0.043,2.074,0.342c0.274-0.285,0.359,0.032,0.639-0.205c-0.013,0.237,0.424,0.092,0.563,0.29
		c0.128-0.084,0.32-0.127,0.492-0.084c-0.006,0-0.011,0-0.011,0.021c0.259,0.07,0.671,0.316,1.071,0
		c0.149,0.35,0.782,0.37,1.078,0.21c1.142,0.279,2.459,0.498,3.476,0.45c0.017,0.113,0.27,0.113,0.259,0.359
		c-5.316,0.037-10.812,0.574-16.444-0.16c0.089-0.847,0.209-1.603,0.376-2.263C126.49,109.728,129.535,109.932,131.136,110.554
		 M138.251,115.305c-4.645,0.323-9.478,0.355-13.851,0.103C129.041,115.065,133.521,115.001,138.251,115.305 M140.767,116.143
		c-0.999,0.342-2.679,0.369-3.828,0.369C137.743,115.703,139.555,115.338,140.767,116.143 M144.079,119.529
		c0.021-0.36,0.254-0.337,0.346-0.473c0.209,0.536,0.37,1.265,0.274,1.844c-0.687,0.686-1.512,1.816-2.324,2.61
		c0.009,0.182-0.174-0.011,0,0c0.416-1.383,0.563-2.652,1.154-3.499C143.605,119.689,143.896,119.223,144.079,119.529
		 M137.442,124.952c0.108-0.106,0.021-0.106,0.108-0.338c0.566-0.289,0.986-0.879,1.586-1.253c0.022,0,0.031,0.01,0.043,0.01
		c0-0.054,0-0.054,0-0.064c0.612-0.38,0.805-0.835,1.528-0.958c-0.039-0.262,0.068-0.262,0.079-0.402
		c0.184-0.086,0.258,0.091,0.396-0.022c-0.074-0.241,0.149-0.488,0.462-0.397c-0.066-0.236,0.126-0.236,0.246-0.401
		c0.097,0.038,0.097,0.155,0.204,0.054c0.063-0.166-0.091-0.129-0.091-0.269c0.277-0.01,0.465-0.413,0.699-0.327
		c-0.699,2.711-1.607,6.388-4.437,5.873c-0.3-0.37-0.707-0.359-1.135-0.263c-0.24-0.413-0.773-0.182-1.103-0.22
		C136.393,125.632,137.035,124.908,137.442,124.952 M141.763,125.728c-0.021-0.031-0.184-0.031-0.172-0.16
		c0.321-0.29,0.226-0.606,0.397-0.954c0.979-0.868,1.606-2.009,2.678-2.888c-0.267,1.822-0.45,3.938-0.696,5.225
		c-0.161-0.182-0.074,0.322-0.277,0.177c-0.801-0.125-1.438-0.295-2.418-0.258C141.537,126.307,141.435,126.087,141.763,125.728
		 M131.27,96.922c0.52,0.337,1.073,0.637,1.125,1.243c0.725,0.445,0.886,0.911,1.165,1.49c0.304,0.016,0.359,0.139,0.438,0.256
		c0.028,0.193-0.05,0.15-0.05,0.214c0.44-0.021,0.407,0.826,0.864,0.805c0.155,0.374,0.488,0.787,0.751,0.884
		c0.067,0.515,0.759,0.724,0.733,1.18c0.858,0.717,1.645,1.896,2.029,2.593c0.726,0.733,1.636,1.623,1.892,2.539
		c-0.276-0.138-0.889-0.084-1.038-0.433c-3.559-0.67-5.079-3.606-7.641-5.348c-0.021,0-0.075-0.012-0.107-0.012
		c-0.934-0.76-1.822-1.564-2.707-2.309c0.082-0.312,0.204-0.509,0.402-0.482c0-0.23,0.242-0.616,0.451-0.638
		c-0.043-0.23,0.354-0.739,0.47-0.38c0.237-0.583,0.568-1.168,1.083-1.221C130.901,97.152,131.147,97.006,131.27,96.922
		 M70.32,52.827c0.239,0.204,0.445,0.445,0.949,0.402c-0.056,0.262-0.26,0.718-0.426,0.691c-0.377,1.083-0.642,2.251-0.773,3.425
		C69.262,56.186,69.273,53.347,70.32,52.827C70.123,52.794,70.409,52.564,70.32,52.827 M66.65,87.062
		c0.099-0.016,0.204,0.113,0.204-0.026c-0.006-0.692,0.696-1.399,0.892-2.081c0.531,0.316,1.096,0.589,1.416,1.067
		c0.461,0.107,0.544,0.537,0.985,0.761c-0.077,0.215,0.523,0.252,0.523,0.546c-0.131,0.209-0.204,0.397-0.271,0.569
		c-0.281,0.076-0.487,0.09-0.458,0.396c-0.37,0.086-0.394,0.226-0.604,0.542c-0.281-0.183-0.506,0.637-0.784,0.251
		c-0.011,0.279-0.094,0.579-0.456,0.467c-0.359,0.577-0.839,0.879-1.396,1.087c0.118,0.123,0.011,0.23-0.032,0.283
		c-0.627,0.355-1.032,0.879-1.714,1.224C64.467,90.079,66.104,88.932,66.65,87.062 M63.411,83.354
		c0.006-0.327,0.091-0.514,0.158-0.798c0.614,1.95-0.71,4.004-1.387,5.418c-0.229,0.546-0.442,1.339-0.9,1.692
		c0.201,0.022,0.05,0.295-0.06,0.241c0.408-1.747,1.056-2.99,1.413-4.855c0.099-0.097,0.202,0.155,0.214-0.043
		c-0.104,0.065-0.012-0.064-0.133-0.054c0.211-0.626,0.219-0.916,0.519-1.602C63.242,83.354,63.379,83.36,63.411,83.354
		 M64.306,93.315c0.364,2.535-0.464,4.876-1.47,6.81c0-0.181,0-0.401,0-0.413C59.51,98.926,62.836,94.526,64.306,93.315
		 M62.999,82.32c-1.369,3.906-2.141,9.779-4.434,12.383c-0.04,0.435-0.636,0.884-0.994,1.361c0.284-4.784,0.844-10.738,1.452-15.003
		C60.23,81.329,61.846,81.742,62.999,82.32 M54.396,80.583c1.125-0.117,3.218,0.027,4.091,0.423
		c-0.748,5.155-0.483,12.159-2.084,16.468c-0.694-0.236-2.408-0.542-2.942-0.172C51.986,93.793,54.184,85.943,54.396,80.583
		 M49.597,80.986c1.179-0.445,2.729-0.402,4.135-0.456c-0.14,4.544-0.852,10.197-1.391,14.892
		C49.622,91.852,50.296,86.14,49.597,80.986 M51.952,95.93c0.034,0.069,0.046,0.103,0.198,0.103c0.236,0.487-0.062,0.899,0.013,1.28
		c-0.177,0.155-0.409,0.128-0.583,0.263c-0.889-0.906-0.801-2.514-0.801-3.836c0.052,0.01,0.145,0.031,0.212,0.106
		c0.027,0.14-0.083,0.14-0.139,0.187C51.303,94.495,51.778,95.292,51.952,95.93 M49.042,81.082c0.054,0.258,0.125,0.364,0.03,0.687
		c0.273,0.139,0.335,1.168,0.15,1.585c0.477,1.142,0.352,3.006,0.498,4.388c0.011-0.016,0.006-0.074,0.081-0.064
		c0.096,0.97,0.217,2.16,0.139,2.856c0.163,0,0.075,0.446,0.038,0.547c-1.121-1.966-2.355-3.794-3.162-5.942
		c-0.244-0.118-0.453-0.29-0.338-0.623c-0.539-0.61-0.997-1.467-1.174-2.383C46.547,81.742,47.568,81.248,49.042,81.082
		 M44.718,82.416c0.431,1.308,1.35,2.213,1.773,3.607c0.118-0.113,0.183,0.043,0.266,0.097c0,0.427,0.482,0.798,0.439,1.209
		c0.071,0,0.059-0.042,0.147-0.054c0.134,0.451,0.708,0.939,0.537,1.427c0.094,0.08,0.085-0.14,0.165-0.163
		c0.327,1.008,1.11,1.604,1.273,2.707c0.547,0.086,0.405,0.889,0.919,1.27c0.038,1.222,0.281,2.465,0.146,3.632
		c-0.648-0.809-1.375-1.644-1.918-2.577c-0.057,0.064-0.094,0.101-0.099,0.123c-0.169-0.381-0.458-0.622-0.6-1.034
		c-0.062,0.049-0.118,0.069-0.193,0.069c-0.01-0.214-0.265-0.214-0.14-0.595c-0.273,0-0.348-0.064-0.433-0.424
		c-0.108,0-0.131-0.063-0.252-0.047c-0.195-0.697-0.983-0.751-1.024-1.538c-0.192-0.017-0.259-0.123-0.227-0.312
		c-0.145-0.043-0.19,0.016-0.281,0.032c-0.067-0.106-0.129-0.31-0.134-0.525c-0.083,0.269-0.266-0.187-0.387-0.17
		c-0.005-0.156,0.056-0.119,0.056-0.22c-0.548-0.053-0.527-0.638-0.856-0.825c-0.021-0.006-0.048-0.006-0.062-0.006
		c-0.142-0.246-0.367-0.379-0.29-0.632c-0.353-0.027-0.388-0.305-0.383-0.444c-0.244,0.111-0.423-0.268-0.415-0.478
		c-0.796-0.536-1.232-1.316-1.613-2.244C42.227,83.451,43.418,82.914,44.718,82.416 M37.83,86.644
		c0.496-0.15,0.932-0.943,1.305-0.906c0.31-0.412,0.787-0.563,1.045-0.867c0.533,0.084,1.074,0.535,1.16,1.012
		c0.078-0.016,0.083-0.133,0.198-0.102c0.027,0.402,0.534,0.536,0.413,1.136c0.171-0.134,0.223,0,0.394,0
		c0.273,0.718,1.158,1.157,1.206,1.772c0.069-0.015,0.054-0.127,0.142-0.117c0.475,0.75,1.061,1.221,1.458,1.96
		c0.377,0.173,0.595,0.461,0.796,0.943c0.346,0.236,0.573,0.446,0.644,0.906c0.026-0.005,0.042,0,0.069,0
		c0.533,0.552,1.166,1.152,1.559,1.977c0.844,0.858,1.961,1.887,2.205,2.899c0.273,0.119,0.331,0.472,0.292,0.809
		c-0.171,0.054-0.136,0.011-0.334,0.023c-0.287,0.589-1.021,0.686-1.264,1.264c-0.024,0.144-0.033,0.284-0.062,0.358
		c-0.637,0.193-1.087-0.354-1.699-0.337c-0.182-0.086-0.127-0.3-0.192-0.429c-0.002,0.043-0.043,0.129-0.121,0.129
		c-0.348-0.563-0.86-1.135-1.398-1.677c0.015-0.096,0.023-0.14,0.04-0.257c-0.306-0.042-0.534-0.209-0.534-0.552
		c-0.177,0.167-0.251-0.219-0.397-0.305c-0.01-0.145,0.031-0.091,0.043-0.156c-0.466-0.341-1.048-0.809-1.165-1.425
		c-0.78-0.594-1.439-1.526-2.005-2.304c-0.318-0.145-0.492-0.364-0.524-0.687c-0.319,0-0.608-0.39-0.523-0.669
		c-0.326,0-0.256-0.15-0.296-0.354c-1.058-0.948-2.417-2.17-2.771-3.741c0.04-0.031,0.246-0.096,0.407-0.154
		C37.918,86.703,37.83,86.729,37.83,86.644 M50.73,110.108c0.158,2.004-0.897,2.899-1.843,3.714
		c-0.021,0.161-0.115,0.23-0.115,0.278C49.168,112.509,49.574,110.671,50.73,110.108 M47.966,100.812
		c0,0.14-0.067,0.332-0.127,0.492c-2.172,0-2.823-1.568-3.964-2.4C45.385,99.322,47.344,99.616,47.966,100.812 M36.823,87.726
		c0.037,0.209,0.41,0.139,0.295,0.371c0,0.031,0,0.054,0,0.054c1.232,0.846,1.934,2.351,3.14,3.269
		c-0.061,0.524,0.795,0.729,0.844,1.243c-0.015-0.081-0.072-0.017-0.077,0.069c0.525,0.31,0.91,0.803,1.176,1.388
		c0.093-0.01,0.05-0.01,0.027-0.096c0.969,0.896,1.621,2.127,2.663,3c0.024,0.14-0.123,0.279,0.008,0.29
		c0-0.01,0.031-0.01,0.091-0.01c0.098,0.021-0.017,0-0.027,0.166c0.594,0.263,1.058,1.066,1.548,1.666
		c-1.548-0.337-4.118-0.862-5.278-2.201c-0.05-0.113,0.214-0.167,0.032-0.242c-0.972-0.563-2.138-1.472-2.818-2.341
		c-1.426-0.899-2.92-2.256-4.285-3.595C35.065,89.742,35.85,88.52,36.823,87.726 M33.511,91.712
		c-0.008,0.091,0.033,0.107,0.116,0.14c0.038-0.14-0.116-0.14-0.037-0.214c0.144-0.204,0.296,0.064,0.31-0.219
		c0.38,0.17,0.705,0.293,0.805,0.717c-0.015-0.037-0.027-0.128-0.019-0.23c0.398,0.23,0.557,0.611,1.055,0.825
		c0.012,0.033,0.06,0.064,0.06,0.118c0.41,0.359,0.871,0.686,1.27,1.057c0.429,0.357,0.924,0.62,1.206,1.156
		c1.035,0.563,2.329,1.871,3.126,2.647c-3.235-1.029-6.697-1.709-9.455-3.006C32.38,93.626,32.95,92.602,33.511,91.712
		 M31.737,95.341c4.998,1.758,10.73,2.058,13.819,5.701c-4.708-0.547-10.411-0.927-15.03-1.72
		C30.688,97.934,31.101,96.52,31.737,95.341 M30.326,99.788c4.785,1.056,13.219,0.337,16.999,2.83
		c-0.106,0.648-0.211,1.602,0.239,2.008c-4.314,1.63-12.41-0.524-17.587-0.716C29.91,102.644,30.202,101.117,30.326,99.788
		 M47.612,106.101c-0.788,1.494-2.462,1.479-4.456,1.571C44.483,106.84,45.691,105.586,47.612,106.101 M29.958,104.499
		c5.241,0.359,10.099,0.932,15.191,1.285c0.067,0.252-0.354,0.316-0.468,0.338c-3.218,2.593-9.231,1.908-14.302,2.385
		C30.17,107.317,29.891,105.934,29.958,104.499 M30.688,109.197c3.142-0.557,6.834-0.701,9.909-0.916
		c-2.679,1.447-5.486,3.408-8.452,4.233c-0.05,0.294-0.235,0.407-0.383,0.407C31.196,111.7,30.688,110.521,30.688,109.197
		 M33.899,116.94c-0.155-0.283-0.458-0.455-0.589-0.846c-0.15,0-0.043-0.183-0.164-0.22c-0.04-0.16,0.18-0.106,0.223-0.171
		c-0.209-0.043-0.158,0-0.281,0c-0.083-0.112,0.01-0.385-0.083-0.408c-0.056,0.01-0.066,0.033-0.198,0.023
		c-0.108-0.436-0.515-0.832-0.515-1.314c-0.271-0.053-0.309-0.3-0.389-0.529c1.831-0.858,3.682-2.155,5.445-2.717
		c0.472-0.584,1.208-0.718,1.787-1.051c1.6-1.275,4.014-1.96,6.422-1.795c-3.105,2.6-6.237,5.021-9.374,7.491
		c-0.008-0.097,0.102-0.197-0.116-0.15C35.85,116.126,34.704,116.507,33.899,116.94 M36.858,120.627
		c-0.142-0.257-0.569-0.269-0.544-0.756c-0.625-0.369-1.61-1.511-1.906-2.267c0.078-0.311,0.702-0.364,0.63-0.696
		c0.51-0.252,0.874-0.912,1.42-0.987c2.266-2.133,4.718-3.917,7.234-5.824c0.689-0.805,1.57-1.271,2.299-1.983
		c-0.008,0.032-0.029,0.14,0.048,0.156c0.102-0.103,0.208-0.156,0.29-0.187c-0.096-0.013-0.188-0.013-0.193-0.097
		c0.627-0.295,1.412-0.295,2.237-0.295c0.795,0.805,2.007,1.602,0.916,3.092c-3.732,2.92-8.078,6.858-11.767,9.308
		C37.466,120.478,37.053,120.385,36.858,120.627 M40.328,123.692c-0.125-0.375-0.802-0.492-0.802-0.788
		c-0.764-0.402-1.608-1.135-2.063-1.79c0.125-0.064,0.417-0.793,0.74-0.519c3.198-3.172,7.155-6.05,10.829-8.916
		c-0.079,0.443-0.464,1.231-0.389,1.516c-0.275,0.488-0.33,1.135-0.557,1.688c-0.102,0.096-0.126-0.101-0.223,0
		c-0.795,1.603-2.307,2.825-3.336,4.185c-0.575,0.644-0.983,1.431-1.729,1.833c0.077,0.263-0.158,0.498-0.331,0.391
		c-0.284,0.708-0.862,1.34-1.511,1.635C40.817,123.306,40.659,123.527,40.328,123.692 M41.934,124.496c0,0.011,0,0.118-0.056,0.097
		c-0.171-0.097-0.321-0.204-0.34-0.446c-0.106,0.172-0.385-0.042-0.404-0.042c0.373-0.841,1.053-1.604,1.605-2.246
		c0.866-1.212,2.278-2.562,3.074-3.762c0.369-0.123,0.659-0.687,0.945-1.158c0.163-0.031,0.29,0,0.356-0.031
		c-0.051,0-0.045-0.129-0.104-0.231c0.281,0.011,0.24-0.413,0.554-0.461c-0.875,3.129-1.862,6.537-3.066,9.672
		C43.544,125.514,42.669,125.005,41.934,124.496 M45.075,126.109c1.688-4.406,2.098-10.739,5.355-13.145
		c-0.458,4.743-0.774,9.752-1.436,14.345C47.628,127.079,46.364,126.563,45.075,126.109 M49.574,127.374
		c0.969-5.128,0.173-14.485,2.813-16.885c0.541,0.241,1.873,0.359,2.274,0.258c1.629,4.099-0.718,11.616-0.983,17.071
		C52.458,127.845,50.792,127.69,49.574,127.374 M58.414,127.449c-1.208,0.198-2.998,0.643-4.019,0.241
		c0.027-4.34,0.813-9.945,1.515-14.678C58.297,116.732,57.681,122.894,58.414,127.449 M58.98,127.309
		c-0.558-3.52-0.973-7.197-1.109-10.604c0.991,2.266,2.551,4.249,3.357,6.666c0.804,0.788,1.093,1.768,1.566,2.77
		C61.503,126.741,60.496,127.014,58.98,127.309 M64.788,125.385c-0.203-0.096-0.083-0.106-0.348-0.106
		c-0.099,0.471-0.798,0.418-1.061,0.659c-0.078-0.24-0.52-0.563-0.185-0.761c-0.181-0.075-0.243,0.038-0.358,0.027
		c0-0.295-0.244-0.424-0.103-0.675c-0.304-0.108-0.483-0.423-0.483-0.837c-0.219,0-0.321-0.332-0.219-0.438
		c-0.319-0.205-0.402-0.456-0.506-0.751c-0.022,0-0.043,0-0.064,0c-0.721-1.612-1.844-3.204-2.368-4.683
		c-0.038,0.172-0.273-0.091,0,0c-0.96-1.334-1.729-2.764-1.727-4.897c0.958,0.761,1.678,1.821,2.299,2.604
		c1.16,1.292,2.366,2.487,3.285,3.88c0.35,0.284,0.787,0.451,0.831,0.98c0.286-0.091,0.265,0.515,0.673,0.515
		c-0.014,0.15-0.014,0.38,0.088,0.391c0.2,0,0.125,0,0.3,0c0,0.338,0.183,0.413,0.402,0.509c0.066,0.163,0,0.286,0,0.286
		c0.356,0,0.475,0.406,0.41,0.579c0.621,0.198,1.12,1.002,1.194,1.441C66.133,124.529,65.438,124.93,64.788,125.385 M70.07,121.42
		c0.061,0.246-0.006,0.305-0.113,0.439c-0.119,0-0.14-0.091-0.258-0.081c-0.035,0.316-0.381,0.68-0.56,0.67
		c0.099,0.053-0.013,0.053-0.03,0.118c-0.65,0.337-1.045,0.824-1.572,1.125c-0.294-0.118-0.335-0.514-0.689-0.69
		c-0.002-0.097,0.095-0.087,0.07-0.183c-0.07-0.102-0.268-0.091-0.456-0.113c-0.004-0.235-0.163-0.38-0.41-0.519
		c-0.005-0.112-0.005-0.101,0.03-0.214c-0.434-0.091-0.445-0.52-0.838-0.724v-0.134c-0.228,0.027,0-0.193,0,0
		c0.137-0.037,0.012-0.064,0.029-0.214c-0.037,0-0.083,0.054-0.283,0.01c-0.148-0.692-0.954-0.787-0.896-1.285
		c-0.059-0.033-0.073-0.033-0.096,0.042c-0.335-0.348-0.764-0.626-0.746-0.953c-1.75-1.805-3.747-4.11-5.301-6.205
		c-0.941-0.257-0.721-1.458-0.777-2.369c0.619-0.349,1.275-0.878,1.875-1.232c-0.017-0.166,0.152-0.242,0.168-0.392
		c0.399-0.3,1.125,0.392,1.619,0.392c0.081,0.166,0.016,0.354,0.077,0.385c0.314,0,0.464,0.172,0.411,0.446
		c0.46,0.053,0.305,0.615,0.726,0.696c-0.005,0.076-0.019,0.14-0.019,0.269c0.398,0.08,0.742,0.497,0.804,0.899
		c0.417,0.054,0.267,0.573,0.784,0.6c0.019,0.655,0.753,0.719,0.785,1.297c0.833,0.552,1.359,1.828,2.133,2.449
		c0,0.123-0.08,0.139-0.08,0.167c0.396,0.191,0.61,0.551,0.795,0.879c0-0.065,0.005-0.085,0.034-0.085
		c0.258,0.385,0.559,0.716,0.767,1.129c0-0.053,0-0.117,0.054-0.127c0.761,1.312,1.804,2.11,2.537,3.37
		C70.434,121.346,70.281,121.758,70.07,121.42 M71.01,120.671c-0.14-0.173-0.086-0.286-0.086-0.494
		c-2.647-2.32-5.139-5.884-7.286-8.718c-0.814-0.563-1.231-1.425-1.91-2.166c3.853,0.74,5.723,3.693,8.281,5.488
		c0.16-0.076,0.431,0.268,0.635,0.348c0.111,0.176-0.085,0.176,0.041,0.199c0.362,0.016,0.709,0.354,0.857,0.675
		c0.531,0.112,0.929,0.729,1.444,0.937c0.091,0.076-0.015,0.354,0.089,0.375c0.204-0.021,0.564,0.16,0.608,0.402
		C72.901,118.714,72.082,120.038,71.01,120.671 M74.037,117.128c-0.161-0.219-0.456-0.219-0.466-0.515
		c-3.113-1.998-5.528-4.104-7.934-6.188c0.554,0.267,1.755,0.369,2.427,0.862c1.19,0.15,2.993,0.783,4.009,1.222
		c1.152,0.3,2.813,0.502,3.616,1.194C75.7,114.852,74.684,116.254,74.037,117.128 M76.1,113.178
		c-3.689-1.489-10.979-2.497-13.67-5.191c4.824,0.397,10.042,0.594,14.967,1.307C77.177,110.617,76.772,112.102,76.1,113.178
		 M77.542,108.763c-4.967-0.648-12.81-0.15-16.943-2.25c0.056-0.273,0.227-0.413,0.208-0.653c1.093,0.043,1.225-1.115,0.889-2.031
		c0.313-0.096,0.429-0.129,0.633-0.193c0.109-0.161,0-0.675,0.109-0.642c4.732,0.251,9.964,1.017,15.574,1.644
		C78.006,105.999,77.82,107.692,77.542,108.763 M77.949,104.123c-4.675-0.315-10.226-1.205-14.856-1.585
		c2.856-2.32,10.412-1.77,14.449-2.443C77.866,101.283,78.066,102.858,77.949,104.123 M77.482,99.509
		c-0.185,0.006-0.306,0.006-0.477,0.054c-0.1-0.187,0.286-0.085,0.091-0.187c-0.808,0.37-2.539,0.584-3.599,0.466
		c-2.219,0.45-4.627,0.653-6.951,0.719c2.289-1.045,4.105-2.204,6.332-3.086c0.219-0.478,0.852-0.618,1.308-0.655
		c0.683-0.692,1.32-0.692,2.167-1.108C76.818,96.932,77.244,98.121,77.482,99.509 M75.104,93.379
		c0.586,0.36,0.588,1.146,0.988,1.758c-1.608,0.884-3.146,1.774-4.822,2.46c-0.627,0.401-1.951,1.222-2.818,1.329
		c-0.064,0.46-0.587,0.396-0.829,0.61c0.008,0.027,0,0.054,0,0.054c-0.192,0.082-0.369,0.209-0.56,0.123
		c-0.975,0.81-2.221,1.318-3.85,1.277c0.021-0.429,0.297-0.681,0.429-0.965c0.104,0.011,0.217,0.016,0.324,0.048
		c0.129-0.5,0.745-1.023,1.279-1.179c0.595-0.772,1.414-1.265,2.116-1.941c0.014-0.01,0.014-0.01,0.014-0.021
		c0.297-0.16,0.838-0.835,1.194-0.805c0.362-0.578,1.104-1.209,1.884-1.548c-0.087-0.386,0.515-0.3,0.589-0.724
		c0.104,0.011,0.211,0.027,0.228,0.05c0.415-0.729,1.271-0.971,1.741-1.694c0.228-0.054,0.038,0.24,0.254,0.166
		c0.008-0.113-0.075-0.15-0.038-0.241c0.456,0,0.522-0.466,0.967-0.563C74.484,92.243,75.17,92.625,75.104,93.379 M73.684,90.968
		c-0.035,0.365-0.404,0.365-0.635,0.509c-0.386,0.901-1.8,1.55-2.583,2.429c0,0.024,0,0.063,0,0.08
		c-2.229,1.549-4.097,3.407-6.28,4.918c1.059-1.864,0.33-5.288,1.329-6.387c0,0,0.006,0,0.006-0.012
		c-0.043,0.012-0.271,0.022-0.257-0.031c1.3-0.762,1.977-1.7,3.193-2.343c0.123-0.359,0.413-0.556,0.858-0.625
		c-0.03-0.407,0.643-0.74,0.908-0.766c0.021-0.092-0.062-0.124-0.027-0.22c0.281-0.118,0.675-0.284,0.815-0.542
		C72.244,88.52,72.997,89.821,73.684,90.968 M72.041,68.371c0.033,0.183-0.152,0.178-0.238,0.343
		c-0.129-0.021-0.193-0.038-0.33-0.054c-1.403,2.203-1.292,4.679-2.736,6.72c-0.027-0.155,0.123-0.252,0.123-0.445
		c-0.607-0.38-1.602-0.145-2.159-0.503c-0.332,0.75-0.654,1.65-1.047,2.31c-0.41-2.466-0.987-5.782-2.203-7.99
		c0.164,0.043,0.124-0.123,0.187-0.188c-0.404-0.021-0.536-0.712-0.404-0.863c-2.816-4.619,0.295-11.955,3.526-14.129
		c0-0.011,0-0.043,0-0.065c0.281-0.236,0.493-0.279,0.702-0.648c0.188-0.033,0.188-0.033,0.276,0.053
		c0.721-0.916,1.576-1.071,2.728-1.275c-3.792,4.116,0.756,10.665,2.813,13.884c0,0.027,0,0.069-0.006,0.123
		c0.195,0.118,0.41,0.327,0.508,0.493C73.429,67.161,72.963,68.318,72.041,68.371 M74.078,65.274
		c-0.363-0.256-0.371-0.648-0.646-0.733c0.027-0.022,0.037-0.161,0.045-0.284c-0.78-0.531-1.214-1.34-1.46-2.364
		c-0.343-0.123-0.552-0.895-0.343-1.125c0.377,0.316,0.779,0.589,0.985,1.023c0.804,0.364,1.622,1.125,2.429,1.666
		C74.886,63.806,74.484,64.792,74.078,65.274 M79.133,56.529c-1.031,1.136-2.141,2.979-3.041,4.764
		c0.008,0.043,0.217,0.096,0.008,0.129c0.025-0.065,0-0.076-0.008-0.081c0,0.091-0.054,0.027-0.069,0.15
		c-0.043,0.128,0.078,0.091,0.078,0.204c-0.198,0.364-0.531,0.776-0.573,1.008c-0.381-0.102-0.641-0.199-0.75-0.548
		c-3.972-0.6-5.113-7.581-1.699-9.596c0.062,0.192-0.171,0.102-0.177,0.278c0.118-0.01,0.102,0.075,0.198,0.075
		c0.012-0.085-0.011-0.235,0.089-0.235c0.086,0.128-0.005,0.16-0.04,0.295c0.281,0,0.213,0.332,0.225,0.417
		c0.709,0.584,2.135,0.364,2.904,0.091c0.214,0.188,0.381,0.284,0.629,0.354c0,0.113-0.011,0.246,0.043,0.279
		c0.921,0.327,1.69,0.895,2.358,1.409c0-0.085,0-0.048,0,0.011c0.256,0,0.334,0.182,0.379,0.274
		C79.554,56.171,79.318,56.529,79.133,56.529 M80.893,64.139c0-0.306,0.027-0.413,0.269-0.413c0.042,0.106,0.219,0.096,0.304,0.229
		c1.23,0.552,2.256,1.008,3.256,1.571C83.313,65.21,81.694,64.964,80.893,64.139 M109.407,106.513c0,0-23.853-37.836-23.716-38.023
		c-1.16-0.873-1.564-1.887-2.647-2.62c0.758,0.156,37.805,18.411,38.855,19.085c-0.487,1.475-3.07,7.084-3.629,8.436l-4.426,9.93
		l-1.747,2.962L109.407,106.513z M118.926,122.798c-0.194-0.296-0.646-0.349-0.986-0.263c-0.709-0.515-2.017-0.15-2.593-0.832
		c-0.129,0.296-0.453,0-0.677,0.055c-0.076-0.445-0.697-0.231-0.955-0.14c-0.085-0.328-0.658-0.328-0.894-0.328
		c0.039,0.172-0.166,0,0,0c-0.037-0.391,0.219-0.466,0.348-0.62c-0.009,0.273,0.3,0.293,0.687,0.379
		c0.026-0.15,0.054-0.267,0.021-0.529c0.097-0.136,0.472,0.137,0.376-0.125c0.3,0.016,0.279,0.274,0.633,0.231
		c0-0.032,0.059-0.043,0.059-0.113c-0.013-0.327-0.059-0.729,0.304-0.729c0.226,0.123,0.226,0.433,0.624,0.359
		c0-0.369-0.049-0.669,0.139-0.862c0.107,0.016,0.263,0,0.449,0.016c0.163,0,0.217-0.065,0.242-0.171
		c-0.038-0.21-0.079-0.279-0.025-0.574c0.396,0.074,0.433,0.064,0.771-0.011c0.029-0.273,0.009-0.455-0.113-0.567
		c0.01-0.23,0.134-0.268,0.154-0.387c0.499,0.119,0.462-0.294,0.525-0.659c-0.134-0.021-0.145,0.236-0.213-0.021
		c0.079,0.021,0.063-0.129,0.079-0.22c0.026-0.032,0.213-0.032,0.376-0.076c0.257,0.296-0.135,1.212,0.294,1.372
		c-0.007,0.103-0.203,0.103-0.231,0.199c0.225,0.235,0.037,0.675,0.37,0.702c0,0.17-0.146,0.031-0.146,0.181
		c0.146,0.252,0.146,0.644,0.354,0.934c-0.122,0.112-0.092,0.316-0.188,0.455c0.246,0.042,0.163,0.38,0.413,0.391
		c-0.143,0.52,0.316,1.27,0.437,1.886C119.429,122.808,119.159,122.835,118.926,122.798 M121.292,100.495
		c-1.125,1.634-2.058,4.212-2.304,6.49c-0.183,0.193-0.445,0.278-0.3,0.439c-1.092,0.182-1.274-0.52-1.843-0.986
		c0.039-0.435,0.006-0.825-0.17-1.104c-0.217-0.021-0.248,0.064-0.403,0c2.728-6.173,5.396-12.4,8.14-18.568
		c0.122,0.151,0.296,0.215,0.273,0.349c0.45,0.214,1.377,0.948,1.772,1.538c0.419,0.161,0.809,0.462,0.777,0.789
		c0.285-0.033,0.852,0.439,0.647,0.669c0.194,0.423,0.6,0.402,0.842,0.729c-0.358,0.074-0.61,0.374-0.805,0.637
		c-0.283-0.042-0.566,0.365-0.653,0.725c-0.464-0.065-0.427,0.386-0.727,0.443c-0.07,0.193,0.042,0.246,0.015,0.3
		c-0.235,0.092-0.376,0.167-0.546,0.167c0,0.226-0.13,0.268-0.109,0.628c-0.362,0-0.389,0.246-0.685,0.283
		c-0.021,0.086-0.079,0.316,0.006,0.413c-0.413,0.064-0.701,0.483-0.68,0.906c-0.695,0.509-1.441,1.425-1.742,2.39
		C122.199,98.491,121.525,99.354,121.292,100.495 M124.52,115.938c4.607,0.065,7.838-0.235,12.636-0.084
		c-3.207,1.854-8.822,1.157-12.464,1.789C124.669,117.059,124.362,116.485,124.52,115.938 M124.771,118.162
		c2.92-0.444,6.386-0.75,9.544-0.847c-0.139,0.214-0.214,0.07-0.366,0.14c0,0.17,0.054,0.225,0,0.252
		c-0.509,0.128-0.888,0.401-1.334,0.712c-0.031,0.091-0.122,0.091-0.153,0.091c-0.118,0-0.13,0.032-0.333,0
		c-1.789,1.179-3.771,2.357-5.708,3.102c-0.101,0.134-0.438,0.091-0.504,0.35C125.387,120.89,125.104,119.561,124.771,118.162
		 M127.531,124.529c-0.174-0.033-0.424-0.423-0.579-0.349c-0.129-0.14-0.344-0.333-0.187-0.5c-0.045-0.042-0.062,0.011-0.146,0.011
		c-0.3-0.332-0.267-1.167-0.407-1.04c0-0.225,0.103-0.117,0.113-0.24c-0.006,0.074,0,0.09,0.037,0.09
		c0.096-0.417,0.749-0.042,0.62-0.546c0.525-0.032,0.954-0.76,1.347-0.429c0.015-0.214-0.026-0.214,0-0.283
		c0.079-0.091,0.396-0.241,0.478-0.129c0.449-0.583,1.21-0.637,1.82-1.045c0.306-0.283,0.515-0.477,0.912-0.379
		c0.01-0.128,0-0.097,0.01-0.306c0.516-0.085,0.794-0.497,1.216-0.524c0.166-0.208,0.37-0.348,0.638-0.316
		c0.387-0.504,1.232-0.455,1.425-0.954c1.399-0.679,3.346-0.706,4.898-0.648c-0.674,0.439-1.188,1.148-2.004,1.404
		c-0.021,0.081,0,0.14,0.042,0.167c-0.075,0.102-0.279,0.054-0.362,0.086c0,0.187-0.113,0.29-0.163,0.32
		c-0.074,0.043-0.159,0.119-0.362,0.086c-0.107,0.161-0.117,0.295-0.192,0.37c-0.152,0.021-0.254-0.027-0.316-0.075
		c0.025,0.241-0.104,0.188-0.062,0.391c-0.442,0-0.358,0.6-0.931,0.434c-0.074,0.193-0.054,0.118-0.118,0.375
		c-0.097,0-0.246,0-0.354,0.023c-0.151,0.39-0.451,0.76-0.955,0.77c0.024,0.402-0.379,0.413-0.427,0.413
		c-0.674,0.767-1.29,1.148-2.111,1.613c0.075,0,0.054,0.081,0.054,0.156c-0.316-0.075-0.333,0.439-0.498,0.208
		c-0.146,0.011,0.024,0.011-0.026,0.215c-0.601,0.209-0.892,0.611-1.404,1.002C128.795,124.78,128.329,124.42,127.531,124.529
		 M130.799,129.549c-0.172,0-0.16-0.246-0.226-0.322c-0.24,0.055-0.542-0.251-0.407-0.583c-0.601-0.064-0.234-0.531-0.751-0.552
		c-0.009-0.402-0.503-0.402-0.416-0.884c-0.118-0.017-0.146,0.064-0.263,0.064c-0.012-0.236-0.246-0.392-0.087-0.515
		c-0.204-0.096-0.283,0.011-0.32-0.235c0.428-0.306,0.798-0.494,1.156-1.008c0.446,0.15,0.659,0.498,1.131,0.193
		c1.065,0.589,2.531,0.391,3.762,0.814c-0.022,0.294-0.172,0.311-0.256,0.417c-0.044,0-0.075,0-0.129,0c0,0.011,0,0.043-0.012,0.075
		c-0.214,0.027-0.209,0.349-0.514,0.295c0.079,0.156-0.161,0.381-0.396,0.381C132.478,128.482,131.569,128.922,130.799,129.549
		 M132.111,130.894c-0.054-0.106,0.007-0.069,0.027-0.294c-0.224,0.144-0.703-0.279-0.856-0.568
		c0.536-0.371,0.829-1.029,1.462-1.175c0.004-0.375,0.536-0.744,0.958-0.776c-0.143-0.391,0.246-0.402,0.542-0.465
		c0.252-0.306,0.428-0.767,0.907-0.735c0-0.139,0-0.054,0.009-0.262c0.246,0.208,0.403,0.065,0.682,0.208
		c0.723,0.006,2.126,0.279,3.264,0.483c-0.087,0.032-0.333,0-0.359,0.032c0.026,0.172,0.143-0.032,0.188,0.183
		C136.735,129.067,135.053,134.5,132.111,130.894 M138.359,134.779c-1.345-0.487-2.453-1.083-3.541-1.892
		c0.472-0.444,0.825-1.05,1.254-1.602c0.176-0.006,0.278,0.112,0.295-0.006c0.005-0.669,0.647-0.669,0.788-1.174
		c0.037-0.021,0.128,0.123,0.283-0.01c-0.13-0.225,0.325-0.75,0.418-0.579c0.153-0.413,0.52-0.937,0.916-1.018
		c-0.118-0.407,0.606-0.525,0.803-1.168c0.517,0.043,0.75-0.021,1.133,0.209c-0.115,0.246-0.174,0.574-0.378,0.691
		c-0.464,1.999-0.991,4.234-1.922,5.856C138.671,134.173,138.363,134.538,138.359,134.779 M138.82,135.052
		c0.605-2.165,1.384-4.527,2.052-6.799c0.037-0.279,0.161-0.563,0.3-0.713c0.903,0.139,1.544,0.359,2.423,0.246
		c0.042,0.113,0.075,0.306,0.288,0.306c-0.479,2.727-0.683,5.272-1.092,8.102C141.548,135.937,140.001,135.551,138.82,135.052
		 M143.263,136.322c0.291-2.369,0.633-5.616,1.083-8.23c1.049,0.021,2.465,0.391,3.824,0.391c-0.149,2.213-0.588,6.398-0.813,8.263
		C146.178,136.778,144.354,136.516,143.263,136.322 M152.019,136.37c-1.254,0.123-2.894,0.418-4.128,0.365
		c0.109-2.261,0.483-5.568,0.726-8.44c0.509-0.037,1.003-0.01,1.408,0.048c0.211-0.251,0.407-0.434,0.525-0.728
		c-0.105-0.515-0.761-0.306-0.846-0.912c0.095-0.214,0.316-0.321,0.32-0.616c-0.32-0.573-0.074-0.777-0.118-1.307
		c-0.225-0.166-0.395-0.273-0.641-0.294c-0.205-0.793-0.13-1.93,0.083-2.782c0.194,0.617,1.063,1.415,0.825,1.988
		c0.55,0.032,0.676,0.922,0.857,1.303c0.066-0.012,0.055-0.097,0.129-0.097c0.184,0.401,0.163,1.103,0.13,1.688
		c0.054,0.723,0.342,1.516,0.116,2.158C151.766,131.286,151.977,133.686,152.019,136.37 M152.522,136.193
		c-0.252-3.316-0.674-6.333-0.612-9.704c0.108,0.391,0.53,0.82,0.525,1.201c0.403,0.391,0.729,1.017,0.795,1.49
		c0.405,0.503,1.179,1.714,1.216,2.459c0.525,0.284,0.572,0.9,0.872,1.344c0.021,0,0.042,0,0.066,0.011
		c0.052,0.199-0.137,0.107-0.141,0.247c0.116,0.048,0.133-0.091,0.257-0.113c0.226,0.665,0.622,1.254,0.825,1.999
		C155.234,135.555,153.853,135.991,152.522,136.193 M156.981,134.87c-0.484-0.637-1.223-1.58-1.334-2.449
		c-0.521-0.669-1.208-1.918-1.384-2.738c-0.498-0.23-0.637-0.884-0.767-1.265c-0.267-0.264-0.799-1.078-0.664-1.447
		c-0.531-0.231-0.631-0.756-0.805-1.308c-0.818-0.723-0.283-3.012-0.637-3.96c1.14,1.211,1.977,2.402,3.038,3.596
		c1.838,2.519,4.334,4.786,5.647,7.507c0.29-0.011,0.397,0.081,0.397,0.251C159.272,133.686,158.26,134.393,156.981,134.87
		 M163.987,130.085c-1.649,3.225-4.495,2.26-5.796-0.804c-2.089-2.487-4.159-4.957-6.109-7.578c1.586,0.011,3.445-2.266,4.481-1.056
		c-0.083,0.023-0.107,0.081-0.107,0.188c2.517,2.845,5.22,5.84,7.34,9.2c0.258,0.05,0.3-0.037,0.322,0.113
		C164.042,130.321,164.096,130.085,163.987,130.085 M164.675,129.613c-2.079-1.554-3.419-4.051-5.175-6.012
		c-0.062,0-0.099,0-0.137-0.01c-0.68-1.216-1.749-2.106-2.469-3.382c-0.159,0.113-0.3-0.236-0.444-0.337
		c-0.24-1.538,2.084-1.104,2.417-0.182c0.288,0,0.555,0.369,0.722,0.529c1.014,0.858,2.087,1.587,2.883,2.498
		c1.336,0.729,2.546,2.218,3.865,2.98c0.145,0.117,0,0.177,0.102,0.348c0.348-0.032,0.411,0.488,0.846,0.542
		C166.492,127.69,165.704,128.826,164.675,129.613 M167.698,126.087c-1.728-0.938-3.206-2.287-4.527-3.585
		c-1.262-0.798-2.607-1.95-3.608-3.016c3.397,1.012,6.731,1.935,9.966,3.199C169.09,123.874,168.136,125.225,167.698,126.087
		 M169.739,122.116c-3.506-1.307-9.538-2.058-12.441-4.42c0.037-0.262,0.054-0.401,0.078-0.67c4.6,0.503,9.352,0.681,13.564,1.308
		C170.74,119.743,170.184,121.141,169.739,122.116 M171.673,114.187c0.033,0.327-0.138,0.327-0.253,0.433
		c0.307,0.263-0.03,1.496-0.122,1.865c0.033,0,0.033-0.053,0.092-0.101c-0.05,0.513-0.241,0.996-0.253,1.334
		c-4.233-0.167-9.453-0.708-13.761-1.136c0.124-1.18-0.728-1.7-0.696-2.481c-0.621-0.343-1.445-0.959-2.324-1.569
		c4.458-1.367,12.431,1.006,17.317,1.195c0.043,0.374-0.311,0.529-0.229,0.696C171.695,114.513,171.503,114.153,171.673,114.187
		 M171.673,113.178c-5.349-0.256-10.057-1.168-14.987-1.618c3.789-2.267,9.618-1.612,14.623-2.405
		C171.631,110.344,171.636,111.818,171.673,113.178 M170.254,108.613c-2.959,0.616-6.537,0.922-9.608,1.072
		c2.904-1.994,6.25-3.317,9.474-4.882c-0.012,0.258,0.35,0.327,0.139,0.701c0.504,0.692,0.653,1.854,1.007,2.992
		C170.911,108.497,170.5,108.844,170.254,108.613"/>
</g>
</svg>
