<?xml version="1.0" encoding="utf-8"?>
<!-- Generator: Adobe Illustrator 16.0.0, SVG Export Plug-In . SVG Version: 6.00 Build 0)  -->
<!DOCTYPE svg PUBLIC "-//W3C//DTD SVG 1.1//EN" "http://www.w3.org/Graphics/SVG/1.1/DTD/svg11.dtd">
<svg version="1.1" id="Calque_1" xmlns="http://www.w3.org/2000/svg" xmlns:xlink="http://www.w3.org/1999/xlink" x="0px" y="0px"
	 width="200px" height="200px" viewBox="0 0 200 200" enable-background="new 0 0 200 200" xml:space="preserve">
<path fill="#FFFFFF" stroke="#3D3838" stroke-width="7.3794" stroke-miterlimit="10" d="M99.999,189.229
	C50.376,189.229,10,149.219,10,100c0-49.22,40.376-89.228,89.999-89.228C149.624,10.772,190,50.78,190,100
	C190,149.219,149.624,189.229,99.999,189.229"/>
<g id="japon_2_">
	<g>
		<defs>
			<rect id="SVGID_1_" x="40.734" y="60.781" width="61.12" height="90.937"/>
		</defs>
		<clipPath id="SVGID_2_">
			<use xlink:href="#SVGID_1_"  overflow="visible"/>
		</clipPath>
		<g transform="matrix(1 0 0 1 0 3.814697e-006)" clip-path="url(#SVGID_2_)" enable-background="new    ">
			
				<image overflow="visible" width="285" height="242" xlink:href="9D0BFDC.jpeg"  transform="matrix(0.4783 0 0 0.474 31.5493 41.3838)">
			</image>
		</g>
	</g>
	<path fill="#3D3838" d="M152.594,44.382c3.639,27.738,7.262,55.741,10.896,84.132c-39.162-9.687-78.327,23.063-117.508,22.568
		c-3.638-27.544-7.269-55.476-10.898-83.604C74.249,74.829,113.428,41.85,152.594,44.382 M155.602,41.08
		C114.1,36.541,72.614,73.881,31.163,63.033c3.938,30.918,7.859,61.297,11.813,91.423c41.483,2.426,82.969-34.665,124.451-21.271
		C163.475,102.021,159.538,71.365,155.602,41.08"/>
	<path fill="#EC1C24" d="M131.182,87.31c2.342,17.333-10.035,33.89-27.647,40.41c-17.604,6.646-33.776-3.003-36.123-20.442
		C65.056,90.018,77.43,73,95.027,66.41C112.641,59.623,128.826,69.765,131.182,87.31"/>
	
		<path fill="none" stroke="#3D3838" stroke-width="6.8455" stroke-linecap="round" stroke-linejoin="bevel" stroke-miterlimit="10" d="
		M42.704,152.313c-3.806-29.039-7.602-58.323-11.4-88.136"/>
</g>
</svg>
