<?xml version="1.0" encoding="iso-8859-1"?>
<!-- Generator: Adobe Illustrator 16.0.0, SVG Export Plug-In . SVG Version: 6.00 Build 0)  -->
<!DOCTYPE svg PUBLIC "-//W3C//DTD SVG 1.1//EN" "http://www.w3.org/Graphics/SVG/1.1/DTD/svg11.dtd">
<svg version="1.1" id="Calque_1" xmlns="http://www.w3.org/2000/svg" xmlns:xlink="http://www.w3.org/1999/xlink" x="0px" y="0px"
	 width="200px" height="200px" viewBox="0 0 200 200" enable-background="new 0 0 200 200" xml:space="preserve">
<g>
	<g>
		<path fill="#FFFFFF" stroke="#3D3838" stroke-width="7.3801" stroke-miterlimit="10" d="M99.983,189.243
			C50.359,189.243,10,149.235,10,100.001c0-49.22,40.359-89.244,89.983-89.244c49.639,0,90.017,40.024,90.017,89.244
			C190,149.235,149.622,189.243,99.983,189.243"/>
	</g>
	<g>
		<defs>
			<path id="SVGID_29_" d="M13.691,99.999c0,47.251,38.646,85.59,86.292,85.59c47.654,0,86.308-38.339,86.308-85.59
				s-38.654-85.586-86.308-85.586C52.337,14.413,13.691,52.748,13.691,99.999"/>
		</defs>
		<clipPath id="SVGID_2_">
			<use xlink:href="#SVGID_29_"  overflow="visible"/>
		</clipPath>
		<rect x="-12.042" y="98.209" clip-path="url(#SVGID_2_)" fill="#3D3838" width="222.748" height="106.223"/>
		<path clip-path="url(#SVGID_2_)" fill="#FFFFFF" d="M99.983,17.908c45.667,0,82.81,36.793,82.81,82.093
			c0,45.228-37.143,82.122-82.81,82.122c-45.634,0-82.793-36.895-82.793-82.122C17.19,54.701,54.349,17.908,99.983,17.908
			 M99.983,14.413c-47.646,0-86.292,38.335-86.292,85.588c0,47.251,38.646,85.588,86.292,85.588
			c47.654,0,86.308-38.337,86.308-85.588C186.291,52.748,147.637,14.413,99.983,14.413"/>
		<path clip-path="url(#SVGID_2_)" fill="#326E85" d="M81.798,125.399l60.918,35.86c0.105,0.054,0.122,0.088,0.208,0.156
			l1.233-100.983c-0.074-0.052-61.113-35.985-61.113-35.985c-2.864-1.651-5.256-0.383-5.282,2.991l-1.117,88.891
			C76.62,119.599,78.916,123.678,81.798,125.399"/>
		<path clip-path="url(#SVGID_2_)" fill="#FFFFFF" d="M62.743,35.786l62.324,36.142l16.98-9.298L80.05,26.542
			c0,0-0.916,1.371-6.381,4.448C66.926,34.804,62.743,35.786,62.743,35.786"/>
		<g clip-path="url(#SVGID_2_)">
			<defs>
				<path id="SVGID_31_" d="M73.668,30.99c-6.742,3.813-10.926,4.796-10.926,4.796l62.324,36.142l16.98-9.298L80.05,26.542
					C80.05,26.542,79.134,27.913,73.668,30.99"/>
			</defs>
			<clipPath id="SVGID_4_">
				<use xlink:href="#SVGID_31_"  overflow="visible"/>
			</clipPath>
			<polygon clip-path="url(#SVGID_4_)" fill="#E2E0CF" points="62.629,31.673 128.232,70.312 127.771,70.607 62.138,32.007 			"/>
			<polygon clip-path="url(#SVGID_4_)" fill="#E2E0CF" points="64.034,30.881 129.671,69.521 129.197,69.836 63.578,31.201 			"/>
			<polygon clip-path="url(#SVGID_4_)" fill="#E2E0CF" points="65.477,30.092 131.08,68.713 130.62,69.063 65.002,30.407 			"/>
			<polygon clip-path="url(#SVGID_4_)" fill="#E2E0CF" points="66.899,29.335 132.501,67.938 132.011,68.271 66.399,29.615 			"/>
			<polygon clip-path="url(#SVGID_4_)" fill="#E2E0CF" points="68.289,28.563 133.908,67.165 133.451,67.447 67.832,28.808 			"/>
			<polygon clip-path="url(#SVGID_4_)" fill="#E2E0CF" points="69.722,27.772 135.334,66.424 134.875,66.655 69.256,28 			"/>
			<polygon clip-path="url(#SVGID_4_)" fill="#E2E0CF" points="71.154,26.98 136.771,65.619 136.282,65.863 70.681,27.208 			"/>
			<polygon clip-path="url(#SVGID_4_)" fill="#E2E0CF" points="72.419,26.103 138.04,64.772 137.565,65.003 71.954,26.348 			"/>
			<polygon clip-path="url(#SVGID_4_)" fill="#E2E0CF" points="73.853,25.31 139.463,63.967 138.988,64.194 73.37,25.541 			"/>
			<polygon clip-path="url(#SVGID_4_)" fill="#E2E0CF" points="75.268,24.519 140.886,63.158 140.378,63.402 74.776,24.8 			"/>
			<polygon clip-path="url(#SVGID_4_)" fill="#E2E0CF" points="76.665,23.728 142.293,62.366 141.818,62.63 76.217,24.029 			"/>
			<polygon clip-path="url(#SVGID_4_)" fill="#E2E0CF" points="78.098,22.936 143.718,61.573 143.259,61.872 77.641,23.254 			"/>
			<polygon clip-path="url(#SVGID_4_)" fill="#E2E0CF" points="79.53,22.165 145.142,60.782 144.666,61.117 79.055,22.447 			"/>
			<polygon clip-path="url(#SVGID_4_)" fill="#E2E0CF" points="80.919,21.392 146.545,59.994 146.09,60.311 80.453,21.653 			"/>
		</g>
		<polygon clip-path="url(#SVGID_2_)" fill="#24B0B5" points="125.733,70.716 144.158,60.433 142.926,161.416 124.47,171.615 		"/>
		<polygon clip-path="url(#SVGID_2_)" fill="#326E85" points="126.244,159.15 141.447,150.73 141.346,158.22 126.155,166.708 		"/>
		<polygon clip-path="url(#SVGID_2_)" fill="#326E85" points="126.315,152.559 141.503,144.069 141.468,148.007 126.264,156.495 		
			"/>
		<polygon clip-path="url(#SVGID_2_)" fill="#326E85" points="127.931,75.056 141.819,67.27 141.799,70.893 127.862,78.588 		"/>
		<path clip-path="url(#SVGID_2_)" fill="#326E85" d="M63.578,135.507l60.943,35.862c0.071,0.068,0.157,0.122,0.23,0.176
			l1.266-100.936c-0.09-0.002-0.175-0.034-0.248-0.104l-60.96-35.879c-2.829-1.705-5.221-0.35-5.29,2.937l-1.083,88.877
			C58.383,129.707,60.704,133.787,63.578,135.507"/>
		<polygon clip-path="url(#SVGID_2_)" fill="#542D38" points="69.95,110.651 114.099,136.633 113.939,150.834 69.749,124.818 		"/>
		<polygon clip-path="url(#SVGID_2_)" fill="#24B0B5" points="87.466,62.171 98.031,68.343 97.979,71.752 87.415,65.581 		"/>
		<path clip-path="url(#SVGID_2_)" fill-rule="evenodd" clip-rule="evenodd" fill="#326E85" d="M137.178,83.072
			c-0.07,2.796-0.316,5.29-0.316,8.298c-1.285,0.722-2.269,1.933-3.339,3.092c-0.264-0.367-0.334-1.248-0.81-1.107
			c0.052,2.567-0.301,5.66-0.156,7.418c0.579-0.174,0.489-1.407,0.982-1.758c1.336-1.178,2.9-2.986,4.291-3.163
			c0.685-1.583,1.44-3.006,1.793-5.205c-0.107-0.879-0.476-1.142-0.793-1.613c-0.438,0.403-0.668,1.16-1.214,1.265
			c0.07-3.026,0.651-5.31,0.67-8.404c-0.897-1.352-2.428,1.776-3.657,2.516c-0.404,0.21-0.599-0.091-1.123,0.438
			c0.262,2.284-0.247,6.539,0.192,8.189c0.596-0.035,0.542-1.176,0.983-1.406c0.738-0.984,1.739-1.422,2.004-3.163
			c-0.651-0.492-1.529,2.233-2.18,1.671c-0.054-2.725,1.812-2.128,2.108-4.325c-0.737-0.421-1.386,1.528-2.073,2.197
			c-0.125-0.314-0.104-0.932-0.086-1.58C134.999,84.881,136.475,83.475,137.178,83.072 M133.452,98.032
			c-0.229-1.705,0.019-3.062,1.054-3.322C134.559,96.466,134.313,97.855,133.452,98.032 M135.192,96.381
			c0.052-0.881-0.069-2.109,0.176-2.727c0.208-0.175,0.402-0.333,0.615-0.387c-0.019,0.721-0.052,1.442-0.053,2.16
			C135.685,95.798,135.454,96.151,135.192,96.381 M138.318,91.244c-0.087,1.304-0.278,2.426-0.597,3.288
			c-0.387,0.283-0.806,0.527-1.211,0.74C136.614,93.126,137.193,91.737,138.318,91.244"/>
		<path clip-path="url(#SVGID_2_)" fill-rule="evenodd" clip-rule="evenodd" fill="#326E85" d="M131.343,91.036
			c0.615-2.761-0.529-2.761-1.653-1.636C129.99,90.631,130.462,91.403,131.343,91.036"/>
		<path clip-path="url(#SVGID_2_)" fill-rule="evenodd" clip-rule="evenodd" fill="#326E85" d="M130.832,97.011
			c0.178-2.442-0.983-1.194-1.9-0.684c-0.102,0.054-0.137,0.3-0.122,0.596c0.017,0.176,0.087,0.228,0.23,0.16
			C129.53,97.329,130.076,98.207,130.832,97.011"/>
		<path clip-path="url(#SVGID_2_)" fill-rule="evenodd" clip-rule="evenodd" fill="#326E85" d="M131.201,96.713
			c-0.913,3.814-1.53,8.208-3.039,11.039c0.277,1.248,0.491,2.515,1.3,2.196c0.384-2.109,0.595-4.497,0.981-6.52
			c0.285-2.252,0.862-4.063,1.004-6.556C131.428,96.695,131.343,96.661,131.201,96.713"/>
		<path clip-path="url(#SVGID_2_)" fill-rule="evenodd" clip-rule="evenodd" fill="#326E85" d="M136.212,103.041
			c0.209-2.11,1.125-2.863,1.088-5.237c-0.42-0.774-1.65,0.563-2.195,1.353c-0.724,0.811-1.704,1.267-2.092,2.638
			c0.737,1.372,1.88-1.69,2.936-2.394c-0.211,1.075-0.264,2.394-0.791,2.988c-0.565,0.354-1.267-0.949-1.705,0.757
			c0.42,0.123,1-0.123,1.178,0.582c-0.546,1.368-1.195,2.688-1.76,4.059c-0.385,0.633-0.665,1.389-1.002,2.005
			c-0.263,0.843-0.771,1.143-0.896,2.128c0.669-0.105,1.583-2.164,2.357-3.095c0.279-0.774,0.806-1.214,0.985-2.25
			c0.527-0.405,0.56-1.724,1.14-1.986c1.248,0.617,1.847,2.938,3.184,3.392c1.107-0.755,1.74-2.285,2.918-2.954
			c0.032-1.404-0.934-0.052-1.3-0.508c-0.6,0.264-1.11,0.371-1.532,0.124c-0.49,0-0.914-0.281-1.335-0.459
			C137.038,103.674,136.315,104.254,136.212,103.041"/>
		<path clip-path="url(#SVGID_2_)" fill-rule="evenodd" clip-rule="evenodd" fill="#326E85" d="M132.995,112.849
			c-0.019,0.897-0.037,1.794-0.056,2.743c0.073,0.563-0.103,1.898,0.302,1.633c0.457-1.334,0.579-4.638,0.402-6.151
			c-0.246,0.213-0.264-0.104-0.508,0.002c-0.017,0.353-0.017,0.579-0.017,0.841C133.101,112.252,132.975,112.411,132.995,112.849"/>
		<path clip-path="url(#SVGID_2_)" fill-rule="evenodd" clip-rule="evenodd" fill="#326E85" d="M132.31,120.776
			c0.81-0.615,1.705-0.983,2.442-1.529c0.739-0.614,1.879-0.614,2.003-2.319c0.265-0.738-0.527-0.617-0.596-1.284
			c-1.479,0.704-2.689,2.727-3.923,3.797c-0.772,0.721-1.511,0.721-2.317,1.793C130.236,122.959,131.325,121.48,132.31,120.776"/>
		<path clip-path="url(#SVGID_2_)" fill-rule="evenodd" clip-rule="evenodd" fill="#326E85" d="M131.765,134.54
			c1.405-0.72,2.531-1.881,3.901-2.672c0.475-3.567,1.107-6.818,1.319-10.826c-0.425-1.179-1.935,0.616-2.779,1.247
			c-0.948,0.966-1.984,1.916-2.969,2.883c-0.423,0.354-0.423-1.089-0.828-0.018c0.405,2.567-0.121,7.715,0.247,10.353
			C130.92,135.928,131.183,134.54,131.765,134.54 M134.174,123.606c0.438-0.405,1.194-1.315,1.58-0.948
			c-0.106,2.849-0.493,5.361-0.79,8.016c-0.441,0.265-0.88,0.493-1.32,0.843c-0.034-1.266,0.088-2.283,0.177-3.393
			c0.352-0.634,1.003-0.771,1.23-1.513c0.018-1.228-0.599-0.754-1.179-0.387C133.821,125.102,134.135,124.61,134.174,123.606
			 M132.521,132.697c-0.407,0.243-1.004,0.844-1.216,0.525c0.035-0.948,0.037-1.793,0.071-2.761c0.438-0.527,0.879-1.142,1.46-1.44
			C132.835,130.411,132.695,131.605,132.521,132.697 M131.572,126.315c0.261-0.583,0.807-0.704,1.229-1.02
			c-0.09,0.929,0.07,1.246,0.104,1.812c-0.353,0.825-0.877,1.386-1.492,1.772C131.502,128.092,131.306,126.772,131.572,126.315"/>
		<path clip-path="url(#SVGID_2_)" fill-rule="evenodd" clip-rule="evenodd" fill="#326E85" d="M128.194,127.07
			c-0.018,0.335-0.14,0.494-0.138,0.949c0.209,0.86,0.21,2.355,0.298,3.517c0.085,0.878-0.176,2.213-0.212,3.391
			c-0.141,3.289-0.509,7.681,0.667,7.368c0.583-4.309,0.369-9.988,0.583-14.906C129.072,127.141,128.882,126.439,128.194,127.07"/>
		<path clip-path="url(#SVGID_2_)" fill-rule="evenodd" clip-rule="evenodd" fill="#326E85" d="M139.587,122.658
			c-0.213-0.613-0.492-1.178-0.914-1.336c-0.58,3.883-0.633,8.667-1.478,12.004c-2.46,1.266-4.5,3.305-6.838,4.783
			c-0.265,0.686-1.002,0.6-1.126,1.51c0.265,0.668,1.092-0.175,1.688-0.542c2.023-1.108,4.31-3.023,6.099-3.5
			c0.231,0.141,0.105,1.425,0.458,1.266c0.757-1.548,0.898-4.252,1.336-6.449C139.057,127.722,139.551,125.596,139.587,122.658"/>
		<path clip-path="url(#SVGID_2_)" fill="#F37920" d="M79.294,144.349l46.002,26.931c0.069,0.051,0.086,0.07,0.14,0.122
			l0.828-76.079c-0.054-0.068-46.11-27.052-46.11-27.052c-2.144-1.317-3.936-0.333-3.972,2.197l-0.747,67.044
			C75.409,139.954,77.148,143.033,79.294,144.349"/>
		<path clip-path="url(#SVGID_2_)" fill="#DD6E1D" d="M76.244,70.538l-0.764,67.025c-0.01,2.444,1.739,5.555,3.884,6.804
			l18.422,10.826l0.641-76.254L80.234,68.341C78.08,67.021,76.261,67.975,76.244,70.538"/>
		<path clip-path="url(#SVGID_2_)" fill="#FFFFFF" d="M64.843,76.744l47.04,27.195l12.795-6.929L77.904,69.836
			c0,0-0.686,1.055-4.79,3.376C67.999,76.057,64.843,76.744,64.843,76.744"/>
		<path clip-path="url(#SVGID_2_)" fill="#F37920" d="M65.563,151.944l46.005,27.019c0.066,0.067,0.105,0.104,0.173,0.141
			l0.878-76.062c-0.087-0.055-0.139-0.122-0.208-0.159L66.417,75.899c-2.135-1.249-3.937-0.3-3.965,2.268l-0.747,66.957
			C61.671,147.639,63.421,150.73,65.563,151.944"/>
		<path clip-path="url(#SVGID_2_)" fill="#DD6E1D" d="M62.452,78.167l-0.747,66.957c-0.034,2.515,1.715,5.606,3.858,6.82
			l18.414,10.863l0.659-76.238l-18.219-10.67C64.282,74.65,62.48,75.6,62.452,78.167"/>
		<g clip-path="url(#SVGID_2_)">
			<defs>
				<path id="SVGID_33_" d="M73.114,73.212c-5.115,2.847-8.271,3.532-8.271,3.532l47.04,27.195l12.795-6.929L77.904,69.836
					C77.904,69.836,77.218,70.892,73.114,73.212"/>
			</defs>
			<clipPath id="SVGID_6_">
				<use xlink:href="#SVGID_33_"  overflow="visible"/>
			</clipPath>
			<polygon clip-path="url(#SVGID_6_)" fill="#A6A8AB" points="52.899,66.057 118.563,104.642 118.089,104.886 52.434,66.321 			"/>
			<polygon clip-path="url(#SVGID_6_)" fill="#A6A8AB" points="54.332,65.282 119.987,103.849 119.51,104.079 53.831,65.529 			"/>
			<polygon clip-path="url(#SVGID_6_)" fill="#A6A8AB" points="55.721,64.492 121.394,103.041 120.918,103.269 55.254,64.72 			"/>
			<polygon clip-path="url(#SVGID_6_)" fill="#A6A8AB" points="57.145,63.685 122.8,102.248 122.358,102.462 56.688,63.913 			"/>
			<polygon clip-path="url(#SVGID_6_)" fill="#A6A8AB" points="58.577,62.892 124.24,101.424 123.768,101.669 58.112,63.104 			"/>
			<polygon clip-path="url(#SVGID_6_)" fill="#A6A8AB" points="59.992,62.084 125.662,100.632 125.172,100.881 59.508,62.313 			"/>
			<polygon clip-path="url(#SVGID_6_)" fill="#A6A8AB" points="61.39,61.275 127.053,99.825 126.595,100.122 60.933,61.521 			"/>
		</g>
		<polygon clip-path="url(#SVGID_2_)" fill="#F37920" points="112.376,103.11 126.264,95.306 125.437,171.401 111.55,179.174 		"/>
		<polygon clip-path="url(#SVGID_2_)" fill="#DD6E1D" points="112.851,169.748 124.295,163.334 124.24,168.995 112.799,175.394 		
			"/>
		<polygon clip-path="url(#SVGID_2_)" fill="#DD6E1D" points="114.028,106.326 124.522,100.476 124.504,103.146 114.025,109.033 		
			"/>
		<path clip-path="url(#SVGID_2_)" fill="#DD6E1D" d="M119.549,109.6c1.562-0.81,2.794-0.072,2.774,1.669
			c-0.032,1.739-1.3,3.937-2.864,4.729c-1.563,0.878-2.793,0.174-2.761-1.565C116.698,112.588,117.999,110.51,119.549,109.6"/>
		<path clip-path="url(#SVGID_2_)" fill-rule="evenodd" clip-rule="evenodd" fill="#BE5F16" d="M119.756,121.306
			c0.019,1.864-0.085,3.445,0,5.38c-0.858,0.563-1.508,1.422-2.179,2.194c-0.192-0.193-0.247-0.788-0.579-0.703
			c0.086,1.672-0.054,3.727,0.071,4.853c0.386-0.087,0.299-0.966,0.647-1.126c0.847-0.896,1.898-2.124,2.816-2.283
			c0.438-1.109,0.949-2.056,1.123-3.412c-0.105-0.685-0.385-0.773-0.597-1.124c-0.283,0.351-0.424,0.773-0.811,0.95
			c-0.017-2.04,0.299-3.533,0.246-5.571c-0.633-0.794-1.614,1.229-2.427,1.828c-0.281,0.139-0.419-0.039-0.736,0.281
			c0.177,1.491-0.018,4.304,0.317,5.377c0.421-0.037,0.334-0.775,0.631-0.984c0.491-0.635,1.128-1.003,1.301-2.109
			c-0.457-0.335-1.002,1.53-1.457,1.177c-0.106-1.74,1.193-1.493,1.319-2.862c-0.495-0.317-0.898,1.017-1.354,1.456
			c-0.09-0.211-0.105-0.647-0.09-1.038C118.333,122.533,119.3,121.587,119.756,121.306 M117.631,131.167
			c-0.212-1.055-0.088-1.934,0.597-2.198C118.314,130.146,118.209,131.044,117.631,131.167 M118.756,130.06
			c0.001-0.565-0.104-1.373,0.054-1.829c0.139-0.104,0.247-0.139,0.419-0.229c0.002,0.477,0.003,0.881,0.004,1.392
			C119.072,129.62,118.948,129.935,118.756,130.06 M120.76,126.611c-0.016,0.777-0.122,1.515-0.297,2.181
			c-0.285,0.106-0.529,0.354-0.811,0.459C119.669,127.86,120.003,126.965,120.76,126.611"/>
		<path clip-path="url(#SVGID_2_)" fill-rule="evenodd" clip-rule="evenodd" fill="#BE5F16" d="M115.962,126.701
			c0.368-1.794-0.423-1.74-1.163-0.968C115.063,126.526,115.398,126.965,115.962,126.701"/>
		<path clip-path="url(#SVGID_2_)" fill-rule="evenodd" clip-rule="evenodd" fill="#BE5F16" d="M115.786,130.655
			c0.067-1.598-0.704-0.721-1.335-0.353c-0.039,0.091-0.074,0.145-0.056,0.407c0.017,0.053,0.053,0.087,0.159,0.035
			C114.89,130.903,115.294,131.517,115.786,130.655"/>
		<path clip-path="url(#SVGID_2_)" fill-rule="evenodd" clip-rule="evenodd" fill="#BE5F16" d="M116.03,130.445
			c-0.527,2.584-0.845,5.431-1.758,7.35c0.175,0.805,0.386,1.617,0.898,1.333c0.228-1.337,0.299-2.916,0.525-4.236
			c0.157-1.491,0.478-2.672,0.512-4.359C116.174,130.408,116.139,130.394,116.03,130.445"/>
		<path clip-path="url(#SVGID_2_)" fill-rule="evenodd" clip-rule="evenodd" fill="#BE5F16" d="M119.652,134.381
			c0.053-1.352,0.702-1.897,0.58-3.513c-0.297-0.475-1.107,0.492-1.457,1.035c-0.493,0.513-1.126,0.844-1.374,1.828
			c0.53,0.811,1.231-1.248,1.953-1.721c-0.106,0.687-0.106,1.597-0.474,1.951c-0.37,0.28-0.864-0.546-1.127,0.578
			c0.299,0.07,0.669-0.086,0.81,0.387c-0.352,0.881-0.74,1.776-1.108,2.657c-0.245,0.402-0.404,0.946-0.616,1.386
			c-0.156,0.51-0.509,0.794-0.562,1.427c0.457-0.124,1.037-1.479,1.528-2.075c0.161-0.601,0.509-0.896,0.649-1.514
			c0.318-0.368,0.301-1.143,0.724-1.424c0.842,0.387,1.334,1.847,2.249,2.145c0.738-0.597,1.144-1.58,1.953-2.073
			c-0.037-0.915-0.668-0.034-0.935-0.264c-0.403,0.157-0.772,0.245-1.07,0.122c-0.316-0.019-0.601-0.089-0.896-0.261
			C120.215,134.771,119.723,135.173,119.652,134.381"/>
		<path clip-path="url(#SVGID_2_)" fill-rule="evenodd" clip-rule="evenodd" fill="#BE5F16" d="M117.7,140.955
			c0.002,0.513,0.017,1.146,0.017,1.742c0.07,0.37,0,1.281,0.248,1.056c0.265-0.896,0.281-3.041,0.123-3.989
			c-0.191,0.07-0.211-0.091-0.334,0.066c0.001,0.091,0.001,0.32,0.001,0.457C117.755,140.588,117.65,140.604,117.7,140.955"/>
		<path clip-path="url(#SVGID_2_)" fill-rule="evenodd" clip-rule="evenodd" fill="#BE5F16" d="M117.438,146.126
			c0.529-0.422,1.126-0.721,1.616-1.091c0.512-0.457,1.285-0.494,1.319-1.615c0.159-0.513-0.37-0.405-0.438-0.81
			c-0.987,0.524-1.778,1.864-2.602,2.653c-0.512,0.511-1.021,0.563-1.548,1.249C116.065,147.639,116.768,146.65,117.438,146.126"/>
		<path clip-path="url(#SVGID_2_)" fill-rule="evenodd" clip-rule="evenodd" fill="#BE5F16" d="M117.401,155.126
			c0.969-0.511,1.705-1.301,2.604-1.937c0.244-2.336,0.578-4.481,0.633-7.048c-0.317-0.755-1.304,0.458-1.881,0.896
			c-0.617,0.721-1.317,1.335-1.935,1.988c-0.28,0.28-0.316-0.67-0.58,0.051c0.353,1.653,0.104,5.028,0.424,6.697
			C116.892,156.093,117.017,155.158,117.401,155.126 M118.773,147.916c0.28-0.28,0.807-0.895,1.054-0.734
			c-0.016,1.914-0.208,3.585-0.317,5.272c-0.297,0.244-0.598,0.419-0.912,0.632c-0.034-0.808,0-1.513,0.037-2.233
			c0.246-0.422,0.683-0.492,0.809-1.073c-0.004-0.824-0.44-0.454-0.813-0.104C118.579,148.919,118.771,148.55,118.773,147.916
			 M117.861,153.894c-0.249,0.177-0.636,0.636-0.809,0.354c-0.002-0.546-0.002-1.162-0.019-1.743
			c0.298-0.401,0.597-0.773,0.982-0.982C118.053,152.384,117.967,153.156,117.861,153.894 M117.084,149.746
			c0.142-0.439,0.547-0.439,0.777-0.72c-0.021,0.649,0.086,0.808,0.138,1.229c-0.228,0.563-0.56,0.932-0.982,1.195
			C117.069,150.904,116.91,150.063,117.084,149.746"/>
		<path clip-path="url(#SVGID_2_)" fill-rule="evenodd" clip-rule="evenodd" fill="#BE5F16" d="M114.782,150.431
			c0,0.231-0.104,0.354-0.068,0.581c0.14,0.562,0.192,1.514,0.28,2.354c0.087,0.495-0.036,1.371-0.053,2.165
			c-0.034,2.124-0.157,5.097,0.633,4.763c0.315-2.775-0.001-6.451,0.017-9.705C115.365,150.431,115.206,149.991,114.782,150.431"/>
		<path clip-path="url(#SVGID_2_)" fill-rule="evenodd" clip-rule="evenodd" fill="#BE5F16" d="M122.464,147.038
			c-0.173-0.388-0.385-0.754-0.665-0.756c-0.281,2.531-0.196,5.61-0.688,7.842c-1.67,0.897-2.988,2.371-4.568,3.426
			c-0.161,0.456-0.668,0.439-0.721,1.019c0.173,0.44,0.737-0.176,1.141-0.438c1.337-0.825,2.848-2.094,4.08-2.532
			c0.174,0.125,0.089,0.899,0.334,0.879c0.492-1.123,0.526-2.918,0.755-4.324C122.236,150.431,122.517,148.936,122.464,147.038"/>
	</g>
</g>
</svg>
