<?xml version="1.0" encoding="iso-8859-1"?>
<!-- Generator: Adobe Illustrator 16.0.0, SVG Export Plug-In . SVG Version: 6.00 Build 0)  -->
<!DOCTYPE svg PUBLIC "-//W3C//DTD SVG 1.1//EN" "http://www.w3.org/Graphics/SVG/1.1/DTD/svg11.dtd">
<svg version="1.1" id="Calque_1" xmlns="http://www.w3.org/2000/svg" xmlns:xlink="http://www.w3.org/1999/xlink" x="0px" y="0px"
	 width="200px" height="200px" viewBox="0 0 200 200" enable-background="new 0 0 200 200" xml:space="preserve">
<g id="multimedia_2_">
	<g>
		<path fill="#FFFFFF" stroke="#3D3838" stroke-width="7.3797" stroke-miterlimit="10" d="M100.017,189.262
			c-49.63,0-90.017-40.025-90.017-89.227c0-49.217,40.386-89.296,90.017-89.296c49.623,0,89.983,40.079,89.983,89.296
			C190,149.236,149.64,189.262,100.017,189.262"/>
	</g>
	<g>
		<defs>
			<path id="SVGID_12_" d="M13.717,100.035c0,47.249,38.628,85.517,86.299,85.517c47.654,0,86.29-38.269,86.29-85.517
				c0-47.319-38.636-85.588-86.29-85.588C52.346,14.447,13.717,52.716,13.717,100.035"/>
		</defs>
		<clipPath id="SVGID_2_">
			<use xlink:href="#SVGID_12_"  overflow="visible"/>
		</clipPath>
		<rect x="6.958" y="96.274" clip-path="url(#SVGID_2_)" fill="#3C5CA9" width="186.521" height="95.992"/>
	</g>
	<path fill="#FFFFFF" d="M100.017,17.894c45.616,0,82.778,36.79,82.778,82.141c0,45.23-37.162,82.091-82.778,82.091
		c-45.685,0-82.792-36.861-82.792-82.091C17.224,54.684,54.332,17.894,100.017,17.894 M100.017,14.447
		c-47.671,0-86.299,38.269-86.299,85.588c0,47.249,38.628,85.517,86.299,85.517c47.654,0,86.29-38.269,86.29-85.517
		C186.307,52.716,147.671,14.447,100.017,14.447"/>
	<g>
		<rect x="74.37" y="144.896" fill="#EDE9DB" width="39.448" height="1.368"/>
		<path fill="#D8D1B5" d="M107.366,138.339c-1.039-2.759-0.861-6.154-0.931-9.052H81.727c-0.053,2.897,0.168,6.293-0.886,9.052
			c-0.687,1.826-5.582,5.871-6.399,6.557h39.339C112.937,144.21,108.053,140.165,107.366,138.339"/>
		<path fill="#EDE9DB" d="M40.613,125.962c0,1.951,1.634,3.571,3.595,3.571h99.878c1.969,0,3.532-1.62,3.532-3.571v-8.208H40.613
			V125.962z"/>
		<path fill="#3A3331" d="M144.086,53.76H44.208c-1.961,0-3.595,1.53-3.595,3.48v60.513h107.005V57.241
			C147.618,55.29,146.055,53.76,144.086,53.76"/>
		<rect x="42.458" y="58.173" fill="#A0C0E5" width="102.947" height="54.29"/>
		<path fill="#F4F4F4" d="M94.094,55.993c0.236,0,0.448,0.193,0.448,0.415c0,0.254-0.212,0.473-0.448,0.473
			c-0.263,0-0.493-0.219-0.493-0.473C93.602,56.186,93.831,55.993,94.094,55.993"/>
		<g>
			<defs>
				<polygon id="SVGID_14_" points="42.458,58.173 42.458,112.463 83.776,112.463 103.689,58.173 				"/>
			</defs>
			<clipPath id="SVGID_4_">
				<use xlink:href="#SVGID_14_"  overflow="visible"/>
			</clipPath>
			<defs>
				<filter id="Adobe_OpacityMaskFilter" filterUnits="userSpaceOnUse" x="22.902" y="36.516" width="100.336" height="97.673">
					<feColorMatrix  type="matrix" values="1 0 0 0 0  0 1 0 0 0  0 0 1 0 0  0 0 0 1 0"/>
				</filter>
			</defs>
			<mask maskUnits="userSpaceOnUse" x="22.902" y="36.516" width="100.336" height="97.673" id="SVGID_6_">
				<g filter="url(#Adobe_OpacityMaskFilter)">
					
						<linearGradient id="SVGID_8_" gradientUnits="userSpaceOnUse" x1="-212.1201" y1="541.3145" x2="-209.9246" y2="541.3145" gradientTransform="matrix(22.5252 9.4533 9.4533 -22.5252 -297.9233 14270.4277)">
						<stop  offset="0" style="stop-color:#FFFFFF"/>
						<stop  offset="0.0608" style="stop-color:#E8E8E8"/>
						<stop  offset="0.2557" style="stop-color:#A2A2A2"/>
						<stop  offset="0.4401" style="stop-color:#696969"/>
						<stop  offset="0.6086" style="stop-color:#3B3B3B"/>
						<stop  offset="0.758" style="stop-color:#1B1B1B"/>
						<stop  offset="0.8827" style="stop-color:#070707"/>
						<stop  offset="0.9675" style="stop-color:#000000"/>
						<stop  offset="1" style="stop-color:#000000"/>
					</linearGradient>
					<polygon clip-path="url(#SVGID_4_)" fill="url(#SVGID_8_)" points="51.608,36.516 123.238,66.304 94.524,134.189 
						22.902,104.324 					"/>
				</g>
			</mask>
			
				<linearGradient id="SVGID_9_" gradientUnits="userSpaceOnUse" x1="-212.1191" y1="541.3164" x2="-209.9236" y2="541.3164" gradientTransform="matrix(22.5252 9.4533 9.4533 -22.5252 -297.9546 14270.4277)">
				<stop  offset="0" style="stop-color:#B9D1EC"/>
				<stop  offset="0.1065" style="stop-color:#C4D8EF"/>
				<stop  offset="0.4636" style="stop-color:#E4EDF8"/>
				<stop  offset="0.7634" style="stop-color:#F8FAFD"/>
				<stop  offset="0.9675" style="stop-color:#FFFFFF"/>
				<stop  offset="1" style="stop-color:#FFFFFF"/>
			</linearGradient>
			<polygon clip-path="url(#SVGID_4_)" mask="url(#SVGID_6_)" fill="url(#SVGID_9_)" points="51.608,36.516 123.238,66.304 
				94.524,134.189 22.902,104.324 			"/>
		</g>
	</g>
	<g>
		<path fill="#3A3331" d="M154.966,146.264c1.531,0,2.761-1.3,2.761-2.773V93.038c0-1.476-1.229-2.74-2.761-2.74h-38.707
			c-1.526,0-2.74,1.264-2.74,2.74v50.452c0,1.474,1.214,2.773,2.74,2.773H154.966z"/>
		<rect x="115.697" y="94.34" fill="#A0C0E5" width="39.832" height="46.37"/>
		<path fill="#FFFFFF" d="M133.998,143.507c0-0.934,0.753-1.603,1.614-1.603c0.914,0,1.618,0.669,1.618,1.603
			c0,0.859-0.704,1.582-1.618,1.582C134.751,145.089,133.998,144.366,133.998,143.507"/>
		<path fill="#FFFFFF" d="M135.158,92.511c0-0.28,0.208-0.492,0.454-0.492c0.265,0,0.477,0.212,0.477,0.492
			c0,0.238-0.212,0.404-0.477,0.404C135.366,92.915,135.158,92.749,135.158,92.511"/>
		<g>
			<defs>
				<polygon id="SVGID_19_" points="130.286,94.251 129.884,140.904 145.475,140.8 152.877,94.075 				"/>
			</defs>
			<clipPath id="SVGID_10_">
				<use xlink:href="#SVGID_19_"  overflow="visible"/>
			</clipPath>
			<defs>
				<filter id="Adobe_OpacityMaskFilter_1_" filterUnits="userSpaceOnUse" x="113.026" y="85.912" width="56.74" height="63.129">
					<feColorMatrix  type="matrix" values="1 0 0 0 0  0 1 0 0 0  0 0 1 0 0  0 0 0 1 0"/>
				</filter>
			</defs>
			<mask maskUnits="userSpaceOnUse" x="113.026" y="85.912" width="56.74" height="63.129" id="SVGID_11_">
				<g filter="url(#Adobe_OpacityMaskFilter_1_)">
					
						<linearGradient id="SVGID_13_" gradientUnits="userSpaceOnUse" x1="-212.9155" y1="551.0176" x2="-210.717" y2="551.0176" gradientTransform="matrix(12.2257 5.1309 5.1309 -12.2257 -98.4978 7939.8877)">
						<stop  offset="0" style="stop-color:#FFFFFF"/>
						<stop  offset="0.0608" style="stop-color:#E8E8E8"/>
						<stop  offset="0.2557" style="stop-color:#A2A2A2"/>
						<stop  offset="0.4401" style="stop-color:#696969"/>
						<stop  offset="0.6086" style="stop-color:#3B3B3B"/>
						<stop  offset="0.758" style="stop-color:#1B1B1B"/>
						<stop  offset="0.8827" style="stop-color:#070707"/>
						<stop  offset="0.9675" style="stop-color:#000000"/>
						<stop  offset="1" style="stop-color:#000000"/>
					</linearGradient>
					<polygon clip-path="url(#SVGID_10_)" fill="url(#SVGID_13_)" points="133.328,85.912 169.767,101.082 149.448,149.041 
						113.026,133.855 					"/>
				</g>
			</mask>
			
				<linearGradient id="SVGID_15_" gradientUnits="userSpaceOnUse" x1="-212.918" y1="551.0176" x2="-210.7186" y2="551.0176" gradientTransform="matrix(12.2257 5.1309 5.1309 -12.2257 -98.4978 7939.8799)">
				<stop  offset="0" style="stop-color:#B9D1EC"/>
				<stop  offset="0.1065" style="stop-color:#C4D8EF"/>
				<stop  offset="0.4636" style="stop-color:#E4EDF8"/>
				<stop  offset="0.7634" style="stop-color:#F8FAFD"/>
				<stop  offset="0.9675" style="stop-color:#FFFFFF"/>
				<stop  offset="1" style="stop-color:#FFFFFF"/>
			</linearGradient>
			<polygon clip-path="url(#SVGID_10_)" mask="url(#SVGID_11_)" fill="url(#SVGID_15_)" points="133.328,85.912 169.767,101.082 
				149.448,149.041 113.026,133.855 			"/>
		</g>
	</g>
	<g>
		<path fill="#2C2624" d="M165.357,146.264c1.262,0,2.25-1.018,2.25-2.3v-27.229c0-1.195-0.988-2.183-2.25-2.183h-11.868
			c-1.28,0-2.284,0.987-2.284,2.183v27.229c0,1.282,1.004,2.3,2.284,2.3H165.357z"/>
		<rect x="152.205" y="118.773" fill="#A0C0E5" width="14.294" height="22.465"/>
		<path fill="#FFFFFF" d="M158.185,117.683c-0.175,0-0.265-0.139-0.265-0.264v-0.017c0-0.176,0.09-0.3,0.265-0.3h2.355
			c0.139,0,0.244,0.124,0.244,0.3v0.017c0,0.125-0.105,0.264-0.244,0.264H158.185z"/>
		<path fill="#FFFFFF" d="M156.214,117.384c0-0.299,0.193-0.476,0.439-0.476c0.281,0,0.477,0.177,0.477,0.476
			c0,0.213-0.195,0.403-0.477,0.403C156.407,117.787,156.214,117.597,156.214,117.384"/>
		<path fill="#FFFFFF" d="M158.079,143.596c0-0.759,0.596-1.338,1.335-1.338c0.771,0,1.338,0.579,1.338,1.338
			c0,0.684-0.566,1.336-1.338,1.336C158.675,144.932,158.079,144.279,158.079,143.596"/>
		<g>
			<defs>
				<polygon id="SVGID_24_" points="155.795,141.22 162.104,141.238 165.463,118.773 155.845,118.757 				"/>
			</defs>
			<clipPath id="SVGID_16_">
				<use xlink:href="#SVGID_24_"  overflow="visible"/>
			</clipPath>
			<defs>
				<filter id="Adobe_OpacityMaskFilter_2_" filterUnits="userSpaceOnUse" x="147.705" y="115.347" width="25.858" height="29.301">
					<feColorMatrix  type="matrix" values="1 0 0 0 0  0 1 0 0 0  0 0 1 0 0  0 0 0 1 0"/>
				</filter>
			</defs>
			<mask maskUnits="userSpaceOnUse" x="147.705" y="115.347" width="25.858" height="29.301" id="SVGID_17_">
				<g filter="url(#Adobe_OpacityMaskFilter_2_)">
					
						<linearGradient id="SVGID_18_" gradientUnits="userSpaceOnUse" x1="-218.8013" y1="575.8457" x2="-216.6054" y2="575.8457" gradientTransform="matrix(5.5243 2.3184 2.3184 -5.5243 27.1663 3815.4033)">
						<stop  offset="0" style="stop-color:#FFFFFF"/>
						<stop  offset="0.0608" style="stop-color:#E8E8E8"/>
						<stop  offset="0.2557" style="stop-color:#A2A2A2"/>
						<stop  offset="0.4401" style="stop-color:#696969"/>
						<stop  offset="0.6086" style="stop-color:#3B3B3B"/>
						<stop  offset="0.758" style="stop-color:#1B1B1B"/>
						<stop  offset="0.8827" style="stop-color:#070707"/>
						<stop  offset="0.9675" style="stop-color:#000000"/>
						<stop  offset="1" style="stop-color:#000000"/>
					</linearGradient>
					<polygon clip-path="url(#SVGID_16_)" fill="url(#SVGID_18_)" points="157.218,115.347 173.563,122.115 164.001,144.647 
						147.705,137.882 					"/>
				</g>
			</mask>
			
				<linearGradient id="SVGID_20_" gradientUnits="userSpaceOnUse" x1="-218.8013" y1="575.8457" x2="-216.6054" y2="575.8457" gradientTransform="matrix(5.5243 2.3184 2.3184 -5.5243 27.1663 3815.4033)">
				<stop  offset="0" style="stop-color:#B9D1EC"/>
				<stop  offset="0.1065" style="stop-color:#C4D8EF"/>
				<stop  offset="0.4636" style="stop-color:#E4EDF8"/>
				<stop  offset="0.7634" style="stop-color:#F8FAFD"/>
				<stop  offset="0.9675" style="stop-color:#FFFFFF"/>
				<stop  offset="1" style="stop-color:#FFFFFF"/>
			</linearGradient>
			<polygon clip-path="url(#SVGID_16_)" mask="url(#SVGID_17_)" fill="url(#SVGID_20_)" points="157.218,115.347 173.563,122.115 
				164.001,144.647 147.705,137.882 			"/>
		</g>
	</g>
</g>
</svg>
