<?xml version="1.0" encoding="utf-8"?>
<!-- Generator: Adobe Illustrator 16.0.0, SVG Export Plug-In . SVG Version: 6.00 Build 0)  -->
<!DOCTYPE svg PUBLIC "-//W3C//DTD SVG 1.1//EN" "http://www.w3.org/Graphics/SVG/1.1/DTD/svg11.dtd">
<svg version="1.1" id="Calque_1" xmlns="http://www.w3.org/2000/svg" xmlns:xlink="http://www.w3.org/1999/xlink" x="0px" y="0px"
	 width="100px" height="100px" viewBox="50 650.5 100 100" enable-background="new 50 650.5 100 100" xml:space="preserve">
<path fill="#FFFFFF" stroke="#3D3838" stroke-width="3.7056" stroke-miterlimit="10" d="M99.999,745.5
	C75.188,745.5,55,725.321,55,700.5c0-24.822,20.188-45,44.999-45c24.813,0,45.001,20.178,45.001,45
	C145,725.321,124.813,745.5,99.999,745.5"/>
<g id="japon_2_">
	<g>
		<g>
			<defs>
				<rect id="SVGID_1_" x="70.366" y="680.721" width="30.562" height="45.862"/>
			</defs>
			<clipPath id="SVGID_2_">
				<use xlink:href="#SVGID_1_"  overflow="visible"/>
			</clipPath>
			<g transform="matrix(1 0 0 1 0 3.814697e-006)" clip-path="url(#SVGID_2_)" enable-background="new    ">
			</g>
		</g>
	</g>
	<path fill="#3D3838" d="M126.297,672.45c1.819,13.989,3.632,28.112,5.447,42.431c-19.58-4.886-39.163,11.632-58.753,11.381
		c-1.819-13.891-3.635-27.978-5.449-42.164C87.125,687.807,106.713,671.173,126.297,672.45 M127.802,670.787
		c-20.751-2.291-41.494,16.542-62.221,11.07c1.969,15.591,3.93,30.913,5.907,46.104c20.741,1.224,41.485-17.482,62.224-10.727
		C131.737,701.52,129.77,686.06,127.802,670.787"/>
	<path fill="#EC1C24" d="M115.59,694.102c1.173,8.741-5.017,17.091-13.821,20.377c-8.802,3.354-16.888-1.513-18.062-10.309
		c-1.178-8.703,5.008-17.286,13.807-20.608C106.321,680.138,114.412,685.252,115.59,694.102"/>
	
		<path fill="none" stroke="#3D3838" stroke-width="3.4375" stroke-linecap="round" stroke-linejoin="bevel" stroke-miterlimit="10" d="
		M71.352,726.882c-1.903-14.645-3.801-29.412-5.7-44.447"/>
</g>
</svg>
