<?xml version="1.0" encoding="utf-8"?>
<!-- Generator: Adobe Illustrator 16.0.0, SVG Export Plug-In . SVG Version: 6.00 Build 0)  -->
<!DOCTYPE svg PUBLIC "-//W3C//DTD SVG 1.1//EN" "http://www.w3.org/Graphics/SVG/1.1/DTD/svg11.dtd">
<svg version="1.1" id="Calque_1" xmlns="http://www.w3.org/2000/svg" xmlns:xlink="http://www.w3.org/1999/xlink" x="0px" y="0px"
	 width="100px" height="101px" viewBox="0 0 100 101" enable-background="new 0 0 100 101" xml:space="preserve">
<path fill="#E64A19" d="M54.078,37.23H38.84c-7.366,0-13.334-5.969-13.334-13.332c0-7.365,5.969-13.334,13.334-13.334h15.238V37.23z
	"/>
<path fill="#6630FC" d="M54.078,63.896H39.79c-7.89,0-14.284-5.966-14.284-13.332c0-7.364,6.395-13.335,14.284-13.335h14.288V63.896
	z"/>
<path fill="#66BB6A" d="M39.79,90.564c-7.89,0-14.284-5.971-14.284-13.329c0-7.367,6.395-13.339,14.284-13.339h14.288v13.339
	C54.078,84.594,47.679,90.564,39.79,90.564z"/>
<path fill="#FF7043" d="M67.41,37.23H54.078V10.564H67.41c7.366,0,13.332,5.969,13.332,13.334
	C80.742,31.261,74.776,37.23,67.41,37.23z"/>
<path fill="#29B6F6" d="M67.41,63.896c7.366,0,13.332-5.966,13.332-13.332c0-7.364-5.966-13.335-13.332-13.335
	s-13.332,5.971-13.332,13.334C54.078,57.93,60.044,63.896,67.41,63.896z"/>
</svg>
