<?xml version="1.0" encoding="iso-8859-1"?>
<!-- Generator: Adobe Illustrator 16.0.0, SVG Export Plug-In . SVG Version: 6.00 Build 0)  -->
<!DOCTYPE svg PUBLIC "-//W3C//DTD SVG 1.0//EN" "http://www.w3.org/TR/2001/REC-SVG-20010904/DTD/svg10.dtd">
<svg version="1.0" id="Calque_1" xmlns="http://www.w3.org/2000/svg" xmlns:xlink="http://www.w3.org/1999/xlink" x="0px" y="0px"
	 width="100px" height="100px" viewBox="0 0 100 100" enable-background="new 0 0 100 100" xml:space="preserve">
<g id="Escel_1_">
	<g>
		<path fill="#FFFFFF" d="M17.366,78.504c0,2.997,2.29,5.422,5.121,5.422h54.855c2.831,0,5.123-2.425,5.123-5.422v-58.08
			c0-2.995-2.292-5.424-5.123-5.424H22.487c-2.831,0-5.121,2.43-5.121,5.424V78.504z"/>
		<path fill="none" stroke="#207345" stroke-width="2.8605" stroke-miterlimit="10" d="M17.366,78.504
			c0,2.997,2.29,5.422,5.121,5.422h54.855c2.831,0,5.123-2.425,5.123-5.422v-58.08c0-2.995-2.292-5.424-5.123-5.424H22.487
			c-2.831,0-5.121,2.43-5.121,5.424V78.504z"/>
		<rect x="41.647" y="33.296" fill="#FFFFFF" width="30.371" height="32.153"/>
		
			<rect x="41.647" y="33.296" fill="none" stroke="#207345" stroke-width="1.3177" stroke-miterlimit="10" width="30.371" height="32.153"/>
		<line fill="#FFFFFF" x1="69.908" y1="35.839" x2="43.761" y2="35.839"/>
		
			<line fill="none" stroke="#207345" stroke-width="1.3177" stroke-miterlimit="10" x1="69.908" y1="35.839" x2="43.761" y2="35.839"/>
		<line fill="#FFFFFF" x1="69.908" y1="41.254" x2="43.761" y2="41.254"/>
		
			<line fill="none" stroke="#207345" stroke-width="1.3177" stroke-miterlimit="10" x1="69.908" y1="41.254" x2="43.761" y2="41.254"/>
		<line fill="#FFFFFF" x1="69.908" y1="46.665" x2="43.761" y2="46.665"/>
		
			<line fill="none" stroke="#207345" stroke-width="1.3177" stroke-miterlimit="10" x1="69.908" y1="46.665" x2="43.761" y2="46.665"/>
		<line fill="#FFFFFF" x1="69.908" y1="52.079" x2="43.761" y2="52.079"/>
		
			<line fill="none" stroke="#207345" stroke-width="1.3177" stroke-miterlimit="10" x1="69.908" y1="52.079" x2="43.761" y2="52.079"/>
		<line fill="#FFFFFF" x1="69.908" y1="57.49" x2="43.761" y2="57.49"/>
		
			<line fill="none" stroke="#207345" stroke-width="1.3177" stroke-miterlimit="10" x1="69.908" y1="57.49" x2="43.761" y2="57.49"/>
		<line fill="#FFFFFF" x1="69.908" y1="62.904" x2="43.761" y2="62.904"/>
		
			<line fill="none" stroke="#207345" stroke-width="1.3177" stroke-miterlimit="10" x1="69.908" y1="62.904" x2="43.761" y2="62.904"/>
		<line fill="#FFFFFF" x1="69.614" y1="62.395" x2="69.614" y2="36.355"/>
		
			<line fill="none" stroke="#207345" stroke-width="1.3177" stroke-miterlimit="10" x1="69.614" y1="62.395" x2="69.614" y2="36.355"/>
		<line fill="#FFFFFF" x1="59.388" y1="62.395" x2="59.388" y2="36.355"/>
		
			<line fill="none" stroke="#207345" stroke-width="1.3177" stroke-miterlimit="10" x1="59.388" y1="62.395" x2="59.388" y2="36.355"/>
		<polygon fill="#FFFFFF" points="28.454,66.021 53.396,70.234 53.396,28.706 28.454,33.108 		"/>
		<polygon fill="none" stroke="#207345" stroke-width="1.3177" stroke-miterlimit="10" points="28.454,66.021 53.396,70.234 
			53.396,28.706 28.454,33.108 		"/>
		<polygon fill="#207345" points="33.452,56.624 38.229,48.899 33.901,41.828 37.197,41.828 40,46.582 42.748,41.828 46.021,41.828 
			41.667,49.016 46.451,56.624 43.042,56.629 39.951,51.503 36.84,56.624 		"/>
	</g>
	<g>
		<defs>
			<path id="SVGID_5_" d="M15,42.419V85h70.001V42.419c0,0-16.549,6.105-35.526,0c-6.325-2.037-12.264-2.714-17.371-2.714
				C21.884,39.705,15,42.419,15,42.419"/>
		</defs>
		<clipPath id="SVGID_2_">
			<use xlink:href="#SVGID_5_"  overflow="visible"/>
		</clipPath>
		<path clip-path="url(#SVGID_2_)" fill="#207345" d="M15.731,79.962c0,3.146,2.407,5.695,5.381,5.695h57.611
			c2.968,0,5.38-2.55,5.38-5.695V18.968c0-3.151-2.412-5.698-5.38-5.698H21.112c-2.974,0-5.381,2.547-5.381,5.698V79.962z"/>
		
			<line clip-path="url(#SVGID_2_)" fill="none" stroke="#FFFFFF" stroke-width="0.923" stroke-miterlimit="10" x1="69.908" y1="35.839" x2="43.761" y2="35.839"/>
		
			<line clip-path="url(#SVGID_2_)" fill="none" stroke="#FFFFFF" stroke-width="0.923" stroke-miterlimit="10" x1="69.908" y1="41.254" x2="43.761" y2="41.254"/>
		
			<line clip-path="url(#SVGID_2_)" fill="none" stroke="#FFFFFF" stroke-width="0.923" stroke-miterlimit="10" x1="69.908" y1="46.665" x2="43.761" y2="46.665"/>
		
			<line clip-path="url(#SVGID_2_)" fill="none" stroke="#FFFFFF" stroke-width="0.923" stroke-miterlimit="10" x1="69.908" y1="52.079" x2="43.761" y2="52.079"/>
		
			<line clip-path="url(#SVGID_2_)" fill="none" stroke="#FFFFFF" stroke-width="0.923" stroke-miterlimit="10" x1="69.908" y1="57.49" x2="43.761" y2="57.49"/>
		
			<line clip-path="url(#SVGID_2_)" fill="none" stroke="#FFFFFF" stroke-width="0.923" stroke-miterlimit="10" x1="69.908" y1="62.904" x2="43.761" y2="62.904"/>
		
			<line clip-path="url(#SVGID_2_)" fill="none" stroke="#FFFFFF" stroke-width="0.923" stroke-miterlimit="10" x1="69.614" y1="62.395" x2="69.614" y2="36.355"/>
		
			<line clip-path="url(#SVGID_2_)" fill="none" stroke="#FFFFFF" stroke-width="0.923" stroke-miterlimit="10" x1="59.388" y1="62.395" x2="59.388" y2="36.355"/>
		
			<rect x="41.647" y="33.296" clip-path="url(#SVGID_2_)" fill="none" stroke="#FFFFFF" stroke-width="1.3177" stroke-miterlimit="10" width="30.371" height="32.153"/>
		<polygon clip-path="url(#SVGID_2_)" fill="#FFFFFF" points="28.454,66.021 53.396,70.234 53.396,28.706 28.454,33.108 		"/>
		<polygon clip-path="url(#SVGID_2_)" fill="none" stroke="#207345" stroke-width="1.3177" stroke-miterlimit="10" points="
			28.454,66.021 53.396,70.234 53.396,28.706 28.454,33.108 		"/>
		<polygon clip-path="url(#SVGID_2_)" fill="#207345" points="33.452,56.624 38.229,48.899 33.901,41.828 37.197,41.828 40,46.582 
			42.748,41.828 46.021,41.828 41.667,49.016 46.451,56.624 43.042,56.629 39.951,51.503 36.84,56.624 		"/>
	</g>
</g>
</svg>
