<?xml version="1.0" encoding="iso-8859-1"?>
<!-- Generator: Adobe Illustrator 16.0.0, SVG Export Plug-In . SVG Version: 6.00 Build 0)  -->
<!DOCTYPE svg PUBLIC "-//W3C//DTD SVG 1.0//EN" "http://www.w3.org/TR/2001/REC-SVG-20010904/DTD/svg10.dtd">
<svg version="1.0" id="Calque_1" xmlns="http://www.w3.org/2000/svg" xmlns:xlink="http://www.w3.org/1999/xlink" x="0px" y="0px"
	 width="100px" height="100px" viewBox="0 0 100 100" enable-background="new 0 0 100 100" xml:space="preserve">
<g id="Power_Point_1_">
	<g>
		<path fill="#FFFFFF" d="M17.871,77.938c0,2.962,2.292,5.374,5.125,5.374h54.847c2.832,0,5.129-2.412,5.129-5.374V20.375
			c0-2.968-2.297-5.375-5.129-5.375H22.995c-2.833,0-5.125,2.407-5.125,5.375V77.938z"/>
		<path fill="none" stroke="#D04727" stroke-width="2.8476" stroke-miterlimit="10" d="M17.871,77.938
			c0,2.962,2.292,5.374,5.125,5.374h54.847c2.832,0,5.129-2.412,5.129-5.374V20.375c0-2.968-2.297-5.375-5.129-5.375H22.995
			c-2.833,0-5.125,2.407-5.125,5.375V77.938z"/>
		<rect x="43.061" y="32.748" fill="#FFFFFF" width="30.36" height="26.746"/>
		
			<rect x="43.061" y="32.748" fill="none" stroke="#D04727" stroke-width="1.3118" stroke-miterlimit="10" width="30.36" height="26.746"/>
		<rect x="42.837" y="36.219" fill="#FFFFFF" width="27.191" height="28.535"/>
		
			<rect x="42.837" y="36.219" fill="none" stroke="#D04727" stroke-width="1.3118" stroke-miterlimit="10" width="27.191" height="28.535"/>
		<line fill="#FFFFFF" x1="66.155" y1="56.379" x2="47.368" y2="56.379"/>
		
			<line fill="none" stroke="#D04727" stroke-width="1.3118" stroke-miterlimit="10" x1="66.155" y1="56.379" x2="47.368" y2="56.379"/>
		<line fill="#FFFFFF" x1="66.155" y1="60.234" x2="47.368" y2="60.234"/>
		
			<line fill="none" stroke="#D04727" stroke-width="1.3118" stroke-miterlimit="10" x1="66.155" y1="60.234" x2="47.368" y2="60.234"/>
		<path fill="#D04727" d="M63.446,47.291c0,3.796-2.938,6.879-6.561,6.879c-3.617,0-6.555-3.083-6.555-6.879
			c0-3.799,2.938-6.881,6.555-6.881C60.508,40.41,63.446,43.492,63.446,47.291"/>
		<path fill="#D04727" d="M65.121,47.483c-0.021-4.69-3.651-8.489-8.129-8.489v8.489H65.121z"/>
		<path fill="none" stroke="#FFFFFF" stroke-width="1.9677" stroke-miterlimit="10" d="M65.121,47.483
			c-0.021-4.69-3.651-8.489-8.129-8.489v8.489H65.121z"/>
		<polygon fill="#FFFFFF" points="28.056,65.565 52.996,69.736 52.996,28.578 28.056,32.943 		"/>
		<polygon fill="none" stroke="#D04727" stroke-width="1.3118" stroke-miterlimit="10" points="28.056,65.565 52.996,69.736 
			52.996,28.578 28.056,32.943 		"/>
		<g>
			<path fill="#D04727" d="M35.799,56.208V42.09h4.364c1.652,0,2.728,0.069,3.227,0.212c0.776,0.213,1.421,0.673,1.938,1.383
				c0.517,0.708,0.78,1.625,0.78,2.749c0,0.871-0.148,1.592-0.448,2.18c-0.302,0.594-0.684,1.061-1.143,1.4
				c-0.461,0.336-0.93,0.559-1.408,0.662c-0.653,0.139-1.592,0.206-2.82,0.206h-1.771v5.326H35.799z M38.519,44.479v4.004h1.487
				c1.074,0,1.788-0.069,2.147-0.219s0.645-0.382,0.851-0.697c0.202-0.313,0.307-0.682,0.307-1.095c0-0.517-0.15-0.941-0.434-1.27
				c-0.286-0.337-0.649-0.542-1.093-0.628c-0.325-0.063-0.972-0.096-1.956-0.096H38.519z"/>
		</g>
	</g>
	<g>
		<defs>
			<path id="SVGID_3_" d="M15.003,43.148V85h69.996V43.148c0,0-17.757,6.83-35.826,0c-6.025-2.282-11.83-3.035-16.895-3.035
				C22.158,40.113,15.003,43.148,15.003,43.148"/>
		</defs>
		<clipPath id="SVGID_2_">
			<use xlink:href="#SVGID_3_"  overflow="visible"/>
		</clipPath>
		<path clip-path="url(#SVGID_2_)" fill="#D04727" d="M16.238,79.38c0,3.117,2.403,5.646,5.376,5.646h57.604
			c2.974,0,5.386-2.529,5.386-5.646V18.936c0-3.123-2.412-5.65-5.386-5.65H21.614c-2.973,0-5.376,2.527-5.376,5.65V79.38z"/>
		<rect x="43.061" y="32.748" clip-path="url(#SVGID_2_)" fill="#FFFFFF" width="30.36" height="26.746"/>
		<rect x="42.837" y="36.219" clip-path="url(#SVGID_2_)" fill="#FFFFFF" width="27.191" height="28.535"/>
		
			<rect x="42.837" y="36.219" clip-path="url(#SVGID_2_)" fill="none" stroke="#D04727" stroke-width="1.3118" stroke-miterlimit="10" width="27.191" height="28.535"/>
		
			<line clip-path="url(#SVGID_2_)" fill="none" stroke="#D04727" stroke-width="1.9677" stroke-miterlimit="10" x1="66.155" y1="56.379" x2="47.368" y2="56.379"/>
		
			<line clip-path="url(#SVGID_2_)" fill="none" stroke="#D04727" stroke-width="1.9677" stroke-miterlimit="10" x1="66.155" y1="60.234" x2="47.368" y2="60.234"/>
		<path clip-path="url(#SVGID_2_)" fill="#D04727" d="M63.446,47.291c0,3.796-2.938,6.879-6.561,6.879
			c-3.617,0-6.555-3.083-6.555-6.879c0-3.799,2.938-6.881,6.555-6.881C60.508,40.41,63.446,43.492,63.446,47.291"/>
		<path clip-path="url(#SVGID_2_)" fill="#D04727" d="M65.121,47.483c-0.021-4.69-3.651-8.489-8.129-8.489v8.489H65.121z"/>
		<path clip-path="url(#SVGID_2_)" fill="none" stroke="#FFFFFF" stroke-width="1.1808" stroke-miterlimit="10" d="M65.121,47.483
			c-0.021-4.69-3.651-8.489-8.129-8.489v8.489H65.121z"/>
		<polygon clip-path="url(#SVGID_2_)" fill="#FFFFFF" points="28.056,65.565 52.996,69.736 52.996,28.578 28.056,32.943 		"/>
		<polygon clip-path="url(#SVGID_2_)" fill="none" stroke="#D04727" stroke-width="1.3118" stroke-miterlimit="10" points="
			28.056,65.565 52.996,69.736 52.996,28.578 28.056,32.943 		"/>
		<g clip-path="url(#SVGID_2_)">
			<path fill="#D04727" d="M35.799,56.208V42.09h4.364c1.652,0,2.728,0.069,3.227,0.212c0.776,0.213,1.421,0.673,1.938,1.383
				c0.517,0.708,0.78,1.625,0.78,2.749c0,0.871-0.148,1.592-0.448,2.18c-0.302,0.594-0.684,1.061-1.143,1.4
				c-0.461,0.336-0.93,0.559-1.408,0.662c-0.653,0.139-1.592,0.206-2.82,0.206h-1.771v5.326H35.799z M38.519,44.479v4.004h1.487
				c1.074,0,1.788-0.069,2.147-0.219s0.645-0.382,0.851-0.697c0.202-0.313,0.307-0.682,0.307-1.095c0-0.517-0.15-0.941-0.434-1.27
				c-0.286-0.337-0.649-0.542-1.093-0.628c-0.325-0.063-0.972-0.096-1.956-0.096H38.519z"/>
		</g>
	</g>
</g>
</svg>
