<?xml version="1.0" encoding="iso-8859-1"?>
<!-- Generator: Adobe Illustrator 16.0.0, SVG Export Plug-In . SVG Version: 6.00 Build 0)  -->
<!DOCTYPE svg PUBLIC "-//W3C//DTD SVG 1.0//EN" "http://www.w3.org/TR/2001/REC-SVG-20010904/DTD/svg10.dtd">
<svg version="1.0" id="Calque_1" xmlns="http://www.w3.org/2000/svg" xmlns:xlink="http://www.w3.org/1999/xlink" x="0px" y="0px"
	 width="100px" height="100px" viewBox="0 0 100 100" enable-background="new 0 0 100 100" xml:space="preserve">
<g id="Word_1_">
	<g>
		<path fill="#FFFFFF" d="M16.671,77.508c0,2.952,2.355,5.34,5.248,5.34h56.165c2.896,0,5.241-2.388,5.241-5.34V20.34
			c0-2.948-2.346-5.34-5.241-5.34H21.919c-2.893,0-5.248,2.392-5.248,5.34V77.508z"/>
		<path fill="none" stroke="#2A5899" stroke-width="2.8717" stroke-miterlimit="10" d="M16.671,77.508
			c0,2.952,2.355,5.34,5.248,5.34h56.165c2.896,0,5.241-2.388,5.241-5.34V20.34c0-2.948-2.346-5.34-5.241-5.34H21.919
			c-2.893,0-5.248,2.392-5.248,5.34V77.508z"/>
		<rect x="41.208" y="33.006" fill="#FFFFFF" width="31.092" height="31.65"/>
		
			<rect x="41.208" y="33.006" fill="none" stroke="#2A5899" stroke-width="1.3229" stroke-miterlimit="10" width="31.092" height="31.65"/>
		<line fill="#FFFFFF" x1="67.857" y1="38.284" x2="46.394" y2="38.284"/>
		
			<line fill="none" stroke="#2A5899" stroke-width="1.3229" stroke-miterlimit="10" x1="67.857" y1="38.284" x2="46.394" y2="38.284"/>
		<line fill="#FFFFFF" x1="67.857" y1="42.556" x2="46.394" y2="42.556"/>
		
			<line fill="none" stroke="#2A5899" stroke-width="1.3229" stroke-miterlimit="10" x1="67.857" y1="42.556" x2="46.394" y2="42.556"/>
		<line fill="#FFFFFF" x1="67.857" y1="46.829" x2="46.394" y2="46.829"/>
		
			<line fill="none" stroke="#2A5899" stroke-width="1.3229" stroke-miterlimit="10" x1="67.857" y1="46.829" x2="46.394" y2="46.829"/>
		<line fill="#FFFFFF" x1="67.857" y1="51.101" x2="46.394" y2="51.101"/>
		
			<line fill="none" stroke="#2A5899" stroke-width="1.3229" stroke-miterlimit="10" x1="67.857" y1="51.101" x2="46.394" y2="51.101"/>
		<line fill="#FFFFFF" x1="67.857" y1="55.371" x2="46.394" y2="55.371"/>
		
			<line fill="none" stroke="#2A5899" stroke-width="1.3229" stroke-miterlimit="10" x1="67.857" y1="55.371" x2="46.394" y2="55.371"/>
		<line fill="#FFFFFF" x1="67.857" y1="59.641" x2="46.394" y2="59.641"/>
		
			<line fill="none" stroke="#2A5899" stroke-width="1.3229" stroke-miterlimit="10" x1="67.857" y1="59.641" x2="46.394" y2="59.641"/>
		<polygon fill="#FFFFFF" points="27.701,65.223 53.24,69.371 53.24,28.49 27.701,32.821 		"/>
		<polygon fill="none" stroke="#2A5899" stroke-width="1.3229" stroke-miterlimit="10" points="27.701,65.223 53.24,69.371 
			53.24,28.49 27.701,32.821 		"/>
		<g>
			<path fill="#FFFFFF" d="M34.039,55.996l-3.162-13.485h2.738l1.996,9.266l2.423-9.266h3.179l2.324,9.418l2.033-9.418h2.691
				l-3.216,13.485h-2.837l-2.639-10.081L36.94,55.996H34.039z"/>
		</g>
		<polygon fill="none" stroke="#2A5899" stroke-width="1.3229" stroke-miterlimit="10" points="36.937,55.996 39.568,45.916 
			42.204,55.996 45.041,55.996 48.257,42.515 45.567,42.515 43.53,51.93 41.21,42.515 38.03,42.515 35.609,51.776 33.615,42.515 
			30.873,42.515 34.038,55.996 		"/>
	</g>
	<g>
		<g>
			<defs>
				<path id="SVGID_1_" d="M15,41.559V85h70V41.559c0,0-16.549,6.229-35.53,0c-6.323-2.08-12.266-2.766-17.369-2.766
					C21.883,38.792,15,41.559,15,41.559"/>
			</defs>
			<clipPath id="SVGID_2_">
				<use xlink:href="#SVGID_1_"  overflow="visible"/>
			</clipPath>
			<path clip-path="url(#SVGID_2_)" fill="#2A5899" d="M17.448,78.535c0,3.055,2.296,5.535,5.125,5.535h54.858
				c2.826,0,5.119-2.48,5.119-5.535V19.279c0-3.049-2.293-5.534-5.119-5.534H22.573c-2.829,0-5.125,2.484-5.125,5.534V78.535z"/>
		</g>
		<rect x="41.208" y="33.006" fill="#FFFFFF" width="31.092" height="31.65"/>
		
			<line fill="none" stroke="#2A5899" stroke-width="1.9843" stroke-miterlimit="10" x1="67.857" y1="38.284" x2="46.394" y2="38.284"/>
		
			<line fill="none" stroke="#2A5899" stroke-width="1.9843" stroke-miterlimit="10" x1="67.857" y1="42.556" x2="46.394" y2="42.556"/>
		
			<line fill="none" stroke="#2A5899" stroke-width="1.9843" stroke-miterlimit="10" x1="67.857" y1="46.829" x2="46.394" y2="46.829"/>
		
			<line fill="none" stroke="#2A5899" stroke-width="1.9843" stroke-miterlimit="10" x1="67.857" y1="51.101" x2="46.394" y2="51.101"/>
		
			<line fill="none" stroke="#2A5899" stroke-width="1.9843" stroke-miterlimit="10" x1="67.857" y1="55.371" x2="46.394" y2="55.371"/>
		
			<line fill="none" stroke="#2A5899" stroke-width="1.9843" stroke-miterlimit="10" x1="67.857" y1="59.641" x2="46.394" y2="59.641"/>
		<polygon fill="#FFFFFF" points="27.701,65.223 53.24,69.371 53.24,28.49 27.701,32.821 		"/>
		<polygon fill="none" stroke="#2A5899" stroke-width="1.3229" stroke-miterlimit="10" points="27.701,65.223 53.24,69.371 
			53.24,28.49 27.701,32.821 		"/>
		<g>
			<path fill="#2A5899" d="M34.168,55.996l-3.292-14.022h2.851l2.077,9.631l2.516-9.631h3.309l2.416,9.791l2.113-9.791h2.802
				l-3.346,14.022h-2.95L39.92,45.512l-2.731,10.484H34.168z"/>
		</g>
	</g>
</g>
</svg>
