<?xml version="1.0" encoding="utf-8"?>
<!-- Generator: Adobe Illustrator 16.0.0, SVG Export Plug-In . SVG Version: 6.00 Build 0)  -->
<!DOCTYPE svg PUBLIC "-//W3C//DTD SVG 1.1//EN" "http://www.w3.org/Graphics/SVG/1.1/DTD/svg11.dtd">
<svg version="1.1" id="Layer_1" xmlns="http://www.w3.org/2000/svg" xmlns:xlink="http://www.w3.org/1999/xlink" x="0px" y="0px"
	 width="100px" height="100px" viewBox="91.732 91.732 100 100" enable-background="new 91.732 91.732 100 100"
	 xml:space="preserve">
<g>
	<g>
		<path fill="#231F20" d="M101.8,162.18l-0.313-1.098h-1.157l-0.304,1.098h-0.794l1.311-4.161h0.77l1.302,4.161H101.8z
			 M101.137,159.827c-0.021-0.067-0.042-0.146-0.065-0.234c-0.021-0.089-0.043-0.179-0.063-0.265
			c-0.021-0.088-0.04-0.167-0.058-0.241c-0.017-0.073-0.032-0.131-0.042-0.169c-0.01,0.038-0.025,0.096-0.042,0.169
			c-0.017,0.074-0.037,0.153-0.056,0.237c-0.02,0.086-0.042,0.173-0.064,0.262c-0.023,0.091-0.045,0.169-0.065,0.241l-0.198,0.701
			h0.854L101.137,159.827z"/>
		<path fill="#231F20" d="M105.159,161.325c0,0.297-0.111,0.526-0.331,0.685c-0.222,0.159-0.527,0.237-0.918,0.237
			c-0.213,0-0.427-0.028-0.64-0.091c-0.214-0.059-0.41-0.138-0.587-0.242l0.282-0.476c0.365,0.178,0.675,0.268,0.929,0.268
			c0.163,0,0.291-0.032,0.385-0.092c0.095-0.061,0.141-0.143,0.141-0.248c0-0.053-0.015-0.104-0.042-0.148
			c-0.027-0.042-0.072-0.088-0.131-0.129c-0.063-0.044-0.141-0.09-0.24-0.139c-0.098-0.046-0.216-0.101-0.353-0.166
			c-0.122-0.055-0.233-0.109-0.337-0.169c-0.103-0.057-0.191-0.121-0.261-0.19c-0.07-0.066-0.126-0.147-0.167-0.24
			c-0.04-0.092-0.061-0.197-0.061-0.322c0-0.273,0.101-0.484,0.301-0.636c0.199-0.153,0.483-0.231,0.85-0.231
			c0.202,0,0.399,0.025,0.586,0.078c0.188,0.051,0.356,0.123,0.503,0.214l-0.296,0.481c-0.133-0.072-0.27-0.129-0.409-0.171
			c-0.139-0.04-0.272-0.062-0.4-0.062c-0.137,0-0.237,0.027-0.301,0.077c-0.063,0.052-0.094,0.118-0.094,0.197
			c0,0.045,0.008,0.091,0.026,0.127c0.018,0.039,0.05,0.075,0.098,0.117c0.048,0.039,0.113,0.083,0.198,0.128
			c0.083,0.043,0.193,0.1,0.329,0.156c0.152,0.067,0.285,0.134,0.401,0.196c0.116,0.063,0.214,0.135,0.292,0.21
			c0.077,0.075,0.138,0.159,0.181,0.252S105.159,161.198,105.159,161.325z"/>
		<path fill="#231F20" d="M106.568,163.282h-0.716l0.434-1.103l-1.112-3.118h0.777l0.465,1.479c0.021,0.06,0.042,0.13,0.063,0.212
			c0.024,0.08,0.046,0.163,0.069,0.244c0.025,0.081,0.043,0.157,0.062,0.228c0.018,0.069,0.031,0.126,0.042,0.167
			c0.01-0.041,0.025-0.098,0.045-0.167c0.021-0.07,0.042-0.148,0.064-0.231c0.023-0.084,0.046-0.165,0.069-0.245
			c0.022-0.081,0.043-0.153,0.065-0.213l0.472-1.474h0.777L106.568,163.282z"/>
		<path fill="#231F20" d="M110.238,162.18v-1.92c0-0.26-0.036-0.446-0.108-0.558c-0.073-0.11-0.199-0.166-0.38-0.166
			c-0.115,0-0.225,0.025-0.326,0.074c-0.104,0.051-0.19,0.121-0.26,0.212v2.358h-0.739v-3.118h0.739l-0.008,0.211
			c0.081-0.077,0.188-0.144,0.32-0.199c0.133-0.054,0.285-0.079,0.458-0.079c0.386,0,0.656,0.096,0.812,0.29
			c0.155,0.19,0.232,0.485,0.232,0.881v2.015L110.238,162.18L110.238,162.18z"/>
		<path fill="#231F20" d="M113.461,162.095c-0.178,0.1-0.411,0.152-0.702,0.152c-0.416,0-0.751-0.134-1.008-0.395
			c-0.257-0.265-0.385-0.67-0.385-1.217c0-0.553,0.126-0.961,0.377-1.232c0.251-0.272,0.601-0.409,1.048-0.409
			c0.142,0,0.271,0.014,0.385,0.044c0.114,0.026,0.217,0.066,0.309,0.116c0.092,0.051,0.173,0.107,0.243,0.177
			c0.071,0.068,0.135,0.142,0.19,0.215l-0.524,0.358c-0.102-0.128-0.199-0.218-0.29-0.275c-0.091-0.054-0.203-0.083-0.335-0.083
			c-0.234,0-0.402,0.097-0.507,0.283c-0.104,0.188-0.156,0.453-0.156,0.794c0,0.331,0.054,0.594,0.16,0.783
			c0.108,0.192,0.283,0.288,0.525,0.288c0.123,0,0.228-0.027,0.32-0.08c0.092-0.053,0.188-0.141,0.289-0.264l0.526,0.336
			C113.793,161.856,113.638,161.991,113.461,162.095z"/>
		<path fill="#231F20" d="M116.119,162.18v-1.92c0-0.26-0.037-0.446-0.109-0.558c-0.073-0.11-0.199-0.166-0.38-0.166
			c-0.115,0-0.223,0.025-0.326,0.074c-0.103,0.051-0.188,0.121-0.259,0.212v2.358h-0.739v-4.035l0.739-0.297l-0.008,1.425
			c0.081-0.077,0.187-0.144,0.321-0.199c0.132-0.054,0.284-0.079,0.458-0.079c0.384,0,0.655,0.096,0.811,0.29
			c0.154,0.19,0.232,0.485,0.232,0.881v2.015L116.119,162.18L116.119,162.18z"/>
		<path fill="#231F20" d="M119.203,159.673c-0.071-0.03-0.144-0.055-0.221-0.07c-0.077-0.017-0.172-0.024-0.289-0.024
			c-0.103,0-0.202,0.016-0.298,0.049c-0.097,0.035-0.188,0.1-0.274,0.195v2.358h-0.739v-3.118h0.739v0.211
			c0.082-0.077,0.182-0.144,0.304-0.199c0.122-0.054,0.258-0.079,0.404-0.079c0.127,0,0.236,0.01,0.324,0.028
			c0.088,0.022,0.165,0.047,0.225,0.079L119.203,159.673z"/>
		<path fill="#231F20" d="M122.212,160.611c0,0.548-0.133,0.956-0.4,1.228c-0.266,0.271-0.621,0.409-1.063,0.409
			c-0.207,0-0.398-0.033-0.57-0.101c-0.172-0.063-0.322-0.162-0.45-0.295c-0.126-0.132-0.224-0.299-0.293-0.502
			c-0.067-0.202-0.102-0.44-0.102-0.715c0-0.552,0.13-0.961,0.388-1.232c0.259-0.272,0.611-0.408,1.058-0.408
			c0.214,0,0.409,0.033,0.584,0.101c0.175,0.069,0.325,0.167,0.449,0.301s0.222,0.3,0.293,0.504
			C122.177,160.102,122.212,160.337,122.212,160.611z M121.474,160.623c0-0.352-0.062-0.622-0.183-0.802
			c-0.122-0.182-0.297-0.275-0.524-0.275c-0.463,0-0.694,0.362-0.694,1.077s0.233,1.07,0.701,1.07c0.228,0,0.402-0.098,0.522-0.293
			C121.413,161.205,121.474,160.945,121.474,160.623z"/>
		<path fill="#231F20" d="M124.436,162.18v-1.92c0-0.26-0.036-0.446-0.109-0.558c-0.073-0.11-0.199-0.166-0.38-0.166
			c-0.115,0-0.224,0.025-0.326,0.074c-0.103,0.051-0.189,0.121-0.259,0.212v2.358h-0.739v-3.118h0.739l-0.007,0.211
			c0.081-0.077,0.188-0.144,0.32-0.199c0.132-0.054,0.285-0.079,0.458-0.079c0.385,0,0.656,0.096,0.811,0.29
			c0.154,0.19,0.232,0.485,0.232,0.881v2.015L124.436,162.18L124.436,162.18z"/>
		<path fill="#231F20" d="M128.443,160.611c0,0.548-0.134,0.956-0.401,1.228c-0.266,0.271-0.62,0.409-1.062,0.409
			c-0.208,0-0.399-0.033-0.571-0.101c-0.174-0.063-0.323-0.162-0.45-0.295c-0.127-0.132-0.224-0.299-0.294-0.502
			c-0.069-0.202-0.102-0.44-0.102-0.715c0-0.552,0.13-0.961,0.388-1.232c0.259-0.272,0.612-0.408,1.058-0.408
			c0.213,0,0.408,0.033,0.583,0.101c0.176,0.069,0.326,0.167,0.45,0.301c0.125,0.134,0.222,0.3,0.293,0.504
			C128.407,160.101,128.443,160.337,128.443,160.611z M127.703,160.623c0-0.352-0.06-0.622-0.182-0.802
			c-0.121-0.183-0.297-0.275-0.526-0.275c-0.461,0-0.693,0.362-0.693,1.077s0.233,1.07,0.701,1.07c0.229,0,0.402-0.098,0.521-0.293
			S127.703,160.945,127.703,160.623z"/>
		<path fill="#231F20" d="M130.643,162.18l0.008-0.213c-0.082,0.082-0.188,0.146-0.32,0.202c-0.132,0.052-0.284,0.078-0.457,0.078
			c-0.386,0-0.656-0.095-0.811-0.291c-0.156-0.191-0.234-0.482-0.234-0.88v-2.015h0.74v1.92c0,0.261,0.037,0.447,0.11,0.558
			c0.072,0.11,0.199,0.165,0.379,0.165c0.115,0,0.224-0.024,0.327-0.073c0.102-0.05,0.188-0.12,0.258-0.211v-2.359h0.739v3.118
			L130.643,162.18L130.643,162.18z"/>
		<path fill="#231F20" d="M134.171,161.325c0,0.297-0.112,0.526-0.332,0.685c-0.221,0.159-0.527,0.237-0.919,0.237
			c-0.213,0-0.426-0.028-0.64-0.091c-0.214-0.059-0.41-0.138-0.587-0.242l0.282-0.476c0.365,0.178,0.675,0.268,0.929,0.268
			c0.163,0,0.292-0.032,0.385-0.092c0.093-0.061,0.14-0.143,0.14-0.248c0-0.053-0.013-0.104-0.042-0.148
			c-0.029-0.042-0.072-0.088-0.132-0.129c-0.062-0.044-0.141-0.09-0.239-0.139c-0.099-0.046-0.216-0.101-0.353-0.166
			c-0.122-0.055-0.234-0.109-0.338-0.169c-0.104-0.057-0.191-0.121-0.262-0.19c-0.071-0.066-0.125-0.147-0.167-0.24
			c-0.041-0.092-0.06-0.197-0.06-0.322c0-0.273,0.099-0.484,0.299-0.636c0.201-0.153,0.483-0.231,0.85-0.231
			c0.204,0,0.398,0.025,0.587,0.078c0.188,0.051,0.355,0.123,0.503,0.214l-0.297,0.481c-0.132-0.072-0.269-0.129-0.407-0.171
			c-0.141-0.04-0.273-0.062-0.4-0.062c-0.138,0-0.238,0.027-0.302,0.077c-0.063,0.052-0.095,0.118-0.095,0.197
			c0,0.045,0.008,0.091,0.026,0.127c0.018,0.039,0.051,0.075,0.099,0.117c0.048,0.039,0.112,0.083,0.197,0.128
			c0.083,0.043,0.193,0.1,0.33,0.156c0.151,0.067,0.285,0.134,0.4,0.196c0.116,0.063,0.214,0.135,0.292,0.21
			s0.139,0.159,0.182,0.252C134.148,161.09,134.171,161.198,134.171,161.325z"/>
		<path fill="#231F20" d="M137.985,161.92c-0.219,0.219-0.559,0.327-1.02,0.327c-0.223,0-0.416-0.026-0.576-0.078
			c-0.16-0.058-0.292-0.131-0.396-0.225c-0.104-0.096-0.187-0.208-0.247-0.341c-0.061-0.129-0.104-0.273-0.129-0.432l0.678-0.139
			c0.055,0.233,0.133,0.398,0.231,0.494c0.1,0.096,0.245,0.144,0.439,0.144c0.232,0,0.393-0.061,0.479-0.18
			c0.086-0.118,0.13-0.279,0.13-0.481v-2.991h0.74v2.975C138.314,161.394,138.204,161.703,137.985,161.92z"/>
		<path fill="#231F20" d="M140.652,162.18l0.006-0.213c-0.1,0.093-0.219,0.161-0.353,0.21c-0.135,0.046-0.291,0.071-0.468,0.071
			c-0.147,0-0.288-0.022-0.419-0.067c-0.133-0.042-0.247-0.108-0.346-0.193c-0.099-0.088-0.178-0.199-0.237-0.329
			c-0.058-0.131-0.088-0.285-0.088-0.458c0-0.341,0.122-0.598,0.365-0.767c0.243-0.172,0.554-0.255,0.932-0.255
			c0.122,0,0.234,0.008,0.334,0.025c0.101,0.018,0.192,0.043,0.273,0.076v-0.304c0-0.15-0.038-0.266-0.114-0.337
			c-0.076-0.074-0.211-0.109-0.405-0.109c-0.126,0-0.251,0.014-0.372,0.045c-0.123,0.028-0.259,0.081-0.412,0.15l-0.313-0.433
			c0.184-0.097,0.375-0.169,0.576-0.222c0.201-0.051,0.392-0.077,0.575-0.077c0.213,0,0.396,0.018,0.55,0.05
			c0.153,0.03,0.28,0.083,0.377,0.155c0.098,0.073,0.168,0.171,0.211,0.29c0.044,0.117,0.066,0.264,0.066,0.439v2.251H140.652
			L140.652,162.18z M140.652,160.815c-0.085-0.044-0.172-0.074-0.26-0.093c-0.087-0.019-0.198-0.029-0.333-0.029
			c-0.171,0-0.309,0.042-0.415,0.122c-0.106,0.077-0.157,0.202-0.157,0.373c0,0.185,0.043,0.322,0.13,0.41
			c0.089,0.088,0.21,0.131,0.365,0.131c0.306,0,0.529-0.096,0.67-0.291V160.815z"/>
		<path fill="#231F20" d="M143.461,162.18h-0.843l-1.007-3.118h0.748l0.487,1.684c0.016,0.047,0.032,0.111,0.054,0.187
			c0.019,0.073,0.039,0.148,0.06,0.225c0.021,0.078,0.038,0.15,0.054,0.216c0.015,0.068,0.028,0.119,0.038,0.155
			c0.007-0.036,0.017-0.089,0.034-0.157c0.019-0.069,0.036-0.144,0.058-0.219c0.02-0.077,0.039-0.153,0.057-0.229
			c0.019-0.076,0.034-0.142,0.05-0.19l0.465-1.671h0.746L143.461,162.18z"/>
		<path fill="#231F20" d="M146.342,162.18l0.007-0.213c-0.103,0.093-0.219,0.161-0.355,0.21c-0.133,0.046-0.29,0.071-0.468,0.071
			c-0.146,0-0.288-0.022-0.417-0.067c-0.132-0.042-0.248-0.108-0.349-0.193c-0.098-0.088-0.178-0.199-0.236-0.329
			c-0.059-0.131-0.087-0.285-0.087-0.458c0-0.341,0.12-0.598,0.364-0.767c0.242-0.172,0.554-0.255,0.934-0.255
			c0.122,0,0.231,0.008,0.333,0.025s0.192,0.043,0.274,0.076v-0.304c0-0.15-0.038-0.266-0.115-0.337
			c-0.076-0.074-0.21-0.109-0.403-0.109c-0.128,0-0.251,0.014-0.374,0.045c-0.121,0.028-0.257,0.081-0.411,0.15l-0.312-0.433
			c0.183-0.097,0.375-0.169,0.576-0.222c0.198-0.051,0.391-0.077,0.574-0.077c0.213,0,0.396,0.018,0.549,0.05
			c0.154,0.03,0.278,0.083,0.376,0.155c0.1,0.073,0.169,0.171,0.212,0.29c0.043,0.117,0.066,0.264,0.066,0.439v2.251H146.342
			L146.342,162.18z M146.342,160.815c-0.087-0.044-0.173-0.074-0.262-0.093c-0.088-0.019-0.198-0.029-0.332-0.029
			c-0.173,0-0.311,0.042-0.416,0.122c-0.104,0.077-0.157,0.202-0.157,0.373c0,0.185,0.045,0.322,0.134,0.41
			c0.086,0.088,0.208,0.131,0.363,0.131c0.304,0,0.528-0.096,0.67-0.291V160.815L146.342,160.815z"/>
		<path fill="#231F20" d="M149.86,161.325c0,0.297-0.111,0.526-0.332,0.685c-0.22,0.159-0.525,0.237-0.917,0.237
			c-0.216,0-0.426-0.028-0.64-0.091c-0.214-0.059-0.41-0.138-0.587-0.242l0.279-0.476c0.368,0.178,0.679,0.268,0.933,0.268
			c0.162,0,0.288-0.032,0.384-0.092c0.094-0.061,0.14-0.143,0.14-0.248c0-0.053-0.014-0.104-0.041-0.148
			c-0.027-0.042-0.071-0.088-0.132-0.129c-0.063-0.044-0.142-0.09-0.24-0.139c-0.098-0.046-0.217-0.101-0.351-0.166
			c-0.124-0.055-0.234-0.109-0.337-0.169c-0.106-0.057-0.193-0.121-0.264-0.19c-0.069-0.066-0.124-0.147-0.166-0.24
			c-0.04-0.092-0.061-0.197-0.061-0.322c0-0.273,0.1-0.484,0.3-0.636c0.202-0.153,0.483-0.231,0.852-0.231
			c0.201,0,0.398,0.025,0.586,0.078c0.187,0.051,0.354,0.123,0.502,0.214l-0.298,0.481c-0.131-0.072-0.268-0.129-0.406-0.171
			c-0.14-0.04-0.274-0.062-0.398-0.062c-0.137,0-0.236,0.027-0.302,0.077c-0.065,0.052-0.096,0.118-0.096,0.197
			c0,0.045,0.008,0.091,0.026,0.127c0.017,0.039,0.053,0.075,0.097,0.117c0.051,0.039,0.116,0.083,0.199,0.128
			c0.084,0.043,0.192,0.1,0.33,0.156c0.151,0.067,0.283,0.134,0.401,0.196c0.115,0.063,0.212,0.135,0.291,0.21
			s0.14,0.159,0.182,0.252S149.86,161.198,149.86,161.325z"/>
		<path fill="#231F20" d="M152.175,162.095c-0.177,0.1-0.41,0.152-0.699,0.152c-0.418,0-0.754-0.134-1.01-0.395
			c-0.258-0.265-0.385-0.67-0.385-1.217c0-0.553,0.125-0.961,0.376-1.232c0.251-0.272,0.601-0.409,1.049-0.409
			c0.142,0,0.27,0.014,0.384,0.044c0.112,0.026,0.219,0.066,0.309,0.116c0.092,0.051,0.174,0.107,0.244,0.177
			c0.071,0.068,0.134,0.142,0.189,0.215l-0.523,0.358c-0.103-0.128-0.199-0.218-0.29-0.275c-0.093-0.054-0.204-0.083-0.336-0.083
			c-0.233,0-0.402,0.097-0.506,0.283c-0.104,0.188-0.157,0.453-0.157,0.794c0,0.331,0.053,0.594,0.16,0.783
			c0.106,0.192,0.282,0.288,0.525,0.288c0.122,0,0.229-0.027,0.319-0.08c0.092-0.053,0.188-0.141,0.291-0.264l0.524,0.336
			C152.507,161.856,152.353,161.991,152.175,162.095z"/>
		<path fill="#231F20" d="M154.841,159.673c-0.071-0.03-0.146-0.055-0.221-0.07c-0.077-0.017-0.173-0.024-0.288-0.024
			c-0.104,0-0.204,0.016-0.299,0.049c-0.096,0.035-0.188,0.1-0.273,0.195v2.358h-0.739v-3.118h0.739v0.211
			c0.082-0.077,0.183-0.144,0.305-0.199c0.122-0.054,0.257-0.079,0.402-0.079c0.127,0,0.233,0.01,0.322,0.028
			c0.089,0.022,0.164,0.047,0.227,0.079L154.841,159.673z"/>
		<path fill="#231F20" d="M156.112,158.223c0,0.096-0.044,0.178-0.133,0.245c-0.087,0.07-0.194,0.104-0.316,0.104
			c-0.127,0-0.234-0.034-0.323-0.104c-0.088-0.067-0.135-0.149-0.135-0.245c0-0.1,0.047-0.183,0.135-0.255
			c0.089-0.066,0.196-0.103,0.323-0.103c0.122,0,0.229,0.036,0.316,0.103C156.068,158.039,156.112,158.123,156.112,158.223z
			 M155.298,162.18v-3.118h0.738v3.118H155.298z"/>
		<path fill="#231F20" d="M159.298,160.651c0,0.525-0.112,0.922-0.331,1.189c-0.219,0.27-0.527,0.406-0.922,0.406
			c-0.268,0-0.5-0.076-0.69-0.232v1.017l-0.739,0.296v-4.266h0.739l-0.009,0.208c0.098-0.08,0.201-0.146,0.313-0.197
			s0.257-0.077,0.435-0.077c0.182,0,0.347,0.027,0.495,0.083c0.146,0.057,0.271,0.15,0.378,0.278
			c0.103,0.133,0.183,0.305,0.242,0.516C159.267,160.083,159.298,160.344,159.298,160.651z M158.557,160.683
			c0-0.406-0.048-0.702-0.146-0.883c-0.099-0.18-0.254-0.27-0.466-0.27c-0.12,0-0.234,0.026-0.338,0.08
			c-0.103,0.054-0.187,0.122-0.252,0.204v1.617c0.081,0.096,0.177,0.164,0.288,0.213c0.109,0.044,0.225,0.067,0.341,0.067
			c0.186,0,0.328-0.079,0.427-0.237S158.557,161.052,158.557,160.683z"/>
		<path fill="#231F20" d="M161.288,162.104c-0.092,0.044-0.188,0.078-0.292,0.105c-0.106,0.025-0.229,0.038-0.368,0.038
			c-0.271,0-0.468-0.069-0.59-0.209c-0.123-0.136-0.185-0.334-0.185-0.589v-1.854h-0.435v-0.533h0.435v-0.91l0.737-0.303v1.213h0.77
			v0.533h-0.77v1.803c0,0.11,0.025,0.19,0.077,0.239c0.051,0.045,0.124,0.068,0.229,0.068c0.096,0,0.184-0.014,0.265-0.038
			c0.082-0.025,0.15-0.058,0.209-0.093L161.288,162.104z"/>
		<path fill="#231F20" d="M165.481,162.18l-0.314-1.098h-1.156l-0.304,1.098h-0.793l1.311-4.161h0.769l1.304,4.161H165.481z
			 M164.819,159.827c-0.021-0.067-0.043-0.146-0.067-0.234c-0.021-0.089-0.044-0.179-0.062-0.265
			c-0.022-0.088-0.04-0.167-0.059-0.241c-0.017-0.073-0.032-0.131-0.041-0.169c-0.011,0.038-0.024,0.096-0.043,0.169
			c-0.018,0.074-0.036,0.153-0.056,0.237c-0.022,0.086-0.042,0.173-0.066,0.262c-0.021,0.091-0.044,0.169-0.063,0.241l-0.199,0.701
			h0.853L164.819,159.827z"/>
		<path fill="#231F20" d="M168.413,162.18v-1.92c0-0.26-0.036-0.446-0.109-0.558c-0.074-0.11-0.197-0.166-0.38-0.166
			c-0.115,0-0.223,0.025-0.326,0.074c-0.103,0.051-0.189,0.121-0.261,0.212v2.358H166.6v-3.118h0.737l-0.006,0.211
			c0.081-0.077,0.188-0.144,0.319-0.199c0.134-0.054,0.287-0.079,0.46-0.079c0.383,0,0.656,0.096,0.811,0.29
			c0.154,0.19,0.23,0.485,0.23,0.881v2.015L168.413,162.18L168.413,162.18z"/>
		<path fill="#231F20" d="M171.481,162.18l0.009-0.205c-0.098,0.079-0.2,0.144-0.313,0.195c-0.111,0.052-0.257,0.077-0.434,0.077
			c-0.183,0-0.349-0.028-0.495-0.082c-0.146-0.06-0.274-0.15-0.377-0.281c-0.104-0.132-0.185-0.303-0.243-0.514
			c-0.058-0.213-0.088-0.472-0.088-0.78c0-0.524,0.109-0.921,0.331-1.191c0.219-0.27,0.524-0.404,0.921-0.404
			c0.269,0,0.498,0.077,0.689,0.234v-1.084l0.74-0.297v4.332H171.481L171.481,162.18z M171.481,159.811
			c-0.08-0.099-0.176-0.166-0.288-0.214c-0.11-0.043-0.223-0.066-0.34-0.066c-0.19,0-0.334,0.08-0.431,0.238
			c-0.096,0.158-0.144,0.422-0.144,0.789c0,0.409,0.05,0.704,0.147,0.883c0.1,0.182,0.254,0.271,0.466,0.271
			c0.122,0,0.233-0.027,0.336-0.079c0.104-0.055,0.189-0.125,0.253-0.208V159.811z"/>
		<path fill="#231F20" d="M176.197,162.18l-0.404-0.808c-0.025-0.05-0.054-0.109-0.086-0.182c-0.035-0.068-0.067-0.139-0.104-0.208
			c-0.034-0.072-0.067-0.141-0.096-0.205c-0.025-0.063-0.046-0.108-0.057-0.142c-0.016,0.035-0.035,0.083-0.064,0.146
			c-0.028,0.063-0.058,0.129-0.092,0.201c-0.032,0.068-0.063,0.141-0.1,0.212c-0.032,0.071-0.061,0.131-0.087,0.178l-0.403,0.808
			h-0.801l1.168-2.138l-1.092-2.023h0.823l0.328,0.661c0.026,0.048,0.055,0.107,0.088,0.182c0.033,0.072,0.067,0.146,0.103,0.219
			c0.034,0.073,0.068,0.144,0.096,0.207c0.027,0.061,0.047,0.111,0.057,0.141c0.016-0.034,0.036-0.085,0.065-0.146
			c0.027-0.065,0.057-0.133,0.092-0.207c0.032-0.071,0.063-0.145,0.1-0.217c0.032-0.07,0.061-0.13,0.087-0.178l0.327-0.662h0.798
			l-1.088,2.004l1.164,2.158H176.197L176.197,162.18z"/>
		<path fill="#231F20" d="M180.31,162.18v-1.673c0-0.065,0-0.147,0-0.25c0-0.101,0-0.202,0.004-0.307
			c0.003-0.101,0.006-0.196,0.009-0.282c0.003-0.088,0.004-0.151,0.004-0.189c-0.017,0.043-0.039,0.107-0.072,0.193
			c-0.034,0.088-0.071,0.183-0.111,0.29c-0.041,0.104-0.082,0.209-0.121,0.318c-0.041,0.105-0.078,0.196-0.106,0.272l-0.687,1.742
			l-0.686-1.742c-0.029-0.075-0.065-0.166-0.105-0.272c-0.042-0.109-0.083-0.214-0.122-0.318c-0.041-0.106-0.078-0.202-0.111-0.29
			c-0.033-0.086-0.057-0.15-0.07-0.193c0,0.036,0.001,0.102,0.004,0.189c0.002,0.085,0.004,0.182,0.006,0.282
			c0.003,0.104,0.004,0.207,0.004,0.307c0,0.104,0,0.185,0,0.25v1.673h-0.699v-4.161h0.784l0.686,1.732
			c0.024,0.063,0.055,0.138,0.086,0.226c0.033,0.086,0.065,0.174,0.097,0.263c0.03,0.089,0.06,0.173,0.086,0.251
			c0.03,0.076,0.047,0.133,0.059,0.169c0.014-0.041,0.034-0.099,0.061-0.177c0.024-0.076,0.055-0.162,0.087-0.251
			c0.033-0.091,0.064-0.182,0.1-0.273c0.032-0.092,0.061-0.167,0.086-0.226l0.687-1.715h0.784v4.162H180.31L180.31,162.18z"/>
		<path fill="#231F20" d="M181.788,162.18v-4.161h0.737v3.591h1.707v0.57H181.788z"/>
	</g>
	<g>
		<path fill="#177BC0" d="M144.209,136.606l-6.891-6.897l-6.891,6.897l2.438,2.439l2.25-2.249v0.849v12.566
			c0,0.901,0.057,3.242-4.091,3.242c-4.204,0-4.387-2.208-4.426-3.645v-0.428h-5.236v0.428c0,2.185-0.299,7.385,9.662,7.385
			c8.75,0,8.496-4.779,8.496-6.362v-13.187h0v-0.839l2.24,2.251L144.209,136.606z"/>
		<g>
			<polygon fill="#024774" points="113.375,148.994 113.375,149.398 110.394,142.094 110.394,141.689 			"/>
		</g>
		<g>
			<polygon fill="#044A79" points="110.394,141.689 110.394,142.094 107.331,149.398 107.331,148.994 			"/>
		</g>
		<g>
			<rect x="105.992" y="152.194" fill="#024774" width="8.685" height="0.403"/>
		</g>
		<g>
			
				<linearGradient id="SVGID_1_" gradientUnits="userSpaceOnUse" x1="-91.9331" y1="207.4961" x2="-91.9331" y2="226.0605" gradientTransform="matrix(1 0 0 -1 202.3398 363.5039)">
				<stop  offset="0" style="stop-color:#3C95D1"/>
				<stop  offset="0.1" style="stop-color:#0684C3"/>
				<stop  offset="0.4" style="stop-color:#0A74BB"/>
				<stop  offset="0.6" style="stop-color:#0A74BB"/>
				<stop  offset="0.9" style="stop-color:#0684C3"/>
				<stop  offset="1" style="stop-color:#3C95D1"/>
			</linearGradient>
			<path fill="url(#SVGID_1_)" d="M113.235,137.443l8.348,18.564h-5.348l-1.558-3.813h-8.685l-1.601,3.813h-5.16l8.423-18.564
				H113.235z M107.331,148.994h6.044l-2.981-7.305L107.331,148.994"/>
		</g>
		<g>
			<path fill="#0A74BB" d="M113.232,137.443l8.349,18.564h-5.345l-1.557-3.813h-8.689l-1.6,3.813h-5.155l8.422-18.564H113.232z
				 M107.33,148.994h6.044l-2.981-7.305L107.33,148.994"/>
		</g>
		<g>
			<rect x="99.232" y="156.008" fill="#024774" width="5.16" height="0.406"/>
		</g>
		<g>
			<polygon fill="#044A79" points="105.992,152.194 105.992,152.598 104.392,156.414 104.392,156.008 			"/>
		</g>
		<g>
			<rect x="116.235" y="156.008" fill="#024774" width="5.348" height="0.406"/>
		</g>
		<g>
			<polygon fill="#024774" points="116.235,156.008 116.235,156.414 114.677,152.598 114.677,152.194 			"/>
		</g>
		<g>
			<g>
				<polygon fill="#FFFFFF" points="113.375,148.732 113.375,149.137 110.394,141.832 110.394,141.426 				"/>
			</g>
			<g>
				<polygon fill="#FFFFFF" points="110.394,141.426 110.394,141.832 107.331,149.137 107.331,148.732 				"/>
			</g>
			<g>
				<rect x="105.992" y="151.932" fill="#FFFFFF" width="8.685" height="0.405"/>
			</g>
			<g>
				<rect x="99.232" y="155.746" fill="#FFFFFF" width="5.16" height="0.403"/>
			</g>
			<g>
				<polygon fill="#FFFFFF" points="105.992,151.932 105.992,152.337 104.392,156.149 104.392,155.746 				"/>
			</g>
			<g>
				<rect x="116.235" y="155.746" fill="#FFFFFF" width="5.348" height="0.403"/>
			</g>
			<g>
				<polygon fill="#FFFFFF" points="116.235,155.746 116.235,156.149 114.677,152.337 114.677,151.932 				"/>
			</g>
		</g>
		<g>
			
				<linearGradient id="SVGID_2_" gradientUnits="userSpaceOnUse" x1="-51.3921" y1="207.4961" x2="-51.3921" y2="226.0605" gradientTransform="matrix(1 0 0 -1 202.3398 363.5039)">
				<stop  offset="0" style="stop-color:#3C95D1"/>
				<stop  offset="0.1" style="stop-color:#0684C3"/>
				<stop  offset="0.4" style="stop-color:#0A74BB"/>
				<stop  offset="0.6" style="stop-color:#0A74BB"/>
				<stop  offset="0.9" style="stop-color:#0684C3"/>
				<stop  offset="1" style="stop-color:#3C95D1"/>
			</linearGradient>
			<path fill="url(#SVGID_2_)" d="M153.774,137.443l8.348,18.564h-5.347l-1.557-3.813h-8.689l-1.6,3.813h-5.155l8.424-18.564
				H153.774z M147.869,148.994h6.044l-2.979-7.305L147.869,148.994"/>
		</g>
		<g>
			<g>
				<polygon fill="#024774" points="153.913,148.994 153.913,149.398 150.934,142.094 150.934,141.689 				"/>
			</g>
			<g>
				<polygon fill="#044A79" points="150.934,141.689 150.934,142.094 147.869,149.398 147.869,148.994 				"/>
			</g>
			<g>
				<rect x="146.53" y="152.194" fill="#024774" width="8.688" height="0.403"/>
			</g>
			<g>
				<rect x="139.774" y="156.008" fill="#024774" width="5.157" height="0.406"/>
			</g>
			<g>
				<polygon fill="#044A79" points="146.53,152.194 146.53,152.598 144.932,156.414 144.932,156.008 				"/>
			</g>
			<g>
				<rect x="156.775" y="156.008" fill="#024774" width="5.348" height="0.406"/>
			</g>
			<g>
				<polygon fill="#024774" points="156.775,156.008 156.775,156.414 155.219,152.598 155.219,152.194 				"/>
			</g>
		</g>
		<g>
			<g>
				<polygon fill="#FFFFFF" points="153.913,148.732 153.913,149.137 150.934,141.832 150.934,141.426 				"/>
			</g>
			<g>
				<polygon fill="#FFFFFF" points="150.934,141.426 150.934,141.832 147.869,149.137 147.869,148.732 				"/>
			</g>
			<g>
				<rect x="146.53" y="151.932" fill="#FFFFFF" width="8.688" height="0.405"/>
			</g>
			<g>
				<rect x="139.774" y="155.746" fill="#FFFFFF" width="5.157" height="0.403"/>
			</g>
			<g>
				<polygon fill="#FFFFFF" points="146.53,151.932 146.53,152.337 144.932,156.149 144.932,155.746 				"/>
			</g>
			<g>
				<rect x="156.775" y="155.746" fill="#FFFFFF" width="5.348" height="0.403"/>
			</g>
			<g>
				<polygon fill="#FFFFFF" points="156.775,155.746 156.775,156.149 155.219,152.337 155.219,151.932 				"/>
			</g>
		</g>
		<g>
			
				<linearGradient id="SVGID_3_" gradientUnits="userSpaceOnUse" x1="-28.5757" y1="207.4961" x2="-28.5757" y2="226.0605" gradientTransform="matrix(1 0 0 -1 202.3398 363.5039)">
				<stop  offset="0" style="stop-color:#3C95D1"/>
				<stop  offset="0.1" style="stop-color:#0684C3"/>
				<stop  offset="0.4" style="stop-color:#0A74BB"/>
				<stop  offset="0.6" style="stop-color:#0A74BB"/>
				<stop  offset="0.9" style="stop-color:#0684C3"/>
				<stop  offset="1" style="stop-color:#3C95D1"/>
			</linearGradient>
			<polygon fill="url(#SVGID_3_)" points="176.565,146.4 184.232,156.008 178.246,156.008 173.765,149.682 169.024,156.008 
				163.296,156.008 170.884,146.551 163.663,137.443 169.554,137.443 173.765,143.492 178.085,137.443 183.785,137.443 			"/>
		</g>
		<g>
			<g>
				<polygon fill="#034775" points="183.785,137.443 183.785,137.849 176.565,146.806 176.565,146.4 				"/>
			</g>
			<g>
				<polygon fill="#024774" points="170.884,146.551 170.884,146.956 163.663,137.849 163.663,137.443 				"/>
			</g>
			<g>
				<polygon fill="#024774" points="178.246,156.008 178.246,156.414 173.765,150.084 173.765,149.682 				"/>
			</g>
			<g>
				<rect x="163.296" y="156.008" fill="#024774" width="5.729" height="0.406"/>
			</g>
			<g>
				<polygon fill="#034875" points="173.765,149.682 173.765,150.084 169.024,156.414 169.024,156.008 				"/>
			</g>
			<g>
				<rect x="178.246" y="156.008" fill="#024774" width="5.986" height="0.406"/>
			</g>
		</g>
		<g>
			<g>
				<polygon fill="#FFFFFF" points="183.785,137.181 183.785,137.585 176.565,146.542 176.565,146.137 				"/>
			</g>
			<g>
				<polygon fill="#FFFFFF" points="170.884,146.287 170.884,146.693 163.663,137.585 163.663,137.181 				"/>
			</g>
			<g>
				<polygon fill="#FFFFFF" points="178.246,155.746 178.246,156.149 173.765,149.822 173.765,149.418 				"/>
			</g>
			<g>
				<rect x="163.296" y="155.746" fill="#FFFFFF" width="5.729" height="0.403"/>
			</g>
			<g>
				<polygon fill="#FFFFFF" points="173.765,149.418 173.765,149.822 169.024,156.149 169.024,155.746 				"/>
			</g>
			<g>
				<rect x="178.246" y="155.746" fill="#FFFFFF" width="5.986" height="0.403"/>
			</g>
		</g>
		<g enable-background="new    ">
			<g>
				<defs>
					<path id="SVGID_4_" d="M135.115,150.082v0.405c0-0.026,0-0.051,0-0.075v-0.405C135.115,150.03,135.115,150.056,135.115,150.082
						z"/>
				</defs>
				<clipPath id="SVGID_5_">
					<use xlink:href="#SVGID_4_"  overflow="visible"/>
				</clipPath>
				<g clip-path="url(#SVGID_5_)" enable-background="new    ">
					<path fill="#044977" d="M135.115,150.082v0.405c0-0.026,0-0.051,0-0.075v-0.405
						C135.115,150.03,135.115,150.056,135.115,150.082"/>
				</g>
			</g>
		</g>
		<g>
			<g>
				<polygon fill="#024774" points="135.115,136.596 135.115,137.001 132.866,139.249 132.866,138.844 				"/>
			</g>
			<g>
				<polygon fill="#024774" points="132.866,138.844 132.866,139.249 130.427,136.813 130.427,136.407 				"/>
			</g>
			<g>
				<polygon fill="#024774" points="141.761,138.856 141.761,139.263 139.521,137.012 139.521,136.607 				"/>
			</g>
			<g>
				<polygon fill="#024774" points="144.209,136.407 144.209,136.813 141.761,139.263 141.761,138.856 				"/>
			</g>
			<g enable-background="new    ">
				<g>
					<defs>
						<path id="SVGID_6_" d="M139.523,150.914v0.406c0,1.802-0.227,6.072-8.498,6.072c-9.396,0-9.663-4.624-9.663-6.98v-0.405
							c0,2.356,0.267,6.98,9.663,6.98C139.295,156.987,139.523,152.717,139.523,150.914z"/>
					</defs>
					<clipPath id="SVGID_7_">
						<use xlink:href="#SVGID_6_"  overflow="visible"/>
					</clipPath>
					<g clip-path="url(#SVGID_7_)" enable-background="new    ">
						<path fill="#084F80" d="M139.523,150.914v0.406c0,0.327-0.007,0.735-0.07,1.185v-0.404
							C139.515,151.648,139.523,151.241,139.523,150.914"/>
						<path fill="#074D7D" d="M139.453,152.101v0.404c-0.04,0.285-0.1,0.59-0.196,0.898V153
							C139.353,152.689,139.413,152.385,139.453,152.101"/>
						<path fill="#054B7A" d="M139.256,153v0.403c-0.085,0.276-0.197,0.559-0.346,0.839v-0.406
							C139.059,153.557,139.171,153.274,139.256,153"/>
						<path fill="#044977" d="M138.91,153.836v0.406c-0.862,1.615-2.929,3.15-7.885,3.15c-9.396,0-9.663-4.625-9.663-6.98v-0.405
							c0,2.356,0.267,6.979,9.663,6.979C135.981,156.987,138.048,155.452,138.91,153.836"/>
					</g>
				</g>
			</g>
		</g>
		<g>
			
				<linearGradient id="SVGID_8_" gradientUnits="userSpaceOnUse" x1="-69.5542" y1="206.5166" x2="-69.5542" y2="233.9941" gradientTransform="matrix(1 0 0 -1 202.3398 363.5039)">
				<stop  offset="0" style="stop-color:#3C95D1"/>
				<stop  offset="0.1" style="stop-color:#0684C3"/>
				<stop  offset="0.4" style="stop-color:#0A74BB"/>
				<stop  offset="0.6" style="stop-color:#0A74BB"/>
				<stop  offset="0.75" style="stop-color:#0684C3"/>
				<stop  offset="0.9" style="stop-color:#3C95D1"/>
			</linearGradient>
			<path fill="url(#SVGID_8_)" d="M137.316,129.509l6.893,6.897l-2.448,2.45l-2.239-2.25v0.835v13.188
				c0,1.577,0.253,6.357-8.496,6.357c-9.963,0-9.662-5.2-9.662-7.381v-0.429h5.235v0.429c0.04,1.438,0.221,3.643,4.427,3.643
				c4.146,0,4.09-2.344,4.09-3.242v-12.565v-0.845l-2.25,2.248l-2.438-2.438L137.316,129.509z"/>
		</g>
		<g enable-background="new    ">
			<g>
				<defs>
					<path id="SVGID_9_" d="M121.733,126.613v-0.406c0,0.104,0.001,0.201,0.001,0.288v0.405
						C121.734,126.813,121.733,126.717,121.733,126.613z"/>
				</defs>
				<clipPath id="SVGID_10_">
					<use xlink:href="#SVGID_9_"  overflow="visible"/>
				</clipPath>
				<g clip-path="url(#SVGID_10_)" enable-background="new    ">
					<path fill="#044977" d="M121.734,126.495v0.405c0-0.086-0.001-0.183-0.001-0.288v-0.406
						C121.733,126.311,121.734,126.408,121.734,126.495"/>
				</g>
			</g>
		</g>
		<g enable-background="new    ">
			<g>
				<defs>
					<path id="SVGID_11_" d="M139.897,127.121c0,0.142-0.001,0.274-0.001,0.396v0.407c0-0.123,0.001-0.256,0.001-0.396
						C139.897,127.405,139.897,127.243,139.897,127.121z"/>
				</defs>
				<clipPath id="SVGID_12_">
					<use xlink:href="#SVGID_11_"  overflow="visible"/>
				</clipPath>
				<g clip-path="url(#SVGID_12_)" enable-background="new    ">
					<path fill="#084F80" d="M139.897,127.121v0.407c0,0.14-0.001,0.273-0.001,0.396v-0.407
						C139.896,127.395,139.897,127.263,139.897,127.121"/>
				</g>
			</g>
		</g>
		<g>
			
				<linearGradient id="SVGID_13_" gradientUnits="userSpaceOnUse" x1="-73.8687" y1="215.8867" x2="-73.8687" y2="243.3672" gradientTransform="matrix(1 0 0 -1 202.3398 363.5039)">
				<stop  offset="0.1" style="stop-color:#0684C3"/>
				<stop  offset="0.4" style="stop-color:#0A74BB"/>
				<stop  offset="0.65" style="stop-color:#3C95D1"/>
				<stop  offset="1" style="stop-color:#6BB3E2"/>
			</linearGradient>
			<path fill="url(#SVGID_13_)" d="M130.23,120.136c9.963,0,9.665,5.198,9.665,7.381v0.429h-5.239v-0.429
				c-0.04-1.437-0.224-3.64-4.426-3.64c-4.15,0-4.09,2.34-4.09,3.239v12.567v0.846l2.248-2.246l2.44,2.438l-6.893,6.896
				l-6.888-6.896l2.449-2.452l2.238,2.249v-0.836v-13.188C121.734,124.917,121.481,120.136,130.23,120.136z"/>
		</g>
		<g>
			<path fill="#0A74BB" d="M153.774,137.443l8.348,18.564h-5.347l-1.557-3.813h-8.689l-1.6,3.813h-5.155l8.424-18.564H153.774z
				 M147.869,148.994h6.044l-2.979-7.305L147.869,148.994"/>
		</g>
		<g>
			<polygon fill="#0A74BB" points="176.565,146.4 184.232,156.008 178.246,156.008 173.765,149.682 169.024,156.008 
				163.296,156.008 170.884,146.551 163.663,137.443 169.554,137.443 173.765,143.492 178.085,137.443 183.785,137.443 			"/>
		</g>
		<g>
			<path fill="#0A74BB" d="M137.316,129.509l6.893,6.897l-2.448,2.45l-2.239-2.25v0.835v13.188c0,1.577,0.253,6.357-8.496,6.357
				c-9.963,0-9.662-5.2-9.662-7.381v-0.429h5.235v0.429c0.04,1.438,0.221,3.643,4.427,3.643c4.146,0,4.09-2.344,4.09-3.242v-12.565
				v-0.845l-2.25,2.248l-2.438-2.438L137.316,129.509z"/>
		</g>
		<g>
			<path fill="#0A74BB" d="M130.23,120.136c9.963,0,9.665,5.198,9.665,7.381v0.429h-5.239v-0.429c-0.04-1.437-0.224-3.64-4.426-3.64
				c-4.15,0-4.09,2.34-4.09,3.239v12.567v0.846l2.248-2.246l2.44,2.438l-6.893,6.896l-6.888-6.896l2.449-2.452l2.238,2.249v-0.836
				v-13.188C121.734,124.917,121.481,120.136,130.23,120.136z"/>
		</g>
		<g>
			<g enable-background="new    ">
				<g>
					<defs>
						<path id="SVGID_14_" d="M126.141,127.442v-0.405c0-0.95,0.056-3.16,4.09-3.16c4.202,0,4.386,2.203,4.426,3.64v0.407
							c-0.04-1.438-0.224-3.641-4.426-3.641C126.197,124.282,126.141,126.493,126.141,127.442z"/>
					</defs>
					<clipPath id="SVGID_15_">
						<use xlink:href="#SVGID_14_"  overflow="visible"/>
					</clipPath>
					<g clip-path="url(#SVGID_15_)" enable-background="new    ">
						<path fill="#044977" d="M134.657,127.517v0.406c-0.04-1.438-0.224-3.641-4.426-3.641c-2.334,0-3.337,0.741-3.768,1.548v-0.404
							c0.43-0.809,1.433-1.549,3.768-1.549C134.433,123.877,134.617,126.08,134.657,127.517"/>
						<path fill="#054B7A" d="M126.463,125.426v0.404c-0.076,0.144-0.134,0.291-0.179,0.435v-0.406
							C126.328,125.716,126.387,125.57,126.463,125.426"/>
						<path fill="#074D7D" d="M126.284,125.859v0.406c-0.05,0.165-0.083,0.327-0.104,0.48v-0.404
							C126.201,126.188,126.233,126.025,126.284,125.859"/>
						<path fill="#084F80" d="M126.179,126.342v0.404c-0.036,0.265-0.039,0.505-0.039,0.696v-0.405
							C126.141,126.847,126.143,126.606,126.179,126.342"/>
					</g>
				</g>
			</g>
			<g>
				<rect x="134.657" y="127.945" fill="#024774" width="5.239" height="0.406"/>
			</g>
			<g>
				<polygon fill="#024774" points="130.828,140.722 130.828,141.125 123.935,148.023 123.935,147.617 				"/>
			</g>
			<g>
				<polygon fill="#024774" points="123.935,147.617 123.935,148.023 117.047,141.125 117.047,140.722 				"/>
			</g>
		</g>
		<g>
			<g enable-background="new    ">
				<g>
					<path id="SVGID_16_" fill="#FFFFFF" d="M126.141,127.179v-0.404c0-0.951,0.056-3.161,4.09-3.161
						c4.202,0,4.386,2.202,4.426,3.64v0.406c-0.04-1.438-0.224-3.641-4.426-3.641C126.197,124.019,126.141,126.229,126.141,127.179z
						"/>
				</g>
				<g>
					<defs>
						<path id="SVGID_17_" d="M126.141,127.179v-0.404c0-0.951,0.056-3.161,4.09-3.161c4.202,0,4.386,2.202,4.426,3.64v0.406
							c-0.04-1.438-0.224-3.641-4.426-3.641C126.197,124.019,126.141,126.229,126.141,127.179z"/>
					</defs>
					<clipPath id="SVGID_19_">
						<use xlink:href="#SVGID_17_"  overflow="visible"/>
					</clipPath>
					<g clip-path="url(#SVGID_19_)" enable-background="new    ">
						<path fill="#FFFFFF" d="M134.657,127.254v0.406c-0.04-1.438-0.224-3.641-4.426-3.641c-2.334,0-3.337,0.741-3.768,1.549v-0.406
							c0.43-0.808,1.433-1.548,3.768-1.548C134.433,123.614,134.617,125.816,134.657,127.254"/>
						<path fill="#FFFFFF" d="M126.463,125.163v0.405c-0.076,0.144-0.134,0.289-0.179,0.435v-0.405
							C126.328,125.452,126.387,125.307,126.463,125.163"/>
						<path fill="#FFFFFF" d="M126.284,125.598v0.405c-0.05,0.164-0.083,0.326-0.104,0.48v-0.405
							C126.201,125.924,126.233,125.762,126.284,125.598"/>
						<path fill="#FFFFFF" d="M126.179,126.078v0.405c-0.036,0.264-0.039,0.505-0.039,0.696v-0.405
							C126.141,126.583,126.143,126.342,126.179,126.078"/>
					</g>
				</g>
			</g>
			<g>
				<rect x="134.657" y="127.683" fill="#FFFFFF" width="5.239" height="0.406"/>
			</g>
			<g>
				<polygon fill="#FFFFFF" points="130.828,140.457 130.828,140.863 123.935,147.76 123.935,147.354 				"/>
			</g>
			<g>
				<polygon fill="#FFFFFF" points="123.935,147.354 123.935,147.76 117.047,140.863 117.047,140.457 				"/>
			</g>
		</g>
		<g>
			<g>
				<polygon fill="#FFFFFF" points="135.115,136.334 135.115,136.74 132.866,138.986 132.866,138.58 				"/>
			</g>
			<g>
				<polygon fill="#FFFFFF" points="132.866,138.58 132.866,138.986 130.427,136.549 130.427,136.143 				"/>
			</g>
			<g>
				<polygon fill="#FFFFFF" points="141.761,138.593 141.761,139 139.521,136.75 139.521,136.344 				"/>
			</g>
			<g>
				<polygon fill="#FFFFFF" points="144.209,136.143 144.209,136.549 141.761,139 141.761,138.593 				"/>
			</g>
			<g enable-background="new    ">
				<g>
					<path id="SVGID_18_" fill="#FFFFFF" d="M139.523,150.653v0.403c0,1.802-0.227,6.073-8.498,6.073
						c-9.396,0-9.663-4.623-9.663-6.981v-0.406c0,2.359,0.267,6.983,9.663,6.983C139.295,156.726,139.523,152.451,139.523,150.653z"
						/>
				</g>
				<g>
					<defs>
						<path id="SVGID_20_" d="M139.523,150.653v0.403c0,1.802-0.227,6.073-8.498,6.073c-9.396,0-9.663-4.623-9.663-6.981v-0.406
							c0,2.359,0.267,6.983,9.663,6.983C139.295,156.726,139.523,152.451,139.523,150.653z"/>
					</defs>
					<clipPath id="SVGID_21_">
						<use xlink:href="#SVGID_20_"  overflow="visible"/>
					</clipPath>
					<g clip-path="url(#SVGID_21_)" enable-background="new    ">
						<path fill="#FFFFFF" d="M139.523,150.653v0.403c0,0.328-0.007,0.735-0.07,1.184v-0.403
							C139.515,151.387,139.523,150.979,139.523,150.653"/>
						<path fill="#FFFFFF" d="M139.453,151.837v0.403c-0.04,0.286-0.1,0.591-0.196,0.9v-0.405
							C139.353,152.426,139.413,152.123,139.453,151.837"/>
						<path fill="#FFFFFF" d="M139.256,152.735v0.405c-0.085,0.275-0.197,0.558-0.346,0.837v-0.404
							C139.059,153.294,139.171,153.013,139.256,152.735"/>
						<path fill="#FFFFFF" d="M138.91,153.573v0.404c-0.862,1.618-2.929,3.152-7.885,3.152c-9.396,0-9.663-4.623-9.663-6.981v-0.406
							c0,2.359,0.267,6.983,9.663,6.983C135.981,156.726,138.048,155.19,138.91,153.573"/>
					</g>
				</g>
			</g>
		</g>
	</g>
</g>
</svg>
