<?xml version="1.0" encoding="utf-8"?>
<!-- Generator: Adobe Illustrator 16.0.0, SVG Export Plug-In . SVG Version: 6.00 Build 0)  -->
<!DOCTYPE svg PUBLIC "-//W3C//DTD SVG 1.1//EN" "http://www.w3.org/Graphics/SVG/1.1/DTD/svg11.dtd">
<svg version="1.1" id="Calque_1" xmlns="http://www.w3.org/2000/svg" xmlns:xlink="http://www.w3.org/1999/xlink" x="0px" y="0px"
	 width="100px" height="101px" viewBox="0 0 100 101" enable-background="new 0 0 100 101" xml:space="preserve">
<path fill="#673AB7" d="M87.5,77.777c0,5.754-4.662,10.417-10.416,10.417H22.917c-5.752,0-10.417-4.663-10.417-10.417V23.611
	c0-5.754,4.665-10.417,10.417-10.417h54.167c5.754,0,10.416,4.662,10.416,10.417V77.777z"/>
<path fill="#FFFFFF" d="M68.813,54.027c-1.354-1.875-3.313-3.167-5.834-3.854c0,0,2.125-0.771,4.043-3.646
	c1.145-1.833,1.729-4.042,1.729-6.625c0-4.479-1.625-7.917-4.875-10.271c-3.25-2.354-6.916-3.938-13.146-3.938H31.25v50h21.729
	c5.896-0.042,10.334-1.313,13.355-3.75c3-2.479,4.5-6.146,4.5-11.042C70.834,58.194,70.166,55.902,68.813,54.027z M43.75,34.027
	c0,0,8.688,0,8.854,0c3.168,0,5.73,2.563,5.73,5.729c0,3.167-2.563,5.729-5.73,5.729c-0.166,0-8.854,0-8.854,0V34.027z
	 M54.166,67.361H43.75v-12.5h10.416c3.459,0,6.25,2.791,6.25,6.25C60.416,64.569,57.625,67.361,54.166,67.361z"/>
</svg>
