<?xml version="1.0" encoding="utf-8"?>
<!-- Generator: Adobe Illustrator 16.0.0, SVG Export Plug-In . SVG Version: 6.00 Build 0)  -->
<!DOCTYPE svg PUBLIC "-//W3C//DTD SVG 1.1//EN" "http://www.w3.org/Graphics/SVG/1.1/DTD/svg11.dtd">
<svg version="1.1" id="Calque_1" xmlns="http://www.w3.org/2000/svg" xmlns:xlink="http://www.w3.org/1999/xlink" x="0px" y="0px"
	 width="100px" height="101px" viewBox="0 0 100 101" enable-background="new 0 0 100 101" xml:space="preserve">
<path fill="#0277BD" d="M85.416,11.111H14.583l6.25,70.833L50,90.277l29.166-8.333L85.416,11.111z"/>
<path fill="#039BE5" d="M50,17.361v66.458l23.334-6.667l5.207-59.792H50z"/>
<path fill="#FFFFFF" d="M68.959,27.777H50v8.333h10.209l-0.625,8.333H50v8.333h9.166l-0.625,9.375L50,65.069v8.75l16.459-5.417
	l1.457-23.958L68.959,27.777z"/>
<path fill="#EEEEEE" d="M50,27.777v8.333H31.458l-0.625-8.333H50z M40.417,44.444l0.417,8.333H50v-8.333H40.417z M41.25,56.944
	h-8.333l0.625,11.458L50,73.819v-8.75l-8.542-2.917L41.25,56.944z"/>
</svg>
