<?xml version="1.0" encoding="utf-8"?>
<!-- Generator: Adobe Illustrator 16.0.0, SVG Export Plug-In . SVG Version: 6.00 Build 0)  -->
<!DOCTYPE svg PUBLIC "-//W3C//DTD SVG 1.1//EN" "http://www.w3.org/Graphics/SVG/1.1/DTD/svg11.dtd">
<svg version="1.1" id="Calque_1" xmlns="http://www.w3.org/2000/svg" xmlns:xlink="http://www.w3.org/1999/xlink" x="0px" y="0px"
	 width="100px" height="100px" viewBox="0 0 100 100" enable-background="new 0 0 100 100" xml:space="preserve">
<g>
	<path fill="#2C2255" d="M33.188,59.662H21.721c1.518,5.208,4.336,9.878,8.461,14.002c6.576,6.578,14.483,9.861,23.731,9.861
		c1.849,0,3.64-0.138,5.38-0.4c6.965-1.051,13.063-4.2,18.288-9.461c4.15-4.124,6.989-8.794,8.519-14.002H33.188L33.188,59.662z
		 M26.865,44.087h-5.991c-0.224,1.336-0.369,2.685-0.436,4.038h66.952c-0.068-1.377-0.218-2.722-0.438-4.038 M20.438,51.875
		c0.068,1.379,0.216,2.723,0.436,4.038h66.078c0.226-1.337,0.374-2.685,0.441-4.038 M86.102,40.336
		c-1.528-5.223-4.367-9.913-8.521-14.068c-5.211-5.21-11.293-8.337-18.235-9.39c-1.797-0.271-3.613-0.407-5.432-0.406
		c-9.248,0-17.157,3.267-23.731,9.795c-4.127,4.155-6.946,8.845-8.463,14.068"/>
	<path fill="#F7941E" d="M18.447,50.001c0-17.687,13.283-32.382,30.564-34.968C48.583,15.017,48.151,15,47.717,15
		c-19.392,0-35.113,15.67-35.113,35c0,19.331,15.721,35,35.113,35c0.436,0,0.866-0.018,1.296-0.032
		C31.73,82.384,18.447,67.688,18.447,50.001L18.447,50.001z"/>
	<g>
		
			<linearGradient id="SVGID_1_" gradientUnits="userSpaceOnUse" x1="-699.6748" y1="-1133.2612" x2="-699.6748" y2="-1133.6394" gradientTransform="matrix(1518.0859 0 0 134.5215 1062220.125 152536.4063)">
			<stop  offset="0.3033" style="stop-color:#473788"/>
			<stop  offset="0.872" style="stop-color:#2C2255"/>
		</linearGradient>
		<path fill="url(#SVGID_1_)" d="M76.699,48.124c-0.11-1.365-0.343-2.715-0.692-4.038H31.823c-0.353,1.322-0.584,2.673-0.694,4.038
			H76.699z"/>
		
			<linearGradient id="SVGID_2_" gradientUnits="userSpaceOnUse" x1="-699.6743" y1="-1135.1938" x2="-699.6743" y2="-1135.5659" gradientTransform="matrix(1518.0664 0 0 134.5313 1062206.5 152806.875)">
			<stop  offset="0.3033" style="stop-color:#473788"/>
			<stop  offset="0.872" style="stop-color:#2C2255"/>
		</linearGradient>
		<path fill="url(#SVGID_2_)" d="M76.699,51.875H31.131c0.109,1.364,0.34,2.715,0.692,4.038h44.184
			C76.356,54.59,76.59,53.239,76.699,51.875z"/>
		
			<linearGradient id="SVGID_3_" gradientUnits="userSpaceOnUse" x1="-699.7905" y1="-1126.6235" x2="-699.7905" y2="-1126.7391" gradientTransform="matrix(1380.9766 0 0 439.9219 966448.75 495714.75)">
			<stop  offset="0.3033" style="stop-color:#473788"/>
			<stop  offset="0.8631" style="stop-color:#2C2255"/>
		</linearGradient>
		<path fill="url(#SVGID_3_)" d="M53.914,72.868c9.176,0,17.085-5.406,20.728-13.205H33.188
			C36.83,67.462,44.74,72.868,53.914,72.868z"/>
	</g>
	<g>
		<path fill="#FFFFFF" d="M27.754,51.875h59.593c0.03-0.597,0.05-1.196,0.05-1.802c0-0.654-0.024-1.302-0.062-1.948H20.439
			c-0.037,0.644-0.062,1.294-0.062,1.948c0,0.605,0.017,1.205,0.049,1.802H27.754z M33.055,40.336H21.718
			c-0.373,1.222-0.612,2.475-0.844,3.751H86.74c-0.228-1.267-0.528-2.519-0.902-3.751 M82.434,55.912h-61.56
			c0.224,1.275,0.48,2.527,0.846,3.751h64.337c0.369-1.231,0.664-2.483,0.887-3.751H82.434z"/>
	</g>
</g>
</svg>
