<?xml version="1.0" encoding="utf-8"?>
<!-- Generator: Adobe Illustrator 16.0.0, SVG Export Plug-In . SVG Version: 6.00 Build 0)  -->
<!DOCTYPE svg PUBLIC "-//W3C//DTD SVG 1.1//EN" "http://www.w3.org/Graphics/SVG/1.1/DTD/svg11.dtd">
<svg version="1.1" id="Calque_1" xmlns="http://www.w3.org/2000/svg" xmlns:xlink="http://www.w3.org/1999/xlink" x="0px" y="0px"
	 width="100px" height="101px" viewBox="0 0 100 101" enable-background="new 0 0 100 101" xml:space="preserve">
<path fill="#F0F0F0" d="M35.833,22.674l-23.75,23.958c-1.042,1.042-1.667,2.5-1.667,3.958c0,1.459,0.625,2.917,1.667,3.959
	l33.958,33.958c1.042,1.042,2.5,1.667,3.958,1.667c1.459,0,2.916-0.625,3.959-1.667l33.957-33.958
	c1.043-1.042,1.668-2.5,1.668-3.959c0.001-1.458-0.624-2.917-1.667-3.958L53.959,12.673c-1.043-1.042-2.5-1.667-3.959-1.667
	c-1.458,0-2.917,0.625-3.958,1.667l-7.292,7.292L35.833,22.674z"/>
<path fill="#F4511E" d="M87.916,46.632L53.959,12.673c-1.043-1.042-2.5-1.667-3.959-1.667c-1.458,0-2.917,0.625-3.958,1.667
	l-7.292,7.292l8.542,8.542c0.833-0.417,1.667-0.625,2.708-0.625c3.541,0,6.25,2.708,6.25,6.25c0,1.042-0.209,1.875-0.625,2.708
	l8.334,8.333c0.832-0.417,1.666-0.625,2.707-0.625c3.543,0,6.25,2.708,6.25,6.25s-2.707,6.25-6.25,6.25
	c-3.541,0-6.25-2.709-6.25-6.25c0-1.042,0.209-1.875,0.625-2.708l-8.332-8.333c-0.209,0-0.418,0.208-0.625,0.208v21.667
	c2.5,0.833,4.166,3.125,4.166,5.833c0,3.542-2.709,6.25-6.25,6.25c-3.542,0-6.25-2.708-6.25-6.25c0-2.708,1.667-5,4.167-5.833
	V39.757c-2.5-0.833-4.167-3.125-4.167-5.833c0-1.042,0.208-1.875,0.625-2.708l-8.542-8.542l-23.75,23.958
	c-1.042,1.042-1.667,2.5-1.667,3.958c0,1.459,0.625,2.917,1.667,3.959l33.958,33.958c1.042,1.042,2.5,1.667,3.958,1.667
	c1.459,0,2.916-0.625,3.959-1.667l33.957-33.958c1.043-1.042,1.668-2.5,1.668-3.959C89.584,49.132,88.959,47.673,87.916,46.632z"/>
</svg>
