<?xml version="1.0" encoding="utf-8"?>
<!-- Generator: Adobe Illustrator 16.0.0, SVG Export Plug-In . SVG Version: 6.00 Build 0)  -->
<!DOCTYPE svg PUBLIC "-//W3C//DTD SVG 1.1//EN" "http://www.w3.org/Graphics/SVG/1.1/DTD/svg11.dtd">
<svg version="1.1" id="Calque_1" xmlns="http://www.w3.org/2000/svg" xmlns:xlink="http://www.w3.org/1999/xlink" x="0px" y="0px"
	 width="100px" height="101px" viewBox="0 0 100 101" enable-background="new 0 0 100 101" xml:space="preserve">
<ellipse fill="#F2F2F2" cx="50" cy="51.175" rx="37.5" ry="37"/>
<path d="M50,13.175c-20.709,0-37.5,16.827-37.5,37.578c0,17.609,12.102,32.341,28.413,36.422c-0.175-0.508-0.288-1.097-0.288-1.826
	v-6.425c-1.521,0-4.072,0-4.712,0c-2.565,0-4.848-1.105-5.955-3.159c-1.227-2.282-1.438-5.773-4.483-7.909
	c-0.904-0.709-0.215-1.521,0.824-1.413c1.923,0.546,3.516,1.867,5.016,3.826c1.493,1.961,2.197,2.406,4.988,2.406
	c1.353,0,3.378-0.077,5.285-0.374c1.025-2.611,2.795-5.012,4.961-6.148c-12.487-1.284-18.445-7.509-18.445-15.961
	c0-3.638,1.547-7.159,4.175-10.125c-0.864-2.941-1.948-8.945,0.332-11.231c5.617,0,9.016,3.65,9.829,4.637
	c2.801-0.961,5.876-1.507,9.108-1.507c3.238,0,6.325,0.544,9.13,1.513c0.807-0.979,4.208-4.643,9.838-4.643
	c2.289,2.288,1.193,8.316,0.32,11.253c2.611,2.958,4.148,6.472,4.148,10.103c0,8.447-5.951,14.667-18.42,15.959
	c3.434,1.797,5.936,6.837,5.936,10.634v8.564c0,0.323-0.072,0.559-0.107,0.836C77.001,81.054,87.5,67.151,87.5,50.753
	C87.5,30.002,70.708,13.175,50,13.175z"/>
</svg>
