<?xml version="1.0" encoding="utf-8"?>
<!-- Generator: Adobe Illustrator 16.0.0, SVG Export Plug-In . SVG Version: 6.00 Build 0)  -->
<!DOCTYPE svg PUBLIC "-//W3C//DTD SVG 1.1//EN" "http://www.w3.org/Graphics/SVG/1.1/DTD/svg11.dtd">
<svg version="1.1" id="Calque_1" xmlns="http://www.w3.org/2000/svg" xmlns:xlink="http://www.w3.org/1999/xlink" x="0px" y="0px"
	 width="100px" height="101px" viewBox="0 0 100 101" enable-background="new 0 0 100 101" xml:space="preserve">
<path d="M50,13.252c-20.709,0-37.5,16.792-37.5,37.5c0,17.572,12.102,32.273,28.413,36.346c-0.175-0.507-0.288-1.095-0.288-1.822
	v-6.412c-1.521,0-4.072,0-4.712,0c-2.565,0-4.848-1.103-5.955-3.153c-1.227-2.278-1.438-5.761-4.483-7.893
	c-0.904-0.707-0.215-1.517,0.824-1.41c1.923,0.545,3.516,1.863,5.016,3.819c1.493,1.957,2.197,2.401,4.988,2.401
	c1.353,0,3.378-0.077,5.285-0.373c1.025-2.606,2.795-5.002,4.961-6.136c-12.487-1.281-18.445-7.493-18.445-15.928
	c0-3.631,1.547-7.144,4.175-10.104c-0.864-2.935-1.948-8.927,0.332-11.208c5.617,0,9.016,3.643,9.829,4.627
	c2.801-0.959,5.876-1.504,9.108-1.504c3.238,0,6.325,0.543,9.13,1.51c0.806-0.977,4.208-4.633,9.838-4.633
	c2.289,2.283,1.193,8.299,0.32,11.23c2.611,2.952,4.149,6.458,4.149,10.082c0,8.429-5.952,14.637-18.42,15.926
	c3.433,1.793,5.935,6.822,5.935,10.611v8.547c0,0.322-0.072,0.558-0.107,0.835C77.001,80.989,87.5,67.116,87.5,50.752
	C87.5,30.044,70.708,13.252,50,13.252z"/>
</svg>
