<?xml version="1.0" encoding="utf-8"?>
<!-- Generator: Adobe Illustrator 16.0.0, SVG Export Plug-In . SVG Version: 6.00 Build 0)  -->
<!DOCTYPE svg PUBLIC "-//W3C//DTD SVG 1.1//EN" "http://www.w3.org/Graphics/SVG/1.1/DTD/svg11.dtd">
<svg version="1.1" id="Calque_1" xmlns="http://www.w3.org/2000/svg" xmlns:xlink="http://www.w3.org/1999/xlink" x="0px" y="0px"
	 width="100px" height="101px" viewBox="0 0 100 101" enable-background="new 0 0 100 101" xml:space="preserve">
<path fill="#E65100" d="M85.416,11.111H14.583l6.25,70.833L50,90.277l29.166-8.333L85.416,11.111z"/>
<path fill="#FF6D00" d="M50,17.361v66.458l23.334-6.667l5.207-59.792H50z"/>
<path fill="#FFFFFF" d="M50,52.777v-8.333h17.916l-1.457,23.958L50,73.819v-8.75l8.541-2.917l0.625-9.375H50z M68.541,36.111
	l0.625-8.333H50v8.333H68.541z"/>
<path fill="#EEEEEE" d="M50,65.069v8.75l-16.458-5.417l-0.833-11.458h8.333l0.417,5.208L50,65.069z M39.792,36.111H50v-8.333H31.042
	l1.458,25H50v-8.333h-9.583L39.792,36.111z"/>
</svg>
