<?xml version="1.0" encoding="utf-8"?>
<!-- Generator: Adobe Illustrator 16.0.0, SVG Export Plug-In . SVG Version: 6.00 Build 0)  -->
<!DOCTYPE svg PUBLIC "-//W3C//DTD SVG 1.1//EN" "http://www.w3.org/Graphics/SVG/1.1/DTD/svg11.dtd">
<svg version="1.1" id="Calque_1" xmlns="http://www.w3.org/2000/svg" xmlns:xlink="http://www.w3.org/1999/xlink" x="0px" y="0px"
	 width="100px" height="101px" viewBox="0 0 100 101" enable-background="new 0 0 100 101" xml:space="preserve">
<path fill="#FFD600" d="M12.5,88.194v-75h75v75H12.5z"/>
<path fill="#000001" d="M61.537,69.334c1.441,2.342,3.009,4.585,6.328,4.585c2.787,0,4.25-1.386,4.25-3.302
	c0-2.294-1.514-3.108-4.58-4.443l-1.682-0.717c-4.852-2.059-8.078-4.638-8.078-10.086c0-5.021,3.844-8.842,9.85-8.842
	c4.277,0,7.35,1.481,9.566,5.36l-5.237,3.349c-1.151-2.059-2.397-2.869-4.329-2.869c-1.971,0-3.219,1.244-3.219,2.869
	c0,2.008,1.25,2.82,4.135,4.064l1.682,0.717c5.719,2.436,8.943,4.922,8.943,10.514c0,6.025-4.758,9.328-11.145,9.328
	c-6.248,0-9.797-3.137-11.771-7.018L61.537,69.334z M37.4,69.504c1.054,1.889,2.656,3.34,4.96,3.34c2.204,0,3.473-0.871,3.473-4.256
	V46.527h6.944v23.127c0,7.015-4.069,10.207-10.011,10.207c-5.369,0-9.244-3.639-10.823-7.018L37.4,69.504z"/>
</svg>
