<?xml version="1.0" encoding="utf-8"?>
<!-- Generator: Adobe Illustrator 16.0.0, SVG Export Plug-In . SVG Version: 6.00 Build 0)  -->
<!DOCTYPE svg PUBLIC "-//W3C//DTD SVG 1.1//EN" "http://www.w3.org/Graphics/SVG/1.1/DTD/svg11.dtd">
<svg version="1.1" id="Calque_1" xmlns="http://www.w3.org/2000/svg" xmlns:xlink="http://www.w3.org/1999/xlink" x="0px" y="0px"
	 width="100px" height="100px" viewBox="0 0.5 100 100" enable-background="new 0 0.5 100 100" xml:space="preserve">
<path fill="#F44336" d="M49.271,52.564c-2.079-3.353-3.588-6.131-5.677-11.364c-3.533-8.84,21.49-16.827,11.344-32.175
	c4.398,10.602-15.785,17.156-17.66,25.985C35.563,43.132,49.26,52.564,49.271,52.564z"/>
<path fill="#F44336" d="M49.746,36.673c-0.4,5.242,4.645,8.036,4.79,11.865c0.116,3.116-3.015,5.714-3.015,5.714
	s5.684-1.116,7.455-5.87c1.969-5.279-3.819-8.894-3.225-13.121c0.557-4.037,12.564-11.548,12.564-11.548
	S50.648,24.884,49.746,36.673z"/>
<path fill="#1565C0" d="M66.842,52.893c3.654-0.82,6.735,1.506,6.735,4.188c0,6.043-8.377,11.756-8.377,11.756
	s12.969-1.546,12.969-11.469C78.169,50.805,71.8,49.165,66.842,52.893z M60.686,57.768c0,0,4.043-2.882,5.121-3.963
	c-9.924,2.106-32.58,2.391-32.58,0.562c0-1.687,7.306-3.413,7.306-3.413S24.34,50.719,24.34,55.496
	C24.34,60.477,45.538,60.832,60.686,57.768z"/>
<path fill="#1565C0" d="M58.197,62.301c-9.393,3.123-26.695,2.125-21.57-2.068c-2.496,0-6.196,2.007-6.196,3.936
	c0,3.869,18.712,6.855,32.563,1.191L58.197,62.301z"/>
<path fill="#1565C0" d="M38.929,68.9c-3.408,0-5.615,2.194-5.615,3.795c0,4.981,20.334,5.484,28.39,0.428l-5.12-3.398
	C50.564,72.369,35.446,72.734,38.929,68.9z"/>
<path fill="#1565C0" d="M75.586,77.011c0-1.95-2.197-2.868-2.986-3.308c4.644,11.193-46.493,10.324-46.493,3.716
	c0-1.502,3.764-2.974,7.244-2.276l-2.958-1.748c-6.933-1.088-11.642,1.961-11.642,4.418C18.75,89.277,75.586,88.727,75.586,77.011z"
	/>
<path fill="#1565C0" d="M81.25,81.119c-8.639,8.531-30.539,11.64-52.564,6.369C50.711,96.869,81.146,91.586,81.25,81.119z"/>
</svg>
