<?xml version="1.0" encoding="utf-8"?>
<!-- Generator: Adobe Illustrator 16.0.0, SVG Export Plug-In . SVG Version: 6.00 Build 0)  -->
<!DOCTYPE svg PUBLIC "-//W3C//DTD SVG 1.1//EN" "http://www.w3.org/Graphics/SVG/1.1/DTD/svg11.dtd">
<svg version="1.1" id="Calque_1" xmlns="http://www.w3.org/2000/svg" xmlns:xlink="http://www.w3.org/1999/xlink" x="0px" y="0px"
	 width="100px" height="100px" viewBox="0 -3 100 100" enable-background="new 0 -3 100 100" xml:space="preserve">
<g transform="matrix(.945094 0 0 .945094 6.301403 4.347014)">
	<path fill="#0868AC" d="M23.063,17.262c-4.72,6.909-4.133,15.896-0.536,23.227l0.266,0.522l0.177,0.332
		c0.032,0.063,0.071,0.128,0.107,0.189c0.06,0.115,0.124,0.23,0.177,0.344l0.346,0.601l0.196,0.332l0.399,0.635l0.178,0.267
		c0.179,0.286,0.381,0.57,0.579,0.85c0.005,0.008,0.012,0.017,0.017,0.025c0.031,0.041,0.065,0.085,0.088,0.131
		c0.171,0.241,0.359,0.478,0.535,0.716l0.199,0.256l0.486,0.612l0.188,0.229c0.219,0.26,0.446,0.527,0.679,0.787l0.012,0.016
		c0.009,0.012,0.019,0.016,0.029,0.024c0.222,0.253,0.452,0.501,0.69,0.744l0.219,0.224l0.551,0.555l0.227,0.218
		c0.249,0.237,0.498,0.469,0.753,0.696l0.145,0.129l0.685,0.584l0.283,0.228l0.571,0.452l0.307,0.238l0.872,0.638
		c0.023,0.019,0.042,0.035,0.063,0.043c0.205,0.151,0.413,0.284,0.623,0.422l0.27,0.186l0.975,0.603l0.27,0.156l0.732,0.415
		c0.135,0.071,0.274,0.149,0.405,0.219l0.523,0.261l0.12,0.066l0.216,0.099l0.829,0.391l0.177,0.089
		c0.32,0.148,0.643,0.283,0.969,0.409l0.236,0.097l0.913,0.349l0.117,0.035c0.334,0.124,0.676,0.231,1.015,0.341l0.246,0.074
		c0.356,0.108,0.693,0.236,1.052,0.304c22.82,4.253,29.454-13.958,29.454-13.958c-5.568,7.389-15.45,9.339-24.814,7.172
		c-0.355-0.091-0.701-0.196-1.046-0.306l-0.263-0.09c-0.335-0.098-0.673-0.215-1.006-0.327l-0.136-0.057
		c-0.299-0.102-0.593-0.217-0.887-0.337l-0.251-0.093c-0.321-0.133-0.64-0.267-0.956-0.407l-0.191-0.085l-0.807-0.389l-0.236-0.112
		c-0.207-0.107-0.415-0.214-0.623-0.324l-0.418-0.221c-0.253-0.145-0.499-0.285-0.747-0.432l-0.254-0.141
		c-0.33-0.2-0.655-0.403-0.977-0.613c-0.089-0.056-0.172-0.116-0.261-0.176l-0.695-0.469l-0.222-0.161l-0.658-0.482l-0.292-0.226
		l-0.592-0.47l-0.267-0.215l-0.734-0.623c-0.028-0.025-0.055-0.045-0.09-0.072c-0.265-0.234-0.52-0.475-0.776-0.718l-0.219-0.211
		l-0.558-0.559l-0.215-0.222c-0.235-0.241-0.462-0.487-0.684-0.737c-0.012-0.012-0.026-0.022-0.035-0.035
		c-0.237-0.261-0.468-0.532-0.692-0.803l-0.184-0.221l-0.498-0.627l-0.186-0.231l-0.576-0.784
		c-5.199-7.223-7.056-17.182-2.91-25.364 M37.713,11.442c-3.412,5.004-3.225,11.698-0.564,16.987c0.444,0.889,0.95,1.746,1.51,2.569
		c0.509,0.743,1.077,1.633,1.756,2.23c0.245,0.271,0.504,0.537,0.766,0.81c0.068,0.07,0.134,0.136,0.202,0.203
		c0.256,0.254,0.519,0.502,0.784,0.742c0.012,0.01,0.021,0.018,0.031,0.027c0.302,0.266,0.608,0.526,0.92,0.779l0.208,0.165
		c0.313,0.246,0.634,0.483,0.958,0.71c0.007,0.008,0.016,0.015,0.027,0.023c0.141,0.099,0.291,0.196,0.435,0.289
		c0.069,0.048,0.137,0.098,0.206,0.142c0.232,0.152,0.467,0.298,0.706,0.442l0.102,0.057l0.624,0.36
		c0.077,0.041,0.151,0.08,0.226,0.119l0.447,0.229c0.026,0.013,0.039,0.018,0.064,0.03c0.301,0.151,0.611,0.297,0.917,0.432
		c0.066,0.033,0.132,0.058,0.198,0.085c0.248,0.111,0.499,0.212,0.753,0.313l0.319,0.12c0.225,0.082,0.456,0.163,0.684,0.243
		l0.316,0.099c0.322,0.104,0.647,0.235,0.99,0.294c17.626,2.972,21.691-10.846,21.691-10.846
		c-3.664,5.377-10.765,7.947-18.343,5.941c-0.337-0.086-0.672-0.187-1.001-0.292c-0.101-0.033-0.194-0.068-0.297-0.091
		c-0.234-0.076-0.467-0.159-0.703-0.245l-0.316-0.12c-0.248-0.09-0.496-0.201-0.744-0.306c-0.068-0.032-0.143-0.058-0.209-0.088
		c-0.308-0.138-0.614-0.281-0.913-0.434c-0.155-0.08-0.316-0.16-0.467-0.241l-0.259-0.14c-0.203-0.106-0.396-0.221-0.587-0.336
		l-0.136-0.088c-0.238-0.143-0.476-0.287-0.713-0.441c-0.069-0.044-0.14-0.087-0.209-0.144l-0.456-0.306
		c-0.321-0.231-0.641-0.468-0.954-0.712l-0.215-0.171c-3.314-2.666-5.946-6.313-7.195-10.445c-1.313-4.29-1.03-9.101,1.25-13.006
		 M50.034,7.094c-2.011,3.015-2.213,6.759-0.804,10.089c1.476,3.537,4.487,6.31,8.012,7.623c0.145,0.057,0.287,0.107,0.444,0.155
		l0.196,0.064c0.203,0.065,0.407,0.142,0.625,0.183c9.725,1.915,12.362-5.086,13.071-6.116c-2.317,3.391-6.198,4.206-10.964,3.027
		c-0.38-0.094-0.795-0.231-1.165-0.363c-0.465-0.169-0.923-0.362-1.37-0.581c-0.843-0.414-1.649-0.915-2.396-1.493
		c-4.279-3.297-6.925-9.583-4.147-14.704"/>
	<g>
		<path fill="#131B28" d="M28.544,71.116l-0.659,2.335L28.544,71.116L28.544,71.116z M31.937,76.188l-0.726-0.004L31.937,76.188z
			 M31.756,79.674l-4.352,0.017L31.756,79.674z M32.67,76.192l-0.727-0.002L32.67,76.192z M32.149,79.379l0.76-2.891L32.149,79.379z
			 M48.165,66.059l-1.409,6.644L48.165,66.059z M44.533,66.059l-1.071,4.966L44.533,66.059z"/>
		<path fill="#131B28" d="M47.915,65.762h-3.02c-0.169,0-0.331,0.13-0.37,0.297l-2.141,9.924c-0.037,0.164-0.202,0.302-0.369,0.302
			h-2.138c-2.117,0-1.872-1.46-1.432-3.466l0.015-0.066l0.258-1.366l0.109-0.562l0.976-4.766c0.034-0.165-0.076-0.297-0.244-0.297
			H36.46c-0.178,0.006-0.327,0.128-0.369,0.297l-1.398,6.622c-0.769,3.511-0.565,6.849,3.61,6.956l0.121,0.002h6.547
			c0.168,0,0.334-0.132,0.37-0.298l2.824-13.284c0.039-0.165-0.073-0.296-0.242-0.296H47.915L47.915,65.762z M59.968,76.314
			c0.167,0,0.26,0.134,0.244,0.298l-0.3,1.438 M59.623,79.484l0.289-1.434L59.623,79.484z M59.257,79.784l-5.565,0.029
			L59.257,79.784z"/>
		<path fill="#131B28" d="M51.885,74.47c-0.002-0.157,0.18-0.43,0.347-0.43l-0.384-0.006C51.677,75.745,51.885,74.47,51.885,74.47z
			 M53.962,79.813h-0.056H53.962z M59.968,76.314c0.167,0,0.26,0.134,0.244,0.298l-0.345,1.673 M55.39,79.817h-0.006H55.39z
			 M54.655,79.81h-0.047H54.655z M54.421,79.813h-0.07H54.421z M54.202,79.813h-0.058H54.202z M54.617,79.81h-0.186H54.617z"/>
		<path fill="#131B28" d="M55.384,79.817l-0.727,0.002L55.384,79.817L55.384,79.817z M59.257,79.792l-3.869,0.025L59.257,79.792z
			 M59.612,79.484l0.246-1.201l-0.246,1.203V79.484z M54.343,79.813h-0.141h0.161H54.343z M53.904,79.813h-0.213H53.904z
			 M54.134,79.813h-0.182H54.134z M9.948,74.508l0.471-2.085l-0.537,2.382l-0.063,0.297l0.13-0.593H9.948z M15.564,65.729h-3.318
			c-0.174,0.002-0.327,0.128-0.371,0.3l-0.629,2.763c-0.036,0.128,0.034,0.252,0.157,0.293c0.027,0.008,0.054,0.012,0.08,0.01h3.343
			c0.169,0,0.335-0.141,0.37-0.304l0.608-2.771c0.036-0.161-0.071-0.296-0.241-0.296L15.564,65.729z M14.843,70.343l-0.983,4.499
			L14.843,70.343z M5.207,85.258l2.736,0.025c-0.808,0-2.142-0.019-2.737-0.027L5.207,85.258z"/>
		<path fill="#131B28" d="M10.877,70.343l-0.469,2.079L10.877,70.343z M14.603,70.048H11.26c-0.177,0.008-0.328,0.124-0.374,0.296
			l-0.939,4.162l-0.129,0.595L8.926,79.35c-0.044,0.196-0.099,0.395-0.161,0.583c0,0-0.627,1.86-1.675,1.839l-1.04-0.019
			c-0.176,0.006-0.328,0.12-0.377,0.291L4.982,84.96c-0.038,0.118,0.032,0.252,0.155,0.285c0.025,0.007,0.051,0.011,0.079,0.009
			l2.736,0.027c2.623,0,4.005-1.455,4.892-5.634l2.011-9.294c0.036-0.163-0.075-0.294-0.242-0.294L14.603,70.048z M62.092,79.641
			c-0.169,0-0.262-0.132-0.24-0.298l2.515-11.779 M65.591,79.343l1.015-5.028L65.591,79.343z"/>
		<path fill="#131B28" d="M61.892,79.494c-0.023-0.083-0.01-0.287,0.025-0.453l1.198-5.588l-1.264,5.89
			c-0.031,0.165,0.072,0.298,0.243,0.298H62.4C62.233,79.641,61.912,79.575,61.892,79.494z M65.388,79.575
			c-0.087,0.031-0.302,0.066-0.469,0.066h0.304c0.176-0.006,0.324-0.13,0.37-0.298l0.058-0.304c-0.029,0.164-0.18,0.496-0.267,0.534
			h0.004V79.575z M66.099,76.83l0.447-2.224L66.099,76.83z M76.021,68.351l0.141,0.575c0.033,0.163-0.068,0.293-0.234,0.293"/>
		<path fill="#131B28" d="M65.649,79.04l0.451-2.209L65.649,79.04z M75.883,67.752l0.138,0.589L75.883,67.752z M66.548,74.607
			l0.124-0.589l0.479-2.246l-0.548,2.542l-0.057,0.291L66.548,74.607L66.548,74.607z M64.413,67.367l-0.107,0.492l-1.189,5.594
			l1.255-5.889l0.042-0.195v-0.002H64.413z"/>
		<path fill="#131B28" d="M76.164,68.926l-0.141-0.575l-0.207-0.893c-0.275-1.056-1.07-1.663-2.798-1.663l-7.967-0.005
			c-0.177,0.005-0.326,0.124-0.372,0.296l-0.12,0.585l-0.181,0.882l-2.457,11.478c-0.029,0.163-0.042,0.36-0.021,0.451
			c0.016,0.091,0.339,0.147,0.502,0.147h2.522c0.169,0,0.376-0.033,0.471-0.064c0.091-0.04,0.227-0.362,0.271-0.534l0.954-4.726
			l1.021-4.789c0.04-0.163,0.206-0.301,0.374-0.303l7.924-0.004c0.165,0,0.274-0.129,0.237-0.292L76.164,68.926z M86.362,63.749
			l-0.607,0.002h-2.542c-0.182,0.012-0.354,0.105-0.474,0.254l-5.608,8.217c-0.097,0.136-0.207,0.116-0.24-0.045l-0.415-1.809
			c-0.047-0.173-0.199-0.289-0.372-0.299h-3.609c-0.167,0-0.262,0.132-0.219,0.293l1.608,5.665c0.046,0.159,0.046,0.423,0.01,0.585
			l-0.715,2.74c-0.043,0.118,0.021,0.244,0.135,0.285c0.033,0.012,0.058,0.016,0.093,0.014h3.575c0.166,0,0.333-0.138,0.379-0.3
			l0.714-2.74c0.052-0.19,0.141-0.374,0.259-0.537l9.118-12.09c0.097-0.132,0.043-0.244-0.126-0.242l-0.955,0.007L86.362,63.749z
			 M57.713,70.837c-0.023,0.182-0.192,0.312-0.362,0.312H52.78c-0.157,0-0.238-0.103-0.215-0.242v-0.022l0.023-0.081
			c0.451-1.157,1.329-1.924,2.999-1.924c1.887,0,2.248,0.924,2.125,1.955h0.001V70.837z M56.366,65.563
			c-5.867,0-7.26,3.557-8.039,7.159c-0.777,3.66-0.711,7.093,5.365,7.093h0.963l0.737-0.004l3.867-0.025
			c0.173-0.008,0.322-0.128,0.365-0.294l0.591-2.876c0.029-0.164-0.076-0.298-0.245-0.298h-5.465c-2.172,0-2.818-0.579-2.581-2.275
			h8.73c0.142-0.002,0.276-0.091,0.322-0.223c0.009-0.027,0.021-0.044,0.025-0.073c1.296-4.884,0.921-8.181-4.631-8.181
			L56.366,65.563z M28.627,70.817l-0.083,0.299l-0.659,2.336l-0.657,2.335c-0.058,0.165-0.212,0.279-0.39,0.289h-3.489
			c-2.646,0-3.291-2.069-2.646-5.121c0.643-3.127,1.906-5.065,4.512-5.26c3.558-0.274,4.271,2.232,3.411,5.119v0.002H28.627z
			 M31.021,75.896c0,0,1.643-3.991,2.016-6.299c0.511-3.087-1.036-7.57-7.008-7.57c-5.936,0-8.514,4.276-9.5,8.938
			c-0.983,4.679,0.305,8.787,6.209,8.754l9.009-0.037c0.178-0.006,0.33-0.124,0.383-0.293l0.759-2.891
			c0.041-0.12-0.018-0.244-0.135-0.287c-0.032-0.007-0.062-0.011-0.091-0.009l-1.454-0.008c-0.144,0-0.225-0.093-0.208-0.219
			c0.004-0.019,0.01-0.04,0.02-0.065v-0.012H31.021z"/>
		<path fill="#131B28" d="M60.412,73.224c0,0.112-0.091,0.203-0.194,0.203c-0.116,0-0.205-0.091-0.205-0.203
			c0-0.11,0.089-0.198,0.205-0.198C60.321,73.026,60.412,73.115,60.412,73.224z"/>
	</g>
</g>
</svg>
