<?xml version="1.0" encoding="utf-8"?>
<!-- Generator: Adobe Illustrator 16.0.0, SVG Export Plug-In . SVG Version: 6.00 Build 0)  -->
<!DOCTYPE svg PUBLIC "-//W3C//DTD SVG 1.1//EN" "http://www.w3.org/Graphics/SVG/1.1/DTD/svg11.dtd">
<svg version="1.1" id="layer" xmlns="http://www.w3.org/2000/svg" xmlns:xlink="http://www.w3.org/1999/xlink" x="0px" y="0px"
	 width="100px" height="100px" viewBox="0 0 100 100" enable-background="new 0 0 100 100" xml:space="preserve">
<g>
	<path fill="#F96B13" d="M14.606,29.204v41.501L50.044,91.5V81.17l-26.58-15.586V34.426L14.606,29.204z"/>
	<path fill="#CC4E00" d="M76.539,34.426v41.505l8.854-5.226V29.204L76.539,34.426z"/>
	<path fill="#FFCA73" d="M41.187,13.634L76.54,34.426l8.854-5.222L50.045,8.5L41.187,13.634z"/>
	<path fill="#FFCA73" d="M14.606,29.204l8.857,5.222l8.866-5.222l-8.866-5.221L14.606,29.204z"/>
	<path fill="#CC4E00" d="M23.465,34.426v31.158l8.866-5.223V29.204L23.465,34.426z"/>
	<path fill="#CC4E00" d="M50.045,81.17V91.5l8.866-5.214V75.931L50.045,81.17z"/>
	<path fill="#FFCA73" d="M23.465,65.584l26.58,15.586l8.866-5.239l-26.58-15.568L23.465,65.584z"/>
	<path fill="#F96B13" d="M41.187,13.634v10.35l26.582,15.583v31.139l8.86,5.226V34.426L41.187,13.634z"/>
</g>
</svg>
