<?xml version="1.0" encoding="utf-8"?>
<!-- Generator: Adobe Illustrator 16.0.0, SVG Export Plug-In . SVG Version: 6.00 Build 0)  -->
<!DOCTYPE svg PUBLIC "-//W3C//DTD SVG 1.1//EN" "http://www.w3.org/Graphics/SVG/1.1/DTD/svg11.dtd">
<svg version="1.1" id="Calque_1" xmlns="http://www.w3.org/2000/svg" xmlns:xlink="http://www.w3.org/1999/xlink" x="0px" y="0px"
	 width="100px" height="101px" viewBox="0 0 100 101" enable-background="new 0 0 100 101" xml:space="preserve">
<path fill="#00796B" d="M7.003,69.618h3.094V58.199l4.298,9.762c0.53,1.217,1.255,1.648,2.678,1.648c1.423,0,2.12-0.432,2.649-1.648
	l4.299-9.512v11.169h3.094V57.921c0-1.123-0.447-1.668-1.369-1.948c-2.203-0.693-3.683-0.096-4.351,1.405l-4.408,9.928l-4.27-9.928
	c-0.642-1.499-2.146-2.099-4.352-1.405C7.446,56.253,7,56.797,7,57.92v11.697L7.003,69.618L7.003,69.618z"/>
<path fill="#00796B" d="M30,61.696h2.75v5.809c-0.021,0.286,0.091,1.047,1.418,1.067c0.676,0.012,4.041,0,4.083,0v-6.876h2.75
	c0.011,0,0,8.549,0,8.585c0.014,2.108-2.619,2.381-3.829,2.416h-7.171v-1.375c0.014,0,6.857,0.002,6.877,0
	c1.559-0.164,1.374-1.022,1.374-1.283v-0.092h-4.314c-2.393-0.021-3.918-1.076-3.935-2.277C30,67.559,30.054,61.748,30,61.696z"/>
<path fill="#F57F17" d="M48,68.326h7.027c0.921,0,1.815-0.192,2.526-0.525c1.185-0.544,1.672-1.279,1.672-2.246v-2
	c0-2.157-2.675-2.245-4.21-2.245h-2.807c-1.104,0-1.271-0.667-1.403-1.403v-1.403c0.132-0.562,0.377-1.315,1.349-1.403
	c1.131,0,7.07,0,7.07,0v-1.403h-6.676c-1.104,0-4.552,0.132-4.552,2.807v1.735c0,1.229,1.079,2.229,3.421,2.474
	c0.264,0.017,0.526,0.035,0.788,0.035c0,0,2.728-0.053,2.807-0.035c1.579,0,1.403,1.228,1.403,1.403v1.403
	c0,0.192-0.044,1.403-1.42,1.403c-0.104,0-7,0-7,0v1.404H48z"/>
<path fill="#F57F17" d="M62.97,65.377v-6.915c0-1.47,0.721-2.483,2.761-2.766h0.968h4.966h0.756
	c2.039,0.282,2.996,1.295,2.996,2.766v6.889c0,1.191-0.31,1.831-1.319,2.245l2.144,1.928h-3.111l-1.542-1.383h-1.811l-3.077,0.018
	c-0.445,0-0.914-0.063-1.43-0.203C63.722,67.533,62.97,66.721,62.97,65.377z M65.736,65.377c0.141,0.672,0.681,1.383,1.642,1.383
	h2.685l-1.538-1.383h3.134l0.747,0.693c0,0,0.269-0.219,0.269-0.693c0-0.476-0.023-6.915-0.023-6.915
	c-0.141-0.625-0.775-1.383-1.711-1.383h-3.561c-1.078,0-1.642,0.79-1.642,1.524L65.736,65.377z"/>
<path fill="#F57F17" d="M80,65.453c0,1.693,0.957,2.643,3.494,2.833c0.237,0.016,0.475,0.03,0.713,0.03h7.013v-1.402H84.74
	c-1.447,0-1.936-0.607-1.936-1.477v-9.743H80V65.453L80,65.453z"/>
<path fill="#00796B" d="M89.37,52.04c-2.036-0.056-3.591,0.134-4.921,0.693c-0.377,0.16-0.979,0.164-1.043,0.638
	c0.207,0.218,0.239,0.543,0.405,0.811c0.315,0.514,0.854,1.203,1.331,1.563c0.523,0.395,1.063,0.817,1.622,1.16
	c0.995,0.605,2.108,0.953,3.067,1.563c0.565,0.357,1.127,0.812,1.68,1.215c0.272,0.201,0.455,0.512,0.811,0.638
	c0-0.021,0-0.038,0-0.058c-0.187-0.236-0.236-0.563-0.406-0.813c-0.25-0.25-0.501-0.501-0.752-0.752
	c-0.734-0.977-1.672-1.835-2.663-2.547c-0.792-0.568-2.563-1.337-2.896-2.258c-0.02-0.02-0.038-0.037-0.06-0.059
	c0.562-0.063,1.219-0.268,1.736-0.405c0.871-0.233,1.647-0.172,2.546-0.405c0.405-0.116,0.811-0.23,1.215-0.348
	c0-0.076,0-0.154,0-0.23c-0.453-0.467-0.779-1.083-1.273-1.506c-1.298-1.104-2.713-2.207-4.168-3.127
	c-0.809-0.51-1.809-0.841-2.663-1.274c-0.288-0.146-0.794-0.221-0.983-0.462c-0.451-0.573-0.693-1.302-1.041-1.968
	c-0.728-1.398-1.443-2.928-2.085-4.399c-0.44-1.003-0.727-1.995-1.274-2.896c-2.629-4.322-5.46-6.932-9.842-9.496
	c-0.932-0.545-2.057-0.76-3.243-1.043c-0.638-0.038-1.274-0.077-1.912-0.117c-0.39-0.164-0.792-0.638-1.159-0.869
	c-1.453-0.918-5.178-2.914-6.253-0.29c-0.68,1.655,1.016,3.271,1.622,4.111c0.424,0.589,0.97,1.249,1.273,1.912
	c0.2,0.435,0.235,0.871,0.405,1.332c0.421,1.134,1.087,2.426,1.632,3.475c0.274,0.532,0.579,1.089,0.927,1.563
	c0.214,0.291,0.579,0.418,0.638,0.869c-0.357,0.5-0.377,1.276-0.578,1.912c-0.905,2.854-0.563,6.4,0.752,8.51
	c0.403,0.648,1.355,2.039,2.663,1.505c1.144-0.466,0.89-1.91,1.215-3.185c0.073-0.289,0.028-0.5,0.174-0.693c0,0.02,0,0.038,0,0.059
	c0.348,0.693,0.693,1.391,1.043,2.084c0.772,1.243,2.142,2.541,3.3,3.417c0.6,0.454,1.074,1.241,1.853,1.505c0-0.02,0-0.037,0-0.059
	c-0.021,0-0.038,0-0.06,0c-0.15-0.235-0.387-0.332-0.578-0.521c-0.453-0.445-0.959-0.996-1.332-1.506
	c-1.055-1.432-1.987-3-2.837-4.632c-0.405-0.78-0.759-1.638-1.101-2.432c-0.132-0.306-0.13-0.769-0.404-0.926
	c-0.375,0.581-0.925,1.051-1.215,1.736c-0.463,1.096-0.523,2.436-0.693,3.82c-0.104,0.036-0.058,0.012-0.117,0.057
	c-0.806-0.195-1.09-1.023-1.391-1.736c-0.758-1.801-0.898-4.702-0.23-6.774c0.172-0.537,0.951-2.226,0.638-2.722
	c-0.15-0.496-0.647-0.783-0.925-1.16c-0.346-0.466-0.688-1.083-0.926-1.622c-0.621-1.405-1.209-3.038-1.863-4.458
	c-0.313-0.68-0.84-1.365-1.274-1.968c-0.479-0.667-1.019-1.16-1.391-1.967c-0.132-0.287-0.312-0.747-0.116-1.043
	c0.063-0.2,0.15-0.283,0.348-0.348c0.336-0.261,1.27,0.085,1.621,0.231c0.93,0.385,1.703,0.752,2.49,1.274
	c0.377,0.251,0.758,0.735,1.215,0.87c0.174,0,0.348,0,0.521,0c0.815,0.188,1.729,0.059,2.488,0.29
	c1.348,0.409,2.553,1.045,3.646,1.736c3.339,2.108,6.067,5.107,7.934,8.687c0.301,0.577,0.432,1.126,0.693,1.736
	c0.533,1.232,1.207,2.501,1.736,3.706c0.529,1.203,1.047,2.416,1.797,3.417c0.395,0.526,1.916,0.808,2.605,1.101
	c0.483,0.206,1.277,0.417,1.736,0.693c0.877,0.529,1.727,1.16,2.546,1.736C88.045,50.882,89.307,51.517,89.37,52.04z"/>
<path fill="#00796B" d="M64.398,30.326c-0.629-0.01-1.074,0.056-1.545,0.144c0,0.024,0,0.046,0,0.073c0.029,0,0.057,0,0.088,0
	c0.302,0.511,0.828,0.845,1.199,1.286c0.287,0.499,0.57,0.998,0.857,1.497c0.029-0.024,0.055-0.046,0.084-0.071
	c0.529-0.312,0.775-0.808,0.771-1.57c-0.213-0.188-0.245-0.421-0.43-0.643C65.179,30.742,64.705,30.574,64.398,30.326z"/>
</svg>
