<?xml version="1.0" encoding="utf-8"?>
<!-- Generator: Adobe Illustrator 16.0.0, SVG Export Plug-In . SVG Version: 6.00 Build 0)  -->
<!DOCTYPE svg PUBLIC "-//W3C//DTD SVG 1.1//EN" "http://www.w3.org/Graphics/SVG/1.1/DTD/svg11.dtd">
<svg version="1.1" id="Calque_1" xmlns="http://www.w3.org/2000/svg" xmlns:xlink="http://www.w3.org/1999/xlink" x="0px" y="0px"
	 width="100px" height="100px" viewBox="0 0.5 100 100" enable-background="new 0 0.5 100 100" xml:space="preserve">
<path fill="#DCD5F2" d="M50,71.492c-24.444,0-44.334-10.285-44.334-22.932c0-12.645,19.89-22.93,44.334-22.93
	c24.443,0,44.334,10.285,44.334,22.931S74.443,71.492,50,71.492z"/>
<path fill="#8B75A1" d="M50,27.094c23.273,0,42.934,9.832,42.934,21.466c0,11.633-19.66,21.467-42.934,21.467
	c-23.273,0-42.934-9.832-42.934-21.467S26.727,27.094,50,27.094z M50,24.027c-25.404,0-46,10.985-46,24.533
	c0,13.549,20.596,24.533,46,24.533c25.404,0,46-10.983,46-24.533C96,35.012,75.404,24.027,50,24.027z"/>
<path fill="#36404D" d="M33.622,43.627c1.754,0,3.274,0.596,4.06,1.593c0.563,0.715,0.719,1.628,0.46,2.719
	c-0.786,3.312-2.176,4.488-8.416,4.488H25.3l1.652-8.8H33.622z M33.622,40.694h-9.105l-3.852,20.535h2.934l1.162-5.867h4.966
	c6.451,0,9.959-1.223,11.271-6.744C42.126,43.874,38.38,40.694,33.622,40.694z M71.758,43.627c1.754,0,3.273,0.596,4.061,1.593
	c0.563,0.715,0.719,1.628,0.461,2.719c-0.786,3.312-2.178,4.488-8.416,4.488h-4.428l1.651-8.8H71.758z M71.758,40.694h-9.105
	L58.8,61.229h2.935l1.162-5.867h4.967c6.449,0,9.959-1.223,11.27-6.743C80.262,43.874,76.516,40.694,71.758,40.694z"/>
<path fill="#36404D" d="M57.514,41.892c-0.932-0.856-2.578-1.202-5.035-1.202h-5.234l1.277-5.667H45.64L41.5,54.857h2.878
	l2.383-11.333h0.485h5.236c2.578,0,3.1,0.439,3.104,0.439c0.054,0.085,0.164,0.549-0.022,1.507l-1.916,9.388h2.965l1.729-8.843
	C58.713,44.125,58.432,42.736,57.514,41.892z"/>
</svg>
