<?xml version="1.0" encoding="utf-8"?>
<!-- Generator: Adobe Illustrator 16.0.0, SVG Export Plug-In . SVG Version: 6.00 Build 0)  -->
<!DOCTYPE svg PUBLIC "-//W3C//DTD SVG 1.1//EN" "http://www.w3.org/Graphics/SVG/1.1/DTD/svg11.dtd">
<svg version="1.1" id="Calque_1" xmlns="http://www.w3.org/2000/svg" xmlns:xlink="http://www.w3.org/1999/xlink" x="0px" y="0px"
	 width="100px" height="100px" viewBox="-18 -18 100 100" enable-background="new -18 -18 100 100" xml:space="preserve">
<path fill="#68BD45" d="M60.671,0.676c-0.984,2.348-2.249,4.577-3.753,6.633C43.231-6.428,21.01-6.477,7.27,7.204
	C-6.47,20.886-6.519,43.116,7.166,56.856c0.24,0.246,0.483,0.476,0.732,0.716l1.297,1.142c14.826,12.497,36.963,10.596,49.448-4.221
	c4.778-5.672,7.644-12.714,8.174-20.119C67.773,25.432,65.146,14.123,60.671,0.676L60.671,0.676z M12.891,57.777
	c-1.048,1.289-2.933,1.483-4.227,0.439c-1.285-1.032-1.483-2.934-0.444-4.218c1.048-1.286,2.936-1.486,4.226-0.441
	c0.001,0,0.002,0,0.004,0.002C13.733,54.593,13.931,56.492,12.891,57.777z M60.525,47.264c-8.674,11.541-27.162,7.648-39.032,8.211
	c0,0-2.097,0.122-4.213,0.469c0,0,0.794-0.338,1.815-0.734c8.33-2.892,12.27-3.448,17.33-6.053
	c9.529-4.84,18.951-15.445,20.902-26.476c-3.626,10.607-14.633,19.728-24.636,23.421c-6.874,2.531-19.276,4.997-19.276,4.997
	l-0.502-0.268c-8.436-4.104-8.7-22.372,6.65-28.271c6.718-2.584,13.143-1.167,20.403-2.896c7.759-1.838,16.725-7.65,20.368-15.223
	c4.083,12.122,8.995,31.093,0.185,42.824L60.525,47.264z"/>
</svg>
