<?xml version="1.0" encoding="utf-8"?>
<!-- Generator: Adobe Illustrator 16.0.0, SVG Export Plug-In . SVG Version: 6.00 Build 0)  -->
<!DOCTYPE svg PUBLIC "-//W3C//DTD SVG 1.1//EN" "http://www.w3.org/Graphics/SVG/1.1/DTD/svg11.dtd">
<svg version="1.1" id="Calque_1" xmlns="http://www.w3.org/2000/svg" xmlns:xlink="http://www.w3.org/1999/xlink" x="0px" y="0px"
	 width="100px" height="100px" viewBox="0 0 100 100" enable-background="new 0 0 100 100" xml:space="preserve">
<path fill="#68BD45" d="M78.698,18.701c-0.983,2.348-2.249,4.577-3.753,6.633c-13.688-13.737-35.909-13.786-49.648-0.105
	c-13.74,13.682-13.789,35.912-0.104,49.651c0.24,0.246,0.483,0.477,0.732,0.717l1.297,1.142
	c14.826,12.497,36.964,10.597,49.448-4.221c4.778-5.673,7.645-12.715,8.174-20.119C85.801,43.458,83.174,32.148,78.698,18.701
	L78.698,18.701z M30.918,75.803c-1.048,1.289-2.933,1.482-4.227,0.438c-1.285-1.032-1.483-2.934-0.444-4.218
	c1.048-1.286,2.936-1.486,4.226-0.441c0.001,0,0.002,0,0.004,0.002C31.76,72.618,31.958,74.518,30.918,75.803z M78.553,65.289
	C69.879,76.83,51.39,72.938,39.52,73.5c0,0-2.097,0.123-4.213,0.469c0,0,0.794-0.338,1.815-0.733
	c8.33-2.892,12.27-3.448,17.33-6.053c9.529-4.841,18.951-15.445,20.902-26.476c-3.626,10.607-14.634,19.728-24.637,23.42
	c-6.874,2.531-19.276,4.998-19.276,4.998l-0.502-0.269c-8.436-4.104-8.7-22.372,6.65-28.271c6.718-2.584,13.144-1.167,20.403-2.896
	c7.759-1.838,16.726-7.65,20.368-15.223c4.083,12.122,8.995,31.093,0.186,42.824L78.553,65.289z"/>
<path fill="#F2FFF2" d="M30.918,75.803c-1.048,1.289-2.933,1.482-4.227,0.438c-1.285-1.032-1.483-2.934-0.444-4.218
	c1.048-1.286,2.936-1.486,4.226-0.441c0.001,0,0.002,0,0.004,0.002C31.76,72.618,31.958,74.518,30.918,75.803z"/>
<path fill="#F2FFF2" d="M78.553,65.289C69.879,76.83,51.39,72.938,39.52,73.5c0,0-2.097,0.123-4.213,0.469
	c0,0,0.794-0.338,1.815-0.733c8.33-2.892,12.27-3.448,17.33-6.053c9.529-4.841,18.951-15.445,20.902-26.476
	c-3.626,10.607-14.634,19.728-24.637,23.42c-6.874,2.531-19.276,4.998-19.276,4.998l-0.502-0.269
	c-8.436-4.104-8.7-22.372,6.65-28.271c6.718-2.584,13.144-1.167,20.403-2.896c7.759-1.838,16.726-7.65,20.368-15.223
	c4.083,12.122,8.995,31.093,0.186,42.824L78.553,65.289z"/>
</svg>
