<?xml version="1.0" encoding="utf-8"?>
<!-- Generator: Adobe Illustrator 16.0.0, SVG Export Plug-In . SVG Version: 6.00 Build 0)  -->
<!DOCTYPE svg PUBLIC "-//W3C//DTD SVG 1.1//EN" "http://www.w3.org/Graphics/SVG/1.1/DTD/svg11.dtd">
<svg version="1.1" id="Calque_1" xmlns="http://www.w3.org/2000/svg" xmlns:xlink="http://www.w3.org/1999/xlink" x="0px" y="0px"
	 width="100px" height="100px" viewBox="0 0 100 100" enable-background="new 0 0 100 100" xml:space="preserve">
<g>
	<path fill="#060606" d="M59.139,19.887c-0.54-2.267-1.276-4.501-1.069-6.888c0.104-1.199,0.326-2.32,1.773-2.512
		c1.501-0.199,2.681,0.339,3.146,1.856c0.429,1.399,0.757,2.835,1.042,4.271c0.199,1.013,0.61,1.86,1.383,2.694
		c0.726-1.643,0.938-3.299,1.749-4.749c0.443-0.795,0.974-1.476,1.775-1.836c1.053-0.471,2.21-0.736,3.202,0.096
		c0.998,0.836,0.563,1.873,0.042,2.739c-1.798,2.997-1.558,6.049-0.645,9.266c0.79,2.792,0.23,5.32-2.46,6.996
		c-1.593,0.99-2.092,2.538-2.118,4.293c-0.025,1.676,0.018,3.352-0.006,5.027c-0.018,1.365-0.446,2.575-1.212,3.744
		c-1.985,3.025-2.229,6.265-0.684,9.54c3.315,7.023,5.381,14.361,5.763,22.14c0.171,3.489,0.163,6.979-1.078,10.308
		c-1.508,4.043-5.715,4.797-8.46,1.543c-1.251-1.484-2.369-3.08-3.634-4.552c-3.897-4.543-8.266-5.382-13.632-2.678
		c-2.885,1.454-5.349,3.536-7.993,5.35c-1.596,1.095-3.175,2.266-5.226,2.346c-1.704,0.066-2.702-0.63-3.086-2.43
		c-0.45-2.105,0.304-4.135,0.068-6.372c-0.842,0.521-1.602,0.922-2.649,0.465c-2.131-0.928-2.489-1.957-1.024-3.795
		c0.542-0.679,1.164-1.296,1.747-1.943c1.868-2.068,2.367-4.432,1.502-7.079c-0.228-0.694-0.497-1.377-0.71-2.079
		c-0.748-2.462-0.618-4.819,1.262-6.74c4.759-4.862,6.142-10.905,6.415-17.427c0.255-6.09,0.867-12.17,0.375-18.274
		c-0.094-1.176-0.239-2.349-0.388-3.804c3.025,1.565,5.453,3.543,7.816,5.579c6.211,5.353,11.739,11.34,16.352,18.135
		c0.935,1.375,2.01,2.064,3.7,1.575c1.702-0.494,2.874-1.531,3.07-3.298c0.183-1.656,0.128-3.345-0.367-4.979
		c-0.241-0.798-0.606-1.671-1.39-1.85c-2.047-0.466-3.76-1.669-5.698-2.334c-1.177-0.403-2.374-0.009-3.554,0.276
		c-1.325,0.318-2.423-0.009-2.852-1.451c-0.394-1.319,0.543-1.95,1.476-2.523c1.159-0.713,2.519-0.846,4.118-1.255
		c-2.552-2.403-4.225-5.138-5.396-8.192c-0.395-1.025-0.623-2.059-0.429-3.139c0.212-1.178,1.22-1.545,2.17-1.836
		c1.005-0.306,1.626,0.368,2.133,1.127c1.101,1.645,1.563,3.717,3.315,4.922c0.124,0.071,0.248,0.144,0.372,0.216
		C59.146,20.213,59.142,20.05,59.139,19.887z M50.396,41.091c-0.54-0.266-0.839-1-1.605-0.823c-0.451-0.074-0.902-0.148-1.354-0.218
		c-0.708-0.545-1.492-0.365-2.269-0.241c-0.566-0.069-1.124-0.076-1.651,0.19c-2.452,0.76-4.804,1.661-5.976,4.23
		c-0.654,0.721-0.494,1.563-0.357,2.402c-0.107,0.469,0.037,0.867,0.348,1.216c0.036,0.883,0.575,1.473,1.176,2.028
		c2.1,2.134,4.614,2.423,7.366,1.661c2.585-0.36,4.701-1.358,5.568-4.069C52.93,44.57,52.569,42.72,50.396,41.091z M68.521,77.225
		c-0.066-1.092-0.112-2.364-0.228-3.631c-0.646-7.167-3.179-13.759-6.239-20.178c-1.729-3.624-3.743-7.087-5.957-10.439
		c-0.515-0.779-1.125-0.899-1.868-0.717c-1.138,0.279-0.147,0.966-0.173,1.437c-0.058,1.063,0.056,2.116-0.262,3.179
		c-1.843,6.174-10.836,8.752-15.956,4.551c-1.646-1.351-1.733-1.342-2.241,0.767c-0.828,3.442-1.651,6.889-2.396,10.349
		c-1.39,6.475-2.863,12.94-3.29,19.573c-0.095,1.485-0.629,3.488,0.824,4.286c1.666,0.91,3.086-0.72,4.395-1.701
		c2.514-1.887,4.825-4.046,7.654-5.498c5.97-3.064,11.457-2.156,16,2.779c1.402,1.525,2.669,3.183,3.902,4.851
		c0.813,1.098,1.772,1.521,3.102,1.306c1.361-0.221,1.596-1.341,1.859-2.341C68.374,83.052,68.179,80.204,68.521,77.225z
		 M29.595,67.98c0.57-2.796,1.057-5.124,1.51-7.46c0.071-0.373,0.166-0.892-0.21-1.11c-0.533-0.307-0.846,0.236-1.152,0.546
		C27.676,62.037,27.565,64.397,29.595,67.98z"/>
	<path fill="#FCFCFC" d="M68.521,77.225c-0.342,2.979-0.146,5.827-0.871,8.571c-0.263,1-0.498,2.122-1.86,2.341
		c-1.328,0.215-2.289-0.208-3.102-1.306c-1.233-1.667-2.498-3.325-3.9-4.851c-4.544-4.936-10.031-5.843-16.001-2.779
		c-2.83,1.453-5.14,3.611-7.654,5.498c-1.31,0.981-2.73,2.611-4.395,1.701c-1.454-0.798-0.919-2.801-0.824-4.286
		c0.426-6.633,1.899-13.1,3.29-19.573c0.744-3.46,1.567-6.906,2.396-10.349c0.508-2.108,0.595-2.119,2.241-0.767
		c5.12,4.201,14.114,1.623,15.956-4.551c0.317-1.063,0.203-2.116,0.261-3.179c0.027-0.469-0.964-1.158,0.175-1.437
		c0.742-0.182,1.352-0.062,1.867,0.717c2.214,3.353,4.229,6.817,5.956,10.439c3.062,6.418,5.595,13.011,6.241,20.178
		C68.408,74.86,68.454,76.133,68.521,77.225z"/>
	<path fill="#FD655D" d="M47.437,40.045c0.452,0.075,0.902,0.148,1.353,0.223c0.117,2.536,0.076,5.021-1.864,7.025
		c-0.183,0.189-0.105,0.63-0.149,0.954c-0.286,0.265-0.572,0.53-0.859,0.797c-2.383,0.454-4.744,1.099-7.209,0.833
		c-0.601-0.555-1.14-1.146-1.176-2.028c1.587,0.089,3.131,0.531,4.751,0.424c3.375-0.222,5.761-3.425,4.896-6.685
		C47.032,41.034,46.631,40.439,47.437,40.045z"/>
	<path fill="#FB8783" d="M37.541,44.229c1.171-2.569,3.523-3.47,5.976-4.229c0.134,0.438,0.202,0.911,0.416,1.306
		c0.728,1.346,0.561,2.595-0.509,3.611c-1.063,1.011-2.336,0.946-3.667,0.429C38.974,45.041,38.562,44.027,37.541,44.229z
		 M40.32,43.75c0.595-0.23,1.358-0.435,1.557-1.253c0.128-0.531-0.299-0.715-0.74-0.587c-0.707,0.207-1.441,0.479-1.573,1.333
		C39.506,43.617,39.822,43.819,40.32,43.75z"/>
	<path fill="#FB7A75" d="M37.541,44.229c1.021-0.203,1.434,0.811,2.215,1.116c1.331,0.518,2.603,0.582,3.667-0.429
		c1.07-1.017,1.237-2.265,0.509-3.611c-0.213-0.395-0.281-0.868-0.416-1.306c0.526-0.267,1.085-0.26,1.65-0.191
		c0.021,0.132,0.01,0.28,0.067,0.394c0.971,1.938,1.242,3.781-0.509,5.495c-1.845,1.805-3.883,1.786-6.041,0.748
		c-0.588-0.282-1.024-0.061-1.5,0.186C37.046,45.792,36.886,44.95,37.541,44.229z"/>
	<path fill="#FE6F69" d="M37.185,46.632c0.476-0.246,0.913-0.468,1.5-0.186c2.158,1.038,4.194,1.057,6.041-0.748
		c1.751-1.714,1.481-3.556,0.509-5.495c-0.056-0.114-0.046-0.262-0.067-0.394c0.778-0.125,1.561-0.305,2.269,0.239
		c-0.806,0.392-0.404,0.986-0.258,1.54c0.865,3.259-1.521,6.462-4.896,6.685c-1.62,0.106-3.164-0.334-4.751-0.424
		C37.221,47.499,37.076,47.101,37.185,46.632z"/>
	<path fill="#F82602" d="M45.918,49.042c0.286-0.265,0.573-0.531,0.859-0.796c0.981-0.314,1.673-1.278,2.806-1.253
		c0.718,0.024,1.437,0.042,2.059,0.476c-0.865,2.71-2.982,3.709-5.567,4.068C45.06,50.767,45.665,49.893,45.918,49.042z"/>
	<path fill="#F7544B" d="M45.918,49.042c-0.253,0.851-0.859,1.725,0.156,2.494c-2.752,0.763-5.267,0.474-7.366-1.66
		C41.174,50.141,43.536,49.497,45.918,49.042z"/>
	<path fill="#FD5950" d="M49.583,46.994c-1.132-0.025-1.825,0.939-2.806,1.253c0.044-0.324-0.035-0.765,0.149-0.954
		c1.94-2.003,1.981-4.489,1.864-7.025c0.767-0.177,1.066,0.557,1.605,0.823C50.673,43.134,49.924,45.035,49.583,46.994z"/>
	<path fill="#F3483D" d="M49.583,46.994c0.342-1.958,1.089-3.859,0.813-5.903c2.172,1.629,2.534,3.479,1.246,6.377
		C51.02,47.035,50.3,47.017,49.583,46.994z"/>
	<path fill="#FEEEEE" d="M40.32,43.75c-0.498,0.069-0.814-0.133-0.756-0.508c0.131-0.855,0.866-1.126,1.573-1.333
		c0.44-0.127,0.868,0.056,0.74,0.587C41.678,43.315,40.914,43.521,40.32,43.75z"/>
</g>
</svg>
