<?xml version="1.0" encoding="utf-8"?>
<!-- Generator: Adobe Illustrator 16.0.0, SVG Export Plug-In . SVG Version: 6.00 Build 0)  -->
<!DOCTYPE svg PUBLIC "-//W3C//DTD SVG 1.1//EN" "http://www.w3.org/Graphics/SVG/1.1/DTD/svg11.dtd">
<svg version="1.1" id="Calque_1" xmlns="http://www.w3.org/2000/svg" xmlns:xlink="http://www.w3.org/1999/xlink" x="0px" y="0px"
	 width="100px" height="100px" viewBox="-18 -18 100 100" enable-background="new -18 -18 100 100" xml:space="preserve">
<linearGradient id="SVGID_1_" gradientUnits="userSpaceOnUse" x1="-174.8159" y1="79.8721" x2="-174.8159" y2="153.8027" gradientTransform="matrix(1.0152 0 0 -1.0152 209.4765 150.6124)">
	<stop  offset="0.18" style="stop-color:#0052CC"/>
	<stop  offset="1" style="stop-color:#2684FF"/>
</linearGradient>
<path fill="url(#SVGID_1_)" d="M60.171-5.532H3.88c-2.489,0-4.874,0.989-6.633,2.748C-4.514-1.022-5.503,1.372-5.5,3.863v56.281
	c0,5.184,4.202,9.38,9.38,9.38h56.291c5.157-0.022,9.329-4.212,9.329-9.38V3.874c0-5.163-4.172-9.352-9.329-9.38V-5.532z
	 M27.141,51.327c-0.022,2.47-2.031,4.454-4.501,4.454H8.785c-2.479,0.012-4.499-1.977-4.521-4.454V8.753
	c-0.011-2.486,1.999-4.505,4.485-4.51c0.01,0,0.026,0,0.036,0H22.64c2.486,0,4.501,2.014,4.501,4.5l0,0V51.327z M59.803,32.565
	c0,2.488-2.021,4.497-4.507,4.497H41.399c-2.485,0-4.494-2.009-4.494-4.497V8.753c-0.006-2.486,1.999-4.505,4.484-4.51
	c0.004,0,0.007,0,0.01,0h13.896c2.486,0,4.507,2.014,4.507,4.5V32.565z"/>
</svg>
