<?xml version="1.0" encoding="utf-8"?>
<!-- Generator: Adobe Illustrator 16.0.0, SVG Export Plug-In . SVG Version: 6.00 Build 0)  -->
<!DOCTYPE svg PUBLIC "-//W3C//DTD SVG 1.1//EN" "http://www.w3.org/Graphics/SVG/1.1/DTD/svg11.dtd">
<svg version="1.1" id="Layer_1" xmlns="http://www.w3.org/2000/svg" xmlns:xlink="http://www.w3.org/1999/xlink" x="0px" y="0px"
	 width="100px" height="100px" viewBox="150 95.5 100 100" enable-background="new 150 95.5 100 100" xml:space="preserve">
<g>
	<polygon fill="#FBBD16" points="202.681,165.099 202.681,147.565 206.042,166.501 211.514,169.229 215.031,153.487 
		215.031,170.709 221.208,173.748 221.208,144.683 211.827,140.241 208.856,154.111 205.859,137.383 196.531,132.916 
		196.531,162.008 	"/>
	<polygon fill="#452E7F" points="222.067,144.675 231.865,139.583 231.865,160.675 245.416,153.662 245.468,161.61 222.094,173.896 
			"/>
	<path fill="#962444" d="M218.117,114.027l-6.929,6.126c0,0,13.519,6.949,15.16,7.77c1.643,0.821,3.979,2.4,1.453,4.738
		s-5.306,2.021-7.201,1.074c-1.896-0.947-15.919-8.022-15.919-8.022l-7.137,6.064c0,0,13.77,7.012,16.044,8.212
		c2.274,1.201,10.738,4.169,18.761-2.084c8.022-6.253,6.886-8.528,6.886-8.97c0-0.442-0.189-2.78-1.579-4.232
		s-5.433-3.538-7.138-4.422C228.813,119.395,218.117,114.027,218.117,114.027z"/>
	<g>
		<path fill="#6D6E71" d="M245.178,149.609c0,1.026-0.807,1.833-1.855,1.833c-1.038,0-1.866-0.807-1.866-1.833
			c0-1.005,0.828-1.812,1.866-1.812C244.371,147.798,245.178,148.604,245.178,149.609z M241.92,149.609
			c0,0.806,0.597,1.446,1.413,1.446c0.796,0,1.381-0.641,1.381-1.436c0-0.807-0.585-1.458-1.392-1.458
			C242.517,148.163,241.92,148.814,241.92,149.609z M243.035,150.559h-0.42v-1.811c0.166-0.033,0.397-0.056,0.696-0.056
			c0.342,0,0.497,0.056,0.629,0.133c0.1,0.077,0.177,0.221,0.177,0.397c0,0.198-0.154,0.354-0.375,0.42v0.021
			c0.177,0.066,0.275,0.198,0.331,0.442c0.055,0.275,0.088,0.386,0.132,0.452h-0.452c-0.056-0.066-0.089-0.231-0.144-0.441
			c-0.033-0.199-0.144-0.287-0.376-0.287h-0.198V150.559L243.035,150.559z M243.046,149.532h0.199c0.231,0,0.419-0.077,0.419-0.265
			c0-0.166-0.121-0.276-0.386-0.276c-0.11,0-0.188,0.011-0.232,0.022V149.532L243.046,149.532z"/>
	</g>
</g>
<g>
	<path fill="#4A2469" d="M166.401,134.396v4.3c0,0.488-0.013,0.83-0.039,1.027s-0.103,0.4-0.231,0.608s-0.296,0.366-0.506,0.473
		c-0.209,0.107-0.456,0.161-0.74,0.161c-0.314,0-0.592-0.063-0.833-0.19c-0.241-0.127-0.42-0.292-0.54-0.497
		c-0.119-0.204-0.189-0.419-0.211-0.646s-0.032-0.703-0.032-1.429v-3.807h1.371v4.824c0,0.281,0.013,0.46,0.037,0.539
		c0.025,0.078,0.075,0.117,0.15,0.117c0.086,0,0.141-0.043,0.167-0.129c0.024-0.086,0.037-0.29,0.037-0.61v-4.741H166.401z"/>
	<path fill="#4A2469" d="M170.929,134.396v6.433h-1.203l-0.713-2.924v2.924h-1.144v-6.433h1.148l0.767,2.897v-2.897H170.929z"/>
	<path fill="#4A2469" d="M173.787,134.396v6.433h-1.371v-6.433H173.787z"/>
	<path fill="#4A2469" d="M174.836,134.396h2.76v1.289h-1.132v1.217h1.008v1.226h-1.008v2.701h-1.628V134.396z"/>
	<path fill="#4A2469" d="M180.231,134.396v6.433h-1.371v-6.433H180.231z"/>
	<path fill="#4A2469" d="M181.716,134.396H184v1.289h-0.913v1.217h0.854v1.226h-0.854v1.412h1.003v1.289h-2.375V134.396z"/>
	<path fill="#4A2469" d="M185.423,134.396h1.027c0.663,0,1.111,0.037,1.344,0.111c0.234,0.075,0.412,0.196,0.533,0.366
		s0.197,0.358,0.229,0.566c0.03,0.208,0.045,0.617,0.045,1.226v2.253c0,0.578-0.022,0.963-0.067,1.158
		c-0.045,0.195-0.123,0.348-0.233,0.457c-0.111,0.11-0.248,0.187-0.411,0.231c-0.163,0.043-0.408,0.065-0.736,0.065h-1.731V134.396z
		 M186.794,135.494v4.236c0.199,0,0.321-0.048,0.367-0.145c0.045-0.097,0.069-0.36,0.069-0.79v-2.502
		c0-0.292-0.008-0.479-0.023-0.561c-0.015-0.082-0.05-0.143-0.104-0.181C187.047,135.514,186.944,135.494,186.794,135.494z"/>
	<path fill="#4A2469" d="M159.699,144.995v6.434h-1.198l-0.002-4.343l-0.475,4.343h-0.854l-0.502-4.248l-0.001,4.248h-1.199v-6.434
		h1.774c0.052,0.388,0.106,0.845,0.163,1.369l0.194,1.635l0.312-3.004H159.699z"/>
	<path fill="#4A2469" d="M164.388,148.765c0,0.646-0.013,1.104-0.038,1.372s-0.103,0.515-0.234,0.737
		c-0.131,0.222-0.309,0.393-0.533,0.512s-0.484,0.179-0.782,0.179c-0.282,0-0.536-0.056-0.761-0.169
		c-0.225-0.112-0.405-0.28-0.542-0.506c-0.137-0.226-0.218-0.47-0.244-0.735c-0.026-0.265-0.039-0.728-0.039-1.39v-1.101
		c0-0.646,0.013-1.104,0.037-1.372c0.025-0.27,0.103-0.515,0.235-0.737c0.131-0.223,0.309-0.394,0.533-0.512
		c0.224-0.12,0.484-0.179,0.782-0.179c0.282,0,0.536,0.057,0.761,0.169c0.225,0.113,0.406,0.282,0.542,0.507
		c0.137,0.225,0.218,0.47,0.244,0.734s0.039,0.729,0.039,1.391L164.388,148.765L164.388,148.765z M163.017,146.651
		c0-0.299-0.014-0.49-0.041-0.573c-0.027-0.083-0.083-0.125-0.168-0.125c-0.072,0-0.127,0.034-0.166,0.101
		c-0.038,0.068-0.057,0.267-0.057,0.598v3.002c0,0.373,0.013,0.604,0.038,0.69c0.025,0.088,0.083,0.132,0.175,0.132
		c0.094,0,0.154-0.051,0.18-0.151c0.025-0.101,0.039-0.34,0.039-0.719V146.651z"/>
	<path fill="#4A2469" d="M165.896,144.995h1.027c0.663,0,1.111,0.037,1.345,0.111c0.234,0.074,0.412,0.196,0.533,0.366
		c0.121,0.169,0.197,0.358,0.228,0.566s0.045,0.617,0.045,1.226v2.254c0,0.578-0.022,0.964-0.067,1.158
		c-0.044,0.195-0.122,0.347-0.233,0.457s-0.248,0.187-0.411,0.23c-0.163,0.043-0.409,0.065-0.737,0.065h-1.731V144.995z
		 M167.268,146.094v4.236c0.199,0,0.321-0.049,0.367-0.146s0.069-0.359,0.069-0.79v-2.501c0-0.292-0.007-0.479-0.023-0.562
		c-0.015-0.082-0.05-0.142-0.105-0.181C167.521,146.113,167.418,146.094,167.268,146.094z"/>
	<path fill="#4A2469" d="M170.585,144.995h2.773v1.289h-1.108v1.217h1.036v1.226h-1.036v1.412h1.218v1.29h-2.883V144.995z"/>
	<path fill="#4A2469" d="M176.135,144.995v5.145h1.083v1.289h-2.86v-6.434H176.135z"/>
	<path fill="#4A2469" d="M179.268,144.995v6.434h-1.371v-6.434H179.268z"/>
	<path fill="#4A2469" d="M183.879,144.995v6.434h-1.203l-0.713-2.925v2.925h-1.144v-6.434h1.149l0.768,2.896v-2.896H183.879z"/>
	<path fill="#4A2469" d="M188.579,147.365h-1.371v-0.583c0-0.368-0.014-0.598-0.04-0.69c-0.026-0.092-0.087-0.139-0.185-0.139
		c-0.084,0-0.141,0.04-0.171,0.119c-0.03,0.079-0.045,0.283-0.045,0.611v3.085c0,0.288,0.015,0.479,0.045,0.569
		c0.031,0.092,0.091,0.138,0.182,0.138c0.099,0,0.166-0.052,0.201-0.155c0.036-0.104,0.053-0.304,0.053-0.604v-0.763h-0.272v-0.977
		h1.603v3.451h-0.865l-0.127-0.461c-0.093,0.199-0.211,0.348-0.353,0.447c-0.142,0.1-0.309,0.149-0.502,0.149
		c-0.229,0-0.445-0.067-0.646-0.205c-0.2-0.136-0.353-0.305-0.456-0.506c-0.104-0.201-0.169-0.412-0.195-0.633
		c-0.026-0.222-0.039-0.554-0.039-0.996v-1.91c0-0.614,0.027-1.061,0.081-1.339s0.21-0.533,0.467-0.765s0.589-0.348,0.998-0.348
		c0.401,0,0.734,0.101,0.999,0.302c0.265,0.202,0.437,0.44,0.517,0.717c0.081,0.277,0.121,0.679,0.121,1.205L188.579,147.365
		L188.579,147.365z"/>
	<path fill="#4A2469" d="M157.433,155.342v5.145h1.11v1.289h-2.933v-6.434H157.433z"/>
	<path fill="#4A2469" d="M162.134,155.27l0.787,6.434h-1.402l-0.073-1.158h-0.489l-0.08,1.158h-1.42l0.7-6.434H162.134z
		 M161.411,159.406c-0.068-0.729-0.138-1.629-0.208-2.703c-0.136,1.233-0.222,2.134-0.259,2.703H161.411z"/>
	<path fill="#4A2469" d="M167.092,155.342v6.434h-1.375l-0.814-2.925v2.925h-1.307v-6.434h1.312l0.877,2.896v-2.896H167.092z"/>
	<path fill="#4A2469" d="M171.739,157.712h-1.559v-0.583c0-0.367-0.015-0.598-0.044-0.69c-0.029-0.093-0.1-0.139-0.209-0.139
		c-0.096,0-0.161,0.04-0.195,0.119c-0.034,0.08-0.052,0.283-0.052,0.611v3.085c0,0.288,0.017,0.479,0.052,0.569
		c0.034,0.092,0.103,0.138,0.206,0.138c0.112,0,0.189-0.052,0.229-0.154c0.041-0.104,0.061-0.305,0.061-0.604v-0.762h-0.31v-0.977
		h1.822v3.45h-0.983l-0.145-0.461c-0.106,0.199-0.24,0.349-0.4,0.447c-0.162,0.101-0.352,0.15-0.571,0.15
		c-0.261,0-0.505-0.068-0.733-0.205s-0.401-0.305-0.519-0.507c-0.119-0.201-0.192-0.412-0.222-0.633
		c-0.03-0.222-0.044-0.554-0.044-0.995v-1.911c0-0.614,0.031-1.061,0.092-1.339c0.062-0.277,0.239-0.532,0.531-0.765
		c0.292-0.231,0.67-0.348,1.134-0.348c0.457,0,0.835,0.101,1.136,0.303c0.301,0.2,0.497,0.439,0.588,0.716s0.137,0.679,0.137,1.205
		L171.739,157.712L171.739,157.712z"/>
	<path fill="#4A2469" d="M176.187,155.342v4.301c0,0.487-0.015,0.83-0.043,1.027s-0.112,0.399-0.252,0.607
		c-0.14,0.208-0.324,0.366-0.552,0.473c-0.229,0.108-0.499,0.162-0.809,0.162c-0.343,0-0.647-0.063-0.91-0.191
		c-0.264-0.127-0.46-0.293-0.59-0.497c-0.13-0.203-0.208-0.418-0.231-0.646c-0.023-0.227-0.035-0.703-0.035-1.429v-3.808h1.499
		v4.824c0,0.281,0.013,0.461,0.041,0.538c0.027,0.079,0.082,0.118,0.164,0.118c0.094,0,0.154-0.043,0.181-0.13
		c0.027-0.085,0.041-0.289,0.041-0.609v-4.741H176.187L176.187,155.342z"/>
	<path fill="#4A2469" d="M179.742,155.342l0.787,6.434h-1.402l-0.073-1.157h-0.489l-0.08,1.157h-1.42l0.7-6.434H179.742z
		 M179.019,159.479c-0.068-0.728-0.138-1.629-0.208-2.703c-0.136,1.233-0.223,2.134-0.259,2.703H179.019z"/>
	<path fill="#4A2469" d="M184.859,157.712h-1.528v-0.583c0-0.367-0.014-0.598-0.043-0.69s-0.097-0.139-0.206-0.139
		c-0.093,0-0.157,0.04-0.191,0.119c-0.034,0.08-0.05,0.283-0.05,0.611v3.085c0,0.288,0.017,0.479,0.05,0.569
		c0.033,0.092,0.101,0.138,0.202,0.138c0.11,0,0.185-0.052,0.225-0.154c0.04-0.104,0.06-0.305,0.06-0.604v-0.762h-0.303v-0.977
		h1.785v3.45h-0.963l-0.142-0.461c-0.104,0.199-0.235,0.349-0.393,0.447c-0.158,0.101-0.344,0.15-0.559,0.15
		c-0.256,0-0.496-0.068-0.719-0.205c-0.224-0.137-0.394-0.305-0.509-0.507c-0.116-0.201-0.188-0.412-0.217-0.633
		c-0.029-0.222-0.043-0.554-0.043-0.995v-1.911c0-0.614,0.03-1.061,0.091-1.339c0.06-0.277,0.233-0.532,0.52-0.765
		c0.287-0.231,0.657-0.348,1.111-0.348c0.447,0,0.818,0.101,1.113,0.303c0.295,0.2,0.487,0.439,0.576,0.716
		c0.09,0.276,0.134,0.679,0.134,1.205L184.859,157.712L184.859,157.712z"/>
	<path fill="#4A2469" d="M185.83,155.342h2.772v1.289h-1.108v1.218h1.037v1.226h-1.037v1.412h1.218v1.289h-2.883V155.342z"/>
	<g>
		<path fill="#4A2469" d="M190.771,159.659h-0.752v-0.271h1.83v0.271h-0.755v2.199h-0.323V159.659L190.771,159.659z"/>
		<path fill="#4A2469" d="M194.208,160.773c-0.019-0.345-0.041-0.759-0.037-1.066h-0.011c-0.084,0.289-0.187,0.598-0.312,0.938
			l-0.436,1.199h-0.242l-0.4-1.177c-0.117-0.349-0.216-0.668-0.286-0.961h-0.007c-0.007,0.308-0.025,0.722-0.048,1.093l-0.066,1.059
			h-0.304l0.172-2.471h0.407l0.422,1.195c0.103,0.304,0.187,0.575,0.249,0.832h0.011c0.063-0.249,0.15-0.521,0.261-0.832l0.44-1.195
			h0.407l0.154,2.471h-0.312L194.208,160.773z"/>
	</g>
</g>
</svg>
