<?xml version="1.0" encoding="utf-8"?>
<!-- Generator: Adobe Illustrator 16.0.0, SVG Export Plug-In . SVG Version: 6.00 Build 0)  -->
<!DOCTYPE svg PUBLIC "-//W3C//DTD SVG 1.1//EN" "http://www.w3.org/Graphics/SVG/1.1/DTD/svg11.dtd">
<svg version="1.1" id="Layer_1" xmlns="http://www.w3.org/2000/svg" xmlns:xlink="http://www.w3.org/1999/xlink" x="0px" y="0px"
	 width="100px" height="100px" viewBox="150 95.5 100 100" enable-background="new 150 95.5 100 100" xml:space="preserve">
<g>
	<polygon fill="#FBBD16" points="176.438,166.473 176.438,143.922 180.761,168.277 187.801,171.78 192.324,151.537 192.324,173.683 
		200.267,177.591 200.267,140.211 188.202,134.499 184.383,152.34 180.527,130.824 168.529,125.078 168.529,162.496 	"/>
	<polygon fill="#452E7F" points="201.37,140.202 213.975,133.653 213.975,160.779 231.403,151.762 231.472,161.982 201.408,177.784 
			"/>
	<path fill="#962444" d="M196.29,100.784l-8.91,7.88c0,0,17.385,8.935,19.496,9.991c2.116,1.056,5.122,3.087,1.87,6.093
		c-3.248,3.005-6.821,2.601-9.261,1.382c-2.435-1.218-20.472-10.317-20.472-10.317l-9.18,7.798c0,0,17.71,9.018,20.637,10.562
		c2.922,1.544,13.811,5.363,24.127-2.68s8.856-10.968,8.856-11.537c0-0.569-0.243-3.575-2.031-5.444s-6.988-4.549-9.18-5.687
		C210.051,107.689,196.29,100.784,196.29,100.784z"/>
	<g>
		<path fill="#6D6E71" d="M231.098,146.55c0,1.317-1.038,2.355-2.387,2.355c-1.337,0-2.401-1.038-2.401-2.355
			c0-1.295,1.064-2.328,2.401-2.328C230.06,144.222,231.098,145.255,231.098,146.55z M226.906,146.55
			c0,1.032,0.767,1.857,1.817,1.857c1.023,0,1.776-0.825,1.776-1.845c0-1.038-0.753-1.875-1.789-1.875
			C227.673,144.688,226.906,145.524,226.906,146.55z M228.34,147.771h-0.538v-2.331c0.214-0.043,0.513-0.069,0.896-0.069
			c0.435,0,0.636,0.069,0.804,0.169c0.131,0.104,0.228,0.284,0.228,0.512c0,0.253-0.196,0.456-0.481,0.538v0.032
			c0.229,0.084,0.357,0.254,0.429,0.565c0.07,0.356,0.11,0.499,0.169,0.584h-0.584c-0.071-0.085-0.111-0.299-0.183-0.571
			c-0.044-0.254-0.188-0.37-0.485-0.37h-0.254V147.771L228.34,147.771z M228.354,146.446h0.254c0.299,0,0.543-0.098,0.543-0.337
			c0-0.213-0.155-0.355-0.498-0.355c-0.144,0-0.24,0.012-0.299,0.026V146.446L228.354,146.446z"/>
	</g>
</g>
<g>
	<path fill="#4A2469" d="M160.062,184.749v3.728c0,0.422-0.012,0.719-0.034,0.89c-0.022,0.172-0.09,0.347-0.2,0.526
		c-0.111,0.182-0.258,0.318-0.439,0.41c-0.181,0.094-0.395,0.14-0.641,0.14c-0.272,0-0.513-0.054-0.722-0.165
		c-0.21-0.109-0.365-0.254-0.469-0.431c-0.103-0.177-0.165-0.363-0.184-0.56s-0.027-0.609-0.027-1.238v-3.3h1.188v4.182
		c0,0.242,0.012,0.398,0.032,0.466c0.021,0.068,0.065,0.102,0.131,0.102c0.074,0,0.123-0.037,0.145-0.111
		c0.021-0.074,0.031-0.252,0.031-0.528v-4.109H160.062z"/>
	<path fill="#4A2469" d="M163.985,184.749v5.576h-1.043l-0.617-2.535v2.535h-0.992v-5.576h0.996l0.665,2.511v-2.511H163.985z"/>
	<path fill="#4A2469" d="M166.463,184.749v5.576h-1.188v-5.576H166.463z"/>
	<path fill="#4A2469" d="M167.372,184.749h2.392v1.117h-0.98v1.055h0.873v1.063h-0.873v2.342h-1.411V184.749z"/>
	<path fill="#4A2469" d="M172.049,184.749v5.576h-1.188v-5.576H172.049z"/>
	<path fill="#4A2469" d="M173.336,184.749h1.979v1.117h-0.792v1.055h0.741v1.063h-0.741v1.224h0.87v1.117h-2.058V184.749z"/>
	<path fill="#4A2469" d="M176.548,184.749h0.89c0.575,0,0.964,0.031,1.167,0.096c0.202,0.064,0.355,0.171,0.461,0.317
		s0.171,0.311,0.197,0.491c0.026,0.18,0.04,0.534,0.04,1.062v1.953c0,0.501-0.02,0.835-0.059,1.004
		c-0.038,0.17-0.106,0.302-0.201,0.396c-0.097,0.095-0.216,0.161-0.356,0.199s-0.354,0.058-0.639,0.058h-1.5V184.749z
		 M177.736,185.7v3.673c0.172,0,0.278-0.042,0.318-0.126c0.039-0.084,0.06-0.313,0.06-0.685v-2.169c0-0.253-0.006-0.414-0.021-0.485
		c-0.013-0.071-0.043-0.124-0.091-0.157C177.957,185.718,177.866,185.7,177.736,185.7z"/>
	<path fill="#4A2469" d="M186.217,184.807v5.575h-1.039l-0.002-3.764l-0.411,3.764h-0.739l-0.436-3.682l-0.002,3.682h-1.039v-5.575
		h1.538c0.046,0.335,0.092,0.731,0.141,1.186l0.17,1.418l0.27-2.604H186.217z"/>
	<path fill="#4A2469" d="M190.281,188.073c0,0.559-0.012,0.956-0.033,1.19c-0.021,0.231-0.089,0.444-0.203,0.639
		c-0.113,0.191-0.268,0.34-0.461,0.443c-0.195,0.104-0.421,0.154-0.678,0.154c-0.245,0-0.465-0.048-0.66-0.146
		c-0.194-0.099-0.352-0.244-0.47-0.438c-0.118-0.195-0.19-0.408-0.212-0.638c-0.022-0.23-0.034-0.632-0.034-1.205v-0.955
		c0-0.559,0.011-0.956,0.033-1.188c0.021-0.233,0.088-0.446,0.202-0.639c0.114-0.193,0.269-0.34,0.462-0.442
		c0.194-0.106,0.42-0.157,0.678-0.157c0.245,0,0.465,0.05,0.66,0.147c0.194,0.098,0.352,0.244,0.47,0.438
		c0.118,0.196,0.189,0.407,0.211,0.639c0.023,0.229,0.034,0.63,0.034,1.203L190.281,188.073L190.281,188.073z M189.093,186.242
		c0-0.261-0.012-0.425-0.035-0.498c-0.025-0.071-0.072-0.107-0.146-0.107c-0.063,0-0.109,0.028-0.143,0.087
		c-0.034,0.058-0.051,0.23-0.051,0.519v2.602c0,0.322,0.012,0.522,0.033,0.598c0.021,0.076,0.072,0.114,0.151,0.114
		c0.081,0,0.134-0.044,0.156-0.132c0.022-0.085,0.034-0.293,0.034-0.621V186.242z"/>
	<path fill="#4A2469" d="M191.588,184.807h0.891c0.574,0,0.963,0.032,1.165,0.095c0.203,0.064,0.356,0.171,0.462,0.319
		c0.105,0.146,0.171,0.31,0.197,0.489c0.027,0.182,0.04,0.536,0.04,1.063v1.953c0,0.501-0.02,0.836-0.059,1.004
		c-0.038,0.17-0.105,0.3-0.2,0.396c-0.098,0.095-0.216,0.162-0.356,0.2c-0.142,0.037-0.354,0.056-0.639,0.056h-1.501V184.807z
		 M192.777,185.758v3.672c0.172,0,0.277-0.042,0.317-0.127c0.04-0.083,0.06-0.311,0.06-0.684v-2.169c0-0.251-0.006-0.414-0.02-0.484
		c-0.013-0.072-0.043-0.124-0.092-0.158C192.997,185.775,192.907,185.758,192.777,185.758z"/>
	<path fill="#4A2469" d="M195.651,184.807h2.404v1.117h-0.961v1.055h0.898v1.063h-0.898v1.223h1.056v1.118h-2.499V184.807z"/>
	<path fill="#4A2469" d="M200.462,184.807v4.458h0.939v1.117h-2.479v-5.575H200.462z"/>
	<path fill="#4A2469" d="M203.177,184.807v5.575h-1.188v-5.575H203.177z"/>
	<path fill="#4A2469" d="M207.175,184.807v5.575h-1.044l-0.616-2.534v2.534h-0.992v-5.575h0.995l0.665,2.511v-2.511H207.175z"/>
	<path fill="#4A2469" d="M211.249,186.86h-1.189v-0.506c0-0.318-0.013-0.518-0.034-0.598c-0.022-0.079-0.076-0.12-0.16-0.12
		c-0.073,0-0.123,0.033-0.149,0.103s-0.038,0.245-0.038,0.53v2.674c0,0.251,0.012,0.415,0.038,0.493
		c0.026,0.079,0.079,0.121,0.158,0.121c0.084,0,0.144-0.047,0.175-0.135c0.03-0.091,0.045-0.265,0.045-0.525v-0.66h-0.236v-0.846
		h1.39v2.99h-0.748l-0.112-0.398c-0.081,0.172-0.182,0.301-0.306,0.386c-0.123,0.088-0.268,0.131-0.435,0.131
		c-0.199,0-0.387-0.058-0.56-0.177c-0.174-0.118-0.306-0.266-0.396-0.439c-0.09-0.176-0.146-0.357-0.169-0.548
		c-0.022-0.193-0.034-0.48-0.034-0.863v-1.657c0-0.532,0.022-0.918,0.071-1.16c0.046-0.241,0.182-0.461,0.405-0.662
		c0.222-0.201,0.509-0.302,0.863-0.302c0.349,0,0.637,0.087,0.866,0.261c0.229,0.176,0.379,0.382,0.447,0.623
		c0.069,0.239,0.105,0.587,0.105,1.045v0.24H211.249z"/>
	<path fill="#4A2469" d="M215.543,184.807v4.457h0.962v1.118h-2.542v-5.575H215.543z"/>
	<path fill="#4A2469" d="M219.617,184.743l0.683,5.577h-1.216l-0.063-1.005h-0.424l-0.07,1.005h-1.23l0.606-5.577H219.617z
		 M218.991,188.328c-0.06-0.631-0.12-1.412-0.182-2.344c-0.117,1.07-0.191,1.85-0.224,2.344H218.991z"/>
	<path fill="#4A2469" d="M223.915,184.807v5.575h-1.191l-0.705-2.535v2.535h-1.133v-5.575h1.137l0.76,2.511v-2.511H223.915z"/>
	<path fill="#4A2469" d="M227.943,186.86h-1.352v-0.506c0-0.318-0.013-0.519-0.038-0.598c-0.025-0.081-0.086-0.121-0.182-0.121
		c-0.084,0-0.14,0.035-0.17,0.103c-0.029,0.069-0.045,0.246-0.045,0.53v2.674c0,0.25,0.015,0.415,0.045,0.494
		c0.029,0.079,0.089,0.119,0.178,0.119c0.099,0,0.164-0.045,0.199-0.134c0.035-0.09,0.053-0.265,0.053-0.522v-0.662h-0.269v-0.846
		h1.58v2.99h-0.853l-0.126-0.4c-0.093,0.172-0.207,0.303-0.347,0.39c-0.14,0.086-0.306,0.129-0.496,0.129
		c-0.226,0-0.438-0.059-0.636-0.179c-0.196-0.117-0.347-0.263-0.449-0.438c-0.103-0.174-0.166-0.358-0.191-0.55
		c-0.026-0.191-0.039-0.479-0.039-0.861v-1.655c0-0.534,0.026-0.921,0.079-1.161c0.054-0.241,0.207-0.463,0.461-0.664
		c0.254-0.2,0.581-0.3,0.983-0.3c0.395,0,0.724,0.086,0.984,0.262c0.261,0.174,0.431,0.382,0.51,0.621s0.119,0.587,0.119,1.043
		V186.86L227.943,186.86z"/>
	<path fill="#4A2469" d="M231.798,184.807v3.727c0,0.422-0.012,0.72-0.037,0.89c-0.025,0.172-0.098,0.348-0.219,0.526
		c-0.121,0.182-0.281,0.319-0.479,0.411c-0.199,0.093-0.432,0.14-0.7,0.14c-0.299,0-0.562-0.055-0.79-0.165
		c-0.229-0.111-0.398-0.253-0.512-0.431c-0.112-0.176-0.179-0.362-0.2-0.561c-0.021-0.196-0.03-0.607-0.03-1.237v-3.3h1.299v4.181
		c0,0.242,0.012,0.397,0.035,0.466s0.07,0.103,0.142,0.103c0.082,0,0.134-0.037,0.157-0.111s0.035-0.252,0.035-0.529v-4.108H231.798
		L231.798,184.807z"/>
	<path fill="#4A2469" d="M234.88,184.807l0.682,5.575h-1.216l-0.063-1.003h-0.424l-0.069,1.003h-1.23l0.606-5.575H234.88z
		 M234.253,188.392c-0.061-0.632-0.12-1.411-0.182-2.343c-0.118,1.068-0.193,1.849-0.225,2.343H234.253z"/>
	<path fill="#4A2469" d="M239.314,186.86h-1.324v-0.506c0-0.318-0.013-0.519-0.037-0.598c-0.024-0.081-0.084-0.121-0.179-0.121
		c-0.081,0-0.136,0.035-0.165,0.103c-0.028,0.069-0.044,0.246-0.044,0.53v2.674c0,0.25,0.016,0.415,0.044,0.494
		s0.086,0.119,0.175,0.119c0.096,0,0.16-0.045,0.194-0.134c0.034-0.09,0.052-0.265,0.052-0.522v-0.662h-0.263v-0.846h1.547v2.99
		h-0.835l-0.123-0.4c-0.089,0.172-0.203,0.303-0.34,0.39c-0.137,0.086-0.299,0.129-0.485,0.129c-0.221,0-0.43-0.059-0.623-0.179
		c-0.193-0.117-0.341-0.263-0.44-0.438c-0.101-0.174-0.163-0.358-0.189-0.55c-0.024-0.191-0.037-0.479-0.037-0.861v-1.655
		c0-0.534,0.026-0.921,0.079-1.161c0.052-0.241,0.203-0.463,0.45-0.664c0.249-0.2,0.57-0.3,0.964-0.3
		c0.388,0,0.709,0.086,0.965,0.262c0.256,0.174,0.422,0.382,0.5,0.621c0.077,0.239,0.116,0.587,0.116,1.043L239.314,186.86
		L239.314,186.86z"/>
	<path fill="#4A2469" d="M240.155,184.807h2.403v1.116h-0.96v1.054h0.898v1.063h-0.898v1.224h1.056v1.118h-2.499V184.807z"/>
	<g>
		<path fill="#4A2469" d="M239.351,182.145h-0.652v-0.234h1.588v0.234h-0.656v1.908h-0.279V182.145L239.351,182.145z"/>
		<path fill="#4A2469" d="M242.329,183.111c-0.017-0.298-0.035-0.657-0.031-0.925h-0.011c-0.072,0.251-0.161,0.517-0.269,0.813
			l-0.379,1.039h-0.21l-0.347-1.02c-0.101-0.302-0.188-0.578-0.248-0.833h-0.006c-0.006,0.268-0.021,0.627-0.041,0.947l-0.058,0.919
			h-0.263l0.148-2.143h0.353l0.366,1.035c0.088,0.265,0.162,0.499,0.215,0.723h0.011c0.054-0.216,0.13-0.452,0.226-0.723
			l0.381-1.035h0.353l0.135,2.143h-0.271L242.329,183.111z"/>
	</g>
</g>
</svg>
