<?xml version="1.0" encoding="utf-8"?>
<!-- Generator: Adobe Illustrator 16.0.0, SVG Export Plug-In . SVG Version: 6.00 Build 0)  -->
<!DOCTYPE svg PUBLIC "-//W3C//DTD SVG 1.1//EN" "http://www.w3.org/Graphics/SVG/1.1/DTD/svg11.dtd">
<svg version="1.1" id="Calque_1" xmlns="http://www.w3.org/2000/svg" xmlns:xlink="http://www.w3.org/1999/xlink" x="0px" y="0px"
	 width="100px" height="100px" viewBox="0 0 100 100" enable-background="new 0 0 100 100" xml:space="preserve">
<g>
	<path fill="#2489CA" d="M15.295,39.41c0,0-1.724-1.242,0.344-2.901l4.818-4.309c0,0,1.379-1.449,2.836-0.186l44.463,33.664v16.141
		c0,0-0.021,2.536-3.274,2.256L15.295,39.41z"/>
	<path fill="#1070B3" d="M26.756,49.815l-11.46,10.419c0,0-1.177,0.876,0,2.44l5.32,4.84c0,0,1.264,1.356,3.131-0.188l12.15-9.211
		L26.756,49.815z"/>
	<path fill="#0877B9" d="M46.875,49.901l21.02-16.049l-0.137-16.057c0,0-0.897-3.504-3.892-1.68l-27.97,25.455L46.875,49.901z"/>
	<path fill="#3C99D4" d="M64.482,84.096c1.222,1.249,2.7,0.84,2.7,0.84l16.379-8.071c2.098-1.43,1.804-3.202,1.804-3.202V25.465
		c0-2.118-2.17-2.851-2.17-2.851L69,15.771c-3.103-1.917-5.135,0.345-5.135,0.345s2.613-1.881,3.892,1.68v63.729
		c0,0.438-0.095,0.869-0.28,1.257c-0.374,0.755-1.185,1.457-3.131,1.163L64.482,84.096z"/>
</g>
</svg>
