<?xml version="1.0" encoding="utf-8"?>
<!-- Generator: Adobe Illustrator 16.0.0, SVG Export Plug-In . SVG Version: 6.00 Build 0)  -->
<!DOCTYPE svg PUBLIC "-//W3C//DTD SVG 1.1//EN" "http://www.w3.org/Graphics/SVG/1.1/DTD/svg11.dtd">
<svg version="1.1" id="Calque_1" xmlns="http://www.w3.org/2000/svg" xmlns:xlink="http://www.w3.org/1999/xlink" x="0px" y="0px"
	 width="42px" height="32px" viewBox="0 0 42 32" enable-background="new 0 0 42 32" xml:space="preserve">
<path fill="#FFFFFF" d="M4.208,30.979c-0.917,0-1.701-0.326-2.354-0.979s-0.979-1.438-0.979-2.354V4.354
	c0-0.917,0.326-1.701,0.979-2.354s1.438-0.979,2.354-0.979h33.584c0.89,0,1.667,0.326,2.333,0.979s1,1.438,1,2.354v23.292
	c0,0.916-0.334,1.701-1,2.354s-1.443,0.979-2.333,0.979H4.208z M16.083,18.813c1.389,0,2.57-0.479,3.542-1.438
	c0.972-0.958,1.458-2.145,1.458-3.562c0-1.389-0.486-2.57-1.458-3.542s-2.153-1.458-3.542-1.458c-1.417,0-2.604,0.486-3.562,1.458
	s-1.438,2.153-1.438,3.542c0,1.417,0.479,2.604,1.438,3.562C13.479,18.334,14.667,18.813,16.083,18.813z M32.625,26.271l3.292-3.209
	l-2.459-3.334h-2.875c-0.194-0.582-0.347-1.166-0.458-1.75c-0.111-0.582-0.167-1.207-0.167-1.875c0-0.694,0.056-1.333,0.167-1.916
	s0.264-1.194,0.458-1.834h2.875l2.459-3.333l-3.292-3.208c-1.527,1.194-2.729,2.708-3.604,4.541c-0.877,1.833-1.313,3.75-1.313,5.75
	c0,1.974,0.438,3.863,1.313,5.667S31.098,25.076,32.625,26.271z M4.833,28.146h22.459c-1.25-1.945-2.854-3.494-4.813-4.646
	c-1.958-1.152-4.088-1.729-6.396-1.729c-2.333,0-4.493,0.576-6.479,1.729S6.028,26.201,4.833,28.146L4.833,28.146z"/>
</svg>
