<?xml version="1.0" encoding="utf-8"?>
<!-- Generator: Adobe Illustrator 16.0.0, SVG Export Plug-In . SVG Version: 6.00 Build 0)  -->
<!DOCTYPE svg PUBLIC "-//W3C//DTD SVG 1.1//EN" "http://www.w3.org/Graphics/SVG/1.1/DTD/svg11.dtd">
<svg version="1.1" id="Calque_1" xmlns="http://www.w3.org/2000/svg" xmlns:xlink="http://www.w3.org/1999/xlink" x="0px" y="0px"
	 width="50px" height="50px" viewBox="0 0 50 50" enable-background="new 0 0 50 50" xml:space="preserve">
<path fill="#53AAF9" d="M34.594,25.896c-4.361,0-7.901,3.532-7.901,7.903c0,1.214,0.282,2.357,0.771,3.386h-13.19
	c-0.624,0-1.128-0.507-1.128-1.13V21.847l11.29-11.291L39.44,25.564c0.442,0.442,1.157,0.442,1.602,0
	c0.439-0.443,0.439-1.156,0-1.599l-5.317-5.313v-7.434c0-0.625-0.505-1.129-1.131-1.129h-2.257c-0.621,0-1.129,0.505-1.129,1.129
	v2.919l-5.175-5.178c-0.883-0.882-2.312-0.882-3.195,0L7.831,23.965c-0.441,0.442-0.441,1.155,0,1.599
	c0.441,0.442,1.158,0.442,1.599,0l1.458-1.461v11.952c0,1.872,1.517,3.386,3.387,3.386h14.792c1.427,1.396,3.375,2.261,5.526,2.261
	c4.369,0,7.906-3.537,7.906-7.901C42.5,29.429,38.963,25.896,34.594,25.896z M38.782,33.466c-0.44,0.44-1.154,0.44-1.598,0
	l-1.461-1.459v6.307c0,0.624-0.505,1.128-1.131,1.128c-0.621,0-1.128-0.504-1.128-1.128v-6.307l-1.458,1.459
	c-0.44,0.44-1.155,0.443-1.596,0.003c-0.441-0.44-0.44-1.154,0-1.599l3.388-3.388c0.438-0.439,1.154-0.439,1.595,0l3.389,3.388
	C39.223,32.312,39.223,33.025,38.782,33.466z"/>
</svg>
