<?xml version="1.0" encoding="utf-8"?>
<!-- Generator: Adobe Illustrator 16.0.0, SVG Export Plug-In . SVG Version: 6.00 Build 0)  -->
<!DOCTYPE svg PUBLIC "-//W3C//DTD SVG 1.1//EN" "http://www.w3.org/Graphics/SVG/1.1/DTD/svg11.dtd">
<svg version="1.1" id="Calque_1" xmlns="http://www.w3.org/2000/svg" xmlns:xlink="http://www.w3.org/1999/xlink" x="0px" y="0px"
	 width="50px" height="50px" viewBox="-17 -17 50 50" enable-background="new -17 -17 50 50" xml:space="preserve">
<path fill="#FFFFFF" d="M17.844,9.5c-4.361,0-7.901,3.532-7.901,7.903c0,1.214,0.282,2.358,0.771,3.386H-2.476
	c-0.624,0-1.128-0.507-1.128-1.13V5.45L7.686-5.841L22.691,9.168c0.442,0.442,1.157,0.442,1.601,0c0.44-0.443,0.44-1.156,0-1.599
	l-5.317-5.313v-7.434c0-0.625-0.505-1.129-1.131-1.129h-2.257c-0.621,0-1.129,0.505-1.129,1.129v2.919L9.283-7.437
	c-0.883-0.882-2.312-0.882-3.195,0L-8.919,7.569c-0.441,0.442-0.441,1.155,0,1.599c0.441,0.442,1.158,0.442,1.599,0l1.458-1.461
	v11.952c0,1.872,1.517,3.386,3.387,3.386h14.793c1.426,1.396,3.375,2.26,5.526,2.26c4.369,0,7.906-3.537,7.906-7.901
	C25.75,13.032,22.213,9.5,17.844,9.5z M22.032,17.069c-0.44,0.441-1.154,0.441-1.597,0l-1.461-1.459v6.307
	c0,0.624-0.505,1.128-1.131,1.128c-0.621,0-1.128-0.504-1.128-1.128V15.61l-1.458,1.459c-0.44,0.441-1.155,0.443-1.596,0.003
	s-0.44-1.154,0-1.599l3.388-3.387c0.438-0.44,1.154-0.44,1.595,0l3.388,3.387C22.473,15.915,22.473,16.629,22.032,17.069z"/>
</svg>
